<?xml version="1.0" standalone="no"?>
<!DOCTYPE svg PUBLIC "-//W3C//DTD SVG 1.1//EN" "http://www.w3.org/Graphics/SVG/1.1/DTD/svg11.dtd" >
<svg xmlns="http://www.w3.org/2000/svg" xmlns:xlink="http://www.w3.org/1999/xlink" version="1.1">
<metadata>
Created by FontForge 20201107 at Wed Feb 12 09:54:03 2025
 By www-data
Rajesh Rajput
</metadata>
<defs>
<font id="Delight-Regular" horiz-adv-x="571" >
  <font-face 
    font-family="Delight"
    font-weight="400"
    font-stretch="normal"
    units-per-em="1000"
    panose-1="0 0 0 0 0 0 0 0 0 0"
    ascent="800"
    descent="-200"
    x-height="539"
    cap-height="715"
    bbox="-68 -284 1250 977"
    underline-thickness="50"
    underline-position="-75"
    unicode-range="U+000D-FB02"
  />
<missing-glyph horiz-adv-x="647" 
d="M43 715v-715h561v715h-561zM370 357l146 216v-432zM130 143v429l143 -215zM321 429l-141 210h281zM179 76l142 210l140 -210h-282z" />
    <glyph glyph-name="fi" unicode="fi" horiz-adv-x="617" 
d="M120 0h86v461h207v78h-207v40q0 28 7 47.5t22 32t38.5 18.5t57.5 6q21 0 41 -2t41 -7v78q-28 4 -51.5 6t-43.5 2q-50 0 -87 -11.5t-62 -34t-37 -56.5t-12 -80v-39h-100v-78h100v-461zM483 0h84v539h-84v-539zM479 618h92v110h-92v-110z" />
    <glyph glyph-name="fl" unicode="fl" horiz-adv-x="609" 
d="M120 0h86v461h207v78h-207v40q0 28 7 47.5t22 32t38.5 18.5t57.5 6q21 0 41 -2t41 -7v78q-28 4 -51.5 6t-43.5 2q-50 0 -87 -11.5t-62 -34t-37 -56.5t-12 -80v-39h-100v-78h100v-461zM479 0h84v735h-84v-735z" />
    <glyph glyph-name=".notdef" horiz-adv-x="647" 
d="M43 715v-715h561v715h-561zM370 357l146 216v-432zM130 143v429l143 -215zM321 429l-141 210h281zM179 76l142 210l140 -210h-282z" />
    <glyph glyph-name=".null" horiz-adv-x="0" 
 />
    <glyph glyph-name="uni000D" unicode="&#xd;" horiz-adv-x="150" 
 />
    <glyph glyph-name="space" unicode=" " horiz-adv-x="192" 
 />
    <glyph glyph-name="exclam" unicode="!" horiz-adv-x="238" 
d="M91 176h56l15 395v144h-86v-144zM64 0h110v108h-110v-108z" />
    <glyph glyph-name="quotedbl" unicode="&#x22;" horiz-adv-x="314" 
d="M59 401h58l15 314h-90zM199 401h58l15 314h-90z" />
    <glyph glyph-name="numbersign" unicode="#" horiz-adv-x="737" 
d="M411 0h84l89 715h-84l-24 -196l1 -28l-32 -254l-9 -36zM43 180h630v76h-630v-76zM154 0h85l24 197l1 46l30 248l9 28l24 196h-84zM65 461h630v76h-630v-76z" />
    <glyph glyph-name="dollar" unicode="$" horiz-adv-x="600" 
d="M268 685h60l15 155h-90zM249 -125h90l-15 158h-60zM16 247q3 -57 24.5 -104.5t60 -82t93 -53.5t121.5 -19q58 0 106.5 14.5t83.5 41.5t54.5 66t19.5 89q0 55 -22 90t-58 56.5t-82.5 33.5t-96.5 22q-38 8 -73.5 16.5t-63 22t-43.5 34t-16 52.5q0 27 11.5 49t32 38t49.5 25
t64 9q44 0 78.5 -12.5t59 -34.5t39 -51.5t18.5 -63.5h89q-4 51 -24 95.5t-56 77t-86.5 51t-115.5 18.5q-58 0 -104 -14.5t-78.5 -41.5t-50 -64.5t-17.5 -83.5q0 -54 22.5 -88t58.5 -55t81 -32.5t91 -20.5q42 -9 79.5 -18t64.5 -23t43 -36t16 -57q0 -29 -12 -52t-34 -39.5
t-54 -25t-72 -8.5q-46 0 -83.5 12t-64.5 35t-43 56.5t-20 75.5h-90z" />
    <glyph glyph-name="percent" unicode="%" horiz-adv-x="890" 
d="M42 543q0 -41 12 -75t34.5 -58t54 -37.5t70.5 -13.5t70.5 13.5t54 37.5t34.5 58t12 75t-12 75t-34.5 58t-54 37.5t-70.5 13.5t-70.5 -13.5t-54 -37.5t-34.5 -58t-12 -75zM114 543q0 27 6.5 49t19 37.5t31 24t42.5 8.5q23 0 41.5 -8.5t31.5 -24t19.5 -37.5t6.5 -49
t-6.5 -49t-19.5 -37.5t-31.5 -24t-41.5 -8.5q-24 0 -42.5 8.5t-31 24t-19 37.5t-6.5 49zM147 0h82l514 715h-82zM848 172q0 41 -12.5 75t-35 58t-54 37.5t-69.5 13.5q-39 0 -70.5 -13.5t-54 -37.5t-34.5 -58t-12 -75t12 -75t34.5 -58t54 -37.5t70.5 -13.5q38 0 69.5 13.5
t54 37.5t35 58t12.5 75zM776 172q0 -27 -7 -49t-19.5 -37.5t-31 -24t-41.5 -8.5q-24 0 -42.5 8.5t-31 24t-19 37.5t-6.5 49t6.5 49t19 37.5t31 24t42.5 8.5q23 0 41.5 -8.5t31 -24t19.5 -37.5t7 -49z" />
    <glyph glyph-name="ampersand" unicode="&#x26;" horiz-adv-x="752" 
d="M590 402q-7 -88 -38 -152t-76.5 -104.5t-98.5 -60t-104 -19.5q-32 0 -61.5 7.5t-52.5 23.5t-37 42t-14 62q0 25 8 44.5t27 36t51 32.5t79 35l36 14q29 12 62 27.5t61 38.5t46.5 55t18.5 77q0 41 -16 72t-42.5 52t-61.5 31.5t-74 10.5t-74 -11t-61.5 -33t-41.5 -53.5
t-15 -72.5q0 -18 4 -37t14.5 -39.5t29 -44t47.5 -51.5l277 -269q29 -28 56.5 -49.5t55.5 -36.5t57.5 -22.5t62.5 -7.5h19v80h-9q-25 0 -47.5 6t-45.5 19t-48 33t-54 49l-239 232q-27 26 -45.5 46.5t-29.5 37t-16 31t-5 30.5q0 20 8 37t22.5 29t34.5 18.5t45 6.5
q24 0 45 -6.5t36.5 -18.5t24 -29t8.5 -37q0 -27 -14.5 -49t-37.5 -40t-52 -32t-58 -24l-36 -13q-41 -15 -78 -32.5t-64.5 -42.5t-44 -58.5t-16.5 -80.5q0 -52 20.5 -90.5t55.5 -63.5t80.5 -37.5t96.5 -12.5q68 0 135.5 23t124 73t95 128.5t47.5 189.5h-83z" />
    <glyph glyph-name="quotesingle" unicode="'" horiz-adv-x="174" 
d="M59 401h58l15 314h-90z" />
    <glyph glyph-name="parenleft" unicode="(" horiz-adv-x="342" 
d="M324 -120q-100 105 -149 217.5t-49 234.5q0 121 49 233t149 217l-49 43q-119 -100 -178 -227.5t-59 -265.5q0 -139 59 -267t178 -228z" />
    <glyph glyph-name="parenright" unicode=")" horiz-adv-x="342" 
d="M18 -120l49 -43q119 100 178 228t59 267q0 138 -59 265.5t-178 227.5l-49 -43q100 -105 149 -217t49 -233q0 -122 -49 -234.5t-149 -217.5z" />
    <glyph glyph-name="asterisk" unicode="*" horiz-adv-x="407" 
d="M63 431l64 -47l76 126l76 -126l65 47l-96 110l143 34l-25 76l-136 -58l13 147h-80l13 -147l-135 58l-25 -76l143 -34z" />
    <glyph glyph-name="plus" unicode="+" horiz-adv-x="552" 
d="M42 312h192v-197h84v197h192v76h-192v197h-84v-197h-192v-76z" />
    <glyph glyph-name="comma" unicode="," horiz-adv-x="194" 
d="M5 -200h69l91 346h-98z" />
    <glyph glyph-name="hyphen" unicode="-" horiz-adv-x="432" 
d="M42 246h348v78h-348v-78z" />
    <glyph glyph-name="period" unicode="." horiz-adv-x="194" 
d="M42 0h110v108h-110v-108z" />
    <glyph glyph-name="slash" unicode="/" horiz-adv-x="353" 
d="M6 -109h93l248 861h-93z" />
    <glyph glyph-name="zero" unicode="0" horiz-adv-x="656" 
d="M30 357q0 -85 21 -153t59.5 -116t93.5 -74t123 -26q69 0 124 26t93.5 73.5t59.5 116t21 153.5t-21 153.5t-59.5 116.5t-93.5 74t-124 26q-68 0 -123 -26t-93.5 -74t-59.5 -116.5t-21 -153.5zM120 356q0 70 13.5 124t40 91t65 56.5t87.5 19.5q50 0 89 -19.5t65.5 -56.5
t40.5 -91t14 -124q0 -69 -14 -122.5t-40.5 -90t-65.5 -56t-89 -19.5t-88 19t-64.5 55.5t-40 90.5t-13.5 123z" />
    <glyph glyph-name="one" unicode="1" horiz-adv-x="384" 
d="M54 547h158v-547h86v728h-72q0 -32 -5 -52t-16.5 -32t-31 -16.5t-49.5 -4.5h-70v-76z" />
    <glyph glyph-name="two" unicode="2" horiz-adv-x="602" 
d="M37 60v-60h529v80h-453l14 -28v23q0 32 15.5 57t42 46.5t60.5 39.5t72 36q44 22 88.5 45.5t80 54.5t58 71t22.5 94q0 49 -18.5 87t-51.5 65t-79 41.5t-102 14.5q-64 0 -114 -18.5t-84.5 -52.5t-54 -81t-23.5 -103h90q7 81 53.5 128t130.5 47q38 0 68.5 -10t51.5 -27
t32 -41t11 -52q0 -34 -16 -60.5t-42.5 -48.5t-61.5 -40.5t-72 -36.5q-44 -22 -88.5 -45.5t-79.5 -55t-57 -73t-22 -97.5z" />
    <glyph glyph-name="three" unicode="3" horiz-adv-x="604" 
d="M30 223q11 -110 82 -172.5t194 -62.5q59 0 108 15t84.5 42.5t55.5 66t20 85.5q0 70 -41.5 117.5t-115.5 64.5q65 18 97.5 57t32.5 98q0 44 -17.5 79.5t-50 60.5t-77.5 39t-101 14t-101.5 -14.5t-78.5 -42.5t-52 -68t-22 -90h90q2 32 14 56.5t33 41t50.5 25t67.5 8.5
q36 0 65 -8t49 -22.5t30.5 -36t10.5 -48.5q0 -54 -41.5 -84t-118.5 -30h-59v-80h61q44 0 78.5 -8.5t58 -25t36 -40.5t12.5 -55t-12.5 -56.5t-36 -43.5t-56 -27.5t-72.5 -9.5q-83 0 -130 40.5t-57 114.5h-90z" />
    <glyph glyph-name="four" unicode="4" horiz-adv-x="618" 
d="M24 156h383v-156h86v156h100v80h-100v479h-98l-371 -485v-74zM131 236l276 366v-366h-276z" />
    <glyph glyph-name="five" unicode="5" horiz-adv-x="597" 
d="M31 203q3 -48 23.5 -87.5t55.5 -68t82.5 -44t104.5 -15.5q60 0 109.5 18t85.5 50t55.5 77.5t19.5 100.5q0 52 -17.5 96.5t-50 76.5t-78.5 50t-102 18q-28 0 -53.5 -4.5t-48 -14t-41 -23t-32.5 -30.5l30 232h342v80h-422l-50 -402h95q9 19 25 34.5t37.5 26.5t47.5 17t55 6
q40 0 72 -12t54.5 -33.5t34.5 -51.5t12 -66q0 -40 -13.5 -70.5t-37.5 -52t-57 -32.5t-71 -11q-34 0 -64.5 9t-55 26t-40 42t-17.5 58h-90z" />
    <glyph glyph-name="six" unicode="6" horiz-adv-x="614" 
d="M31 353q0 -96 22.5 -165t61.5 -113.5t91.5 -65.5t113.5 -21q60 0 109 17.5t83.5 49.5t53 78.5t18.5 104.5q0 54 -18 98.5t-51.5 76t-81 48.5t-106.5 17q-37 0 -69.5 -9.5t-59 -25t-46.5 -37t-32 -45.5q2 72 16 125.5t40 89.5t63 53.5t85 17.5q67 0 111 -31t52 -86h91
q-8 45 -28 81.5t-52 62t-75.5 39.5t-97.5 14q-83 0 -139.5 -33t-90.5 -86t-49 -120t-15 -135zM140 243q0 37 13.5 66t38 49.5t58.5 31t74 10.5q38 0 69 -11.5t53.5 -32.5t35 -51t12.5 -67q0 -40 -12 -71.5t-34 -53.5t-53.5 -33.5t-71.5 -11.5q-37 0 -70.5 12.5t-58.5 36
t-39.5 55.5t-14.5 71z" />
    <glyph glyph-name="seven" unicode="7" horiz-adv-x="589" 
d="M191 0h95q0 90 16 172.5t49 160.5t84.5 153.5t122.5 152.5v76h-534v-80h442q-64 -69 -115 -145.5t-86.5 -157.5t-54.5 -165t-19 -167z" />
    <glyph glyph-name="eight" unicode="8" horiz-adv-x="616" 
d="M30 194q0 -47 20 -85t56 -65t87.5 -41.5t114.5 -14.5t114 14.5t87.5 42t56.5 65.5t20 85q0 68 -40 115.5t-110 66.5q60 18 92 58.5t32 98.5q0 43 -18 78.5t-51 61t-79.5 39.5t-102.5 14q-57 0 -103.5 -14t-80 -39t-51.5 -60.5t-18 -78.5q0 -58 32.5 -98.5t92.5 -59.5
q-35 -9 -63 -26t-47.5 -41t-30 -53.5t-10.5 -62.5zM121 203q0 32 12 56.5t36 41t59 25t81 8.5q45 0 80 -8.5t58.5 -25t36 -41t12.5 -56.5q0 -64 -49 -99.5t-139 -35.5t-138.5 35.5t-48.5 99.5zM146 523q0 58 43.5 91t119.5 33t118.5 -32.5t42.5 -89.5q0 -28 -10.5 -49
t-31 -35.5t-51 -21.5t-70.5 -7t-70 7t-50 21t-30.5 35t-10.5 48z" />
    <glyph glyph-name="nine" unicode="9" horiz-adv-x="613" 
d="M583 362q0 96 -22.5 165t-61.5 113.5t-91.5 65.5t-113.5 21q-60 0 -109 -17.5t-83.5 -50.5t-53 -80.5t-18.5 -106.5q0 -55 18 -100.5t52 -77.5t81.5 -49.5t106.5 -17.5q36 0 68 9.5t58.5 25.5t46.5 38t33 47q-3 -70 -17.5 -122.5t-40 -87t-62.5 -52t-84 -17.5
q-64 0 -107.5 28t-54.5 79h-90q8 -43 28.5 -77.5t52.5 -59t75 -37.5t95 -13q83 0 139.5 33t91 86t49 120t14.5 135zM474 467q0 -38 -13.5 -68t-38 -51t-58 -32t-74.5 -11q-38 0 -69 12t-53.5 33.5t-35 52.5t-12.5 69q0 41 12 73.5t34 55t53.5 34.5t71.5 12q38 0 71 -13
t58 -37t39.5 -57t14.5 -73z" />
    <glyph glyph-name="colon" unicode=":" horiz-adv-x="202" 
d="M46 0h110v108h-110v-108zM46 431h110v108h-110v-108z" />
    <glyph glyph-name="semicolon" unicode=";" horiz-adv-x="212" 
d="M51 431h110v108h-110v-108zM-4 -200h67l92 346h-98z" />
    <glyph glyph-name="less" unicode="&#x3c;" horiz-adv-x="478" 
d="M43 300l393 -189v90l-305 140l305 137v90l-393 -187v-81z" />
    <glyph glyph-name="equal" unicode="=" horiz-adv-x="474" 
d="M432 390v78h-390v-78h390zM432 214v78h-390v-78h390z" />
    <glyph glyph-name="greater" unicode="&#x3e;" horiz-adv-x="478" 
d="M436 300l-393 -189v90l305 140l-305 137v90l393 -187v-81z" />
    <glyph glyph-name="question" unicode="?" horiz-adv-x="572" 
d="M26 461h91q8 91 51 138.5t119 47.5q69 0 111 -38t42 -100q0 -40 -16.5 -64t-41 -41.5t-53.5 -33t-53.5 -37t-41 -54t-16.5 -83.5v-20h86v30q0 31 16.5 51t42 36.5t54.5 33t54.5 40t42 57.5t16.5 85q0 50 -17 90.5t-48 68.5t-75.5 43.5t-99.5 15.5q-117 0 -185.5 -69
t-78.5 -197zM206 0h110v108h-110v-108z" />
    <glyph glyph-name="at" unicode="@" horiz-adv-x="1014" 
d="M30 270q0 -101 34.5 -185.5t96 -145.5t146.5 -95t185 -34q75 0 144 17t132 53l-34 65q-54 -31 -113.5 -46t-122.5 -15q-82 0 -152.5 28.5t-123 80t-82.5 123t-30 157.5q0 84 29 154t81 120.5t125.5 78t162.5 27.5q86 0 159 -26t125.5 -73t82 -113t29.5 -146
q0 -45 -9.5 -80t-25.5 -59.5t-37 -37t-45 -12.5q-32 0 -56.5 25t-24.5 83v278h-80v-72q-24 41 -64.5 61.5t-94.5 20.5q-47 0 -85 -16t-64 -46.5t-40 -74t-14 -98.5t14 -98.5t40 -74t64 -46.5t86 -16q58 0 101.5 25.5t67.5 76.5q10 -29 26 -48.5t36 -31.5t42.5 -17t44.5 -5
q45 0 81.5 18t62.5 52t40 82t14 108q0 95 -35 175t-98 138t-150.5 90t-192.5 32q-107 0 -195 -33.5t-151 -94t-97.5 -144.5t-34.5 -185zM344 267q0 36 8.5 66t26 52t43.5 34t60 12q33 0 59.5 -11.5t45.5 -32.5t29 -51.5t10 -68.5t-10 -68.5t-29 -51.5t-46.5 -32.5
t-60.5 -11.5q-36 0 -61.5 12t-42 34t-24.5 52t-8 66z" />
    <glyph glyph-name="A" unicode="A" horiz-adv-x="648" 
d="M-9 0h95l76 204h324l76 -204h95l-276 715h-114zM192 284l132 356l132 -356h-264z" />
    <glyph glyph-name="B" unicode="B" horiz-adv-x="635" 
d="M54 0h306q123 0 187 49t64 148q0 75 -45.5 118.5t-115.5 53.5q33 5 59 18t44 33t27.5 46t9.5 57q0 100 -64 146t-198 46h-274v-715zM140 80v245h218q79 0 121 -32.5t42 -91.5t-42 -90t-121 -31h-218zM140 403v232h186q87 0 130.5 -28.5t43.5 -86.5q0 -56 -45 -86.5
t-129 -30.5h-186z" />
    <glyph glyph-name="C" unicode="C" horiz-adv-x="721" 
d="M30 357q0 -86 24 -154t67.5 -116t105 -73.5t136.5 -25.5q67 0 122.5 19.5t98 56t70 89t37.5 118.5h-92q-18 -96 -80 -149.5t-156 -53.5q-55 0 -99.5 20t-76.5 57.5t-49.5 91.5t-17.5 120q0 68 17.5 121.5t49.5 91t76.5 57.5t98.5 20q90 0 150.5 -48.5t82.5 -136.5h92
q-12 62 -40.5 111t-70 83.5t-95.5 52.5t-118 18q-75 0 -136.5 -26t-105 -74t-67.5 -116.5t-24 -153.5z" />
    <glyph glyph-name="D" unicode="D" horiz-adv-x="679" 
d="M54 0h233q175 0 268.5 92t93.5 266q0 173 -93.5 265t-268.5 92h-233v-715zM140 80v555h148q135 0 203 -68t68 -209t-68.5 -209.5t-202.5 -68.5h-148z" />
    <glyph glyph-name="E" unicode="E" 
d="M54 0h481v80h-395v240h373v78h-373v237h390v80h-476v-715z" />
    <glyph glyph-name="F" unicode="F" horiz-adv-x="548" 
d="M54 0h86v311h364v78h-364v246h380v80h-466v-715z" />
    <glyph glyph-name="G" unicode="G" horiz-adv-x="739" 
d="M30 357q0 -85 24 -153.5t67.5 -116.5t105 -73.5t136.5 -25.5q87 0 147.5 36t96.5 98l13 -122h65v371h-318v-78h238q-7 -53 -27.5 -94.5t-51.5 -70.5t-72.5 -44.5t-90.5 -15.5q-55 0 -99.5 20t-76.5 57.5t-49.5 91t-17.5 120.5t17.5 121t49 91.5t76.5 57.5t99 20
q84 0 142.5 -43.5t84.5 -121.5h94q-29 115 -113 180t-207 65q-75 0 -136.5 -26t-105 -74t-67.5 -116.5t-24 -153.5z" />
    <glyph glyph-name="H" unicode="H" horiz-adv-x="669" 
d="M54 0h86v320h389v-320h86v715h-86v-315h-389v315h-86v-715z" />
    <glyph glyph-name="I" unicode="I" horiz-adv-x="195" 
d="M55 0h86v715h-86v-715z" />
    <glyph glyph-name="J" unicode="J" horiz-adv-x="558" 
d="M24 258q3 -64 20 -114t48 -85t74.5 -53t98.5 -18t99.5 18t75.5 52t47.5 82.5t16.5 110.5v464h-86v-464q0 -89 -39 -136t-114 -47q-72 0 -109 45.5t-46 144.5h-86z" />
    <glyph glyph-name="K" unicode="K" horiz-adv-x="611" 
d="M55 0h86v235l108 112l262 -347h108l-310 409l290 306h-108l-350 -367v367h-86v-715z" />
    <glyph glyph-name="L" unicode="L" horiz-adv-x="543" 
d="M54 0h461v80h-375v635h-86v-715z" />
    <glyph glyph-name="M" unicode="M" horiz-adv-x="843" 
d="M55 0h86v572l224 -572h113l224 572v-572h86v715h-120l-246 -634l-247 634h-120v-715z" />
    <glyph glyph-name="N" unicode="N" horiz-adv-x="701" 
d="M55 0h86v611l381 -611h125v715h-86v-623l-388 623h-118v-715z" />
    <glyph glyph-name="O" unicode="O" horiz-adv-x="748" 
d="M30 357q0 -86 24.5 -154t69.5 -116t108.5 -73.5t140.5 -25.5q78 0 142 25.5t109 73.5t69.5 116t24.5 154q0 85 -24.5 153.5t-70 116.5t-109 74t-141.5 26q-77 0 -140 -26t-108.5 -74t-70 -116.5t-24.5 -153.5zM120 357q0 68 18.5 121.5t51.5 91t80 57.5t103 20
q58 0 105 -20t80 -57.5t51.5 -91t18.5 -121.5q0 -67 -18 -120.5t-51.5 -91t-80.5 -57.5t-105 -20q-57 0 -103.5 20t-80 57.5t-51.5 91.5t-18 120z" />
    <glyph glyph-name="P" unicode="P" horiz-adv-x="626" 
d="M54 0h86v288h210q122 0 184 55.5t62 157.5t-62 158t-184 56h-296v-715zM140 368v267h204q81 0 121.5 -31.5t40.5 -102.5t-40.5 -102t-121.5 -31h-204z" />
    <glyph glyph-name="Q" unicode="Q" horiz-adv-x="748" 
d="M30 357q0 -86 24.5 -154t69.5 -116t108.5 -73.5t140.5 -25.5q45 0 85 8.5t75 24.5l64 -97h112l-108 142q56 48 86.5 121.5t30.5 169.5q0 85 -24.5 153.5t-70 116.5t-109 74t-141.5 26q-77 0 -140 -26t-108.5 -74t-70 -116.5t-24.5 -153.5zM120 357q0 68 18.5 121.5
t51.5 91t80 57.5t103 20q58 0 105 -20t80 -57.5t51.5 -91t18.5 -121.5q0 -67 -18 -120.5t-51.5 -91t-80.5 -57.5t-105 -20q-57 0 -103.5 20t-80 57.5t-51.5 91.5t-18 120z" />
    <glyph glyph-name="R" unicode="R" horiz-adv-x="658" 
d="M54 0h86v298h220q122 0 184 54t62 154q0 99 -62 154t-184 55h-306v-715zM140 378v257h214q81 0 121.5 -30.5t40.5 -98.5q0 -69 -40.5 -98.5t-121.5 -29.5h-214zM526 0h101l-187 317h-94z" />
    <glyph glyph-name="S" unicode="S" horiz-adv-x="600" 
d="M17 247q2 -57 24 -104.5t60.5 -82t92.5 -53.5t122 -19q57 0 105.5 14.5t83.5 41.5t54.5 66t19.5 89q0 55 -21.5 90t-58 56.5t-83 33.5t-95.5 22q-39 8 -74.5 16.5t-62.5 22t-43.5 34t-16.5 52.5q0 27 11.5 49t32.5 38t50 25t64 9q43 0 77.5 -12.5t59.5 -34.5t39 -51.5
t18 -63.5h90q-4 51 -24.5 95.5t-56.5 77t-86.5 51t-114.5 18.5q-58 0 -104.5 -14.5t-79 -41.5t-49.5 -64.5t-17 -83.5q0 -54 22 -88t58 -55t81 -32.5t91 -20.5q43 -9 80 -18t64.5 -23t43 -36t15.5 -57q0 -29 -12 -52t-34 -39.5t-54 -25t-71 -8.5q-47 0 -84 12t-64 35
t-43.5 56.5t-20.5 75.5h-89z" />
    <glyph glyph-name="T" unicode="T" horiz-adv-x="596" 
d="M255 0h86v635h236v80h-558v-80h236v-635z" />
    <glyph glyph-name="U" unicode="U" horiz-adv-x="676" 
d="M55 250q0 -60 20 -108.5t56.5 -82.5t89 -52.5t118.5 -18.5q65 0 117.5 18.5t89 52.5t56.5 82.5t20 108.5v465h-86v-462q0 -87 -51.5 -136t-145.5 -49q-95 0 -146.5 49t-51.5 136v462h-86v-465z" />
    <glyph glyph-name="V" unicode="V" horiz-adv-x="658" 
d="M272 0h114l281 715h-95l-243 -634l-243 634h-95z" />
    <glyph glyph-name="W" unicode="W" horiz-adv-x="904" 
d="M190 0h112l149 588l151 -588h112l198 715h-92l-162 -618l-153 618h-108l-151 -618l-163 618h-92z" />
    <glyph glyph-name="X" unicode="X" horiz-adv-x="614" 
d="M2 0h102l202 300l202 -300h104l-251 361l247 354h-102l-200 -293l-198 293h-104l247 -354z" />
    <glyph glyph-name="Y" unicode="Y" horiz-adv-x="606" 
d="M259 0h86v280l269 435h-100l-212 -352l-211 352h-100l268 -435v-280z" />
    <glyph glyph-name="Z" unicode="Z" horiz-adv-x="627" 
d="M55 0h517v80h-411l406 559v76h-503v-80h396l-405 -559v-76z" />
    <glyph glyph-name="bracketleft" unicode="[" horiz-adv-x="284" 
d="M38 792v-940h218v82h-130v776h130v82h-218z" />
    <glyph glyph-name="backslash" unicode="\" horiz-adv-x="353" 
d="M254 -109h93l-248 861h-93z" />
    <glyph glyph-name="bracketright" unicode="]" horiz-adv-x="284" 
d="M28 -149h218v941h-218v-82h130v-777h-130v-82z" />
    <glyph glyph-name="asciicircum" unicode="^" horiz-adv-x="428" 
d="M42 433h88l85 209l83 -209h88l-126 282h-92z" />
    <glyph glyph-name="underscore" unicode="_" horiz-adv-x="464" 
d="M422 0h-380v-76h380v76z" />
    <glyph glyph-name="grave" unicode="`" horiz-adv-x="252" 
d="M146 593h64l-78 140h-90z" />
    <glyph glyph-name="a" unicode="a" horiz-adv-x="542" 
d="M27 141q0 -37 13.5 -65.5t37.5 -48t58 -29.5t74 -10q35 0 68 7.5t60.5 20.5t48 31t32.5 39l3 -86h78v331q0 103 -59.5 161.5t-168.5 58.5q-53 0 -95.5 -14.5t-73 -41t-48.5 -62.5t-22 -80h88q9 57 46 88.5t103 31.5q67 0 104.5 -34.5t37.5 -100.5v-5l-204 -35
q-94 -16 -137.5 -54.5t-43.5 -102.5zM117 145q0 32 22 52t81 30l192 34v-39q0 -34 -13 -63t-36.5 -50.5t-57 -33.5t-75.5 -12q-50 0 -81.5 20t-31.5 62z" />
    <glyph glyph-name="b" unicode="b" horiz-adv-x="580" 
d="M46 0h78l3 92q24 -52 75 -78t111 -26q53 0 97 20t75 57t48 89t17 115t-17 115t-48.5 89t-75 57.5t-96.5 20.5q-60 0 -108.5 -25.5t-72.5 -72.5v282h-86v-735zM130 271q0 47 11.5 84.5t33.5 63.5t53.5 40t71.5 14q39 0 69 -13.5t51 -39.5t31.5 -63.5t10.5 -86.5t-10.5 -87
t-31.5 -64t-51 -39.5t-69 -13.5q-40 0 -71.5 14t-53.5 40.5t-33.5 64.5t-11.5 86z" />
    <glyph glyph-name="c" unicode="c" horiz-adv-x="566" 
d="M30 270q0 -63 18.5 -114.5t52.5 -89t82 -58t107 -20.5q51 0 93.5 15t75 43t54 67t29.5 87h-90q-6 -31 -20 -55.5t-34 -42t-47 -27t-59 -9.5q-41 0 -73.5 14.5t-55 41.5t-34 64.5t-11.5 83.5t11.5 83.5t34 64t54.5 41t73 14.5q31 0 57 -8.5t46 -24t34 -38t21 -50.5h90
q-9 45 -31 82t-54 63t-73 40t-90 14q-59 0 -107.5 -20.5t-82.5 -57.5t-52.5 -88.5t-18.5 -114.5z" />
    <glyph glyph-name="d" unicode="d" horiz-adv-x="580" 
d="M534 0v735h-86v-282q-24 47 -72.5 72.5t-108.5 25.5q-53 0 -96.5 -20.5t-75 -57.5t-48.5 -89t-17 -115t17 -115t48 -89t75 -57t97 -20q60 0 111 26t75 78l3 -92h78zM450 271q0 -48 -11.5 -86t-33.5 -64.5t-53.5 -40.5t-71.5 -14q-39 0 -69 13.5t-51 39.5t-31.5 64
t-10.5 87t10.5 86.5t31.5 63.5t51 39.5t69 13.5q40 0 71.5 -14t53.5 -40t33.5 -63.5t11.5 -84.5z" />
    <glyph glyph-name="e" unicode="e" 
d="M30 270q0 -63 18.5 -114.5t52 -89t81.5 -58t107 -20.5q93 0 157 49t87 133h-91q-9 -24 -23 -43.5t-33 -33t-42.5 -20.5t-52.5 -7q-37 0 -67.5 12.5t-52 35t-35 55t-17.5 71.5h422v43q0 60 -18 109.5t-51.5 84.5t-80 54.5t-103.5 19.5q-58 0 -106 -20.5t-81.5 -57.5
t-52 -88.5t-18.5 -114.5zM121 312q5 37 18.5 66.5t35 50.5t50 32.5t64.5 11.5t64.5 -11.5t49 -32.5t32.5 -50.5t16 -66.5h-330z" />
    <glyph glyph-name="f" unicode="f" horiz-adv-x="433" 
d="M120 0h86v461h207v78h-207v40q0 28 7 47.5t22 32t38.5 18.5t57.5 6q21 0 41 -2t41 -7v78q-28 4 -51.5 6t-43.5 2q-50 0 -87 -11.5t-62 -34t-37 -56.5t-12 -80v-39h-100v-78h100v-461z" />
    <glyph glyph-name="g" unicode="g" horiz-adv-x="580" 
d="M50 2q5 -50 25.5 -87t53 -61t74.5 -35.5t89 -11.5q51 0 95.5 14t77 44t51 77t18.5 114v483h-78l-3 -92q-24 52 -75.5 78t-112.5 26q-52 0 -95.5 -19t-74.5 -54t-48 -84t-17 -109t17 -109t48 -84t74.5 -54.5t96.5 -19.5q60 0 109 25.5t73 72.5v-60q0 -47 -12.5 -79.5
t-33.5 -53t-49 -29.5t-60 -9q-29 0 -56 7t-48 21.5t-34.5 36.5t-16.5 52h-88zM118 284q0 45 10.5 80.5t31.5 59.5t51 36.5t69 12.5q40 0 71.5 -13t53.5 -37.5t33.5 -59.5t11.5 -79t-11.5 -79t-33.5 -59t-53.5 -37t-71.5 -13q-39 0 -69 12.5t-51 36.5t-31.5 59t-10.5 80z" />
    <glyph glyph-name="h" unicode="h" horiz-adv-x="540" 
d="M46 0h86v315q0 36 11 65t31 49.5t48.5 32t62.5 11.5q32 0 55.5 -10t39.5 -30t24 -49.5t8 -68.5v-315h86v347q0 47 -13.5 85t-38.5 64.5t-61 40.5t-81 14q-30 0 -56.5 -6.5t-48.5 -19t-39 -30.5t-28 -41v281h-86v-735z" />
    <glyph glyph-name="i" unicode="i" horiz-adv-x="184" 
d="M50 0h84v539h-84v-539zM46 618h92v110h-92v-110z" />
    <glyph glyph-name="j" unicode="j" horiz-adv-x="184" 
d="M-57 -179q12 -2 23 -3t21 -1q40 0 68 13t45 37t25 58.5t8 76.5v537h-84v-537q0 -61 -16 -83.5t-58 -22.5q-8 0 -16 0.5t-16 2.5v-78zM46 618h92v110h-92v-110z" />
    <glyph glyph-name="k" unicode="k" horiz-adv-x="541" 
d="M47 0h84v182l100 90l210 -272h105l-254 325l245 214h-115l-291 -255v451h-84v-735z" />
    <glyph glyph-name="l" unicode="l" horiz-adv-x="176" 
d="M46 0h84v735h-84v-735z" />
    <glyph glyph-name="m" unicode="m" horiz-adv-x="866" 
d="M46 0h86v315q0 36 10 65t29 49.5t45 32t58 11.5q30 0 52 -10t36.5 -30t22 -49.5t7.5 -68.5v-315h86v315q0 36 10 65t29 49.5t45 32t58 11.5q30 0 52 -10t36.5 -30t22 -49.5t7.5 -68.5v-315h86v347q0 47 -13 85t-37.5 64.5t-59 40.5t-77.5 14q-32 0 -59.5 -8t-49.5 -22.5
t-38.5 -36t-25.5 -48.5q-10 27 -26 48.5t-37.5 36t-48 22.5t-58.5 8q-30 0 -56 -7.5t-47.5 -21t-37.5 -33.5t-26 -46l-3 96h-78v-539z" />
    <glyph glyph-name="n" unicode="n" horiz-adv-x="541" 
d="M47 0h86v315q0 36 11 65t31 49.5t48.5 32t62.5 11.5q32 0 55.5 -10t39.5 -30t24 -49.5t8 -68.5v-315h86v347q0 47 -13.5 85t-38.5 64.5t-61 40.5t-81 14q-32 0 -60 -7.5t-50.5 -21.5t-39.5 -34t-27 -46l-3 97h-78v-539z" />
    <glyph glyph-name="o" unicode="o" horiz-adv-x="583" 
d="M30 270q0 -63 18.5 -114.5t53 -89t82.5 -58t108 -20.5q59 0 107 20.5t82.5 58t53 89t18.5 114.5q0 62 -18.5 114t-53 89t-82.5 57.5t-107 20.5q-60 0 -108 -20.5t-82.5 -57.5t-53 -89t-18.5 -114zM118 270q0 45 12 82.5t34 64.5t54.5 41.5t73.5 14.5t73 -14.5t54.5 -41.5
t34 -64.5t11.5 -82.5q0 -46 -11.5 -83.5t-34 -64.5t-54.5 -41.5t-73 -14.5t-73.5 14.5t-54.5 41.5t-34 64.5t-12 83.5z" />
    <glyph glyph-name="p" unicode="p" horiz-adv-x="580" 
d="M46 539v-722h86v269q24 -47 72.5 -72.5t108.5 -25.5q53 0 96.5 20.5t75 57.5t48.5 89t17 115t-17 115t-48 89t-75 57t-97 20q-60 0 -111 -26t-75 -78l-3 92h-78zM130 268q0 48 11.5 86t33.5 64.5t53.5 40.5t71.5 14q39 0 69 -13.5t51 -39.5t31.5 -64t10.5 -87
t-10.5 -86.5t-31.5 -63.5t-51 -39.5t-69 -13.5q-40 0 -71.5 14t-53.5 40t-33.5 63.5t-11.5 84.5z" />
    <glyph glyph-name="q" unicode="q" horiz-adv-x="580" 
d="M534 539h-78l-3 -92q-24 52 -75 78t-111 26q-53 0 -97 -20t-75 -57t-48 -89t-17 -115t17 -115t48.5 -89t75 -57.5t96.5 -20.5q60 0 108.5 25.5t72.5 72.5v-269h86v722zM450 268q0 -47 -11.5 -84.5t-33.5 -63.5t-53.5 -40t-71.5 -14q-39 0 -69 13.5t-51 39.5t-31.5 63.5
t-10.5 86.5t10.5 87t31.5 64t51 39.5t69 13.5q40 0 71.5 -14t53.5 -40.5t33.5 -64.5t11.5 -86z" />
    <glyph glyph-name="r" unicode="r" horiz-adv-x="335" 
d="M47 0h86v306q0 33 8.5 59.5t25 45t41.5 28.5t58 10h66v90h-61q-55 0 -91 -26t-52 -83l-3 109h-78v-539z" />
    <glyph glyph-name="s" unicode="s" horiz-adv-x="500" 
d="M14 176q2 -41 19 -75.5t48.5 -59.5t76 -39t100.5 -14q46 0 86.5 10t70.5 30.5t47 51t17 72.5q0 45 -18 72.5t-48 44t-68.5 25.5t-79.5 16q-29 5 -56 11t-48 15t-33 23t-12 36q0 17 8 31t23 24.5t37.5 16.5t52.5 6q63 0 101 -27t44 -74h88q-4 38 -21 70.5t-46 56.5
t-70.5 38t-94.5 14q-49 0 -88 -12t-66 -33.5t-41.5 -51.5t-14.5 -67q0 -43 18.5 -70t48.5 -43t67.5 -24.5t74.5 -14.5q33 -5 61.5 -10.5t49 -15t32 -24t11.5 -37.5q0 -22 -10.5 -37.5t-28.5 -25.5t-42 -14.5t-52 -4.5q-76 0 -114 30t-42 80h-88z" />
    <glyph glyph-name="t" unicode="t" horiz-adv-x="418" 
d="M110 178q0 -48 11 -84t34 -59.5t57.5 -35t81.5 -11.5q22 0 47.5 2.5t56.5 7.5v78q-25 -5 -48 -7t-40 -2q-32 0 -53.5 6t-35 19t-19.5 33.5t-6 49.5v286h202v78h-202v139h-86v-139h-90v-78h90v-283z" />
    <glyph glyph-name="u" unicode="u" horiz-adv-x="540" 
d="M42 192q0 -47 13.5 -85t38.5 -64.5t61 -40.5t81 -14q32 0 60 7.5t50.5 21.5t39.5 34t27 46l3 -97h78v539h-86v-315q0 -36 -11 -65t-31 -49.5t-48.5 -32t-62.5 -11.5q-32 0 -55.5 10t-39.5 30t-24 49.5t-8 68.5v315h-86v-347z" />
    <glyph glyph-name="v" unicode="v" horiz-adv-x="507" 
d="M200 0h106l207 539h-91l-169 -458l-168 458h-91z" />
    <glyph glyph-name="w" unicode="w" horiz-adv-x="792" 
d="M161 0h107l127 427l129 -427h107l166 539h-90l-130 -451l-132 451h-100l-130 -451l-131 451h-90z" />
    <glyph glyph-name="x" unicode="x" horiz-adv-x="543" 
d="M12 0h98l163 221l163 -221h95l-206 275l197 264h-98l-151 -206l-155 206h-96l200 -262z" />
    <glyph glyph-name="y" unicode="y" horiz-adv-x="489" 
d="M6 -189q17 -2 32.5 -3t27.5 -1q40 0 73 8t60.5 26.5t48.5 49t37 74.5l210 574h-91l-160 -457l-159 457h-91l215 -591l8 69l-20 -52q-9 -25 -23 -41t-31.5 -25t-36.5 -12t-38 -3q-15 0 -30 1.5t-32 3.5v-78z" />
    <glyph glyph-name="z" unicode="z" horiz-adv-x="538" 
d="M35 0h468v78h-357l349 387v74h-450v-78h339l-349 -387v-74z" />
    <glyph glyph-name="braceleft" unicode="{" horiz-adv-x="372" 
d="M342 792h-61q-44 0 -73.5 -11t-47 -34.5t-25 -59.5t-7.5 -87v-150q0 -44 -15 -64t-50 -20h-33v-88h33q35 0 50 -20t15 -64v-150q0 -51 7.5 -87t25 -59.5t47 -34.5t73.5 -11h61v82h-56q-26 0 -40 4.5t-21 15.5t-8 29.5t-1 46.5v164q0 57 -25 92t-66 35q41 0 66 35.5
t25 92.5v165q0 28 1 46.5t8 29.5t21 15.5t40 4.5h56v82z" />
    <glyph glyph-name="bar" unicode="|" horiz-adv-x="194" 
d="M54 -148h86v940h-86v-940z" />
    <glyph glyph-name="braceright" unicode="}" horiz-adv-x="372" 
d="M30 792v-82h56q26 0 40 -4.5t21 -15.5t8 -29.5t1 -46.5v-165q0 -57 25 -92.5t66 -35.5q-41 0 -66 -35t-25 -92v-164q0 -28 -1 -46.5t-8 -29.5t-21 -15.5t-40 -4.5h-56v-82h61q44 0 73.5 11t47 34.5t25 59.5t7.5 87v150q0 44 15 64t50 20h33v88h-33q-35 0 -50 20t-15 64
v150q0 51 -7.5 87t-25 59.5t-47 34.5t-73.5 11h-61z" />
    <glyph glyph-name="asciitilde" unicode="~" horiz-adv-x="500" 
d="M458 439h-55q-4 -69 -17.5 -98t-38.5 -29q-22 0 -40.5 17t-37.5 39q-12 13 -24.5 26.5t-27 24.5t-31.5 17.5t-37 6.5q-26 0 -45 -12t-32.5 -37.5t-20.5 -64.5t-9 -92h55q4 67 16.5 97t38.5 30q22 0 40.5 -17t37.5 -39q12 -13 24.5 -26.5t27 -24.5t31.5 -17.5t38 -6.5
q26 0 45 12t32 37.5t20.5 64.5t9.5 92z" />
    <glyph glyph-name="exclamdown" unicode="&#xa1;" horiz-adv-x="238" 
d="M91 363h56l15 -395v-144h-86v144zM64 539h110v-108h-110v108z" />
    <glyph glyph-name="cent" unicode="&#xa2;" horiz-adv-x="572" 
d="M256 506h60l15 158h-90zM241 -125h90l-15 158h-60zM30 270q0 -63 18.5 -114.5t52.5 -89t82 -58t107 -20.5q51 0 93.5 15t75 43t54 67t29.5 87h-90q-6 -31 -20 -55.5t-34 -42t-47 -27t-59 -9.5q-41 0 -73.5 14.5t-55 41.5t-34 64.5t-11.5 83.5t11.5 83.5t34 64t54.5 41
t73 14.5q31 0 57 -8.5t46 -24t34 -38t21 -50.5h90q-9 45 -31 82t-54 63t-73 40t-90 14q-59 0 -107.5 -20.5t-82.5 -57.5t-52.5 -88.5t-18.5 -114.5z" />
    <glyph glyph-name="sterling" unicode="&#xa3;" horiz-adv-x="652" 
d="M597 473q-3 64 -24 111.5t-56 79t-82.5 47.5t-102.5 16q-60 0 -107 -17.5t-79 -48.5t-49 -74t-17 -95q0 -49 13 -94t29 -86t29 -79.5t13 -75.5t-19 -57t-67 -20h-49v-80h582v80h-425q28 16 40 47t12 69q0 41 -10.5 78.5t-23.5 75t-23.5 74.5t-10.5 75q0 35 10 62
t29.5 46.5t49.5 29.5t70 10t71.5 -10.5t54.5 -32t36.5 -54t15.5 -77.5h90zM492 361h-463v-72h463v72z" />
    <glyph glyph-name="currency" unicode="&#xa4;" horiz-adv-x="647" 
d="M43 715v-715h561v715h-561zM370 357l146 216v-432zM130 143v429l143 -215zM321 429l-141 210h281zM179 76l142 210l140 -210h-282z" />
    <glyph glyph-name="yen" unicode="&#xa5;" horiz-adv-x="606" 
d="M550 415h-196l-51 -83l-52 83h-195v-82h195l51 -8l54 8h194v82zM550 263h-494v-83h494v83zM259 0h86v280l269 435h-100l-212 -352l-211 352h-100l268 -435v-280z" />
    <glyph glyph-name="brokenbar" unicode="&#xa6;" horiz-adv-x="194" 
d="M54 -148h86v385h-86v-385zM54 407h86v385h-86v-385z" />
    <glyph glyph-name="section" unicode="&#xa7;" horiz-adv-x="545" 
d="M53 99q4 -37 20.5 -70t45.5 -57t70.5 -38t93.5 -14q50 0 89.5 13t66.5 36t41.5 55t14.5 71q0 32 -9.5 55.5t-27.5 40.5q30 18 48.5 44t18.5 71q0 42 -17 68.5t-48.5 43.5t-75.5 27.5t-97 20.5q-29 6 -57 12t-49.5 16.5t-35 26.5t-13.5 41q0 18 8 34t23.5 28t38.5 18.5
t53 6.5q61 0 99 -26.5t44 -74.5h88q-4 38 -20.5 70.5t-45.5 56.5t-70 38t-94 14q-50 0 -89.5 -12.5t-66.5 -35.5t-41.5 -55t-14.5 -71q0 -33 10 -56.5t27 -40.5q-30 -18 -48.5 -44t-18.5 -71q0 -42 17 -68.5t48.5 -43.5t75.5 -27.5t97 -20.5q29 -6 57 -12t50 -16.5t35 -26.5
t13 -41q0 -18 -8 -34t-23.5 -28t-38.5 -18.5t-53 -6.5q-61 0 -99 26.5t-44 74.5h-88zM95 356q0 21 10.5 36t30.5 28q30 -12 63.5 -19.5t67.5 -12.5q36 -6 68 -12.5t56 -17t38.5 -26t14.5 -40.5q0 -21 -11 -36.5t-31 -28.5q-31 13 -66.5 20.5t-72.5 13.5q-32 5 -62.5 11.5
t-54 16.5t-37.5 26t-14 41z" />
    <glyph glyph-name="dieresis" unicode="&#xa8;" horiz-adv-x="318" 
d="M42 609h92v110h-92v-110zM184 609h92v110h-92v-110z" />
    <glyph glyph-name="copyright" unicode="&#xa9;" horiz-adv-x="955" 
d="M30 356q0 -94 34.5 -175.5t94.5 -142t141.5 -94.5t175.5 -34q95 0 177 34.5t142.5 95.5t95 143.5t34.5 177.5t-34 176t-93.5 140.5t-140.5 93.5t-176 34t-177.5 -34.5t-143 -95t-95.5 -142.5t-35 -177zM110 358q0 82 27.5 151t77 119.5t117.5 78.5t148 28t146.5 -27.5
t115.5 -77t76 -118t27 -149.5q0 -82 -28 -152t-77.5 -121.5t-117 -80.5t-147.5 -29q-79 0 -145.5 28.5t-115.5 79t-76.5 120t-27.5 150.5zM263 357q0 -52 15.5 -94t43.5 -71t67.5 -45t88.5 -16q86 0 142 46t69 128h-83q-11 -46 -45 -72t-84 -26q-60 0 -96 40.5t-36 110.5
t36 110.5t95 40.5q48 0 81 -22.5t46 -64.5h84q-16 77 -71 120t-138 43q-49 0 -88.5 -16t-67.5 -45.5t-43.5 -71.5t-15.5 -95z" />
    <glyph glyph-name="ordfeminine" unicode="&#xaa;" horiz-adv-x="395" 
d="M26 510q0 -26 9 -46.5t25 -34.5t38.5 -21t49.5 -7q48 0 86.5 19.5t53.5 48.5l2 -60h63v229q0 72 -41 112t-116 40q-37 0 -66.5 -10t-50.5 -28.5t-33.5 -43.5t-15.5 -55h70q6 34 29 53t65 19t65.5 -22.5t23.5 -54.5v-4l-136 -24q-63 -11 -92 -38t-29 -72zM98 513
q0 19 14 31t52 19l119 22v-20q0 -22 -8 -40.5t-23 -32t-36 -21.5t-46 -8q-32 0 -52 12t-20 38z" />
    <glyph glyph-name="guillemotleft" unicode="&#xab;" horiz-adv-x="658" 
d="M270 34h100l-242 242l242 240h-100l-244 -240zM540 34h100l-242 242l242 240h-100l-244 -240z" />
    <glyph glyph-name="logicalnot" unicode="&#xac;" horiz-adv-x="647" 
d="M43 715v-715h561v715h-561zM370 357l146 216v-432zM130 143v429l143 -215zM321 429l-141 210h281zM179 76l142 210l140 -210h-282z" />
    <glyph glyph-name="registered" unicode="&#xae;" horiz-adv-x="955" 
d="M30 356q0 -94 34.5 -175.5t94.5 -142t141.5 -94.5t175.5 -34q95 0 177 34.5t142.5 95.5t95 143.5t34.5 177.5t-34 176t-93.5 140.5t-140.5 93.5t-176 34t-177.5 -34.5t-143 -95t-95.5 -142.5t-35 -177zM110 358q0 82 27.5 151t77 119.5t117.5 78.5t148 28t146.5 -27.5
t115.5 -77t76 -118t27 -149.5q0 -82 -28 -152t-77.5 -121.5t-117 -80.5t-147.5 -29q-79 0 -145.5 28.5t-115.5 79t-76.5 120t-27.5 150.5zM296 142h80v163h141q74 0 111.5 33t37.5 98q0 64 -37.5 101t-111.5 37h-221v-432zM376 373v125h110q45 0 71.5 -11.5t26.5 -51.5
q0 -41 -26.5 -51.5t-71.5 -10.5h-110zM590 142h88v1l-113 191h-84z" />
    <glyph glyph-name="macron" unicode="&#xaf;" horiz-adv-x="332" 
d="M42 623h248v60h-248v-60z" />
    <glyph glyph-name="degree" unicode="&#xb0;" horiz-adv-x="355" 
d="M30 588q0 -30 11 -56t30.5 -45t46.5 -29.5t59 -10.5q31 0 58.5 10.5t47.5 29.5t31 45t11 56t-11.5 56t-31 45t-47 30t-58.5 11q-32 0 -59 -10.5t-46.5 -29.5t-30.5 -45t-11 -57zM96 588q0 36 22.5 59t58.5 23t59 -23t23 -59t-23 -58.5t-59 -22.5t-58.5 22.5t-22.5 58.5z
" />
    <glyph glyph-name="plusminus" unicode="&#xb1;" horiz-adv-x="552" 
d="M42 312h192v-197h84v197h192v76h-192v197h-84v-197h-192v-76zM42 6h468v76h-468v-76z" />
    <glyph glyph-name="twosuperior" unicode="&#xb2;" horiz-adv-x="341" 
d="M26 399h289v65h-248l37 -36v20q0 15 7 27t19.5 22t29 19t34.5 19q21 10 43 23t39 29.5t28 38t11 51.5q0 54 -37 87t-100 33q-69 0 -107.5 -39t-43.5 -101h72q3 37 22.5 56t55.5 19q31 0 48.5 -13.5t17.5 -39.5q0 -16 -7.5 -29t-20 -24t-29 -20.5t-33.5 -19.5
q-23 -12 -45.5 -25.5t-40.5 -31.5t-29.5 -42t-11.5 -56v-32z" />
    <glyph glyph-name="threesuperior" unicode="&#xb3;" horiz-adv-x="359" 
d="M26 521q11 -63 51 -95.5t106 -32.5t108 32.5t42 88.5q0 39 -21.5 63t-59.5 31q33 9 50 28t17 52q0 52 -38 80.5t-98 28.5q-66 0 -104 -32.5t-44 -85.5h72q2 25 21 39t52 14q32 0 49.5 -12.5t17.5 -34.5q0 -24 -20.5 -36.5t-58.5 -12.5h-28v-64h29q44 0 68 -14.5t24 -42.5
q0 -26 -21.5 -41.5t-59.5 -15.5q-36 0 -55.5 15.5t-26.5 47.5h-72z" />
    <glyph glyph-name="acute" unicode="&#xb4;" horiz-adv-x="252" 
d="M42 593h64l104 140h-90z" />
    <glyph glyph-name="paragraph" unicode="&#xb6;" horiz-adv-x="642" 
d="M305 -180h88v895h-105q-59 0 -108 -17t-83.5 -48.5t-53.5 -76t-19 -98.5t19 -98t53.5 -75.5t83.5 -49t108 -17.5h17v-415zM500 -180h88v895h-88v-895z" />
    <glyph glyph-name="periodcentered" unicode="&#xb7;" horiz-adv-x="194" 
d="M42 231h110v108h-110v-108z" />
    <glyph glyph-name="cedilla" unicode="&#xb8;" horiz-adv-x="322" 
d="M42 -155q29 -17 59.5 -26t62.5 -9q29 0 51 7t36.5 19t21.5 27.5t7 31.5q0 27 -20 47t-65 20q-6 0 -20 -1t-27 -6l21 61h-54l-27 -79l42 -16q10 3 21.5 5t22.5 2q23 0 33.5 -9.5t10.5 -23.5q0 -17 -15 -27t-44 -10q-23 0 -48 7t-49 21z" />
    <glyph glyph-name="onesuperior" unicode="&#xb9;" horiz-adv-x="224" 
d="M21 668h83v-269h70v392h-62q0 -17 -2.5 -28.5t-9 -18t-17.5 -9t-27 -2.5h-35v-65z" />
    <glyph glyph-name="ordmasculine" unicode="&#xba;" horiz-adv-x="423" 
d="M30 596q0 -43 13 -79t36.5 -61.5t57 -40t74.5 -14.5t74.5 14.5t57 40t36.5 61.5t13 79q0 44 -13 79.5t-36.5 61.5t-57 40t-74.5 14t-74.5 -14t-57 -40t-36.5 -61.5t-13 -79.5zM102 596q0 29 7.5 53t21.5 41t34.5 26.5t45.5 9.5q26 0 46 -9.5t34 -26.5t21.5 -41t7.5 -53
t-7.5 -53t-21.5 -41t-34 -26.5t-46 -9.5q-25 0 -45.5 9.5t-34.5 26.5t-21.5 41t-7.5 53z" />
    <glyph glyph-name="guillemotright" unicode="&#xbb;" horiz-adv-x="658" 
d="M388 34h-100l242 242l-242 240h100l244 -240zM118 34h-100l242 242l-242 240h100l244 -240z" />
    <glyph glyph-name="onequarter" unicode="&#xbc;" horiz-adv-x="778" 
d="M42 592h83v-269h70v392h-62q0 -17 -2.5 -28.5t-9 -18t-17.5 -9t-27 -2.5h-35v-65zM91 0h82l514 715h-82zM417 78h193v-77h70v77h56v65h-56v250h-86l-177 -253v-62zM493 143l117 168v-168h-117z" />
    <glyph glyph-name="onehalf" unicode="&#xbd;" horiz-adv-x="834" 
d="M42 592h83v-269h70v392h-62q0 -17 -2.5 -28.5t-9 -18t-17.5 -9t-27 -2.5h-35v-65zM91 0h82l514 715h-82zM503 1h289v65h-248l37 -36v20q0 15 7 27t19.5 22t29 19t34.5 19q21 10 43 23t39 29.5t28 38t11 51.5q0 54 -37 87t-100 33q-69 0 -107.5 -39t-43.5 -101h72
q3 37 22.5 56t55.5 19q31 0 48.5 -13.5t17.5 -39.5q0 -16 -7.5 -29t-20 -24t-29 -20.5t-33.5 -19.5q-23 -12 -45.5 -25.5t-40.5 -31.5t-29.5 -42t-11.5 -56v-32z" />
    <glyph glyph-name="threequarters" unicode="&#xbe;" horiz-adv-x="857" 
d="M42 451q11 -63 51 -95.5t106 -32.5t108 32.5t42 88.5q0 39 -21.5 63t-59.5 31q33 9 50 28t17 52q0 52 -38 80.5t-98 28.5q-66 0 -104 -32.5t-44 -85.5h72q2 25 21 39t52 14q32 0 49.5 -12.5t17.5 -34.5q0 -24 -20.5 -36.5t-58.5 -12.5h-28v-64h29q44 0 68 -14.5t24 -42.5
q0 -26 -21.5 -41.5t-59.5 -15.5q-36 0 -55.5 15.5t-26.5 47.5h-72zM170 0h82l514 715h-82zM496 78h193v-77h70v77h56v65h-56v250h-86l-177 -253v-62zM572 143l117 168v-168h-117z" />
    <glyph glyph-name="questiondown" unicode="&#xbf;" horiz-adv-x="573" 
d="M547 78h-91q-9 -91 -52 -138.5t-118 -47.5q-69 0 -111 38t-42 100q0 40 16 64t41 41.5t53.5 33t53.5 37t41 54t17 83.5v20h-86v-30q0 -31 -17 -51t-42 -36.5t-54.5 -33t-54.5 -40t-42 -57.5t-16 -85q0 -50 16.5 -90.5t48 -68.5t76 -43.5t98.5 -15.5q118 0 186 69t79 197z
M367 539h-110v-108h110v108z" />
    <glyph glyph-name="Agrave" unicode="&#xc0;" horiz-adv-x="648" 
d="M-9 0h95l76 204h324l76 -204h95l-276 715h-114zM192 284l132 356l132 -356h-264zM291 778h64l-78 140h-90z" />
    <glyph glyph-name="Aacute" unicode="&#xc1;" horiz-adv-x="648" 
d="M-9 0h95l76 204h324l76 -204h95l-276 715h-114zM192 284l132 356l132 -356h-264zM292 778h64l104 140h-90z" />
    <glyph glyph-name="Acircumflex" unicode="&#xc2;" horiz-adv-x="648" 
d="M-9 0h95l76 204h324l76 -204h95l-276 715h-114zM192 284l132 356l132 -356h-264zM283 917l-116 -140h68l88 95l89 -95h68l-117 140h-80z" />
    <glyph glyph-name="Atilde" unicode="&#xc3;" horiz-adv-x="648" 
d="M-9 0h95l76 204h324l76 -204h95l-276 715h-114zM192 284l132 356l132 -356h-264zM185 788h40q0 32 6.5 50.5t25.5 18.5q14 0 25.5 -9t23.5 -21q15 -15 33.5 -29t46.5 -14q39 0 58.5 31t19.5 94h-40q0 -35 -7 -52t-25 -17q-15 0 -27 9t-23 21q-15 15 -33.5 29t-46.5 14
q-39 0 -58 -32t-19 -93z" />
    <glyph glyph-name="Adieresis" unicode="&#xc4;" horiz-adv-x="648" 
d="M-9 0h95l76 204h324l76 -204h95l-276 715h-114zM192 284l132 356l132 -356h-264zM203 794h92v110h-92v-110zM345 794h92v110h-92v-110z" />
    <glyph glyph-name="Aring" unicode="&#xc5;" horiz-adv-x="648" 
d="M-9 0h95l76 204h324l76 -204h95l-276 715h-114zM192 284l132 356l132 -356h-264zM217 876q0 -44 30 -72t77 -28t77 28t30 72t-30.5 72.5t-76.5 28.5q-47 0 -77 -28.5t-30 -72.5zM271 876q0 23 14.5 37t38.5 14t38.5 -14t14.5 -37t-14.5 -36.5t-38.5 -13.5t-38.5 13.5
t-14.5 36.5z" />
    <glyph glyph-name="AE" unicode="&#xc6;" horiz-adv-x="928" 
d="M411 0h481v80h-395v240h373v78h-373v237h390v80h-536l-360 -715h95l100 204h225v-204zM226 284l175 356h10v-356h-185z" />
    <glyph glyph-name="Ccedilla" unicode="&#xc7;" horiz-adv-x="721" 
d="M30 357q0 -86 24 -154t67.5 -116t105 -73.5t136.5 -25.5q67 0 122.5 19.5t98 56t70 89t37.5 118.5h-92q-18 -96 -80 -149.5t-156 -53.5q-55 0 -99.5 20t-76.5 57.5t-49.5 91.5t-17.5 120q0 68 17.5 121.5t49.5 91t76.5 57.5t98.5 20q90 0 150.5 -48.5t82.5 -136.5h92
q-12 62 -40.5 111t-70 83.5t-95.5 52.5t-118 18q-75 0 -136.5 -26t-105 -74t-67.5 -116.5t-24 -153.5zM269 -155q29 -17 59.5 -26t62.5 -9q29 0 51 7t36.5 19t21.5 27.5t7 31.5q0 27 -20 47t-65 20q-6 0 -20 -1t-27 -6l21 61h-54l-27 -79l42 -16q10 3 21.5 5t22.5 2
q23 0 33.5 -9.5t10.5 -23.5q0 -17 -15 -27t-44 -10q-23 0 -48 7t-49 21z" />
    <glyph glyph-name="Egrave" unicode="&#xc8;" 
d="M54 0h481v80h-395v240h373v78h-373v237h390v80h-476v-715zM261 778h64l-78 140h-90z" />
    <glyph glyph-name="Eacute" unicode="&#xc9;" 
d="M54 0h481v80h-395v240h373v78h-373v237h390v80h-476v-715zM262 778h64l104 140h-90z" />
    <glyph glyph-name="Ecircumflex" unicode="&#xca;" 
d="M54 0h481v80h-395v240h373v78h-373v237h390v80h-476v-715zM253 917l-116 -140h68l88 95l89 -95h68l-117 140h-80z" />
    <glyph glyph-name="Edieresis" unicode="&#xcb;" 
d="M54 0h481v80h-395v240h373v78h-373v237h390v80h-476v-715zM173 794h92v110h-92v-110zM315 794h92v110h-92v-110z" />
    <glyph glyph-name="Igrave" unicode="&#xcc;" horiz-adv-x="195" 
d="M55 0h86v715h-86v-715zM65 778h64l-78 140h-90z" />
    <glyph glyph-name="Iacute" unicode="&#xcd;" horiz-adv-x="195" 
d="M55 0h86v715h-86v-715zM66 778h64l104 140h-90z" />
    <glyph glyph-name="Icircumflex" unicode="&#xce;" horiz-adv-x="195" 
d="M55 0h86v715h-86v-715zM57 917l-116 -140h68l88 95l89 -95h68l-117 140h-80z" />
    <glyph glyph-name="Idieresis" unicode="&#xcf;" horiz-adv-x="195" 
d="M55 0h86v715h-86v-715zM-23 794h92v110h-92v-110zM119 794h92v110h-92v-110z" />
    <glyph glyph-name="Eth" unicode="&#xd0;" horiz-adv-x="727" 
d="M22 323h80v-323h233q175 0 268.5 92t93.5 266q0 173 -93.5 265t-268.5 92h-233v-318h-80v-74zM188 80v243h180v74h-180v238h148q135 0 203 -68t68 -209t-68.5 -209.5t-202.5 -68.5h-148z" />
    <glyph glyph-name="Ntilde" unicode="&#xd1;" horiz-adv-x="701" 
d="M55 0h86v611l381 -611h125v715h-86v-623l-388 623h-118v-715zM213 788h40q0 32 6.5 50.5t25.5 18.5q14 0 25.5 -9t23.5 -21q15 -15 33.5 -29t46.5 -14q39 0 58.5 31t19.5 94h-40q0 -35 -7 -52t-25 -17q-15 0 -27 9t-23 21q-15 15 -33.5 29t-46.5 14q-39 0 -58 -32
t-19 -93z" />
    <glyph glyph-name="Ograve" unicode="&#xd2;" horiz-adv-x="748" 
d="M30 357q0 -86 24.5 -154t69.5 -116t108.5 -73.5t140.5 -25.5q78 0 142 25.5t109 73.5t69.5 116t24.5 154q0 85 -24.5 153.5t-70 116.5t-109 74t-141.5 26q-77 0 -140 -26t-108.5 -74t-70 -116.5t-24.5 -153.5zM120 357q0 68 18.5 121.5t51.5 91t80 57.5t103 20
q58 0 105 -20t80 -57.5t51.5 -91t18.5 -121.5q0 -67 -18 -120.5t-51.5 -91t-80.5 -57.5t-105 -20q-57 0 -103.5 20t-80 57.5t-51.5 91.5t-18 120zM341 778h64l-78 140h-90z" />
    <glyph glyph-name="Oacute" unicode="&#xd3;" horiz-adv-x="748" 
d="M30 357q0 -86 24.5 -154t69.5 -116t108.5 -73.5t140.5 -25.5q78 0 142 25.5t109 73.5t69.5 116t24.5 154q0 85 -24.5 153.5t-70 116.5t-109 74t-141.5 26q-77 0 -140 -26t-108.5 -74t-70 -116.5t-24.5 -153.5zM120 357q0 68 18.5 121.5t51.5 91t80 57.5t103 20
q58 0 105 -20t80 -57.5t51.5 -91t18.5 -121.5q0 -67 -18 -120.5t-51.5 -91t-80.5 -57.5t-105 -20q-57 0 -103.5 20t-80 57.5t-51.5 91.5t-18 120zM342 778h64l104 140h-90z" />
    <glyph glyph-name="Ocircumflex" unicode="&#xd4;" horiz-adv-x="748" 
d="M30 357q0 -86 24.5 -154t69.5 -116t108.5 -73.5t140.5 -25.5q78 0 142 25.5t109 73.5t69.5 116t24.5 154q0 85 -24.5 153.5t-70 116.5t-109 74t-141.5 26q-77 0 -140 -26t-108.5 -74t-70 -116.5t-24.5 -153.5zM120 357q0 68 18.5 121.5t51.5 91t80 57.5t103 20
q58 0 105 -20t80 -57.5t51.5 -91t18.5 -121.5q0 -67 -18 -120.5t-51.5 -91t-80.5 -57.5t-105 -20q-57 0 -103.5 20t-80 57.5t-51.5 91.5t-18 120zM333 917l-116 -140h68l88 95l89 -95h68l-117 140h-80z" />
    <glyph glyph-name="Otilde" unicode="&#xd5;" horiz-adv-x="748" 
d="M30 357q0 -86 24.5 -154t69.5 -116t108.5 -73.5t140.5 -25.5q78 0 142 25.5t109 73.5t69.5 116t24.5 154q0 85 -24.5 153.5t-70 116.5t-109 74t-141.5 26q-77 0 -140 -26t-108.5 -74t-70 -116.5t-24.5 -153.5zM120 357q0 68 18.5 121.5t51.5 91t80 57.5t103 20
q58 0 105 -20t80 -57.5t51.5 -91t18.5 -121.5q0 -67 -18 -120.5t-51.5 -91t-80.5 -57.5t-105 -20q-57 0 -103.5 20t-80 57.5t-51.5 91.5t-18 120zM235 788h40q0 32 6.5 50.5t25.5 18.5q14 0 25.5 -9t23.5 -21q15 -15 33.5 -29t46.5 -14q39 0 58.5 31t19.5 94h-40
q0 -35 -7 -52t-25 -17q-15 0 -27 9t-23 21q-15 15 -33.5 29t-46.5 14q-39 0 -58 -32t-19 -93z" />
    <glyph glyph-name="Odieresis" unicode="&#xd6;" horiz-adv-x="748" 
d="M30 357q0 -86 24.5 -154t69.5 -116t108.5 -73.5t140.5 -25.5q78 0 142 25.5t109 73.5t69.5 116t24.5 154q0 85 -24.5 153.5t-70 116.5t-109 74t-141.5 26q-77 0 -140 -26t-108.5 -74t-70 -116.5t-24.5 -153.5zM120 357q0 68 18.5 121.5t51.5 91t80 57.5t103 20
q58 0 105 -20t80 -57.5t51.5 -91t18.5 -121.5q0 -67 -18 -120.5t-51.5 -91t-80.5 -57.5t-105 -20q-57 0 -103.5 20t-80 57.5t-51.5 91.5t-18 120zM253 794h92v110h-92v-110zM395 794h92v110h-92v-110z" />
    <glyph glyph-name="multiply" unicode="&#xd7;" horiz-adv-x="480" 
d="M42 209l57 -57l141 141l141 -141l57 57l-141 141l141 141l-57 57l-141 -141l-141 141l-57 -57l141 -141z" />
    <glyph glyph-name="Oslash" unicode="&#xd8;" horiz-adv-x="748" 
d="M59 -11h90l36 49q39 -25 86.5 -37.5t101.5 -12.5q78 0 142 25.5t109 73.5t69.5 116t24.5 154q0 88 -26 157t-73 118l68 95h-90l-36 -49q-39 24 -86 36.5t-102 12.5q-77 0 -140 -26t-108.5 -74t-70 -116.5t-24.5 -153.5q0 -87 25.5 -156t71.5 -117zM180 157
q-29 37 -44.5 87.5t-15.5 112.5q0 68 18.5 121.5t51.5 91t80 57.5t103 20q40 0 74.5 -9.5t63.5 -28.5zM235 107l331 453q30 -37 46 -88t16 -115q0 -67 -18 -120.5t-51.5 -91t-80.5 -57.5t-105 -20q-40 0 -74.5 10t-63.5 29z" />
    <glyph glyph-name="Ugrave" unicode="&#xd9;" horiz-adv-x="676" 
d="M55 250q0 -60 20 -108.5t56.5 -82.5t89 -52.5t118.5 -18.5q65 0 117.5 18.5t89 52.5t56.5 82.5t20 108.5v465h-86v-462q0 -87 -51.5 -136t-145.5 -49q-95 0 -146.5 49t-51.5 136v462h-86v-465zM305 778h64l-78 140h-90z" />
    <glyph glyph-name="Uacute" unicode="&#xda;" horiz-adv-x="676" 
d="M55 250q0 -60 20 -108.5t56.5 -82.5t89 -52.5t118.5 -18.5q65 0 117.5 18.5t89 52.5t56.5 82.5t20 108.5v465h-86v-462q0 -87 -51.5 -136t-145.5 -49q-95 0 -146.5 49t-51.5 136v462h-86v-465zM306 778h64l104 140h-90z" />
    <glyph glyph-name="Ucircumflex" unicode="&#xdb;" horiz-adv-x="676" 
d="M55 250q0 -60 20 -108.5t56.5 -82.5t89 -52.5t118.5 -18.5q65 0 117.5 18.5t89 52.5t56.5 82.5t20 108.5v465h-86v-462q0 -87 -51.5 -136t-145.5 -49q-95 0 -146.5 49t-51.5 136v462h-86v-465zM297 917l-116 -140h68l88 95l89 -95h68l-117 140h-80z" />
    <glyph glyph-name="Udieresis" unicode="&#xdc;" horiz-adv-x="676" 
d="M55 250q0 -60 20 -108.5t56.5 -82.5t89 -52.5t118.5 -18.5q65 0 117.5 18.5t89 52.5t56.5 82.5t20 108.5v465h-86v-462q0 -87 -51.5 -136t-145.5 -49q-95 0 -146.5 49t-51.5 136v462h-86v-465zM217 794h92v110h-92v-110zM359 794h92v110h-92v-110z" />
    <glyph glyph-name="Yacute" unicode="&#xdd;" horiz-adv-x="606" 
d="M259 0h86v280l269 435h-100l-212 -352l-211 352h-100l268 -435v-280zM271 778h64l104 140h-90z" />
    <glyph glyph-name="Thorn" unicode="&#xde;" horiz-adv-x="626" 
d="M54 0h86v144h210q122 0 184 55.5t62 157.5t-62 158t-184 56h-210v144h-86v-715zM140 224v267h204q81 0 121.5 -31.5t40.5 -102.5t-40.5 -102t-121.5 -31h-204z" />
    <glyph glyph-name="germandbls" unicode="&#xdf;" horiz-adv-x="577" 
d="M54 0h86v532q0 34 10 61.5t28.5 47.5t45.5 30.5t62 10.5q34 0 60 -10t44 -26.5t27 -39t9 -48.5q0 -54 -38 -87.5t-106 -33.5h-47v-76h46q46 0 80.5 -10t57.5 -29t34.5 -46.5t11.5 -62.5q0 -71 -45.5 -105t-135.5 -34q-11 0 -27 1t-33 4v-78q17 -3 33 -4t28 -1
q129 0 198.5 57t69.5 154q0 78 -42 132t-112 68q53 14 83 58t30 105q0 47 -18.5 82.5t-49.5 59.5t-72 36t-87 12q-54 0 -96.5 -16t-72.5 -46t-46 -72.5t-16 -95.5v-530z" />
    <glyph glyph-name="agrave" unicode="&#xe0;" horiz-adv-x="542" 
d="M27 141q0 -37 13.5 -65.5t37.5 -48t58 -29.5t74 -10q35 0 68 7.5t60.5 20.5t48 31t32.5 39l3 -86h78v331q0 103 -59.5 161.5t-168.5 58.5q-53 0 -95.5 -14.5t-73 -41t-48.5 -62.5t-22 -80h88q9 57 46 88.5t103 31.5q67 0 104.5 -34.5t37.5 -100.5v-5l-204 -35
q-94 -16 -137.5 -54.5t-43.5 -102.5zM117 145q0 32 22 52t81 30l192 34v-39q0 -34 -13 -63t-36.5 -50.5t-57 -33.5t-75.5 -12q-50 0 -81.5 20t-31.5 62zM239 602h64l-78 140h-90z" />
    <glyph glyph-name="aacute" unicode="&#xe1;" horiz-adv-x="542" 
d="M27 141q0 -37 13.5 -65.5t37.5 -48t58 -29.5t74 -10q35 0 68 7.5t60.5 20.5t48 31t32.5 39l3 -86h78v331q0 103 -59.5 161.5t-168.5 58.5q-53 0 -95.5 -14.5t-73 -41t-48.5 -62.5t-22 -80h88q9 57 46 88.5t103 31.5q67 0 104.5 -34.5t37.5 -100.5v-5l-204 -35
q-94 -16 -137.5 -54.5t-43.5 -102.5zM117 145q0 32 22 52t81 30l192 34v-39q0 -34 -13 -63t-36.5 -50.5t-57 -33.5t-75.5 -12q-50 0 -81.5 20t-31.5 62zM240 602h64l104 140h-90z" />
    <glyph glyph-name="acircumflex" unicode="&#xe2;" horiz-adv-x="542" 
d="M27 141q0 -37 13.5 -65.5t37.5 -48t58 -29.5t74 -10q35 0 68 7.5t60.5 20.5t48 31t32.5 39l3 -86h78v331q0 103 -59.5 161.5t-168.5 58.5q-53 0 -95.5 -14.5t-73 -41t-48.5 -62.5t-22 -80h88q9 57 46 88.5t103 31.5q67 0 104.5 -34.5t37.5 -100.5v-5l-204 -35
q-94 -16 -137.5 -54.5t-43.5 -102.5zM117 145q0 32 22 52t81 30l192 34v-39q0 -34 -13 -63t-36.5 -50.5t-57 -33.5t-75.5 -12q-50 0 -81.5 20t-31.5 62zM231 741l-116 -140h68l88 95l89 -95h68l-117 140h-80z" />
    <glyph glyph-name="atilde" unicode="&#xe3;" horiz-adv-x="542" 
d="M27 141q0 -37 13.5 -65.5t37.5 -48t58 -29.5t74 -10q35 0 68 7.5t60.5 20.5t48 31t32.5 39l3 -86h78v331q0 103 -59.5 161.5t-168.5 58.5q-53 0 -95.5 -14.5t-73 -41t-48.5 -62.5t-22 -80h88q9 57 46 88.5t103 31.5q67 0 104.5 -34.5t37.5 -100.5v-5l-204 -35
q-94 -16 -137.5 -54.5t-43.5 -102.5zM117 145q0 32 22 52t81 30l192 34v-39q0 -34 -13 -63t-36.5 -50.5t-57 -33.5t-75.5 -12q-50 0 -81.5 20t-31.5 62zM133 612h40q0 32 6.5 50.5t25.5 18.5q14 0 25.5 -9t23.5 -21q15 -15 33.5 -29t46.5 -14q39 0 58.5 31t19.5 94h-40
q0 -35 -7 -52t-25 -17q-15 0 -27 9t-23 21q-15 15 -33.5 29t-46.5 14q-39 0 -58 -32t-19 -93z" />
    <glyph glyph-name="adieresis" unicode="&#xe4;" horiz-adv-x="542" 
d="M27 141q0 -37 13.5 -65.5t37.5 -48t58 -29.5t74 -10q35 0 68 7.5t60.5 20.5t48 31t32.5 39l3 -86h78v331q0 103 -59.5 161.5t-168.5 58.5q-53 0 -95.5 -14.5t-73 -41t-48.5 -62.5t-22 -80h88q9 57 46 88.5t103 31.5q67 0 104.5 -34.5t37.5 -100.5v-5l-204 -35
q-94 -16 -137.5 -54.5t-43.5 -102.5zM117 145q0 32 22 52t81 30l192 34v-39q0 -34 -13 -63t-36.5 -50.5t-57 -33.5t-75.5 -12q-50 0 -81.5 20t-31.5 62zM151 618h92v110h-92v-110zM293 618h92v110h-92v-110z" />
    <glyph glyph-name="aring" unicode="&#xe5;" horiz-adv-x="542" 
d="M27 141q0 -37 13.5 -65.5t37.5 -48t58 -29.5t74 -10q35 0 68 7.5t60.5 20.5t48 31t32.5 39l3 -86h78v331q0 103 -59.5 161.5t-168.5 58.5q-53 0 -95.5 -14.5t-73 -41t-48.5 -62.5t-22 -80h88q9 57 46 88.5t103 31.5q67 0 104.5 -34.5t37.5 -100.5v-5l-204 -35
q-94 -16 -137.5 -54.5t-43.5 -102.5zM117 145q0 32 22 52t81 30l192 34v-39q0 -34 -13 -63t-36.5 -50.5t-57 -33.5t-75.5 -12q-50 0 -81.5 20t-31.5 62zM165 700q0 -44 30 -72t77 -28t77 28t30 72t-30.5 72.5t-76.5 28.5q-47 0 -77 -28.5t-30 -72.5zM219 700q0 23 14.5 37
t38.5 14t38.5 -14t14.5 -37t-14.5 -36.5t-38.5 -13.5t-38.5 13.5t-14.5 36.5z" />
    <glyph glyph-name="ae" unicode="&#xe6;" horiz-adv-x="952" 
d="M26 141q0 -37 13.5 -65.5t37.5 -48t58 -29.5t74 -10q37 0 74 8.5t68.5 26t55.5 43t35 59.5q32 -64 90 -100.5t138 -36.5q93 0 157 49t87 133h-91q-9 -24 -23 -43.5t-33 -33t-42.5 -20.5t-52.5 -7q-37 0 -67.5 12.5t-52 35t-35 55t-17.5 71.5h422v43q0 60 -18 109.5
t-51.5 84.5t-80 54.5t-103.5 19.5q-65 0 -116 -25t-85 -70q-28 46 -77.5 70.5t-119.5 24.5q-53 0 -95.5 -14.5t-73 -41t-48.5 -62.5t-22 -80h88q9 57 46 88.5t103 31.5q67 0 104.5 -34.5t37.5 -101.5v-4l-204 -35q-94 -16 -137.5 -54.5t-43.5 -102.5zM116 145q0 32 22 52
t81 30l192 34v-39q0 -34 -13 -63t-36.5 -50.5t-57 -33.5t-74.5 -12q-51 0 -82.5 20t-31.5 62zM502 312q5 37 18.5 66.5t35 50.5t50 32.5t64.5 11.5t64.5 -11.5t49 -32.5t32.5 -50.5t16 -66.5h-330z" />
    <glyph glyph-name="ccedilla" unicode="&#xe7;" horiz-adv-x="566" 
d="M30 270q0 -63 18.5 -114.5t52.5 -89t82 -58t107 -20.5q51 0 93.5 15t75 43t54 67t29.5 87h-90q-6 -31 -20 -55.5t-34 -42t-47 -27t-59 -9.5q-41 0 -73.5 14.5t-55 41.5t-34 64.5t-11.5 83.5t11.5 83.5t34 64t54.5 41t73 14.5q31 0 57 -8.5t46 -24t34 -38t21 -50.5h90
q-9 45 -31 82t-54 63t-73 40t-90 14q-59 0 -107.5 -20.5t-82.5 -57.5t-52.5 -88.5t-18.5 -114.5zM199 -155q29 -17 59.5 -26t62.5 -9q29 0 51 7t36.5 19t21.5 27.5t7 31.5q0 27 -20 47t-65 20q-6 0 -20 -1t-27 -6l21 61h-54l-27 -79l42 -16q10 3 21.5 5t22.5 2
q23 0 33.5 -9.5t10.5 -23.5q0 -17 -15 -27t-44 -10q-23 0 -48 7t-49 21z" />
    <glyph glyph-name="egrave" unicode="&#xe8;" 
d="M30 270q0 -63 18.5 -114.5t52 -89t81.5 -58t107 -20.5q93 0 157 49t87 133h-91q-9 -24 -23 -43.5t-33 -33t-42.5 -20.5t-52.5 -7q-37 0 -67.5 12.5t-52 35t-35 55t-17.5 71.5h422v43q0 60 -18 109.5t-51.5 84.5t-80 54.5t-103.5 19.5q-58 0 -106 -20.5t-81.5 -57.5
t-52 -88.5t-18.5 -114.5zM121 312q5 37 18.5 66.5t35 50.5t50 32.5t64.5 11.5t64.5 -11.5t49 -32.5t32.5 -50.5t16 -66.5h-330zM255 602h64l-78 140h-90z" />
    <glyph glyph-name="eacute" unicode="&#xe9;" 
d="M30 270q0 -63 18.5 -114.5t52 -89t81.5 -58t107 -20.5q93 0 157 49t87 133h-91q-9 -24 -23 -43.5t-33 -33t-42.5 -20.5t-52.5 -7q-37 0 -67.5 12.5t-52 35t-35 55t-17.5 71.5h422v43q0 60 -18 109.5t-51.5 84.5t-80 54.5t-103.5 19.5q-58 0 -106 -20.5t-81.5 -57.5
t-52 -88.5t-18.5 -114.5zM121 312q5 37 18.5 66.5t35 50.5t50 32.5t64.5 11.5t64.5 -11.5t49 -32.5t32.5 -50.5t16 -66.5h-330zM256 602h64l104 140h-90z" />
    <glyph glyph-name="ecircumflex" unicode="&#xea;" 
d="M30 270q0 -63 18.5 -114.5t52 -89t81.5 -58t107 -20.5q93 0 157 49t87 133h-91q-9 -24 -23 -43.5t-33 -33t-42.5 -20.5t-52.5 -7q-37 0 -67.5 12.5t-52 35t-35 55t-17.5 71.5h422v43q0 60 -18 109.5t-51.5 84.5t-80 54.5t-103.5 19.5q-58 0 -106 -20.5t-81.5 -57.5
t-52 -88.5t-18.5 -114.5zM121 312q5 37 18.5 66.5t35 50.5t50 32.5t64.5 11.5t64.5 -11.5t49 -32.5t32.5 -50.5t16 -66.5h-330zM247 741l-116 -140h68l88 95l89 -95h68l-117 140h-80z" />
    <glyph glyph-name="edieresis" unicode="&#xeb;" 
d="M30 270q0 -63 18.5 -114.5t52 -89t81.5 -58t107 -20.5q93 0 157 49t87 133h-91q-9 -24 -23 -43.5t-33 -33t-42.5 -20.5t-52.5 -7q-37 0 -67.5 12.5t-52 35t-35 55t-17.5 71.5h422v43q0 60 -18 109.5t-51.5 84.5t-80 54.5t-103.5 19.5q-58 0 -106 -20.5t-81.5 -57.5
t-52 -88.5t-18.5 -114.5zM121 312q5 37 18.5 66.5t35 50.5t50 32.5t64.5 11.5t64.5 -11.5t49 -32.5t32.5 -50.5t16 -66.5h-330zM167 618h92v110h-92v-110zM309 618h92v110h-92v-110z" />
    <glyph glyph-name="igrave" unicode="&#xec;" horiz-adv-x="198" 
d="M56 0h86v539h-86v-539zM66 602h64l-78 140h-90z" />
    <glyph glyph-name="iacute" unicode="&#xed;" horiz-adv-x="198" 
d="M56 0h86v539h-86v-539zM67 602h64l104 140h-90z" />
    <glyph glyph-name="icircumflex" unicode="&#xee;" horiz-adv-x="198" 
d="M56 0h86v539h-86v-539zM58 741l-116 -140h68l88 95l89 -95h68l-117 140h-80z" />
    <glyph glyph-name="idieresis" unicode="&#xef;" horiz-adv-x="198" 
d="M56 0h86v539h-86v-539zM-22 618h92v110h-92v-110zM120 618h92v110h-92v-110z" />
    <glyph glyph-name="eth" unicode="&#xf0;" horiz-adv-x="583" 
d="M30 269q0 -63 19 -115t53.5 -88.5t83 -57t106.5 -20.5q59 0 107 20.5t82 57.5t53 89t19 115q0 128 -43.5 224.5t-137.5 170.5l84 41l-26 54l-114 -55q-31 20 -66 38.5t-75 35.5l-28 -54q28 -14 52 -27t46 -27l-108 -52l26 -53l139 66q45 -35 75 -73t49 -84
q-27 31 -64.5 47t-84.5 16q-55 0 -100.5 -19.5t-78 -55t-50.5 -85t-18 -109.5zM118 270q0 44 12 80.5t33.5 62.5t52 40t67.5 14q39 0 72.5 -15t57.5 -41.5t38 -62.5t14 -79q0 -46 -12.5 -83.5t-35 -64t-54.5 -41t-71 -14.5q-40 0 -72 14.5t-54.5 41t-35 64.5t-12.5 84z" />
    <glyph glyph-name="ntilde" unicode="&#xf1;" horiz-adv-x="541" 
d="M47 0h86v315q0 36 11 65t31 49.5t48.5 32t62.5 11.5q32 0 55.5 -10t39.5 -30t24 -49.5t8 -68.5v-315h86v347q0 47 -13.5 85t-38.5 64.5t-61 40.5t-81 14q-32 0 -60 -7.5t-50.5 -21.5t-39.5 -34t-27 -46l-3 97h-78v-539zM140 612h40q0 32 6.5 50.5t25.5 18.5q14 0 25.5 -9
t23.5 -21q15 -15 33.5 -29t46.5 -14q39 0 58.5 31t19.5 94h-40q0 -35 -7 -52t-25 -17q-15 0 -27 9t-23 21q-15 15 -33.5 29t-46.5 14q-39 0 -58 -32t-19 -93z" />
    <glyph glyph-name="ograve" unicode="&#xf2;" horiz-adv-x="583" 
d="M30 270q0 -63 18.5 -114.5t53 -89t82.5 -58t108 -20.5q59 0 107 20.5t82.5 58t53 89t18.5 114.5q0 62 -18.5 114t-53 89t-82.5 57.5t-107 20.5q-60 0 -108 -20.5t-82.5 -57.5t-53 -89t-18.5 -114zM118 270q0 45 12 82.5t34 64.5t54.5 41.5t73.5 14.5t73 -14.5t54.5 -41.5
t34 -64.5t11.5 -82.5q0 -46 -11.5 -83.5t-34 -64.5t-54.5 -41.5t-73 -14.5t-73.5 14.5t-54.5 41.5t-34 64.5t-12 83.5zM258 602h64l-78 140h-90z" />
    <glyph glyph-name="oacute" unicode="&#xf3;" horiz-adv-x="583" 
d="M30 270q0 -63 18.5 -114.5t53 -89t82.5 -58t108 -20.5q59 0 107 20.5t82.5 58t53 89t18.5 114.5q0 62 -18.5 114t-53 89t-82.5 57.5t-107 20.5q-60 0 -108 -20.5t-82.5 -57.5t-53 -89t-18.5 -114zM118 270q0 45 12 82.5t34 64.5t54.5 41.5t73.5 14.5t73 -14.5t54.5 -41.5
t34 -64.5t11.5 -82.5q0 -46 -11.5 -83.5t-34 -64.5t-54.5 -41.5t-73 -14.5t-73.5 14.5t-54.5 41.5t-34 64.5t-12 83.5zM259 602h64l104 140h-90z" />
    <glyph glyph-name="ocircumflex" unicode="&#xf4;" horiz-adv-x="583" 
d="M30 270q0 -63 18.5 -114.5t53 -89t82.5 -58t108 -20.5q59 0 107 20.5t82.5 58t53 89t18.5 114.5q0 62 -18.5 114t-53 89t-82.5 57.5t-107 20.5q-60 0 -108 -20.5t-82.5 -57.5t-53 -89t-18.5 -114zM118 270q0 45 12 82.5t34 64.5t54.5 41.5t73.5 14.5t73 -14.5t54.5 -41.5
t34 -64.5t11.5 -82.5q0 -46 -11.5 -83.5t-34 -64.5t-54.5 -41.5t-73 -14.5t-73.5 14.5t-54.5 41.5t-34 64.5t-12 83.5zM250 741l-116 -140h68l88 95l89 -95h68l-117 140h-80z" />
    <glyph glyph-name="otilde" unicode="&#xf5;" horiz-adv-x="583" 
d="M30 270q0 -63 18.5 -114.5t53 -89t82.5 -58t108 -20.5q59 0 107 20.5t82.5 58t53 89t18.5 114.5q0 62 -18.5 114t-53 89t-82.5 57.5t-107 20.5q-60 0 -108 -20.5t-82.5 -57.5t-53 -89t-18.5 -114zM118 270q0 45 12 82.5t34 64.5t54.5 41.5t73.5 14.5t73 -14.5t54.5 -41.5
t34 -64.5t11.5 -82.5q0 -46 -11.5 -83.5t-34 -64.5t-54.5 -41.5t-73 -14.5t-73.5 14.5t-54.5 41.5t-34 64.5t-12 83.5zM152 612h40q0 32 6.5 50.5t25.5 18.5q14 0 25.5 -9t23.5 -21q15 -15 33.5 -29t46.5 -14q39 0 58.5 31t19.5 94h-40q0 -35 -7 -52t-25 -17q-15 0 -27 9
t-23 21q-15 15 -33.5 29t-46.5 14q-39 0 -58 -32t-19 -93z" />
    <glyph glyph-name="odieresis" unicode="&#xf6;" horiz-adv-x="583" 
d="M30 270q0 -63 18.5 -114.5t53 -89t82.5 -58t108 -20.5q59 0 107 20.5t82.5 58t53 89t18.5 114.5q0 62 -18.5 114t-53 89t-82.5 57.5t-107 20.5q-60 0 -108 -20.5t-82.5 -57.5t-53 -89t-18.5 -114zM118 270q0 45 12 82.5t34 64.5t54.5 41.5t73.5 14.5t73 -14.5t54.5 -41.5
t34 -64.5t11.5 -82.5q0 -46 -11.5 -83.5t-34 -64.5t-54.5 -41.5t-73 -14.5t-73.5 14.5t-54.5 41.5t-34 64.5t-12 83.5zM170 618h92v110h-92v-110zM312 618h92v110h-92v-110z" />
    <glyph glyph-name="divide" unicode="&#xf7;" horiz-adv-x="552" 
d="M227 458h99v97h-99v-97zM227 145h99v97h-99v-97zM42 312h468v76h-468v-76z" />
    <glyph glyph-name="oslash" unicode="&#xf8;" horiz-adv-x="583" 
d="M60 -12h80l22 32q28 -16 60.5 -24t69.5 -8q59 0 107 20.5t82.5 58t53 89t18.5 114.5q0 66 -20.5 119t-57.5 91l48 71h-80l-21 -31q-28 15 -60.5 23t-69.5 8q-60 0 -108 -20.5t-82.5 -57.5t-53 -89t-18.5 -114q0 -66 20.5 -119.5t57.5 -91.5zM157 132q-19 26 -29 61
t-10 77q0 45 12 82.5t34 64.5t54.5 41.5t73.5 14.5q24 0 45 -5t39 -15zM207 86l220 322q18 -27 28 -61.5t10 -76.5q0 -46 -11.5 -83.5t-34 -64.5t-54.5 -41.5t-73 -14.5q-24 0 -45.5 5t-39.5 15z" />
    <glyph glyph-name="ugrave" unicode="&#xf9;" horiz-adv-x="540" 
d="M42 192q0 -47 13.5 -85t38.5 -64.5t61 -40.5t81 -14q32 0 60 7.5t50.5 21.5t39.5 34t27 46l3 -97h78v539h-86v-315q0 -36 -11 -65t-31 -49.5t-48.5 -32t-62.5 -11.5q-32 0 -55.5 10t-39.5 30t-24 49.5t-8 68.5v315h-86v-347zM235 602h64l-78 140h-90z" />
    <glyph glyph-name="uacute" unicode="&#xfa;" horiz-adv-x="540" 
d="M42 192q0 -47 13.5 -85t38.5 -64.5t61 -40.5t81 -14q32 0 60 7.5t50.5 21.5t39.5 34t27 46l3 -97h78v539h-86v-315q0 -36 -11 -65t-31 -49.5t-48.5 -32t-62.5 -11.5q-32 0 -55.5 10t-39.5 30t-24 49.5t-8 68.5v315h-86v-347zM236 602h64l104 140h-90z" />
    <glyph glyph-name="ucircumflex" unicode="&#xfb;" horiz-adv-x="540" 
d="M42 192q0 -47 13.5 -85t38.5 -64.5t61 -40.5t81 -14q32 0 60 7.5t50.5 21.5t39.5 34t27 46l3 -97h78v539h-86v-315q0 -36 -11 -65t-31 -49.5t-48.5 -32t-62.5 -11.5q-32 0 -55.5 10t-39.5 30t-24 49.5t-8 68.5v315h-86v-347zM227 741l-116 -140h68l88 95l89 -95h68
l-117 140h-80z" />
    <glyph glyph-name="udieresis" unicode="&#xfc;" horiz-adv-x="540" 
d="M42 192q0 -47 13.5 -85t38.5 -64.5t61 -40.5t81 -14q32 0 60 7.5t50.5 21.5t39.5 34t27 46l3 -97h78v539h-86v-315q0 -36 -11 -65t-31 -49.5t-48.5 -32t-62.5 -11.5q-32 0 -55.5 10t-39.5 30t-24 49.5t-8 68.5v315h-86v-347zM147 618h92v110h-92v-110zM289 618h92v110
h-92v-110z" />
    <glyph glyph-name="yacute" unicode="&#xfd;" horiz-adv-x="489" 
d="M6 -189q17 -2 32.5 -3t27.5 -1q40 0 73 8t60.5 26.5t48.5 49t37 74.5l210 574h-91l-160 -457l-159 457h-91l215 -591l8 69l-20 -52q-9 -25 -23 -41t-31.5 -25t-36.5 -12t-38 -3q-15 0 -30 1.5t-32 3.5v-78zM212 602h64l104 140h-90z" />
    <glyph glyph-name="thorn" unicode="&#xfe;" horiz-adv-x="580" 
d="M46 -196h86v287q24 -52 74.5 -77.5t109.5 -25.5q52 0 95.5 20t74 57t47.5 89t17 115t-17 115t-48.5 89t-75 57.5t-96.5 20.5q-60 0 -108.5 -25.5t-72.5 -72.5v282h-86v-931zM130 271q0 47 11.5 84.5t33.5 63.5t53.5 40t71.5 14q39 0 69 -13.5t51 -39.5t31.5 -63.5
t10.5 -86.5t-10.5 -87t-31.5 -64t-51 -39.5t-69 -13.5q-40 0 -71.5 14t-53.5 40.5t-33.5 64.5t-11.5 86z" />
    <glyph glyph-name="ydieresis" unicode="&#xff;" horiz-adv-x="489" 
d="M6 -189q17 -2 32.5 -3t27.5 -1q40 0 73 8t60.5 26.5t48.5 49t37 74.5l210 574h-91l-160 -457l-159 457h-91l215 -591l8 69l-20 -52q-9 -25 -23 -41t-31.5 -25t-36.5 -12t-38 -3q-15 0 -30 1.5t-32 3.5v-78zM123 618h92v110h-92v-110zM265 618h92v110h-92v-110z" />
    <glyph glyph-name="Amacron" unicode="&#x100;" horiz-adv-x="648" 
d="M-9 0h95l76 204h324l76 -204h95l-276 715h-114zM192 284l132 356l132 -356h-264zM200 808h248v60h-248v-60z" />
    <glyph glyph-name="amacron" unicode="&#x101;" horiz-adv-x="542" 
d="M27 141q0 -37 13.5 -65.5t37.5 -48t58 -29.5t74 -10q35 0 68 7.5t60.5 20.5t48 31t32.5 39l3 -86h78v331q0 103 -59.5 161.5t-168.5 58.5q-53 0 -95.5 -14.5t-73 -41t-48.5 -62.5t-22 -80h88q9 57 46 88.5t103 31.5q67 0 104.5 -34.5t37.5 -100.5v-5l-204 -35
q-94 -16 -137.5 -54.5t-43.5 -102.5zM117 145q0 32 22 52t81 30l192 34v-39q0 -34 -13 -63t-36.5 -50.5t-57 -33.5t-75.5 -12q-50 0 -81.5 20t-31.5 62zM148 632h248v60h-248v-60z" />
    <glyph glyph-name="Abreve" unicode="&#x102;" horiz-adv-x="648" 
d="M-9 0h95l76 204h324l76 -204h95l-276 715h-114zM192 284l132 356l132 -356h-264zM195 925q0 -68 34.5 -107.5t94.5 -39.5t95 39.5t35 107.5h-50q0 -40 -21.5 -63.5t-57.5 -23.5q-37 0 -58.5 23.5t-21.5 63.5h-50z" />
    <glyph glyph-name="abreve" unicode="&#x103;" horiz-adv-x="542" 
d="M27 141q0 -37 13.5 -65.5t37.5 -48t58 -29.5t74 -10q35 0 68 7.5t60.5 20.5t48 31t32.5 39l3 -86h78v331q0 103 -59.5 161.5t-168.5 58.5q-53 0 -95.5 -14.5t-73 -41t-48.5 -62.5t-22 -80h88q9 57 46 88.5t103 31.5q67 0 104.5 -34.5t37.5 -100.5v-5l-204 -35
q-94 -16 -137.5 -54.5t-43.5 -102.5zM117 145q0 32 22 52t81 30l192 34v-39q0 -34 -13 -63t-36.5 -50.5t-57 -33.5t-75.5 -12q-50 0 -81.5 20t-31.5 62zM143 749q0 -68 34.5 -107.5t94.5 -39.5t95 39.5t35 107.5h-50q0 -40 -21.5 -63.5t-57.5 -23.5q-37 0 -58.5 23.5
t-21.5 63.5h-50z" />
    <glyph glyph-name="Aogonek" unicode="&#x104;" horiz-adv-x="648" 
d="M-9 0h95l76 204h324l76 -204h95l-276 715h-114zM192 284l132 356l132 -356h-264zM651 10q-41 -3 -75.5 -11.5t-60 -22t-39.5 -32t-14 -40.5q0 -19 10 -34t28.5 -25t44.5 -15.5t57 -5.5q16 0 29.5 1t25.5 3v66q-13 -2 -25 -3t-24 -1q-43 0 -67 11t-24 31q0 28 40 45t98 23
z" />
    <glyph glyph-name="aogonek" unicode="&#x105;" horiz-adv-x="542" 
d="M27 141q0 -37 13.5 -65.5t37.5 -48t58 -29.5t74 -10q35 0 68 7.5t60.5 20.5t48 31t32.5 39l3 -86h78v331q0 103 -59.5 161.5t-168.5 58.5q-53 0 -95.5 -14.5t-73 -41t-48.5 -62.5t-22 -80h88q9 57 46 88.5t103 31.5q67 0 104.5 -34.5t37.5 -100.5v-5l-204 -35
q-94 -16 -137.5 -54.5t-43.5 -102.5zM117 145q0 32 22 52t81 30l192 34v-39q0 -34 -13 -63t-36.5 -50.5t-57 -33.5t-75.5 -12q-50 0 -81.5 20t-31.5 62zM494 10q-41 -3 -75.5 -11.5t-60 -22t-39.5 -32t-14 -40.5q0 -19 10 -34t28.5 -25t44.5 -15.5t57 -5.5q16 0 29.5 1
t25.5 3v66q-13 -2 -25 -3t-24 -1q-43 0 -67 11t-24 31q0 28 40 45t98 23z" />
    <glyph glyph-name="Cacute" unicode="&#x106;" horiz-adv-x="721" 
d="M30 357q0 -86 24 -154t67.5 -116t105 -73.5t136.5 -25.5q67 0 122.5 19.5t98 56t70 89t37.5 118.5h-92q-18 -96 -80 -149.5t-156 -53.5q-55 0 -99.5 20t-76.5 57.5t-49.5 91.5t-17.5 120q0 68 17.5 121.5t49.5 91t76.5 57.5t98.5 20q90 0 150.5 -48.5t82.5 -136.5h92
q-12 62 -40.5 111t-70 83.5t-95.5 52.5t-118 18q-75 0 -136.5 -26t-105 -74t-67.5 -116.5t-24 -153.5zM328 778h64l104 140h-90z" />
    <glyph glyph-name="cacute" unicode="&#x107;" horiz-adv-x="566" 
d="M30 270q0 -63 18.5 -114.5t52.5 -89t82 -58t107 -20.5q51 0 93.5 15t75 43t54 67t29.5 87h-90q-6 -31 -20 -55.5t-34 -42t-47 -27t-59 -9.5q-41 0 -73.5 14.5t-55 41.5t-34 64.5t-11.5 83.5t11.5 83.5t34 64t54.5 41t73 14.5q31 0 57 -8.5t46 -24t34 -38t21 -50.5h90
q-9 45 -31 82t-54 63t-73 40t-90 14q-59 0 -107.5 -20.5t-82.5 -57.5t-52.5 -88.5t-18.5 -114.5zM258 602h64l104 140h-90z" />
    <glyph glyph-name="Ccircumflex" unicode="&#x108;" horiz-adv-x="721" 
d="M30 357q0 -86 24 -154t67.5 -116t105 -73.5t136.5 -25.5q67 0 122.5 19.5t98 56t70 89t37.5 118.5h-92q-18 -96 -80 -149.5t-156 -53.5q-55 0 -99.5 20t-76.5 57.5t-49.5 91.5t-17.5 120q0 68 17.5 121.5t49.5 91t76.5 57.5t98.5 20q90 0 150.5 -48.5t82.5 -136.5h92
q-12 62 -40.5 111t-70 83.5t-95.5 52.5t-118 18q-75 0 -136.5 -26t-105 -74t-67.5 -116.5t-24 -153.5zM319 917l-116 -140h68l88 95l89 -95h68l-117 140h-80z" />
    <glyph glyph-name="ccircumflex" unicode="&#x109;" horiz-adv-x="566" 
d="M30 270q0 -63 18.5 -114.5t52.5 -89t82 -58t107 -20.5q51 0 93.5 15t75 43t54 67t29.5 87h-90q-6 -31 -20 -55.5t-34 -42t-47 -27t-59 -9.5q-41 0 -73.5 14.5t-55 41.5t-34 64.5t-11.5 83.5t11.5 83.5t34 64t54.5 41t73 14.5q31 0 57 -8.5t46 -24t34 -38t21 -50.5h90
q-9 45 -31 82t-54 63t-73 40t-90 14q-59 0 -107.5 -20.5t-82.5 -57.5t-52.5 -88.5t-18.5 -114.5zM249 741l-116 -140h68l88 95l89 -95h68l-117 140h-80z" />
    <glyph glyph-name="Cdotaccent" unicode="&#x10a;" horiz-adv-x="721" 
d="M30 357q0 -86 24 -154t67.5 -116t105 -73.5t136.5 -25.5q67 0 122.5 19.5t98 56t70 89t37.5 118.5h-92q-18 -96 -80 -149.5t-156 -53.5q-55 0 -99.5 20t-76.5 57.5t-49.5 91.5t-17.5 120q0 68 17.5 121.5t49.5 91t76.5 57.5t98.5 20q90 0 150.5 -48.5t82.5 -136.5h92
q-12 62 -40.5 111t-70 83.5t-95.5 52.5t-118 18q-75 0 -136.5 -26t-105 -74t-67.5 -116.5t-24 -153.5zM315 794h92v110h-92v-110z" />
    <glyph glyph-name="cdotaccent" unicode="&#x10b;" horiz-adv-x="566" 
d="M30 270q0 -63 18.5 -114.5t52.5 -89t82 -58t107 -20.5q51 0 93.5 15t75 43t54 67t29.5 87h-90q-6 -31 -20 -55.5t-34 -42t-47 -27t-59 -9.5q-41 0 -73.5 14.5t-55 41.5t-34 64.5t-11.5 83.5t11.5 83.5t34 64t54.5 41t73 14.5q31 0 57 -8.5t46 -24t34 -38t21 -50.5h90
q-9 45 -31 82t-54 63t-73 40t-90 14q-59 0 -107.5 -20.5t-82.5 -57.5t-52.5 -88.5t-18.5 -114.5zM245 618h92v110h-92v-110z" />
    <glyph glyph-name="Ccaron" unicode="&#x10c;" horiz-adv-x="721" 
d="M30 357q0 -86 24 -154t67.5 -116t105 -73.5t136.5 -25.5q67 0 122.5 19.5t98 56t70 89t37.5 118.5h-92q-18 -96 -80 -149.5t-156 -53.5q-55 0 -99.5 20t-76.5 57.5t-49.5 91.5t-17.5 120q0 68 17.5 121.5t49.5 91t76.5 57.5t98.5 20q90 0 150.5 -48.5t82.5 -136.5h92
q-12 62 -40.5 111t-70 83.5t-95.5 52.5t-118 18q-75 0 -136.5 -26t-105 -74t-67.5 -116.5t-24 -153.5zM319 777h80l117 140h-68l-89 -95l-88 95h-68z" />
    <glyph glyph-name="ccaron" unicode="&#x10d;" horiz-adv-x="566" 
d="M30 270q0 -63 18.5 -114.5t52.5 -89t82 -58t107 -20.5q51 0 93.5 15t75 43t54 67t29.5 87h-90q-6 -31 -20 -55.5t-34 -42t-47 -27t-59 -9.5q-41 0 -73.5 14.5t-55 41.5t-34 64.5t-11.5 83.5t11.5 83.5t34 64t54.5 41t73 14.5q31 0 57 -8.5t46 -24t34 -38t21 -50.5h90
q-9 45 -31 82t-54 63t-73 40t-90 14q-59 0 -107.5 -20.5t-82.5 -57.5t-52.5 -88.5t-18.5 -114.5zM249 601h80l117 140h-68l-89 -95l-88 95h-68z" />
    <glyph glyph-name="Dcaron" unicode="&#x10e;" horiz-adv-x="679" 
d="M54 0h233q175 0 268.5 92t93.5 266q0 173 -93.5 265t-268.5 92h-233v-715zM140 80v555h148q135 0 203 -68t68 -209t-68.5 -209.5t-202.5 -68.5h-148zM263 777h80l117 140h-68l-89 -95l-88 95h-68z" />
    <glyph glyph-name="dcaron" unicode="&#x10f;" horiz-adv-x="691" 
d="M534 0v735h-86v-282q-24 47 -72.5 72.5t-108.5 25.5q-53 0 -96.5 -20.5t-75 -57.5t-48.5 -89t-17 -115t17 -115t48 -89t75 -57t97 -20q60 0 111 26t75 78l3 -92h78zM450 271q0 -48 -11.5 -86t-33.5 -64.5t-53.5 -40.5t-71.5 -14q-39 0 -69 13.5t-51 39.5t-31.5 64
t-10.5 87t10.5 86.5t31.5 63.5t51 39.5t69 13.5q40 0 71.5 -14t53.5 -40t33.5 -63.5t11.5 -84.5zM681 735h-80l-21 -279h60z" />
    <glyph glyph-name="Dcroat" unicode="&#x110;" horiz-adv-x="727" 
d="M22 323h80v-323h233q175 0 268.5 92t93.5 266q0 173 -93.5 265t-268.5 92h-233v-318h-80v-74zM188 80v243h180v74h-180v238h148q135 0 203 -68t68 -209t-68.5 -209.5t-202.5 -68.5h-148z" />
    <glyph glyph-name="dcroat" unicode="&#x111;" horiz-adv-x="616" 
d="M269 594h179v-141q-24 47 -72.5 72.5t-108.5 25.5q-53 0 -96.5 -20.5t-75 -57.5t-48.5 -89t-17 -115t17 -115t48 -89t75 -57t97 -20q60 0 111 26t75 78l3 -92h78v594h60v66h-60v75h-86v-75h-179v-66zM450 271q0 -48 -11.5 -86t-33.5 -64.5t-53.5 -40.5t-71.5 -14
q-39 0 -69 13.5t-51 39.5t-31.5 64t-10.5 87t10.5 86.5t31.5 63.5t51 39.5t69 13.5q40 0 71.5 -14t53.5 -40t33.5 -63.5t11.5 -84.5z" />
    <glyph glyph-name="Emacron" unicode="&#x112;" 
d="M54 0h481v80h-395v240h373v78h-373v237h390v80h-476v-715zM170 808h248v60h-248v-60z" />
    <glyph glyph-name="emacron" unicode="&#x113;" 
d="M30 270q0 -63 18.5 -114.5t52 -89t81.5 -58t107 -20.5q93 0 157 49t87 133h-91q-9 -24 -23 -43.5t-33 -33t-42.5 -20.5t-52.5 -7q-37 0 -67.5 12.5t-52 35t-35 55t-17.5 71.5h422v43q0 60 -18 109.5t-51.5 84.5t-80 54.5t-103.5 19.5q-58 0 -106 -20.5t-81.5 -57.5
t-52 -88.5t-18.5 -114.5zM121 312q5 37 18.5 66.5t35 50.5t50 32.5t64.5 11.5t64.5 -11.5t49 -32.5t32.5 -50.5t16 -66.5h-330zM164 632h248v60h-248v-60z" />
    <glyph glyph-name="Ebreve" unicode="&#x114;" 
d="M54 0h481v80h-395v240h373v78h-373v237h390v80h-476v-715zM165 925q0 -68 34.5 -107.5t94.5 -39.5t95 39.5t35 107.5h-50q0 -40 -21.5 -63.5t-57.5 -23.5q-37 0 -58.5 23.5t-21.5 63.5h-50z" />
    <glyph glyph-name="ebreve" unicode="&#x115;" 
d="M30 270q0 -63 18.5 -114.5t52 -89t81.5 -58t107 -20.5q93 0 157 49t87 133h-91q-9 -24 -23 -43.5t-33 -33t-42.5 -20.5t-52.5 -7q-37 0 -67.5 12.5t-52 35t-35 55t-17.5 71.5h422v43q0 60 -18 109.5t-51.5 84.5t-80 54.5t-103.5 19.5q-58 0 -106 -20.5t-81.5 -57.5
t-52 -88.5t-18.5 -114.5zM121 312q5 37 18.5 66.5t35 50.5t50 32.5t64.5 11.5t64.5 -11.5t49 -32.5t32.5 -50.5t16 -66.5h-330zM159 749q0 -68 34.5 -107.5t94.5 -39.5t95 39.5t35 107.5h-50q0 -40 -21.5 -63.5t-57.5 -23.5q-37 0 -58.5 23.5t-21.5 63.5h-50z" />
    <glyph glyph-name="Edotaccent" unicode="&#x116;" 
d="M54 0h481v80h-395v240h373v78h-373v237h390v80h-476v-715zM249 794h92v110h-92v-110z" />
    <glyph glyph-name="edotaccent" unicode="&#x117;" 
d="M30 270q0 -63 18.5 -114.5t52 -89t81.5 -58t107 -20.5q93 0 157 49t87 133h-91q-9 -24 -23 -43.5t-33 -33t-42.5 -20.5t-52.5 -7q-37 0 -67.5 12.5t-52 35t-35 55t-17.5 71.5h422v43q0 60 -18 109.5t-51.5 84.5t-80 54.5t-103.5 19.5q-58 0 -106 -20.5t-81.5 -57.5
t-52 -88.5t-18.5 -114.5zM121 312q5 37 18.5 66.5t35 50.5t50 32.5t64.5 11.5t64.5 -11.5t49 -32.5t32.5 -50.5t16 -66.5h-330zM243 618h92v110h-92v-110z" />
    <glyph glyph-name="Eogonek" unicode="&#x118;" 
d="M54 0h481v80h-395v240h373v78h-373v237h390v80h-476v-715zM529 10q-41 -3 -75.5 -11.5t-60 -22t-39.5 -32t-14 -40.5q0 -19 10 -34t28.5 -25t44.5 -15.5t57 -5.5q16 0 29.5 1t25.5 3v66q-13 -2 -25 -3t-24 -1q-43 0 -67 11t-24 31q0 28 40 45t98 23z" />
    <glyph glyph-name="eogonek" unicode="&#x119;" 
d="M30 270q0 -63 18.5 -114.5t52 -89t81.5 -58t107 -20.5q93 0 157 49t87 133h-91q-9 -24 -23 -43.5t-33 -33t-42.5 -20.5t-52.5 -7q-37 0 -67.5 12.5t-52 35t-35 55t-17.5 71.5h422v43q0 60 -18 109.5t-51.5 84.5t-80 54.5t-103.5 19.5q-58 0 -106 -20.5t-81.5 -57.5
t-52 -88.5t-18.5 -114.5zM121 312q5 37 18.5 66.5t35 50.5t50 32.5t64.5 11.5t64.5 -11.5t49 -32.5t32.5 -50.5t16 -66.5h-330zM441 45q-33 -17 -60 -36t-47 -38.5t-31 -39t-11 -38.5q0 -21 11.5 -35.5t30 -24.5t43.5 -14.5t52 -4.5q15 0 29.5 0.5t28.5 3.5v66
q-14 -2 -25 -3t-22 -1q-18 0 -34.5 2t-29.5 7t-21 13t-8 20q0 13 7.5 28t21 30.5t31.5 30.5t39 28z" />
    <glyph glyph-name="Ecaron" unicode="&#x11a;" 
d="M54 0h481v80h-395v240h373v78h-373v237h390v80h-476v-715zM253 777h80l117 140h-68l-89 -95l-88 95h-68z" />
    <glyph glyph-name="ecaron" unicode="&#x11b;" 
d="M30 270q0 -63 18.5 -114.5t52 -89t81.5 -58t107 -20.5q93 0 157 49t87 133h-91q-9 -24 -23 -43.5t-33 -33t-42.5 -20.5t-52.5 -7q-37 0 -67.5 12.5t-52 35t-35 55t-17.5 71.5h422v43q0 60 -18 109.5t-51.5 84.5t-80 54.5t-103.5 19.5q-58 0 -106 -20.5t-81.5 -57.5
t-52 -88.5t-18.5 -114.5zM121 312q5 37 18.5 66.5t35 50.5t50 32.5t64.5 11.5t64.5 -11.5t49 -32.5t32.5 -50.5t16 -66.5h-330zM247 601h80l117 140h-68l-89 -95l-88 95h-68z" />
    <glyph glyph-name="Gcircumflex" unicode="&#x11c;" horiz-adv-x="739" 
d="M30 357q0 -85 24 -153.5t67.5 -116.5t105 -73.5t136.5 -25.5q87 0 147.5 36t96.5 98l13 -122h65v371h-318v-78h238q-7 -53 -27.5 -94.5t-51.5 -70.5t-72.5 -44.5t-90.5 -15.5q-55 0 -99.5 20t-76.5 57.5t-49.5 91t-17.5 120.5t17.5 121t49 91.5t76.5 57.5t99 20
q84 0 142.5 -43.5t84.5 -121.5h94q-29 115 -113 180t-207 65q-75 0 -136.5 -26t-105 -74t-67.5 -116.5t-24 -153.5zM321 917l-116 -140h68l88 95l89 -95h68l-117 140h-80z" />
    <glyph glyph-name="gcircumflex" unicode="&#x11d;" horiz-adv-x="580" 
d="M50 2q5 -50 25.5 -87t53 -61t74.5 -35.5t89 -11.5q51 0 95.5 14t77 44t51 77t18.5 114v483h-78l-3 -92q-24 52 -75.5 78t-112.5 26q-52 0 -95.5 -19t-74.5 -54t-48 -84t-17 -109t17 -109t48 -84t74.5 -54.5t96.5 -19.5q60 0 109 25.5t73 72.5v-60q0 -47 -12.5 -79.5
t-33.5 -53t-49 -29.5t-60 -9q-29 0 -56 7t-48 21.5t-34.5 36.5t-16.5 52h-88zM118 284q0 45 10.5 80.5t31.5 59.5t51 36.5t69 12.5q40 0 71.5 -13t53.5 -37.5t33.5 -59.5t11.5 -79t-11.5 -79t-33.5 -59t-53.5 -37t-71.5 -13q-39 0 -69 12.5t-51 36.5t-31.5 59t-10.5 80z
M241 741l-116 -140h68l88 95l89 -95h68l-117 140h-80z" />
    <glyph glyph-name="Gbreve" unicode="&#x11e;" horiz-adv-x="739" 
d="M30 357q0 -85 24 -153.5t67.5 -116.5t105 -73.5t136.5 -25.5q87 0 147.5 36t96.5 98l13 -122h65v371h-318v-78h238q-7 -53 -27.5 -94.5t-51.5 -70.5t-72.5 -44.5t-90.5 -15.5q-55 0 -99.5 20t-76.5 57.5t-49.5 91t-17.5 120.5t17.5 121t49 91.5t76.5 57.5t99 20
q84 0 142.5 -43.5t84.5 -121.5h94q-29 115 -113 180t-207 65q-75 0 -136.5 -26t-105 -74t-67.5 -116.5t-24 -153.5zM233 925q0 -68 34.5 -107.5t94.5 -39.5t95 39.5t35 107.5h-50q0 -40 -21.5 -63.5t-57.5 -23.5q-37 0 -58.5 23.5t-21.5 63.5h-50z" />
    <glyph glyph-name="gbreve" unicode="&#x11f;" horiz-adv-x="580" 
d="M50 2q5 -50 25.5 -87t53 -61t74.5 -35.5t89 -11.5q51 0 95.5 14t77 44t51 77t18.5 114v483h-78l-3 -92q-24 52 -75.5 78t-112.5 26q-52 0 -95.5 -19t-74.5 -54t-48 -84t-17 -109t17 -109t48 -84t74.5 -54.5t96.5 -19.5q60 0 109 25.5t73 72.5v-60q0 -47 -12.5 -79.5
t-33.5 -53t-49 -29.5t-60 -9q-29 0 -56 7t-48 21.5t-34.5 36.5t-16.5 52h-88zM118 284q0 45 10.5 80.5t31.5 59.5t51 36.5t69 12.5q40 0 71.5 -13t53.5 -37.5t33.5 -59.5t11.5 -79t-11.5 -79t-33.5 -59t-53.5 -37t-71.5 -13q-39 0 -69 12.5t-51 36.5t-31.5 59t-10.5 80z
M153 749q0 -68 34.5 -107.5t94.5 -39.5t95 39.5t35 107.5h-50q0 -40 -21.5 -63.5t-57.5 -23.5q-37 0 -58.5 23.5t-21.5 63.5h-50z" />
    <glyph glyph-name="Gdotaccent" unicode="&#x120;" horiz-adv-x="739" 
d="M30 357q0 -85 24 -153.5t67.5 -116.5t105 -73.5t136.5 -25.5q87 0 147.5 36t96.5 98l13 -122h65v371h-318v-78h238q-7 -53 -27.5 -94.5t-51.5 -70.5t-72.5 -44.5t-90.5 -15.5q-55 0 -99.5 20t-76.5 57.5t-49.5 91t-17.5 120.5t17.5 121t49 91.5t76.5 57.5t99 20
q84 0 142.5 -43.5t84.5 -121.5h94q-29 115 -113 180t-207 65q-75 0 -136.5 -26t-105 -74t-67.5 -116.5t-24 -153.5zM317 794h92v110h-92v-110z" />
    <glyph glyph-name="gdotaccent" unicode="&#x121;" horiz-adv-x="580" 
d="M50 2q5 -50 25.5 -87t53 -61t74.5 -35.5t89 -11.5q51 0 95.5 14t77 44t51 77t18.5 114v483h-78l-3 -92q-24 52 -75.5 78t-112.5 26q-52 0 -95.5 -19t-74.5 -54t-48 -84t-17 -109t17 -109t48 -84t74.5 -54.5t96.5 -19.5q60 0 109 25.5t73 72.5v-60q0 -47 -12.5 -79.5
t-33.5 -53t-49 -29.5t-60 -9q-29 0 -56 7t-48 21.5t-34.5 36.5t-16.5 52h-88zM118 284q0 45 10.5 80.5t31.5 59.5t51 36.5t69 12.5q40 0 71.5 -13t53.5 -37.5t33.5 -59.5t11.5 -79t-11.5 -79t-33.5 -59t-53.5 -37t-71.5 -13q-39 0 -69 12.5t-51 36.5t-31.5 59t-10.5 80z
M237 618h92v110h-92v-110z" />
    <glyph glyph-name="uni0122" unicode="&#x122;" horiz-adv-x="739" 
d="M30 357q0 -85 24 -153.5t67.5 -116.5t105 -73.5t136.5 -25.5q87 0 147.5 36t96.5 98l13 -122h65v371h-318v-78h238q-7 -53 -27.5 -94.5t-51.5 -70.5t-72.5 -44.5t-90.5 -15.5q-55 0 -99.5 20t-76.5 57.5t-49.5 91t-17.5 120.5t17.5 121t49 91.5t76.5 57.5t99 20
q84 0 142.5 -43.5t84.5 -121.5h94q-29 115 -113 180t-207 65q-75 0 -136.5 -26t-105 -74t-67.5 -116.5t-24 -153.5zM292 -214h61l50 149v2h-80l-31 -149v-2z" />
    <glyph glyph-name="uni0123" unicode="&#x123;" horiz-adv-x="580" 
d="M50 2q5 -50 25.5 -87t53 -61t74.5 -35.5t89 -11.5q51 0 95.5 14t77 44t51 77t18.5 114v483h-78l-3 -92q-24 52 -75.5 78t-112.5 26q-52 0 -95.5 -19t-74.5 -54t-48 -84t-17 -109t17 -109t48 -84t74.5 -54.5t96.5 -19.5q60 0 109 25.5t73 72.5v-60q0 -47 -12.5 -79.5
t-33.5 -53t-49 -29.5t-60 -9q-29 0 -56 7t-48 21.5t-34.5 36.5t-16.5 52h-88zM118 284q0 45 10.5 80.5t31.5 59.5t51 36.5t69 12.5q40 0 71.5 -13t53.5 -37.5t33.5 -59.5t11.5 -79t-11.5 -79t-33.5 -59t-53.5 -37t-71.5 -13q-39 0 -69 12.5t-51 36.5t-31.5 59t-10.5 80z
M352 754h-59l-51 -149v-2h80l30 148v3z" />
    <glyph glyph-name="Hcircumflex" unicode="&#x124;" horiz-adv-x="669" 
d="M54 0h86v320h389v-320h86v715h-86v-315h-389v315h-86v-715zM294 917l-116 -140h68l88 95l89 -95h68l-117 140h-80z" />
    <glyph glyph-name="hcircumflex" unicode="&#x125;" horiz-adv-x="540" 
d="M46 0h86v315q0 36 11 65t31 49.5t48.5 32t62.5 11.5q32 0 55.5 -10t39.5 -30t24 -49.5t8 -68.5v-315h86v347q0 47 -13.5 85t-38.5 64.5t-61 40.5t-81 14q-30 0 -56.5 -6.5t-48.5 -19t-39 -30.5t-28 -41v281h-86v-735zM48 936l-116 -140h68l88 95l89 -95h68l-117 140h-80z
" />
    <glyph glyph-name="Hbar" unicode="&#x126;" horiz-adv-x="785" 
d="M22 525h90v-525h86v320h389v-320h86v525h90v74h-90v116h-86v-116h-389v116h-86v-116h-90v-74zM198 400v125h389v-125h-389z" />
    <glyph glyph-name="hbar" unicode="&#x127;" horiz-adv-x="576" 
d="M22 594h60v-594h86v315q0 36 11 65t31 49.5t48.5 32t62.5 11.5q32 0 55.5 -10t39.5 -30t24 -49.5t8 -68.5v-315h86v347q0 47 -13.5 85t-38.5 64.5t-61 40.5t-81 14q-30 0 -56.5 -6.5t-48.5 -19t-39 -30.5t-28 -41v140h179v66h-179v75h-86v-75h-60v-66z" />
    <glyph glyph-name="Itilde" unicode="&#x128;" horiz-adv-x="195" 
d="M55 0h86v715h-86v-715zM-41 788h40q0 32 6.5 50.5t25.5 18.5q14 0 25.5 -9t23.5 -21q15 -15 33.5 -29t46.5 -14q39 0 58.5 31t19.5 94h-40q0 -35 -7 -52t-25 -17q-15 0 -27 9t-23 21q-15 15 -33.5 29t-46.5 14q-39 0 -58 -32t-19 -93z" />
    <glyph glyph-name="itilde" unicode="&#x129;" horiz-adv-x="198" 
d="M56 0h86v539h-86v-539zM-40 612h40q0 32 6.5 50.5t25.5 18.5q14 0 25.5 -9t23.5 -21q15 -15 33.5 -29t46.5 -14q39 0 58.5 31t19.5 94h-40q0 -35 -7 -52t-25 -17q-15 0 -27 9t-23 21q-15 15 -33.5 29t-46.5 14q-39 0 -58 -32t-19 -93z" />
    <glyph glyph-name="Imacron" unicode="&#x12a;" horiz-adv-x="195" 
d="M55 0h86v715h-86v-715zM-26 808h248v60h-248v-60z" />
    <glyph glyph-name="imacron" unicode="&#x12b;" horiz-adv-x="198" 
d="M56 0h86v539h-86v-539zM-25 632h248v60h-248v-60z" />
    <glyph glyph-name="Ibreve" unicode="&#x12c;" horiz-adv-x="195" 
d="M55 0h86v715h-86v-715zM-31 925q0 -68 34.5 -107.5t94.5 -39.5t95 39.5t35 107.5h-50q0 -40 -21.5 -63.5t-57.5 -23.5q-37 0 -58.5 23.5t-21.5 63.5h-50z" />
    <glyph glyph-name="ibreve" unicode="&#x12d;" horiz-adv-x="198" 
d="M56 0h86v539h-86v-539zM-30 749q0 -68 34.5 -107.5t94.5 -39.5t95 39.5t35 107.5h-50q0 -40 -21.5 -63.5t-57.5 -23.5q-37 0 -58.5 23.5t-21.5 63.5h-50z" />
    <glyph glyph-name="Iogonek" unicode="&#x12e;" horiz-adv-x="195" 
d="M55 0h86v715h-86v-715zM135 10q-41 -3 -75.5 -11.5t-60 -22t-39.5 -32t-14 -40.5q0 -19 10 -34t28.5 -25t44.5 -15.5t57 -5.5q16 0 29.5 1t25.5 3v66q-13 -2 -25 -3t-24 -1q-43 0 -67 11t-24 31q0 28 40 45t98 23z" />
    <glyph glyph-name="iogonek" unicode="&#x12f;" horiz-adv-x="184" 
d="M50 0h84v539h-84v-539zM46 618h92v110h-92v-110zM130 10q-41 -3 -75.5 -11.5t-60 -22t-39.5 -32t-14 -40.5q0 -19 10 -34t28.5 -25t44.5 -15.5t57 -5.5q16 0 29.5 1t25.5 3v66q-13 -2 -25 -3t-24 -1q-43 0 -67 11t-24 31q0 28 40 45t98 23z" />
    <glyph glyph-name="Idotaccent" unicode="&#x130;" horiz-adv-x="195" 
d="M55 0h86v715h-86v-715zM53 794h92v110h-92v-110z" />
    <glyph glyph-name="dotlessi" unicode="&#x131;" horiz-adv-x="198" 
d="M56 0h86v539h-86v-539z" />
    <glyph glyph-name="IJ" unicode="&#x132;" horiz-adv-x="753" 
d="M55 0h86v715h-86v-715zM219 258q3 -64 20 -114t48 -85t74.5 -53t98.5 -18t99.5 18t75.5 52t47.5 82.5t16.5 110.5v464h-86v-464q0 -89 -39 -136t-114 -47q-72 0 -109 45.5t-46 144.5h-86z" />
    <glyph glyph-name="ij" unicode="&#x133;" horiz-adv-x="368" 
d="M50 0h84v539h-84v-539zM46 618h92v110h-92v-110zM127 -179q12 -2 23 -3t21 -1q40 0 68 13t45 37t25 58.5t8 76.5v537h-84v-537q0 -61 -16 -83.5t-58 -22.5q-8 0 -16 0.5t-16 2.5v-78zM230 618h92v110h-92v-110z" />
    <glyph glyph-name="Jcircumflex" unicode="&#x134;" horiz-adv-x="558" 
d="M24 258q3 -64 20 -114t48 -85t74.5 -53t98.5 -18t99.5 18t75.5 52t47.5 82.5t16.5 110.5v464h-86v-464q0 -89 -39 -136t-114 -47q-72 0 -109 45.5t-46 144.5h-86zM420 917l-116 -140h68l88 95l89 -95h68l-117 140h-80z" />
    <glyph glyph-name="jcircumflex" unicode="&#x135;" horiz-adv-x="184" 
d="M-54 -192q12 -2 23 -3t21 -1q40 0 68 13t45 37t25 58.5t8 76.5v550h-84v-550q0 -61 -16 -83.5t-58 -22.5q-8 0 -16 0.5t-16 2.5v-78zM55 741l-116 -140h68l88 95l89 -95h68l-117 140h-80z" />
    <glyph glyph-name="uni0136" unicode="&#x136;" horiz-adv-x="611" 
d="M55 0h86v235l108 112l262 -347h108l-310 409l290 306h-108l-350 -367v367h-86v-715zM256 -214h61l50 149v2h-80l-31 -149v-2z" />
    <glyph glyph-name="uni0137" unicode="&#x137;" horiz-adv-x="541" 
d="M47 0h84v182l100 90l210 -272h105l-254 325l245 214h-115l-291 -255v451h-84v-735zM211 -214h61l50 149v2h-80l-31 -149v-2z" />
    <glyph glyph-name="kgreenlandic" unicode="&#x138;" horiz-adv-x="603" 
d="M47 715v-715h561v715h-561zM374 357l146 216v-432zM134 143v429l143 -215zM325 429l-141 210h281zM183 76l142 210l140 -210h-282z" />
    <glyph glyph-name="Lacute" unicode="&#x139;" horiz-adv-x="543" 
d="M54 0h461v80h-375v635h-86v-715zM65 778h64l104 140h-90z" />
    <glyph glyph-name="lacute" unicode="&#x13a;" horiz-adv-x="176" 
d="M46 0h84v735h-84v-735zM56 797h64l104 140h-90z" />
    <glyph glyph-name="uni013B" unicode="&#x13b;" horiz-adv-x="543" 
d="M54 0h461v80h-375v635h-86v-715zM215 -214h61l50 149v2h-80l-31 -149v-2z" />
    <glyph glyph-name="uni013C" unicode="&#x13c;" horiz-adv-x="176" 
d="M46 0h84v735h-84v-735zM18 -214h61l50 149v2h-80l-31 -149v-2z" />
    <glyph glyph-name="Lcaron" unicode="&#x13d;" horiz-adv-x="543" 
d="M54 0h461v80h-375v635h-86v-715zM489 715h-80l-21 -279h60z" />
    <glyph glyph-name="lcaron" unicode="&#x13e;" horiz-adv-x="287" 
d="M46 0h84v735h-84v-735zM277 735h-80l-21 -279h60z" />
    <glyph glyph-name="Ldot" unicode="&#x13f;" horiz-adv-x="543" 
d="M54 0h461v80h-375v635h-86v-715zM335 360h102v108h-102v-108z" />
    <glyph glyph-name="ldot" unicode="&#x140;" horiz-adv-x="301" 
d="M46 0h84v735h-84v-735zM189 323h102v108h-102v-108z" />
    <glyph glyph-name="Lslash" unicode="&#x141;" horiz-adv-x="591" 
d="M22 212l80 44v-256h461v80h-375v225l194 109v80l-194 -109v330h-86v-379l-80 -44v-80z" />
    <glyph glyph-name="lslash" unicode="&#x142;" horiz-adv-x="260" 
d="M22 237l65 35v-272h86v317l65 35v74l-65 -35v344h-86v-389l-65 -35v-74z" />
    <glyph glyph-name="Nacute" unicode="&#x143;" horiz-adv-x="701" 
d="M55 0h86v611l381 -611h125v715h-86v-623l-388 623h-118v-715zM320 778h64l104 140h-90z" />
    <glyph glyph-name="nacute" unicode="&#x144;" horiz-adv-x="541" 
d="M47 0h86v315q0 36 11 65t31 49.5t48.5 32t62.5 11.5q32 0 55.5 -10t39.5 -30t24 -49.5t8 -68.5v-315h86v347q0 47 -13.5 85t-38.5 64.5t-61 40.5t-81 14q-32 0 -60 -7.5t-50.5 -21.5t-39.5 -34t-27 -46l-3 97h-78v-539zM247 602h64l104 140h-90z" />
    <glyph glyph-name="uni0145" unicode="&#x145;" horiz-adv-x="701" 
d="M55 0h86v611l381 -611h125v715h-86v-623l-388 623h-118v-715zM280 -214h61l50 149v2h-80l-31 -149v-2z" />
    <glyph glyph-name="uni0146" unicode="&#x146;" horiz-adv-x="541" 
d="M47 0h86v315q0 36 11 65t31 49.5t48.5 32t62.5 11.5q32 0 55.5 -10t39.5 -30t24 -49.5t8 -68.5v-315h86v347q0 47 -13.5 85t-38.5 64.5t-61 40.5t-81 14q-32 0 -60 -7.5t-50.5 -21.5t-39.5 -34t-27 -46l-3 97h-78v-539zM202 -214h61l50 149v2h-80l-31 -149v-2z" />
    <glyph glyph-name="Ncaron" unicode="&#x147;" horiz-adv-x="701" 
d="M55 0h86v611l381 -611h125v715h-86v-623l-388 623h-118v-715zM311 777h80l117 140h-68l-89 -95l-88 95h-68z" />
    <glyph glyph-name="ncaron" unicode="&#x148;" horiz-adv-x="541" 
d="M47 0h86v315q0 36 11 65t31 49.5t48.5 32t62.5 11.5q32 0 55.5 -10t39.5 -30t24 -49.5t8 -68.5v-315h86v347q0 47 -13.5 85t-38.5 64.5t-61 40.5t-81 14q-32 0 -60 -7.5t-50.5 -21.5t-39.5 -34t-27 -46l-3 97h-78v-539zM238 601h80l117 140h-68l-89 -95l-88 95h-68z" />
    <glyph glyph-name="Omacron" unicode="&#x14c;" horiz-adv-x="748" 
d="M30 357q0 -86 24.5 -154t69.5 -116t108.5 -73.5t140.5 -25.5q78 0 142 25.5t109 73.5t69.5 116t24.5 154q0 85 -24.5 153.5t-70 116.5t-109 74t-141.5 26q-77 0 -140 -26t-108.5 -74t-70 -116.5t-24.5 -153.5zM120 357q0 68 18.5 121.5t51.5 91t80 57.5t103 20
q58 0 105 -20t80 -57.5t51.5 -91t18.5 -121.5q0 -67 -18 -120.5t-51.5 -91t-80.5 -57.5t-105 -20q-57 0 -103.5 20t-80 57.5t-51.5 91.5t-18 120zM250 808h248v60h-248v-60z" />
    <glyph glyph-name="omacron" unicode="&#x14d;" horiz-adv-x="583" 
d="M30 270q0 -63 18.5 -114.5t53 -89t82.5 -58t108 -20.5q59 0 107 20.5t82.5 58t53 89t18.5 114.5q0 62 -18.5 114t-53 89t-82.5 57.5t-107 20.5q-60 0 -108 -20.5t-82.5 -57.5t-53 -89t-18.5 -114zM118 270q0 45 12 82.5t34 64.5t54.5 41.5t73.5 14.5t73 -14.5t54.5 -41.5
t34 -64.5t11.5 -82.5q0 -46 -11.5 -83.5t-34 -64.5t-54.5 -41.5t-73 -14.5t-73.5 14.5t-54.5 41.5t-34 64.5t-12 83.5zM167 632h248v60h-248v-60z" />
    <glyph glyph-name="Obreve" unicode="&#x14e;" horiz-adv-x="748" 
d="M30 357q0 -86 24.5 -154t69.5 -116t108.5 -73.5t140.5 -25.5q78 0 142 25.5t109 73.5t69.5 116t24.5 154q0 85 -24.5 153.5t-70 116.5t-109 74t-141.5 26q-77 0 -140 -26t-108.5 -74t-70 -116.5t-24.5 -153.5zM120 357q0 68 18.5 121.5t51.5 91t80 57.5t103 20
q58 0 105 -20t80 -57.5t51.5 -91t18.5 -121.5q0 -67 -18 -120.5t-51.5 -91t-80.5 -57.5t-105 -20q-57 0 -103.5 20t-80 57.5t-51.5 91.5t-18 120zM245 925q0 -68 34.5 -107.5t94.5 -39.5t95 39.5t35 107.5h-50q0 -40 -21.5 -63.5t-57.5 -23.5q-37 0 -58.5 23.5t-21.5 63.5
h-50z" />
    <glyph glyph-name="obreve" unicode="&#x14f;" horiz-adv-x="583" 
d="M30 270q0 -63 18.5 -114.5t53 -89t82.5 -58t108 -20.5q59 0 107 20.5t82.5 58t53 89t18.5 114.5q0 62 -18.5 114t-53 89t-82.5 57.5t-107 20.5q-60 0 -108 -20.5t-82.5 -57.5t-53 -89t-18.5 -114zM118 270q0 45 12 82.5t34 64.5t54.5 41.5t73.5 14.5t73 -14.5t54.5 -41.5
t34 -64.5t11.5 -82.5q0 -46 -11.5 -83.5t-34 -64.5t-54.5 -41.5t-73 -14.5t-73.5 14.5t-54.5 41.5t-34 64.5t-12 83.5zM162 749q0 -68 34.5 -107.5t94.5 -39.5t95 39.5t35 107.5h-50q0 -40 -21.5 -63.5t-57.5 -23.5q-37 0 -58.5 23.5t-21.5 63.5h-50z" />
    <glyph glyph-name="Ohungarumlaut" unicode="&#x150;" horiz-adv-x="748" 
d="M30 357q0 -86 24.5 -154t69.5 -116t108.5 -73.5t140.5 -25.5q78 0 142 25.5t109 73.5t69.5 116t24.5 154q0 85 -24.5 153.5t-70 116.5t-109 74t-141.5 26q-77 0 -140 -26t-108.5 -74t-70 -116.5t-24.5 -153.5zM120 357q0 68 18.5 121.5t51.5 91t80 57.5t103 20
q58 0 105 -20t80 -57.5t51.5 -91t18.5 -121.5q0 -67 -18 -120.5t-51.5 -91t-80.5 -57.5t-105 -20q-57 0 -103.5 20t-80 57.5t-51.5 91.5t-18 120zM342 778l84 140h-75l-63 -140h54zM447 778l105 140h-75l-84 -140h54z" />
    <glyph glyph-name="ohungarumlaut" unicode="&#x151;" horiz-adv-x="583" 
d="M30 270q0 -63 18.5 -114.5t53 -89t82.5 -58t108 -20.5q59 0 107 20.5t82.5 58t53 89t18.5 114.5q0 62 -18.5 114t-53 89t-82.5 57.5t-107 20.5q-60 0 -108 -20.5t-82.5 -57.5t-53 -89t-18.5 -114zM118 270q0 45 12 82.5t34 64.5t54.5 41.5t73.5 14.5t73 -14.5t54.5 -41.5
t34 -64.5t11.5 -82.5q0 -46 -11.5 -83.5t-34 -64.5t-54.5 -41.5t-73 -14.5t-73.5 14.5t-54.5 41.5t-34 64.5t-12 83.5zM259 602l84 140h-75l-63 -140h54zM364 602l105 140h-75l-84 -140h54z" />
    <glyph glyph-name="OE" unicode="&#x152;" horiz-adv-x="1056" 
d="M30 358q0 -174 93.5 -266t268.5 -92h628v80h-395v240h373v78h-373v237h390v80h-623q-175 0 -268.5 -92t-93.5 -265zM539 80h-148q-135 0 -203 68.5t-68 209.5t68 209t203 68h148v-555z" />
    <glyph glyph-name="oe" unicode="&#x153;" horiz-adv-x="1007" 
d="M31 270q0 -63 18.5 -114.5t53 -89t82.5 -58t108 -20.5q72 0 127.5 30t89.5 84q33 -54 88 -84t127 -30q93 0 157 49t87 133h-91q-9 -24 -23 -43.5t-33 -33t-42.5 -20.5t-52.5 -7q-37 0 -67.5 12.5t-52 35t-35 55t-17.5 71.5h422v43q0 60 -18 109.5t-51.5 84.5t-80 54.5
t-103.5 19.5q-72 0 -126.5 -30t-87.5 -84q-34 54 -89.5 84t-127.5 30q-60 0 -108 -20.5t-82.5 -57.5t-53 -89t-18.5 -114zM119 270q0 45 12 82.5t34 64.5t54.5 41.5t73.5 14.5t73 -14.5t54.5 -41.5t34 -64.5t11.5 -82.5q0 -46 -11.5 -83.5t-34 -64.5t-54.5 -41.5t-73 -14.5
t-73.5 14.5t-54.5 41.5t-34 64.5t-12 83.5zM557 312q5 37 18.5 66.5t35 50.5t50 32.5t64.5 11.5t64.5 -11.5t49 -32.5t32.5 -50.5t16 -66.5h-330z" />
    <glyph glyph-name="Racute" unicode="&#x154;" horiz-adv-x="658" 
d="M54 0h86v298h220q122 0 184 54t62 154q0 99 -62 154t-184 55h-306v-715zM140 378v257h214q81 0 121.5 -30.5t40.5 -98.5q0 -69 -40.5 -98.5t-121.5 -29.5h-214zM526 0h101l-187 317h-94zM273 778h64l104 140h-90z" />
    <glyph glyph-name="racute" unicode="&#x155;" horiz-adv-x="335" 
d="M47 0h86v306q0 33 8.5 59.5t25 45t41.5 28.5t58 10h66v90h-61q-55 0 -91 -26t-52 -83l-3 109h-78v-539zM149 602h64l104 140h-90z" />
    <glyph glyph-name="uni0156" unicode="&#x156;" horiz-adv-x="658" 
d="M54 0h86v298h220q122 0 184 54t62 154q0 99 -62 154t-184 55h-306v-715zM140 378v257h214q81 0 121.5 -30.5t40.5 -98.5q0 -69 -40.5 -98.5t-121.5 -29.5h-214zM526 0h101l-187 317h-94zM248 -214h61l50 149v2h-80l-31 -149v-2z" />
    <glyph glyph-name="uni0157" unicode="&#x157;" horiz-adv-x="335" 
d="M47 0h86v306q0 33 8.5 59.5t25 45t41.5 28.5t58 10h66v90h-61q-55 0 -91 -26t-52 -83l-3 109h-78v-539zM20 -214h61l50 149v2h-80l-31 -149v-2z" />
    <glyph glyph-name="Rcaron" unicode="&#x158;" horiz-adv-x="658" 
d="M54 0h86v298h220q122 0 184 54t62 154q0 99 -62 154t-184 55h-306v-715zM140 378v257h214q81 0 121.5 -30.5t40.5 -98.5q0 -69 -40.5 -98.5t-121.5 -29.5h-214zM526 0h101l-187 317h-94zM264 777h80l117 140h-68l-89 -95l-88 95h-68z" />
    <glyph glyph-name="rcaron" unicode="&#x159;" horiz-adv-x="335" 
d="M47 0h86v306q0 33 8.5 59.5t25 45t41.5 28.5t58 10h66v90h-61q-55 0 -91 -26t-52 -83l-3 109h-78v-539zM140 601h80l117 140h-68l-89 -95l-88 95h-68z" />
    <glyph glyph-name="Sacute" unicode="&#x15a;" horiz-adv-x="600" 
d="M17 247q2 -57 24 -104.5t60.5 -82t92.5 -53.5t122 -19q57 0 105.5 14.5t83.5 41.5t54.5 66t19.5 89q0 55 -21.5 90t-58 56.5t-83 33.5t-95.5 22q-39 8 -74.5 16.5t-62.5 22t-43.5 34t-16.5 52.5q0 27 11.5 49t32.5 38t50 25t64 9q43 0 77.5 -12.5t59.5 -34.5t39 -51.5
t18 -63.5h90q-4 51 -24.5 95.5t-56.5 77t-86.5 51t-114.5 18.5q-58 0 -104.5 -14.5t-79 -41.5t-49.5 -64.5t-17 -83.5q0 -54 22 -88t58 -55t81 -32.5t91 -20.5q43 -9 80 -18t64.5 -23t43 -36t15.5 -57q0 -29 -12 -52t-34 -39.5t-54 -25t-71 -8.5q-47 0 -84 12t-64 35
t-43.5 56.5t-20.5 75.5h-89zM253 778h64l104 140h-90z" />
    <glyph glyph-name="sacute" unicode="&#x15b;" horiz-adv-x="500" 
d="M14 176q2 -41 19 -75.5t48.5 -59.5t76 -39t100.5 -14q46 0 86.5 10t70.5 30.5t47 51t17 72.5q0 45 -18 72.5t-48 44t-68.5 25.5t-79.5 16q-29 5 -56 11t-48 15t-33 23t-12 36q0 17 8 31t23 24.5t37.5 16.5t52.5 6q63 0 101 -27t44 -74h88q-4 38 -21 70.5t-46 56.5
t-70.5 38t-94.5 14q-49 0 -88 -12t-66 -33.5t-41.5 -51.5t-14.5 -67q0 -43 18.5 -70t48.5 -43t67.5 -24.5t74.5 -14.5q33 -5 61.5 -10.5t49 -15t32 -24t11.5 -37.5q0 -22 -10.5 -37.5t-28.5 -25.5t-42 -14.5t-52 -4.5q-76 0 -114 30t-42 80h-88zM206 602h64l104 140h-90z
" />
    <glyph glyph-name="Scircumflex" unicode="&#x15c;" horiz-adv-x="600" 
d="M17 247q2 -57 24 -104.5t60.5 -82t92.5 -53.5t122 -19q57 0 105.5 14.5t83.5 41.5t54.5 66t19.5 89q0 55 -21.5 90t-58 56.5t-83 33.5t-95.5 22q-39 8 -74.5 16.5t-62.5 22t-43.5 34t-16.5 52.5q0 27 11.5 49t32.5 38t50 25t64 9q43 0 77.5 -12.5t59.5 -34.5t39 -51.5
t18 -63.5h90q-4 51 -24.5 95.5t-56.5 77t-86.5 51t-114.5 18.5q-58 0 -104.5 -14.5t-79 -41.5t-49.5 -64.5t-17 -83.5q0 -54 22 -88t58 -55t81 -32.5t91 -20.5q43 -9 80 -18t64.5 -23t43 -36t15.5 -57q0 -29 -12 -52t-34 -39.5t-54 -25t-71 -8.5q-47 0 -84 12t-64 35
t-43.5 56.5t-20.5 75.5h-89zM244 917l-116 -140h68l88 95l89 -95h68l-117 140h-80z" />
    <glyph glyph-name="scircumflex" unicode="&#x15d;" horiz-adv-x="500" 
d="M14 176q2 -41 19 -75.5t48.5 -59.5t76 -39t100.5 -14q46 0 86.5 10t70.5 30.5t47 51t17 72.5q0 45 -18 72.5t-48 44t-68.5 25.5t-79.5 16q-29 5 -56 11t-48 15t-33 23t-12 36q0 17 8 31t23 24.5t37.5 16.5t52.5 6q63 0 101 -27t44 -74h88q-4 38 -21 70.5t-46 56.5
t-70.5 38t-94.5 14q-49 0 -88 -12t-66 -33.5t-41.5 -51.5t-14.5 -67q0 -43 18.5 -70t48.5 -43t67.5 -24.5t74.5 -14.5q33 -5 61.5 -10.5t49 -15t32 -24t11.5 -37.5q0 -22 -10.5 -37.5t-28.5 -25.5t-42 -14.5t-52 -4.5q-76 0 -114 30t-42 80h-88zM197 741l-116 -140h68l88 95
l89 -95h68l-117 140h-80z" />
    <glyph glyph-name="Scedilla" unicode="&#x15e;" horiz-adv-x="600" 
d="M17 247q2 -57 24 -104.5t60.5 -82t92.5 -53.5t122 -19q57 0 105.5 14.5t83.5 41.5t54.5 66t19.5 89q0 55 -21.5 90t-58 56.5t-83 33.5t-95.5 22q-39 8 -74.5 16.5t-62.5 22t-43.5 34t-16.5 52.5q0 27 11.5 49t32.5 38t50 25t64 9q43 0 77.5 -12.5t59.5 -34.5t39 -51.5
t18 -63.5h90q-4 51 -24.5 95.5t-56.5 77t-86.5 51t-114.5 18.5q-58 0 -104.5 -14.5t-79 -41.5t-49.5 -64.5t-17 -83.5q0 -54 22 -88t58 -55t81 -32.5t91 -20.5q43 -9 80 -18t64.5 -23t43 -36t15.5 -57q0 -29 -12 -52t-34 -39.5t-54 -25t-71 -8.5q-47 0 -84 12t-64 35
t-43.5 56.5t-20.5 75.5h-89zM224 -155q29 -17 59.5 -26t62.5 -9q29 0 51 7t36.5 19t21.5 27.5t7 31.5q0 27 -20 47t-65 20q-6 0 -20 -1t-27 -6l21 61h-54l-27 -79l42 -16q10 3 21.5 5t22.5 2q23 0 33.5 -9.5t10.5 -23.5q0 -17 -15 -27t-44 -10q-23 0 -48 7t-49 21z" />
    <glyph glyph-name="scedilla" unicode="&#x15f;" horiz-adv-x="500" 
d="M14 176q2 -41 19 -75.5t48.5 -59.5t76 -39t100.5 -14q46 0 86.5 10t70.5 30.5t47 51t17 72.5q0 45 -18 72.5t-48 44t-68.5 25.5t-79.5 16q-29 5 -56 11t-48 15t-33 23t-12 36q0 17 8 31t23 24.5t37.5 16.5t52.5 6q63 0 101 -27t44 -74h88q-4 38 -21 70.5t-46 56.5
t-70.5 38t-94.5 14q-49 0 -88 -12t-66 -33.5t-41.5 -51.5t-14.5 -67q0 -43 18.5 -70t48.5 -43t67.5 -24.5t74.5 -14.5q33 -5 61.5 -10.5t49 -15t32 -24t11.5 -37.5q0 -22 -10.5 -37.5t-28.5 -25.5t-42 -14.5t-52 -4.5q-76 0 -114 30t-42 80h-88zM165 -155q29 -17 59.5 -26
t62.5 -9q29 0 51 7t36.5 19t21.5 27.5t7 31.5q0 27 -20 47t-65 20q-6 0 -20 -1t-27 -6l21 61h-54l-27 -79l42 -16q10 3 21.5 5t22.5 2q23 0 33.5 -9.5t10.5 -23.5q0 -17 -15 -27t-44 -10q-23 0 -48 7t-49 21z" />
    <glyph glyph-name="Scaron" unicode="&#x160;" horiz-adv-x="600" 
d="M17 247q2 -57 24 -104.5t60.5 -82t92.5 -53.5t122 -19q57 0 105.5 14.5t83.5 41.5t54.5 66t19.5 89q0 55 -21.5 90t-58 56.5t-83 33.5t-95.5 22q-39 8 -74.5 16.5t-62.5 22t-43.5 34t-16.5 52.5q0 27 11.5 49t32.5 38t50 25t64 9q43 0 77.5 -12.5t59.5 -34.5t39 -51.5
t18 -63.5h90q-4 51 -24.5 95.5t-56.5 77t-86.5 51t-114.5 18.5q-58 0 -104.5 -14.5t-79 -41.5t-49.5 -64.5t-17 -83.5q0 -54 22 -88t58 -55t81 -32.5t91 -20.5q43 -9 80 -18t64.5 -23t43 -36t15.5 -57q0 -29 -12 -52t-34 -39.5t-54 -25t-71 -8.5q-47 0 -84 12t-64 35
t-43.5 56.5t-20.5 75.5h-89zM244 777h80l117 140h-68l-89 -95l-88 95h-68z" />
    <glyph glyph-name="scaron" unicode="&#x161;" horiz-adv-x="500" 
d="M14 176q2 -41 19 -75.5t48.5 -59.5t76 -39t100.5 -14q46 0 86.5 10t70.5 30.5t47 51t17 72.5q0 45 -18 72.5t-48 44t-68.5 25.5t-79.5 16q-29 5 -56 11t-48 15t-33 23t-12 36q0 17 8 31t23 24.5t37.5 16.5t52.5 6q63 0 101 -27t44 -74h88q-4 38 -21 70.5t-46 56.5
t-70.5 38t-94.5 14q-49 0 -88 -12t-66 -33.5t-41.5 -51.5t-14.5 -67q0 -43 18.5 -70t48.5 -43t67.5 -24.5t74.5 -14.5q33 -5 61.5 -10.5t49 -15t32 -24t11.5 -37.5q0 -22 -10.5 -37.5t-28.5 -25.5t-42 -14.5t-52 -4.5q-76 0 -114 30t-42 80h-88zM197 601h80l117 140h-68
l-89 -95l-88 95h-68z" />
    <glyph glyph-name="uni0162" unicode="&#x162;" horiz-adv-x="596" 
d="M255 0h86v635h236v80h-558v-80h236v-635zM204 -155q29 -17 59.5 -26t62.5 -9q29 0 51 7t36.5 19t21.5 27.5t7 31.5q0 27 -20 47t-65 20q-6 0 -20 -1t-27 -6l21 61h-54l-27 -79l42 -16q10 3 21.5 5t22.5 2q23 0 33.5 -9.5t10.5 -23.5q0 -17 -15 -27t-44 -10q-23 0 -48 7
t-49 21z" />
    <glyph glyph-name="uni0163" unicode="&#x163;" horiz-adv-x="418" 
d="M110 178q0 -48 11 -84t34 -59.5t57.5 -35t81.5 -11.5q22 0 47.5 2.5t56.5 7.5v78q-25 -5 -48 -7t-40 -2q-32 0 -53.5 6t-35 19t-19.5 33.5t-6 49.5v286h202v78h-202v139h-86v-139h-90v-78h90v-283zM128 -155q29 -17 59.5 -26t62.5 -9q30 0 51.5 7t36 19t21.5 27.5t7 31.5
q0 27 -20 47t-65 20q-6 0 -20 -1t-27 -6l21 61h-54l-27 -79l42 -16q10 3 21.5 5t22.5 2q23 0 33.5 -9.5t10.5 -23.5q0 -17 -14.5 -27t-44.5 -10q-22 0 -47 7t-50 21z" />
    <glyph glyph-name="Tcaron" unicode="&#x164;" horiz-adv-x="596" 
d="M255 0h86v635h236v80h-558v-80h236v-635zM256 777h80l117 140h-68l-89 -95l-88 95h-68z" />
    <glyph glyph-name="tcaron" unicode="&#x165;" horiz-adv-x="418" 
d="M110 178q0 -48 11 -84t34 -59.5t57.5 -35t81.5 -11.5q22 0 47.5 2.5t56.5 7.5v78q-25 -5 -48 -7t-40 -2q-32 0 -53.5 6t-35 19t-19.5 33.5t-6 49.5v286h202v78h-202v139h-86v-139h-90v-78h90v-283zM391 802h-80l-22 -199h61z" />
    <glyph glyph-name="Tbar" unicode="&#x166;" horiz-adv-x="596" 
d="M511 392h-170v243h236v80h-558v-80h236v-243h-170v-74h170v-318h86v318h170v74z" />
    <glyph glyph-name="tbar" unicode="&#x167;" horiz-adv-x="433" 
d="M27 298h90v-120q0 -48 11 -84t34 -59.5t57.5 -35t81.5 -11.5q22 0 47.5 2.5t56.5 7.5v78q-25 -5 -48 -7t-40 -2q-32 0 -53.5 6t-35 19t-19.5 33.5t-6 49.5v123h202v66h-202v97h202v78h-202v139h-86v-139h-90v-78h90v-97h-90v-66z" />
    <glyph glyph-name="Utilde" unicode="&#x168;" horiz-adv-x="676" 
d="M55 250q0 -60 20 -108.5t56.5 -82.5t89 -52.5t118.5 -18.5q65 0 117.5 18.5t89 52.5t56.5 82.5t20 108.5v465h-86v-462q0 -87 -51.5 -136t-145.5 -49q-95 0 -146.5 49t-51.5 136v462h-86v-465zM199 788h40q0 32 6.5 50.5t25.5 18.5q14 0 25.5 -9t23.5 -21
q15 -15 33.5 -29t46.5 -14q39 0 58.5 31t19.5 94h-40q0 -35 -7 -52t-25 -17q-15 0 -27 9t-23 21q-15 15 -33.5 29t-46.5 14q-39 0 -58 -32t-19 -93z" />
    <glyph glyph-name="utilde" unicode="&#x169;" horiz-adv-x="540" 
d="M42 192q0 -47 13.5 -85t38.5 -64.5t61 -40.5t81 -14q32 0 60 7.5t50.5 21.5t39.5 34t27 46l3 -97h78v539h-86v-315q0 -36 -11 -65t-31 -49.5t-48.5 -32t-62.5 -11.5q-32 0 -55.5 10t-39.5 30t-24 49.5t-8 68.5v315h-86v-347zM129 612h40q0 32 6.5 50.5t25.5 18.5
q14 0 25.5 -9t23.5 -21q15 -15 33.5 -29t46.5 -14q39 0 58.5 31t19.5 94h-40q0 -35 -7 -52t-25 -17q-15 0 -27 9t-23 21q-15 15 -33.5 29t-46.5 14q-39 0 -58 -32t-19 -93z" />
    <glyph glyph-name="Umacron" unicode="&#x16a;" horiz-adv-x="676" 
d="M55 250q0 -60 20 -108.5t56.5 -82.5t89 -52.5t118.5 -18.5q65 0 117.5 18.5t89 52.5t56.5 82.5t20 108.5v465h-86v-462q0 -87 -51.5 -136t-145.5 -49q-95 0 -146.5 49t-51.5 136v462h-86v-465zM214 808h248v60h-248v-60z" />
    <glyph glyph-name="umacron" unicode="&#x16b;" horiz-adv-x="540" 
d="M42 192q0 -47 13.5 -85t38.5 -64.5t61 -40.5t81 -14q32 0 60 7.5t50.5 21.5t39.5 34t27 46l3 -97h78v539h-86v-315q0 -36 -11 -65t-31 -49.5t-48.5 -32t-62.5 -11.5q-32 0 -55.5 10t-39.5 30t-24 49.5t-8 68.5v315h-86v-347zM144 632h248v60h-248v-60z" />
    <glyph glyph-name="Ubreve" unicode="&#x16c;" horiz-adv-x="676" 
d="M55 250q0 -60 20 -108.5t56.5 -82.5t89 -52.5t118.5 -18.5q65 0 117.5 18.5t89 52.5t56.5 82.5t20 108.5v465h-86v-462q0 -87 -51.5 -136t-145.5 -49q-95 0 -146.5 49t-51.5 136v462h-86v-465zM209 925q0 -68 34.5 -107.5t94.5 -39.5t95 39.5t35 107.5h-50
q0 -40 -21.5 -63.5t-57.5 -23.5q-37 0 -58.5 23.5t-21.5 63.5h-50z" />
    <glyph glyph-name="ubreve" unicode="&#x16d;" horiz-adv-x="540" 
d="M42 192q0 -47 13.5 -85t38.5 -64.5t61 -40.5t81 -14q32 0 60 7.5t50.5 21.5t39.5 34t27 46l3 -97h78v539h-86v-315q0 -36 -11 -65t-31 -49.5t-48.5 -32t-62.5 -11.5q-32 0 -55.5 10t-39.5 30t-24 49.5t-8 68.5v315h-86v-347zM139 749q0 -68 34.5 -107.5t94.5 -39.5
t95 39.5t35 107.5h-50q0 -40 -21.5 -63.5t-57.5 -23.5q-37 0 -58.5 23.5t-21.5 63.5h-50z" />
    <glyph glyph-name="Uring" unicode="&#x16e;" horiz-adv-x="676" 
d="M55 250q0 -60 20 -108.5t56.5 -82.5t89 -52.5t118.5 -18.5q65 0 117.5 18.5t89 52.5t56.5 82.5t20 108.5v465h-86v-462q0 -87 -51.5 -136t-145.5 -49q-95 0 -146.5 49t-51.5 136v462h-86v-465zM231 876q0 -44 30 -72t77 -28t77 28t30 72t-30.5 72.5t-76.5 28.5
q-47 0 -77 -28.5t-30 -72.5zM285 876q0 23 14.5 37t38.5 14t38.5 -14t14.5 -37t-14.5 -36.5t-38.5 -13.5t-38.5 13.5t-14.5 36.5z" />
    <glyph glyph-name="uring" unicode="&#x16f;" horiz-adv-x="540" 
d="M42 192q0 -47 13.5 -85t38.5 -64.5t61 -40.5t81 -14q32 0 60 7.5t50.5 21.5t39.5 34t27 46l3 -97h78v539h-86v-315q0 -36 -11 -65t-31 -49.5t-48.5 -32t-62.5 -11.5q-32 0 -55.5 10t-39.5 30t-24 49.5t-8 68.5v315h-86v-347zM161 700q0 -44 30 -72t77 -28t77 28t30 72
t-30.5 72.5t-76.5 28.5q-47 0 -77 -28.5t-30 -72.5zM215 700q0 23 14.5 37t38.5 14t38.5 -14t14.5 -37t-14.5 -36.5t-38.5 -13.5t-38.5 13.5t-14.5 36.5z" />
    <glyph glyph-name="Uhungarumlaut" unicode="&#x170;" horiz-adv-x="676" 
d="M55 250q0 -60 20 -108.5t56.5 -82.5t89 -52.5t118.5 -18.5q65 0 117.5 18.5t89 52.5t56.5 82.5t20 108.5v465h-86v-462q0 -87 -51.5 -136t-145.5 -49q-95 0 -146.5 49t-51.5 136v462h-86v-465zM306 778l84 140h-75l-63 -140h54zM411 778l105 140h-75l-84 -140h54z" />
    <glyph glyph-name="uhungarumlaut" unicode="&#x171;" horiz-adv-x="540" 
d="M42 192q0 -47 13.5 -85t38.5 -64.5t61 -40.5t81 -14q32 0 60 7.5t50.5 21.5t39.5 34t27 46l3 -97h78v539h-86v-315q0 -36 -11 -65t-31 -49.5t-48.5 -32t-62.5 -11.5q-32 0 -55.5 10t-39.5 30t-24 49.5t-8 68.5v315h-86v-347zM236 602l84 140h-75l-63 -140h54zM341 602
l105 140h-75l-84 -140h54z" />
    <glyph glyph-name="Uogonek" unicode="&#x172;" horiz-adv-x="676" 
d="M55 250q0 -60 20 -108.5t56.5 -82.5t89 -52.5t118.5 -18.5q65 0 117.5 18.5t89 52.5t56.5 82.5t20 108.5v465h-86v-462q0 -87 -51.5 -136t-145.5 -49q-95 0 -146.5 49t-51.5 136v462h-86v-465zM514 45q-33 -17 -60 -36t-47 -38.5t-31 -39t-11 -38.5q0 -21 11.5 -35.5
t30 -24.5t43.5 -14.5t52 -4.5q15 0 29.5 0.5t28.5 3.5v66q-14 -2 -25 -3t-22 -1q-18 0 -34.5 2t-29.5 7t-21 13t-8 20q0 13 7.5 28t21 30.5t31.5 30.5t39 28z" />
    <glyph glyph-name="uogonek" unicode="&#x173;" horiz-adv-x="540" 
d="M42 192q0 -47 13.5 -85t38.5 -64.5t61 -40.5t81 -14q32 0 60 7.5t50.5 21.5t39.5 34t27 46l3 -97h78v539h-86v-315q0 -36 -11 -65t-31 -49.5t-48.5 -32t-62.5 -11.5q-32 0 -55.5 10t-39.5 30t-24 49.5t-8 68.5v315h-86v-347zM488 10q-41 -3 -75.5 -11.5t-60 -22
t-39.5 -32t-14 -40.5q0 -19 10 -34t28.5 -25t44.5 -15.5t57 -5.5q16 0 29.5 1t25.5 3v66q-13 -2 -25 -3t-24 -1q-43 0 -67 11t-24 31q0 28 40 45t98 23z" />
    <glyph glyph-name="Wcircumflex" unicode="&#x174;" horiz-adv-x="904" 
d="M190 0h112l149 588l151 -588h112l198 715h-92l-162 -618l-153 618h-108l-151 -618l-163 618h-92zM410 917l-116 -140h68l88 95l89 -95h68l-117 140h-80z" />
    <glyph glyph-name="wcircumflex" unicode="&#x175;" horiz-adv-x="792" 
d="M161 0h107l127 427l129 -427h107l166 539h-90l-130 -451l-132 451h-100l-130 -451l-131 451h-90zM355 741l-116 -140h68l88 95l89 -95h68l-117 140h-80z" />
    <glyph glyph-name="Ycircumflex" unicode="&#x176;" horiz-adv-x="606" 
d="M259 0h86v280l269 435h-100l-212 -352l-211 352h-100l268 -435v-280zM262 917l-116 -140h68l88 95l89 -95h68l-117 140h-80z" />
    <glyph glyph-name="ycircumflex" unicode="&#x177;" horiz-adv-x="489" 
d="M6 -189q17 -2 32.5 -3t27.5 -1q40 0 73 8t60.5 26.5t48.5 49t37 74.5l210 574h-91l-160 -457l-159 457h-91l215 -591l8 69l-20 -52q-9 -25 -23 -41t-31.5 -25t-36.5 -12t-38 -3q-15 0 -30 1.5t-32 3.5v-78zM203 741l-116 -140h68l88 95l89 -95h68l-117 140h-80z" />
    <glyph glyph-name="Ydieresis" unicode="&#x178;" horiz-adv-x="606" 
d="M259 0h86v280l269 435h-100l-212 -352l-211 352h-100l268 -435v-280zM182 794h92v110h-92v-110zM324 794h92v110h-92v-110z" />
    <glyph glyph-name="Zacute" unicode="&#x179;" horiz-adv-x="627" 
d="M55 0h517v80h-411l406 559v76h-503v-80h396l-405 -559v-76zM281 778h64l104 140h-90z" />
    <glyph glyph-name="zacute" unicode="&#x17a;" horiz-adv-x="538" 
d="M35 0h468v78h-357l349 387v74h-450v-78h339l-349 -387v-74zM237 602h64l104 140h-90z" />
    <glyph glyph-name="Zdotaccent" unicode="&#x17b;" horiz-adv-x="627" 
d="M55 0h517v80h-411l406 559v76h-503v-80h396l-405 -559v-76zM268 794h92v110h-92v-110z" />
    <glyph glyph-name="zdotaccent" unicode="&#x17c;" horiz-adv-x="538" 
d="M35 0h468v78h-357l349 387v74h-450v-78h339l-349 -387v-74zM224 618h92v110h-92v-110z" />
    <glyph glyph-name="Zcaron" unicode="&#x17d;" horiz-adv-x="627" 
d="M55 0h517v80h-411l406 559v76h-503v-80h396l-405 -559v-76zM272 777h80l117 140h-68l-89 -95l-88 95h-68z" />
    <glyph glyph-name="zcaron" unicode="&#x17e;" horiz-adv-x="538" 
d="M35 0h468v78h-357l349 387v74h-450v-78h339l-349 -387v-74zM228 601h80l117 140h-68l-89 -95l-88 95h-68z" />
    <glyph glyph-name="florin" unicode="&#x192;" horiz-adv-x="540" 
d="M20 -192q28 -4 51.5 -6t43.5 -2q50 0 87 11.5t62 34t37 56.5t12 80v479h207v78h-207v40q0 28 7 47.5t22 32t38.5 18.5t57.5 6q21 0 41 -2t41 -7v78q-28 4 -51.5 6t-43.5 2q-50 0 -87 -11.5t-62 -34t-37 -56.5t-12 -80v-39h-100v-78h100v-480q0 -28 -7 -47.5t-22 -32
t-38.5 -18.5t-57.5 -6q-21 0 -41 2t-41 7v-78z" />
    <glyph glyph-name="AEacute" unicode="&#x1fc;" horiz-adv-x="928" 
d="M411 0h481v80h-395v240h373v78h-373v237h390v80h-536l-360 -715h95l100 204h225v-204zM226 284l175 356h10v-356h-185zM602 778h64l104 140h-90z" />
    <glyph glyph-name="aeacute" unicode="&#x1fd;" horiz-adv-x="952" 
d="M26 141q0 -37 13.5 -65.5t37.5 -48t58 -29.5t74 -10q37 0 74 8.5t68.5 26t55.5 43t35 59.5q32 -64 90 -100.5t138 -36.5q93 0 157 49t87 133h-91q-9 -24 -23 -43.5t-33 -33t-42.5 -20.5t-52.5 -7q-37 0 -67.5 12.5t-52 35t-35 55t-17.5 71.5h422v43q0 60 -18 109.5
t-51.5 84.5t-80 54.5t-103.5 19.5q-65 0 -116 -25t-85 -70q-28 46 -77.5 70.5t-119.5 24.5q-53 0 -95.5 -14.5t-73 -41t-48.5 -62.5t-22 -80h88q9 57 46 88.5t103 31.5q67 0 104.5 -34.5t37.5 -101.5v-4l-204 -35q-94 -16 -137.5 -54.5t-43.5 -102.5zM116 145q0 32 22 52
t81 30l192 34v-39q0 -34 -13 -63t-36.5 -50.5t-57 -33.5t-74.5 -12q-51 0 -82.5 20t-31.5 62zM502 312q5 37 18.5 66.5t35 50.5t50 32.5t64.5 11.5t64.5 -11.5t49 -32.5t32.5 -50.5t16 -66.5h-330zM435 602h64l104 140h-90z" />
    <glyph glyph-name="Oslashacute" unicode="&#x1fe;" horiz-adv-x="748" 
d="M59 -11h90l36 49q39 -25 86.5 -37.5t101.5 -12.5q78 0 142 25.5t109 73.5t69.5 116t24.5 154q0 88 -26 157t-73 118l68 95h-90l-36 -49q-39 24 -86 36.5t-102 12.5q-77 0 -140 -26t-108.5 -74t-70 -116.5t-24.5 -153.5q0 -87 25.5 -156t71.5 -117zM180 157
q-29 37 -44.5 87.5t-15.5 112.5q0 68 18.5 121.5t51.5 91t80 57.5t103 20q40 0 74.5 -9.5t63.5 -28.5zM235 107l331 453q30 -37 46 -88t16 -115q0 -67 -18 -120.5t-51.5 -91t-80.5 -57.5t-105 -20q-40 0 -74.5 10t-63.5 29zM341 778h64l104 140h-90z" />
    <glyph glyph-name="oslashacute" unicode="&#x1ff;" horiz-adv-x="583" 
d="M60 -12h80l22 32q28 -16 60.5 -24t69.5 -8q59 0 107 20.5t82.5 58t53 89t18.5 114.5q0 66 -20.5 119t-57.5 91l48 71h-80l-21 -31q-28 15 -60.5 23t-69.5 8q-60 0 -108 -20.5t-82.5 -57.5t-53 -89t-18.5 -114q0 -66 20.5 -119.5t57.5 -91.5zM157 132q-19 26 -29 61
t-10 77q0 45 12 82.5t34 64.5t54.5 41.5t73.5 14.5q24 0 45 -5t39 -15zM207 86l220 322q18 -27 28 -61.5t10 -76.5q0 -46 -11.5 -83.5t-34 -64.5t-54.5 -41.5t-73 -14.5q-24 0 -45.5 5t-39.5 15zM260 602h64l104 140h-90z" />
    <glyph glyph-name="uni0218" unicode="&#x218;" horiz-adv-x="600" 
d="M17 247q2 -57 24 -104.5t60.5 -82t92.5 -53.5t122 -19q57 0 105.5 14.5t83.5 41.5t54.5 66t19.5 89q0 55 -21.5 90t-58 56.5t-83 33.5t-95.5 22q-39 8 -74.5 16.5t-62.5 22t-43.5 34t-16.5 52.5q0 27 11.5 49t32.5 38t50 25t64 9q43 0 77.5 -12.5t59.5 -34.5t39 -51.5
t18 -63.5h90q-4 51 -24.5 95.5t-56.5 77t-86.5 51t-114.5 18.5q-58 0 -104.5 -14.5t-79 -41.5t-49.5 -64.5t-17 -83.5q0 -54 22 -88t58 -55t81 -32.5t91 -20.5q43 -9 80 -18t64.5 -23t43 -36t15.5 -57q0 -29 -12 -52t-34 -39.5t-54 -25t-71 -8.5q-47 0 -84 12t-64 35
t-43.5 56.5t-20.5 75.5h-89zM247 -214h61l50 149v2h-80l-31 -149v-2z" />
    <glyph glyph-name="uni0219" unicode="&#x219;" horiz-adv-x="500" 
d="M14 176q2 -41 19 -75.5t48.5 -59.5t76 -39t100.5 -14q46 0 86.5 10t70.5 30.5t47 51t17 72.5q0 45 -18 72.5t-48 44t-68.5 25.5t-79.5 16q-29 5 -56 11t-48 15t-33 23t-12 36q0 17 8 31t23 24.5t37.5 16.5t52.5 6q63 0 101 -27t44 -74h88q-4 38 -21 70.5t-46 56.5
t-70.5 38t-94.5 14q-49 0 -88 -12t-66 -33.5t-41.5 -51.5t-14.5 -67q0 -43 18.5 -70t48.5 -43t67.5 -24.5t74.5 -14.5q33 -5 61.5 -10.5t49 -15t32 -24t11.5 -37.5q0 -22 -10.5 -37.5t-28.5 -25.5t-42 -14.5t-52 -4.5q-76 0 -114 30t-42 80h-88zM188 -214h61l50 149v2h-80
l-31 -149v-2z" />
    <glyph glyph-name="uni021A" unicode="&#x21a;" horiz-adv-x="596" 
d="M255 0h86v635h236v80h-558v-80h236v-635zM227 -214h61l50 149v2h-80l-31 -149v-2z" />
    <glyph glyph-name="uni021B" unicode="&#x21b;" horiz-adv-x="418" 
d="M110 178q0 -48 11 -84t34 -59.5t57.5 -35t81.5 -11.5q22 0 47.5 2.5t56.5 7.5v78q-25 -5 -48 -7t-40 -2q-32 0 -53.5 6t-35 19t-19.5 33.5t-6 49.5v286h202v78h-202v139h-86v-139h-90v-78h90v-283zM191 -214h61l50 149v2h-80l-31 -149v-2z" />
    <glyph glyph-name="uni0237" unicode="&#x237;" horiz-adv-x="184" 
d="M-54 -192q12 -2 23 -3t21 -1q40 0 68 13t45 37t25 58.5t8 76.5v550h-84v-550q0 -61 -16 -83.5t-58 -22.5q-8 0 -16 0.5t-16 2.5v-78z" />
    <glyph glyph-name="circumflex" unicode="&#x2c6;" horiz-adv-x="397" 
d="M158 732l-116 -140h68l88 95l89 -95h68l-117 140h-80z" />
    <glyph glyph-name="caron" unicode="&#x2c7;" horiz-adv-x="397" 
d="M158 592h80l117 140h-68l-89 -95l-88 95h-68z" />
    <glyph glyph-name="breve" unicode="&#x2d8;" horiz-adv-x="343" 
d="M42 740q0 -68 34.5 -107.5t94.5 -39.5t95 39.5t35 107.5h-50q0 -40 -21.5 -63.5t-57.5 -23.5q-37 0 -58.5 23.5t-21.5 63.5h-50z" />
    <glyph glyph-name="dotaccent" unicode="&#x2d9;" horiz-adv-x="176" 
d="M42 609h92v110h-92v-110z" />
    <glyph glyph-name="ring" unicode="&#x2da;" horiz-adv-x="298" 
d="M42 691q0 -44 30 -72t77 -28t77 28t30 72t-30.5 72.5t-76.5 28.5q-47 0 -77 -28.5t-30 -72.5zM96 691q0 23 14.5 37t38.5 14t38.5 -14t14.5 -37t-14.5 -36.5t-38.5 -13.5t-38.5 13.5t-14.5 36.5z" />
    <glyph glyph-name="ogonek" unicode="&#x2db;" horiz-adv-x="279" 
d="M231 -5q-41 -3 -75.5 -11.5t-60 -22t-39.5 -32t-14 -40.5q0 -19 10 -34t28.5 -25t44.5 -15.5t57 -5.5q16 0 29.5 1t25.5 3v66q-13 -2 -25 -3t-24 -1q-43 0 -67 11t-24 31q0 28 40 45t98 23z" />
    <glyph glyph-name="tilde" unicode="&#x2dc;" horiz-adv-x="364" 
d="M43 603h40q0 32 6.5 50.5t25.5 18.5q14 0 25.5 -9t23.5 -21q15 -15 33.5 -29t46.5 -14q39 0 58.5 31t19.5 94h-40q0 -35 -7 -52t-25 -17q-15 0 -27 9t-23 21q-15 15 -33.5 29t-46.5 14q-39 0 -58 -32t-19 -93z" />
    <glyph glyph-name="hungarumlaut" unicode="&#x2dd;" horiz-adv-x="348" 
d="M96 593l84 140h-75l-63 -140h54zM201 593l105 140h-75l-84 -140h54z" />
    <glyph glyph-name="uni03BC" unicode="&#x3bc;" horiz-adv-x="647" 
d="M43 715v-715h561v715h-561zM370 357l146 216v-432zM130 143v429l143 -215zM321 429l-141 210h281zM179 76l142 210l140 -210h-282z" />
    <glyph glyph-name="Wgrave" unicode="&#x1e80;" horiz-adv-x="904" 
d="M190 0h112l149 588l151 -588h112l198 715h-92l-162 -618l-153 618h-108l-151 -618l-163 618h-92zM418 778h64l-78 140h-90z" />
    <glyph glyph-name="wgrave" unicode="&#x1e81;" horiz-adv-x="792" 
d="M161 0h107l127 427l129 -427h107l166 539h-90l-130 -451l-132 451h-100l-130 -451l-131 451h-90zM363 602h64l-78 140h-90z" />
    <glyph glyph-name="Wacute" unicode="&#x1e82;" horiz-adv-x="904" 
d="M190 0h112l149 588l151 -588h112l198 715h-92l-162 -618l-153 618h-108l-151 -618l-163 618h-92zM419 778h64l104 140h-90z" />
    <glyph glyph-name="wacute" unicode="&#x1e83;" horiz-adv-x="792" 
d="M161 0h107l127 427l129 -427h107l166 539h-90l-130 -451l-132 451h-100l-130 -451l-131 451h-90zM364 602h64l104 140h-90z" />
    <glyph glyph-name="Wdieresis" unicode="&#x1e84;" horiz-adv-x="904" 
d="M190 0h112l149 588l151 -588h112l198 715h-92l-162 -618l-153 618h-108l-151 -618l-163 618h-92zM330 794h92v110h-92v-110zM472 794h92v110h-92v-110z" />
    <glyph glyph-name="wdieresis" unicode="&#x1e85;" horiz-adv-x="792" 
d="M161 0h107l127 427l129 -427h107l166 539h-90l-130 -451l-132 451h-100l-130 -451l-131 451h-90zM275 618h92v110h-92v-110zM417 618h92v110h-92v-110z" />
    <glyph glyph-name="Ygrave" unicode="&#x1ef2;" horiz-adv-x="606" 
d="M259 0h86v280l269 435h-100l-212 -352l-211 352h-100l268 -435v-280zM270 778h64l-78 140h-90z" />
    <glyph glyph-name="ygrave" unicode="&#x1ef3;" horiz-adv-x="489" 
d="M6 -189q17 -2 32.5 -3t27.5 -1q40 0 73 8t60.5 26.5t48.5 49t37 74.5l210 574h-91l-160 -457l-159 457h-91l215 -591l8 69l-20 -52q-9 -25 -23 -41t-31.5 -25t-36.5 -12t-38 -3q-15 0 -30 1.5t-32 3.5v-78zM211 602h64l-78 140h-90z" />
    <glyph glyph-name="endash" unicode="&#x2013;" horiz-adv-x="724" 
d="M42 246h640v78h-640v-78z" />
    <glyph glyph-name="emdash" unicode="&#x2014;" horiz-adv-x="954" 
d="M42 246h870v78h-870v-78z" />
    <glyph glyph-name="quoteleft" unicode="&#x2018;" horiz-adv-x="206" 
d="M20 370h98l62 346h-68z" />
    <glyph glyph-name="quoteright" unicode="&#x2019;" horiz-adv-x="206" 
d="M26 370h69l91 346h-97z" />
    <glyph glyph-name="quotesinglbase" unicode="&#x201a;" horiz-adv-x="194" 
d="M5 -200h69l91 346h-98z" />
    <glyph glyph-name="quotedblleft" unicode="&#x201c;" horiz-adv-x="354" 
d="M20 370h98l62 346h-68zM168 370h98l62 346h-68z" />
    <glyph glyph-name="quotedblright" unicode="&#x201d;" horiz-adv-x="354" 
d="M174 370h69l91 346h-97zM26 370h69l91 346h-97z" />
    <glyph glyph-name="quotedblbase" unicode="&#x201e;" horiz-adv-x="342" 
d="M5 -200h69l91 346h-98zM153 -200h69l91 346h-98z" />
    <glyph glyph-name="dagger" unicode="&#x2020;" horiz-adv-x="556" 
d="M234 715v-176h-180v-80h180v-459h88v459h180v80h-180v176h-88z" />
    <glyph glyph-name="daggerdbl" unicode="&#x2021;" horiz-adv-x="556" 
d="M234 715v-176h-180v-80h180v-203h-180v-80h180v-176h88v176h180v80h-180v203h180v80h-180v176h-88z" />
    <glyph glyph-name="bullet" unicode="&#x2022;" horiz-adv-x="333" 
d="M42 283q0 -27 9 -49.5t25.5 -39t39.5 -26t50 -9.5t50 9.5t39.5 26t26 39t9.5 49.5t-9.5 50t-26 39.5t-39.5 26t-50 9.5t-50 -9.5t-39.5 -26t-25.5 -39.5t-9 -50z" />
    <glyph glyph-name="ellipsis" unicode="&#x2026;" horiz-adv-x="582" 
d="M42 0h110v108h-110v-108zM236 0h110v108h-110v-108zM430 0h110v108h-110v-108z" />
    <glyph glyph-name="perthousand" unicode="&#x2030;" horiz-adv-x="1293" 
d="M42 543q0 -41 12 -75t34.5 -58t54 -37.5t70.5 -13.5t70.5 13.5t54 37.5t34.5 58t12 75t-12 75t-34.5 58t-54 37.5t-70.5 13.5t-70.5 -13.5t-54 -37.5t-34.5 -58t-12 -75zM114 543q0 27 6.5 49t19 37.5t31 24t42.5 8.5q23 0 41.5 -8.5t31.5 -24t19.5 -37.5t6.5 -49
t-6.5 -49t-19.5 -37.5t-31.5 -24t-41.5 -8.5q-24 0 -42.5 8.5t-31 24t-19 37.5t-6.5 49zM147 0h82l514 715h-82zM848 172q0 41 -12.5 75t-35 58t-54 37.5t-69.5 13.5q-39 0 -70.5 -13.5t-54 -37.5t-34.5 -58t-12 -75t12 -75t34.5 -58t54 -37.5t70.5 -13.5q38 0 69.5 13.5
t54 37.5t34.5 58t13 75zM776 172q0 -27 -7 -49t-19.5 -37.5t-31 -24t-41.5 -8.5q-24 0 -42.5 8.5t-31 24t-19.5 37.5t-6 49q0 27 6.5 49t19 37.5t31 24t42.5 8.5q23 0 41.5 -8.5t31 -24t19.5 -37.5t7 -49zM1250 172q0 41 -12 75t-34.5 58t-54 37.5t-70.5 13.5
q-38 0 -69.5 -13.5t-54 -37.5t-35 -58t-12.5 -75t12.5 -75t35 -58t54 -37.5t69.5 -13.5q39 0 70.5 13.5t54 37.5t34.5 58t12 75zM1178 172q0 -27 -6.5 -49t-19 -37.5t-31 -24t-41.5 -8.5q-24 0 -42.5 8.5t-31 24t-19 37.5t-6.5 49t6.5 49t19 37.5t31 24t42.5 8.5
q23 0 41.5 -8.5t31 -24t19 -37.5t6.5 -49z" />
    <glyph glyph-name="guilsinglleft" unicode="&#x2039;" horiz-adv-x="388" 
d="M270 34h100l-242 242l242 240h-100l-244 -240z" />
    <glyph glyph-name="guilsinglright" unicode="&#x203a;" horiz-adv-x="388" 
d="M118 34l244 242l-244 240h-100l242 -240l-242 -242h100z" />
    <glyph glyph-name="fraction" unicode="&#x2044;" horiz-adv-x="681" 
d="M43 0h82l514 715h-82z" />
    <glyph glyph-name="uni2074" unicode="&#x2074;" horiz-adv-x="367" 
d="M24 476h193v-77h70v77h56v65h-56v250h-86l-177 -253v-62zM100 541l117 168v-168h-117z" />
    <glyph glyph-name="Euro" unicode="&#x20ac;" horiz-adv-x="793" 
d="M30 256h397v68h-397v-68zM30 391h397v68h-397v-68zM102 357q0 -86 24 -154t67.5 -116t105 -73.5t136.5 -25.5q67 0 122.5 19.5t98 56t70 89t37.5 118.5h-92q-18 -96 -80 -149.5t-156 -53.5q-55 0 -99.5 20t-76.5 57.5t-49.5 91.5t-17.5 120q0 68 17.5 121.5t49.5 91
t76.5 57.5t98.5 20q90 0 150.5 -48.5t82.5 -136.5h92q-12 62 -40.5 111t-70 83.5t-95.5 52.5t-118 18q-75 0 -136.5 -26t-105 -74t-67.5 -116.5t-24 -153.5z" />
    <glyph glyph-name="trademark" unicode="&#x2122;" horiz-adv-x="806" 
d="M142 322h66v333h125v60h-311v-60h120v-333zM369 322h66v310l90 -310h90l89 309v-309h66v393h-103l-97 -338l-98 338h-103v-393z" />
    <glyph glyph-name="minus" unicode="&#x2212;" horiz-adv-x="552" 
d="M42 312h468v76h-468v-76z" />
    <glyph glyph-name="cedilla2" horiz-adv-x="323" 
d="M42 -155q29 -17 59.5 -26t62.5 -9q30 0 51.5 7t36 19t21.5 27.5t7 31.5q0 27 -20 47t-65 20q-6 0 -20 -1t-27 -6l21 61h-54l-27 -79l42 -16q10 3 21.5 5t22.5 2q23 0 33.5 -9.5t10.5 -23.5q0 -17 -14.5 -27t-44.5 -10q-22 0 -47 7t-50 21z" />
    <glyph glyph-name="commaccent" horiz-adv-x="187" 
d="M144 -5h-80l-21 -279h60z" />
    <glyph glyph-name="commaccent2" horiz-adv-x="195" 
d="M42 -214h61l50 149v2h-80l-31 -149v-2z" />
    <glyph glyph-name="commaccent3" horiz-adv-x="194" 
d="M152 200h-59l-51 -149v-2h80l30 148v3z" />
    <glyph glyph-name="dotaccent2" horiz-adv-x="187" 
d="M43 592h102v108h-102v-108z" />
    <glyph glyph-name="ogonek2" horiz-adv-x="279" 
d="M191 40q-33 -17 -60 -36t-47 -38.5t-31 -39t-11 -38.5q0 -21 11.5 -35.5t30 -24.5t43.5 -14.5t52 -4.5q15 0 29.5 0.5t28.5 3.5v66q-14 -2 -25 -3t-22 -1q-18 0 -34.5 2t-29.5 7t-21 13t-8 20q0 13 7.5 28t21 30.5t31.5 30.5t39 28z" />
    </font>
</defs>
</svg>
