<?xml version="1.0" standalone="no"?>
<!DOCTYPE svg PUBLIC "-//W3C//DTD SVG 1.1//EN" "http://www.w3.org/Graphics/SVG/1.1/DTD/svg11.dtd" >
<svg xmlns="http://www.w3.org/2000/svg" xmlns:xlink="http://www.w3.org/1999/xlink" version="1.1">
<metadata>
Created by FontForge 20201107 at Thu Jun 25 07:42:45 2026
 By www-data
Rajesh Rajput
</metadata>
<defs>
<font id="Delight-Black" horiz-adv-x="1249" >
  <font-face 
    font-family="Delight Black"
    font-weight="900"
    font-stretch="normal"
    units-per-em="2048"
    panose-1="0 0 0 0 0 0 0 0 0 0"
    ascent="1638"
    descent="-410"
    x-height="1128"
    cap-height="1464"
    bbox="-125 -582 2712 1976"
    underline-thickness="102"
    underline-position="-153"
    unicode-range="U+000D-FB02"
  />
<missing-glyph horiz-adv-x="1314" 
d="M53 1464h1209v-1464h-1209v1464zM788 731l166 -237v475zM360 492l166 239l-166 242v-481zM659 922l220 315h-441zM438 227h439l-220 316z" />
    <glyph glyph-name="fi" unicode="fi" horiz-adv-x="1503" 
d="M195 0v780h-164v348h164v41q0 198 124 296t377 98q99 0 219 -15v-327q-52 8 -124 8q-83 0 -114.5 -18t-31.5 -64v-19h266v-348h-266v-780h-450zM999 0v1128h451v-1128h-451zM999 1190v315h451v-315h-451z" />
    <glyph glyph-name="fl" unicode="fl" horiz-adv-x="1503" 
d="M195 0v780h-164v348h164v41q0 198 124 296t377 98q99 0 219 -15v-327q-52 8 -124 8q-83 0 -114.5 -18t-31.5 -64v-19h266v-348h-266v-780h-450zM999 0v1505h451v-1505h-451z" />
    <glyph glyph-name=".notdef" horiz-adv-x="1314" 
d="M53 1464h1209v-1464h-1209v1464zM788 731l166 -237v475zM360 492l166 239l-166 242v-481zM659 922l220 315h-441zM438 227h439l-220 316z" />
    <glyph glyph-name=".null" horiz-adv-x="0" 
 />
    <glyph glyph-name="uni000D" unicode="&#xd;" horiz-adv-x="307" 
 />
    <glyph glyph-name="space" unicode=" " horiz-adv-x="372" 
 />
    <glyph glyph-name="exclam" unicode="!" horiz-adv-x="616" 
d="M141 451l-57 706v307h451v-307l-58 -706h-336zM109 0v389h401v-389h-401z" />
    <glyph glyph-name="quotedbl" unicode="&#x22;" horiz-adv-x="1048" 
d="M104 778l-51 686h451l-51 -686h-349zM596 778l-51 686h450l-51 -686h-348z" />
    <glyph glyph-name="numbersign" unicode="#" horiz-adv-x="1626" 
d="M53 266v332h232l34 268h-215v332h256l33 266h398l-33 -266h227l33 266h397l-33 -266h191v-332h-232l-34 -268h215v-332h-256l-33 -266h-397l32 266h-227l-33 -266h-397l33 266h-191zM965 866h-269l-34 -268h268z" />
    <glyph glyph-name="dollar" unicode="$" horiz-adv-x="1349" 
d="M498 1483l-19 237h369l-19 -239q226 -40 348.5 -182.5t131.5 -352.5h-480q-8 89 -53 139t-119 50q-64 0 -100.5 -27t-36.5 -72q0 -52 53.5 -81t192.5 -52q162 -27 272.5 -69.5t172.5 -102t88 -128.5t26 -161q0 -192 -129 -314.5t-362 -150.5l16 -233h-369l19 242
q-231 42 -354.5 183t-131.5 359h482q21 -198 202 -198q71 0 112.5 24.5t41.5 73.5q0 33 -16.5 54t-74 42.5t-169.5 44.5q-152 31 -251.5 67.5t-168.5 90.5t-99 127t-30 176q0 178 120 298.5t335 154.5z" />
    <glyph glyph-name="percent" unicode="%" horiz-adv-x="1904" 
d="M1569 342q0 74 -30 114t-87 40t-87 -40t-30 -114t30 -115t87 -41t87 41t30 115zM336 1124q0 -74 30 -114.5t87 -40.5t86.5 40.5t29.5 114.5t-29.5 114t-86.5 40t-87 -40t-30 -114zM1851 342q0 -167 -109.5 -270t-289.5 -103t-289.5 103t-109.5 270t109.5 269t289.5 102
t289.5 -102t109.5 -269zM53 1124q0 167 110 269t290 102t289.5 -102t109.5 -269t-109.5 -269.5t-289.5 -102.5t-290 102.5t-110 269.5zM293 0l991 1464h328l-991 -1464h-328z" />
    <glyph glyph-name="ampersand" unicode="&#x26;" horiz-adv-x="1644" 
d="M1139 823h422q-12 -250 -121 -442q58 -12 116 -12h64v-369h-113q-195 0 -368 86q-214 -117 -504 -117q-99 0 -186 13.5t-166 45.5t-135.5 79.5t-89.5 119.5t-33 162q0 258 274 402q-123 138 -123 303q0 183 150 292t387 109q227 0 367.5 -101t140.5 -278
q0 -232 -271 -379l150 -131q33 94 39 217zM498 426q0 -57 50 -93t148 -36q74 0 133 20l-262 232q-69 -56 -69 -123zM811 1100q0 39 -28.5 63.5t-73.5 24.5q-47 0 -75 -27t-28 -69q0 -30 18 -57t68 -72q119 63 119 137z" />
    <glyph glyph-name="quotesingle" unicode="'" horiz-adv-x="557" 
d="M104 778l-51 686h451l-51 -686h-349z" />
    <glyph glyph-name="parenleft" unicode="(" horiz-adv-x="770" 
d="M752 -190l-224 -144q-238 205 -353.5 466t-115.5 546t115.5 546t353.5 468l224 -146q-246 -396 -246 -868q0 -476 246 -868z" />
    <glyph glyph-name="parenright" unicode=")" horiz-adv-x="770" 
d="M242 -334l-224 144q246 392 246 868q0 472 -246 868l224 146q238 -207 353.5 -468t115.5 -546t-115.5 -546t-353.5 -466z" />
    <glyph glyph-name="asterisk" unicode="*" horiz-adv-x="942" 
d="M82 881l180 161l-237 23l110 342l213 -125l-53 234h358l-51 -236l203 117l110 -338l-239 -27l178 -155l-291 -211l-96 221l-96 -217z" />
    <glyph glyph-name="plus" unicode="+" horiz-adv-x="1187" 
d="M53 537v356h357v364h368v-364h357v-356h-357v-365h-368v365h-357z" />
    <glyph glyph-name="comma" unicode="," horiz-adv-x="509" 
d="M-41 -389l137 778h402l-252 -778h-287z" />
    <glyph glyph-name="hyphen" unicode="-" horiz-adv-x="929" 
d="M55 422v344h822v-344h-822z" />
    <glyph glyph-name="period" unicode="." horiz-adv-x="509" 
d="M55 0v389h402v-389h-402z" />
    <glyph glyph-name="slash" unicode="/" horiz-adv-x="948" 
d="M-18 -223l485 1763h500l-488 -1763h-497z" />
    <glyph glyph-name="zero" unicode="0" horiz-adv-x="1441" 
d="M512 729q0 -391 207 -391q211 0 211 395q0 393 -209 393t-209 -397zM37 727q0 356 183.5 562t500.5 206q316 0 500 -206t184 -560q0 -353 -183.5 -556.5t-502.5 -203.5q-318 0 -500 202.5t-182 555.5z" />
    <glyph glyph-name="one" unicode="1" horiz-adv-x="921" 
d="M61 852v348h93q155 0 217.5 57.5t62.5 206.5h389v-1464h-465v852h-297z" />
    <glyph glyph-name="two" unicode="2" horiz-adv-x="1310" 
d="M47 0v164q0 96 19 176t60 142t79.5 106t105 86t106 63.5t111.5 55.5q48 23 70 34t60.5 32t56 36t38.5 37t29.5 45.5t8.5 50.5q0 52 -31.5 79.5t-87.5 27.5q-71 0 -109.5 -51.5t-44.5 -170.5h-475q14 284 173.5 433t457.5 149q279 0 435.5 -124.5t156.5 -338.5
q0 -64 -15.5 -122t-38.5 -101t-63 -85t-74.5 -69.5t-87.5 -58.5t-87.5 -48t-88.5 -42q-72 -34 -107 -51t-79 -43t-58 -43h699v-369h-1219z" />
    <glyph glyph-name="three" unicode="3" horiz-adv-x="1355" 
d="M37 518h475q13 -95 54 -137.5t118 -42.5q75 0 118.5 35.5t43.5 97.5q0 121 -182 121h-148v313h129q82 0 119 25.5t37 81.5q0 55 -35.5 84.5t-101.5 29.5q-68 0 -103 -31.5t-41 -97.5h-475q11 237 176 367.5t457 130.5q271 0 432.5 -111t161.5 -305q0 -245 -277 -311
q166 -33 245 -118t79 -224q0 -215 -170 -336t-467 -121q-309 0 -471.5 138.5t-173.5 410.5z" />
    <glyph glyph-name="four" unicode="4" horiz-adv-x="1402" 
d="M29 252v352l571 860h600v-843h174v-369h-174v-252h-465v252h-706zM500 621h235v385z" />
    <glyph glyph-name="five" unicode="5" horiz-adv-x="1357" 
d="M39 455h459q29 -117 170 -117q87 0 133.5 40.5t46.5 113.5t-46 117t-130 44q-67 0 -112.5 -27t-65.5 -65h-447l115 903h1052v-368h-663l-27 -197q115 72 285 72q241 0 375.5 -134.5t134.5 -351.5q0 -243 -171.5 -379.5t-477.5 -136.5q-296 0 -454.5 129t-176.5 357z" />
    <glyph glyph-name="six" unicode="6" horiz-adv-x="1366" 
d="M545 479q0 -63 42.5 -102t112.5 -39t113 39t43 102t-43 103.5t-113 40.5q-69 0 -112 -40.5t-43 -103.5zM39 723q0 165 42 303.5t124 244t214 165t302 59.5q246 0 407.5 -125t190.5 -348h-432q-37 104 -164 104q-193 0 -211 -256q114 74 287 74q240 0 385 -128.5
t145 -344.5q0 -157 -81 -272t-217.5 -172.5t-309.5 -57.5q-216 0 -371 94.5t-233 263t-78 396.5z" />
    <glyph glyph-name="seven" unicode="7" horiz-adv-x="1224" 
d="M758 0h-492q0 555 422 1075h-659v389h1157v-348q-111 -117 -186.5 -225.5t-132 -241.5t-83 -292t-26.5 -357z" />
    <glyph glyph-name="eight" unicode="8" horiz-adv-x="1433" 
d="M510 473q0 -64 57 -103.5t150 -39.5t150 39.5t57 103.5q0 63 -57.5 103t-149.5 40t-149.5 -40t-57.5 -103zM535 1014q0 -113 182 -113t182 115q0 57 -47 88t-133 31q-87 0 -135.5 -32t-48.5 -89zM37 412q0 144 84 232.5t239 119.5q-272 55 -272 311q0 205 169.5 312.5
t459.5 107.5t459.5 -107.5t169.5 -312.5q0 -253 -279 -311q160 -31 245 -119.5t85 -232.5q0 -214 -180.5 -328.5t-495.5 -114.5q-318 0 -501 115t-183 328z" />
    <glyph glyph-name="nine" unicode="9" horiz-adv-x="1363" 
d="M1327 741q0 -131 -26 -246t-80.5 -212t-134.5 -166.5t-193 -108.5t-250 -39q-239 0 -399 119.5t-195 333.5h438q44 -84 154 -84q188 0 211 240q-113 -78 -287 -78q-240 0 -384 131t-144 352q0 120 46.5 218t128.5 161.5t192 98t239 34.5q216 0 371.5 -94.5t234 -263.5
t78.5 -396zM819 975q0 68 -42.5 109.5t-112.5 41.5t-113 -41.5t-43 -109.5t43.5 -111t112.5 -43t112 43t43 111z" />
    <glyph glyph-name="colon" unicode=":" horiz-adv-x="530" 
d="M66 0v389h401v-389h-401zM66 739v389h401v-389h-401z" />
    <glyph glyph-name="semicolon" unicode=";" horiz-adv-x="550" 
d="M76 739v389h401v-389h-401zM-61 -389l137 778h401l-252 -778h-286z" />
    <glyph glyph-name="less" unicode="&#x3c;" horiz-adv-x="1040" 
d="M55 526v344l932 390v-410l-567 -152l567 -151v-410z" />
    <glyph glyph-name="equal" unicode="=" horiz-adv-x="987" 
d="M934 766h-879v315h879v-315zM934 307h-879v316h879v-316z" />
    <glyph glyph-name="greater" unicode="&#x3e;" horiz-adv-x="1040" 
d="M987 870v-344l-934 -389v410l568 151l-568 152v410z" />
    <glyph glyph-name="question" unicode="?" horiz-adv-x="1284" 
d="M412 0v389h401v-389h-401zM504 903h-471q35 592 622 592q270 0 423 -120t153 -333q0 -81 -23.5 -143t-61.5 -98t-83.5 -63t-91 -47.5t-83.5 -42t-61.5 -56t-23.5 -80.5v-61h-381v41q0 93 18.5 165.5t48.5 117t66 77.5t72 55t66 41.5t48.5 45.5t18.5 59q0 43 -30.5 68.5
t-82.5 25.5q-74 0 -106.5 -55.5t-36.5 -188.5z" />
    <glyph glyph-name="at" unicode="@" horiz-adv-x="2109" 
d="M891 545q0 -95 35.5 -146t101.5 -51t102.5 51t36.5 146t-36.5 147.5t-102.5 52.5t-101.5 -52t-35.5 -148zM37 557q0 271 130 485t363 333.5t527 119.5q216 0 404.5 -67t323 -183.5t211.5 -280.5t77 -352q0 -250 -132.5 -398t-359.5 -148q-52 0 -101.5 8.5t-103 29.5
t-96.5 62.5t-66 99.5q-39 -99 -117.5 -149.5t-185.5 -50.5q-175 0 -282 130t-107 355q0 218 105 347.5t274 129.5q86 0 155 -37.5t111 -109.5v123h369v-496q0 -146 84 -146q100 0 100 209q0 267 -178.5 429.5t-472.5 162.5q-198 0 -353 -76.5t-241 -215t-86 -316.5
q0 -180 88 -319.5t248 -216t367 -76.5q257 0 505 106l121 -305q-310 -133 -631 -133q-227 0 -422.5 70.5t-333.5 194.5t-216 300t-78 381z" />
    <glyph glyph-name="A" unicode="A" horiz-adv-x="1521" 
d="M629 571h264l-131 451zM-29 0l480 1464h624l477 -1464h-493l-64 219h-469l-65 -219h-490z" />
    <glyph glyph-name="B" unicode="B" horiz-adv-x="1413" 
d="M61 0v1464h680q298 0 443 -96t145 -303q0 -133 -83.5 -210.5t-246.5 -96.5q190 -19 285.5 -108.5t95.5 -243.5q0 -206 -143 -306t-438 -100h-738zM526 348h197q93 0 137.5 30.5t44.5 96.5t-43.5 96.5t-138.5 30.5h-197v-254zM526 889h144q90 0 131 27t41 85
q0 62 -40 88.5t-132 26.5h-144v-227z" />
    <glyph glyph-name="C" unicode="C" horiz-adv-x="1576" 
d="M37 733q0 347 206 554.5t562 207.5q200 0 353.5 -69.5t252 -211.5t125.5 -348h-483q-13 123 -81 191.5t-175 68.5q-134 0 -209.5 -104.5t-75.5 -288.5q0 -186 76.5 -290.5t214.5 -104.5q110 0 174 69.5t76 204.5h485q-24 -205 -125 -351.5t-258.5 -219t-359.5 -72.5
q-231 0 -403 94.5t-263.5 267.5t-91.5 402z" />
    <glyph glyph-name="D" unicode="D" horiz-adv-x="1458" 
d="M526 369h84q173 0 253.5 89t80.5 275q0 185 -80.5 274t-253.5 89h-84v-727zM61 0v1464h562q385 0 591.5 -190.5t206.5 -544.5q0 -353 -206 -541t-592 -188h-562z" />
    <glyph glyph-name="E" unicode="E" horiz-adv-x="1261" 
d="M61 0v1464h1141v-368h-676v-178h635v-365h-635v-184h684v-369h-1149z" />
    <glyph glyph-name="F" unicode="F" horiz-adv-x="1216" 
d="M61 0v1464h1119v-368h-654v-205h615v-369h-615v-522h-465z" />
    <glyph glyph-name="G" unicode="G" horiz-adv-x="1595" 
d="M37 723q0 355 206 563.5t562 208.5q294 0 484.5 -150t240.5 -438h-483q-22 105 -87 162t-163 57q-133 0 -209 -103.5t-76 -285.5q0 -192 76 -295.5t223 -103.5q182 0 250 156h-256v307h729v-801h-266l-31 182q-162 -213 -475 -213q-334 0 -529.5 206.5t-195.5 547.5z" />
    <glyph glyph-name="H" unicode="H" horiz-adv-x="1419" 
d="M61 0v1464h465v-542h367v542h465v-1464h-465v557h-367v-557h-465z" />
    <glyph glyph-name="I" unicode="I" horiz-adv-x="587" 
d="M61 0v1464h465v-1464h-465z" />
    <glyph glyph-name="J" unicode="J" horiz-adv-x="1300" 
d="M29 606h465q6 -150 38.5 -209t106.5 -59q65 0 100 44.5t35 154.5v927h465v-925q0 -273 -160 -421.5t-442 -148.5q-154 0 -269 45.5t-187 131t-109.5 200t-42.5 260.5z" />
    <glyph glyph-name="K" unicode="K" horiz-adv-x="1429" 
d="M63 0v1464h465v-432l349 432h553l-515 -616l545 -848h-532l-320 524l-80 -92v-432h-465z" />
    <glyph glyph-name="L" unicode="L" horiz-adv-x="1208" 
d="M61 0v1464h465v-1095h643v-369h-1108z" />
    <glyph glyph-name="M" unicode="M" horiz-adv-x="1937" 
d="M61 0v1464h711l199 -954l194 954h711v-1464h-465v850l-207 -850h-471l-207 850v-850h-465z" />
    <glyph glyph-name="N" unicode="N" horiz-adv-x="1482" 
d="M63 0v1464h488l405 -759v759h465v-1464h-495l-398 709v-709h-465z" />
    <glyph glyph-name="O" unicode="O" horiz-adv-x="1622" 
d="M512 731q0 -188 80 -290.5t219 -102.5t219 102.5t80 290.5q0 189 -80 292t-219 103t-219 -103t-80 -292zM37 731q0 234 96 407t271.5 265t408.5 92q354 0 563 -205t209 -559q0 -353 -208.5 -557.5t-563.5 -204.5t-565.5 204.5t-210.5 557.5z" />
    <glyph glyph-name="P" unicode="P" horiz-adv-x="1384" 
d="M526 801h187q164 0 164 147q0 148 -164 148h-187v-295zM61 0v1464h672q615 0 615 -516t-615 -516h-207v-432h-465z" />
    <glyph glyph-name="Q" unicode="Q" horiz-adv-x="1622" 
d="M37 731q0 234 96 407t271.5 265t408.5 92q354 0 563 -205t209 -559q0 -357 -213 -561l211 -326h-473l-88 146q-99 -21 -209 -21q-355 0 -565.5 204.5t-210.5 557.5zM512 731q0 -188 80 -290.5t219 -102.5t219 102.5t80 290.5q0 189 -80 292t-219 103t-219 -103t-80 -292z
" />
    <glyph glyph-name="R" unicode="R" horiz-adv-x="1433" 
d="M61 0v1464h693q614 0 614 -495q0 -316 -252 -432l295 -537h-534l-215 473h-136v-473h-465zM526 821h207q164 0 164 137q0 138 -164 138h-207v-275z" />
    <glyph glyph-name="S" unicode="S" horiz-adv-x="1347" 
d="M12 528h482q21 -198 202 -198q71 0 112.5 24.5t41.5 73.5q0 34 -16.5 54.5t-73.5 42t-170 44.5q-152 30 -251.5 66t-168 90t-98 127.5t-29.5 177.5q0 210 164 337.5t450 127.5q306 0 472.5 -150t177.5 -399h-480q-8 88 -52.5 138.5t-117.5 50.5q-65 0 -102 -27t-37 -72
q0 -52 54 -81t194 -52q162 -27 272.5 -69.5t172.5 -102t88 -128.5t26 -161q0 -219 -167 -346t-462 -127q-323 0 -499 149t-185 410z" />
    <glyph glyph-name="T" unicode="T" horiz-adv-x="1363" 
d="M449 0v1096h-422v368h1310v-368h-424v-1096h-464z" />
    <glyph glyph-name="U" unicode="U" horiz-adv-x="1454" 
d="M61 559v905h465v-889q0 -237 201 -237t201 237v889h465v-905q0 -276 -179.5 -433t-488.5 -157q-304 0 -484 157.5t-180 432.5z" />
    <glyph glyph-name="V" unicode="V" horiz-adv-x="1542" 
d="M459 0l-488 1464h492l307 -1011l311 1011h492l-490 -1464h-624z" />
    <glyph glyph-name="W" unicode="W" horiz-adv-x="2107" 
d="M338 0l-369 1464h496l166 -927l174 927h500l172 -927l163 927h496l-364 -1464h-533l-184 829l-185 -829h-532z" />
    <glyph glyph-name="X" unicode="X" horiz-adv-x="1533" 
d="M-10 0l450 739l-444 725h547l225 -450l219 450h553l-444 -725l448 -739h-549l-227 461l-225 -461h-553z" />
    <glyph glyph-name="Y" unicode="Y" horiz-adv-x="1411" 
d="M475 0v483l-504 981h518l220 -553l215 553h518l-502 -981v-483h-465z" />
    <glyph glyph-name="Z" unicode="Z" horiz-adv-x="1359" 
d="M61 0v350l637 746h-608v368h1186v-350l-658 -745h680v-369h-1237z" />
    <glyph glyph-name="bracketleft" unicode="[" horiz-adv-x="749" 
d="M57 1622h656v-348h-205v-1229h205v-348h-656v1925z" />
    <glyph glyph-name="backslash" unicode="\" horiz-adv-x="944" 
d="M465 -223l-485 1763h497l488 -1763h-500z" />
    <glyph glyph-name="bracketright" unicode="]" horiz-adv-x="749" 
d="M37 -303v348h205v1229h-205v348h655v-1925h-655z" />
    <glyph glyph-name="asciicircum" unicode="^" horiz-adv-x="860" 
d="M53 887l211 577h332l211 -577h-299l-78 332l-78 -332h-299z" />
    <glyph glyph-name="underscore" unicode="_" horiz-adv-x="989" 
d="M934 0v-307h-879v307h879z" />
    <glyph glyph-name="grave" unicode="`" horiz-adv-x="671" 
d="M311 1165l-258 328h400l165 -328h-307z" />
    <glyph glyph-name="a" unicode="a" horiz-adv-x="1273" 
d="M483 362q0 -86 113 -86q91 0 144 58t53 166v14l-193 -45q-117 -25 -117 -107zM29 279q0 148 101.5 230t305.5 122l357 71v7q0 143 -146 143q-76 0 -110 -40.5t-37 -121.5h-451q10 126 59 218.5t130.5 146.5t182 79t224.5 25q279 0 428.5 -122t149.5 -363v-674h-420
l-6 145q-57 -80 -157.5 -128t-233.5 -48q-56 0 -107.5 9t-101.5 31.5t-86.5 57t-59 89t-22.5 123.5z" />
    <glyph glyph-name="b" unicode="b" horiz-adv-x="1357" 
d="M498 565q0 -117 48 -182.5t134 -65.5q88 0 137 66.5t49 183.5q0 116 -48 180t-136 64t-136 -64.5t-48 -181.5zM53 0v1503h430v-553q54 102 146 155.5t213 53.5q217 0 348 -162t131 -432t-131 -433t-348 -163q-123 0 -217 54t-146 157l-6 -180h-420z" />
    <glyph glyph-name="c" unicode="c" horiz-adv-x="1341" 
d="M37 565q0 267 176.5 430.5t466.5 163.5q263 0 434.5 -136t202.5 -364h-459q-17 73 -62.5 112.5t-115.5 39.5q-90 0 -139 -64.5t-49 -181.5q0 -119 48.5 -183.5t139.5 -64.5q70 0 115.5 40t62.5 114h459q-31 -230 -202.5 -366t-434.5 -136q-290 0 -466.5 163.5
t-176.5 432.5z" />
    <glyph glyph-name="d" unicode="d" horiz-adv-x="1357" 
d="M860 565q0 117 -48 181.5t-136 64.5t-136 -64t-48 -180q0 -117 49 -183.5t137 -66.5q86 0 134 65.5t48 182.5zM1305 0h-420l-6 180q-52 -103 -146 -157t-217 -54q-217 0 -348 163t-131 433t131 432t348 162q121 0 212.5 -53.5t145.5 -155.5v553h431v-1503z" />
    <glyph glyph-name="e" unicode="e" horiz-adv-x="1339" 
d="M37 565q0 267 176.5 430.5t466.5 163.5t456.5 -164.5t166.5 -441.5v-82h-803q15 -83 61.5 -128.5t116.5 -45.5q101 0 149 92h473q-53 -195 -217.5 -307.5t-402.5 -112.5q-290 0 -466.5 163.5t-176.5 432.5zM500 657h358q-15 84 -60.5 129t-117.5 45t-118.5 -45
t-61.5 -129z" />
    <glyph glyph-name="f" unicode="f" horiz-adv-x="946" 
d="M195 0v780h-164v348h164v41q0 198 124 296t377 98q99 0 219 -15v-327q-52 8 -124 8q-83 0 -114.5 -18t-31.5 -64v-19h266v-348h-266v-780h-450z" />
    <glyph glyph-name="g" unicode="g" horiz-adv-x="1357" 
d="M492 612q0 -100 48.5 -156.5t135.5 -56.5q88 0 136 56t48 159t-48 160t-134 57q-88 0 -137 -58t-49 -161zM78 31h454q35 -119 168 -119q174 0 174 201v168q-111 -209 -364 -209q-213 0 -343 148t-130 394q0 247 130.5 396t344.5 149q126 0 220.5 -54t146.5 -157l6 180
h420v-974q0 -277 -156 -413t-451 -136q-71 0 -136 8t-132 26t-123 51t-103.5 78.5t-80 112.5t-45.5 150z" />
    <glyph glyph-name="h" unicode="h" 
d="M53 0v1505h451v-522q90 176 313 176q176 0 279.5 -113.5t103.5 -316.5v-729h-450v594q0 109 -25 153t-92 44q-65 0 -97 -45.5t-32 -151.5v-594h-451z" />
    <glyph glyph-name="i" unicode="i" horiz-adv-x="557" 
d="M53 0v1128h451v-1128h-451zM53 1190v315h451v-315h-451z" />
    <glyph glyph-name="j" unicode="j" horiz-adv-x="557" 
d="M-104 -365v328q35 -6 63 -6q46 0 70 24.5t24 90.5v1056h451v-972q0 -295 -108 -413t-378 -118q-60 0 -122 10zM53 1190v315h451v-315h-451z" />
    <glyph glyph-name="k" unicode="k" horiz-adv-x="1300" 
d="M53 0v1505h451v-659l270 282h551l-446 -444l456 -684h-518l-254 420l-59 -62v-358h-451z" />
    <glyph glyph-name="l" unicode="l" horiz-adv-x="557" 
d="M53 0v1505h451v-1505h-451z" />
    <glyph glyph-name="m" unicode="m" horiz-adv-x="1921" 
d="M53 0v1128h420l6 -200q77 231 332 231q128 0 219 -63.5t129 -182.5q74 246 336 246q173 0 275 -113.5t102 -316.5v-729h-451v594q0 110 -23.5 153.5t-86.5 43.5q-62 0 -92.5 -45.5t-30.5 -151.5v-594h-451v594q0 110 -23.5 153.5t-86.5 43.5q-62 0 -92.5 -45.5
t-30.5 -151.5v-594h-451z" />
    <glyph glyph-name="n" unicode="n" 
d="M53 0v1128h420l8 -202q76 233 336 233q176 0 279.5 -113.5t103.5 -316.5v-729h-450v594q0 109 -25 153t-92 44q-65 0 -97 -45.5t-32 -151.5v-594h-451z" />
    <glyph glyph-name="o" unicode="o" horiz-adv-x="1359" 
d="M492 565q0 -120 48.5 -184t139.5 -64t139.5 64t48.5 184q0 117 -49 181.5t-139 64.5t-139 -64.5t-49 -181.5zM37 565q0 266 176.5 430t466.5 164t466.5 -164t176.5 -430q0 -269 -176.5 -432.5t-466.5 -163.5t-466.5 163.5t-176.5 432.5z" />
    <glyph glyph-name="p" unicode="p" horiz-adv-x="1357" 
d="M498 563q0 -117 48 -181.5t136 -64.5t136 64t48 180q0 117 -49 183.5t-137 66.5q-86 0 -134 -65.5t-48 -182.5zM53 1128h420l6 -180q52 103 146 157t217 54q217 0 348 -163t131 -433t-131 -432t-348 -162q-121 0 -213 53.5t-146 155.5v-553h-430v1503z" />
    <glyph glyph-name="q" unicode="q" horiz-adv-x="1357" 
d="M860 563q0 117 -48 182.5t-134 65.5q-88 0 -137 -66.5t-49 -183.5q0 -116 48 -180t136 -64t136 64.5t48 181.5zM1305 1128v-1503h-431v553q-54 -102 -145.5 -155.5t-212.5 -53.5q-217 0 -348 162t-131 432t131 433t348 163q123 0 217 -54t146 -157l6 180h420z" />
    <glyph glyph-name="r" unicode="r" horiz-adv-x="903" 
d="M53 0v1128h420l10 -249q37 131 103.5 190t175.5 59h115v-450h-125q-141 0 -194.5 -43t-53.5 -160v-475h-451z" />
    <glyph glyph-name="s" unicode="s" horiz-adv-x="1198" 
d="M23 395h442q9 -139 141 -139q51 0 80 19t29 51q0 23 -15 38.5t-52 27t-70.5 17.5t-98.5 15q-46 7 -80.5 13t-83.5 19.5t-84 29.5t-73.5 43.5t-62.5 61t-40 81.5t-16 106q0 178 139 279.5t408 101.5q525 0 563 -422h-442q-12 135 -127 135q-46 0 -67 -18.5t-21 -46.5
q0 -20 11.5 -35.5t28 -25t49 -18.5t60.5 -14t76 -12q50 -7 83 -12.5t85 -18.5t87 -29t75.5 -43.5t64.5 -61t40.5 -82.5t16.5 -109q0 -185 -145 -281t-416 -96q-561 0 -585 426z" />
    <glyph glyph-name="t" unicode="t" horiz-adv-x="962" 
d="M174 457v323h-143v348h143v261h451v-261h307v-348h-307v-291q0 -48 13.5 -79t39.5 -45.5t53 -19.5t66 -5q67 0 135 12v-348q-169 -35 -301 -35q-232 0 -344.5 116t-112.5 372z" />
    <glyph glyph-name="u" unicode="u" 
d="M49 399v729h451v-593q0 -109 25 -153t91 -44q65 0 97 45.5t32 151.5v593h451v-1128h-420l-8 203q-77 -234 -336 -234q-176 0 -279.5 113.5t-103.5 316.5z" />
    <glyph glyph-name="v" unicode="v" horiz-adv-x="1296" 
d="M356 0l-385 1128h471l205 -737l209 737h471l-387 -1128h-584z" />
    <glyph glyph-name="w" unicode="w" horiz-adv-x="1882" 
d="M276 0l-307 1128h475l125 -714l144 714h458l142 -714l123 714h475l-303 -1128h-512l-154 639l-154 -639h-512z" />
    <glyph glyph-name="x" unicode="x" horiz-adv-x="1339" 
d="M8 0l330 569l-326 559h492l162 -342l159 342h500l-326 -559l332 -569h-491l-164 354l-168 -354h-500z" />
    <glyph glyph-name="y" unicode="y" horiz-adv-x="1198" 
d="M-2 -377v357q83 -17 147 -17q115 0 174 49l-350 1116h471l164 -708l154 708h471l-328 -1077q-135 -446 -647 -446q-145 0 -256 18z" />
    <glyph glyph-name="z" unicode="z" horiz-adv-x="1247" 
d="M59 0v336l498 444h-467v348h1084v-333l-515 -447h531v-348h-1131z" />
    <glyph glyph-name="braceleft" unicode="{" horiz-adv-x="940" 
d="M903 1622v-348h-123q-72 0 -102.5 -30t-30.5 -101v-146q0 -178 -49.5 -259t-169.5 -81q120 0 169.5 -79.5t49.5 -255.5v-146q0 -71 30.5 -101t102.5 -30h123v-348h-221q-240 0 -362.5 114.5t-122.5 333.5v187q0 87 -30.5 124.5t-100.5 37.5h-29v331h29q70 0 100.5 37.5
t30.5 124.5v187q0 219 122.5 333.5t362.5 114.5h221z" />
    <glyph glyph-name="bar" unicode="|" horiz-adv-x="587" 
d="M61 -303v1925h465v-1925h-465z" />
    <glyph glyph-name="braceright" unicode="}" horiz-adv-x="940" 
d="M37 1622h221q240 0 362.5 -114.5t122.5 -333.5v-187q0 -87 30.5 -124.5t100.5 -37.5h29v-331h-29q-70 0 -100.5 -37.5t-30.5 -124.5v-187q0 -219 -122.5 -333.5t-362.5 -114.5h-221v348h123q72 0 102.5 30t30.5 101v146q0 176 49.5 255.5t169.5 79.5q-120 0 -169.5 81
t-49.5 259v146q0 71 -30.5 101t-102.5 30h-123v348z" />
    <glyph glyph-name="asciitilde" unicode="~" horiz-adv-x="1132" 
d="M844 963h235q-9 -217 -33.5 -334t-72 -167t-131.5 -50q-47 0 -104.5 15.5t-92 29.5t-94.5 41q-121 57 -172 57q-43 0 -64 -31.5t-26 -99.5h-236q10 209 37.5 327t78 170t134.5 52q42 0 92.5 -14t82 -27.5t87.5 -40.5q128 -62 185 -62q45 0 66.5 30.5t27.5 103.5z" />
    <glyph glyph-name="exclamdown" unicode="&#xa1;" horiz-adv-x="616" 
d="M84 -29l57 707h336l58 -707v-307h-451v307zM109 739v389h401v-389h-401z" />
    <glyph glyph-name="cent" unicode="&#xa2;" horiz-adv-x="1353" 
d="M502 1141l-19 243h369l-21 -239q202 -35 331 -164.5t155 -321.5h-459q-17 73 -62.5 112.5t-115.5 39.5q-90 0 -139 -64.5t-49 -181.5q0 -119 48.5 -183.5t139.5 -64.5q70 0 115.5 40t62.5 114h459q-26 -193 -154 -321.5t-329 -165.5l18 -240h-369l19 244
q-215 48 -340 201t-125 376t125 376.5t340 199.5z" />
    <glyph glyph-name="sterling" unicode="&#xa3;" horiz-adv-x="1415" 
d="M1149 825v-327h-494q-58 -95 -196 -129h895v-369h-1317v369h39q100 0 147 30.5t47 96.5v2h-233v327h115q-29 96 -29 181q0 223 162 356t440 133q283 0 447 -144t176 -409h-476q-12 184 -145 184q-63 0 -98 -38.5t-35 -106.5q0 -53 35 -156h520z" />
    <glyph glyph-name="currency" unicode="&#xa4;" horiz-adv-x="1314" 
d="M53 1464h1209v-1464h-1209v1464zM788 731l166 -237v475zM360 492l166 239l-166 242v-481zM659 922l220 315h-441zM438 227h439l-220 316z" />
    <glyph glyph-name="yen" unicode="&#xa5;" horiz-adv-x="1411" 
d="M1282 911v-256h-254l-47 -92h301v-256h-342v-307h-465v307h-348v256h307l-47 92h-260v256h127l-283 553h518l220 -553l215 553h518l-283 -553h123z" />
    <glyph glyph-name="brokenbar" unicode="&#xa6;" horiz-adv-x="587" 
d="M61 -303v829h465v-829h-465zM61 793v829h465v-829h-465z" />
    <glyph glyph-name="section" unicode="&#xa7;" horiz-adv-x="1302" 
d="M371 727q0 -33 24 -58t72 -42.5t108 -29.5t144 -22q128 -17 184 -32q21 27 21 53q0 64 -88.5 98.5t-260.5 53.5q-133 19 -184 32q-20 -26 -20 -53zM102 250h443q12 -135 129 -135q44 0 65 20t21 49q0 25 -16 43t-53.5 30t-74 18.5t-102.5 15.5q-55 7 -91 13t-93 19.5
t-95 29.5t-82 42.5t-70.5 59.5t-44.5 80t-18 104q0 158 144 260q-82 85 -82 215q0 177 139.5 279t407.5 102q525 0 563 -422h-442q-12 135 -127 135q-46 0 -67 -19.5t-21 -49.5q0 -25 16 -43t53.5 -30t73.5 -18.5t102 -15.5q55 -7 91 -13t93 -19.5t95 -29.5t82 -42.5
t70.5 -59.5t44.5 -80t18 -104q0 -158 -144 -260q82 -82 82 -215q0 -177 -139 -279t-407 -102q-526 0 -564 422z" />
    <glyph glyph-name="dieresis" unicode="&#xa8;" horiz-adv-x="851" 
d="M53 1157v295h336v-295h-336zM463 1157v295h336v-295h-336z" />
    <glyph glyph-name="copyright" unicode="&#xa9;" horiz-adv-x="1947" 
d="M37 731q0 189 74 358.5t200.5 292t301.5 194t370 71.5q194 0 367 -71.5t295.5 -194t194 -292t71.5 -358.5t-71 -358.5t-193.5 -291.5t-295.5 -193.5t-368 -71.5t-370.5 71.5t-301.5 193.5t-200 291.5t-74 358.5zM283 731q0 -146 53.5 -273.5t145.5 -218t221.5 -142.5
t277.5 -52q147 0 274.5 52t217.5 142.5t141 218t51 273.5t-51 273.5t-141 218t-217.5 142.5t-274.5 52q-148 0 -277.5 -52t-221.5 -142.5t-145.5 -218t-53.5 -273.5zM522 733q0 212 125 338.5t342 126.5q186 0 303.5 -97.5t143.5 -285.5h-295q-7 75 -49.5 116.5t-108.5 41.5
q-81 0 -126.5 -63.5t-45.5 -176.5t46 -176t130 -63q67 0 107 41.5t47 123.5h295q-23 -189 -144 -290t-309 -101q-213 0 -337 126.5t-124 338.5z" />
    <glyph glyph-name="ordfeminine" unicode="&#xaa;" horiz-adv-x="917" 
d="M348 1077q0 -59 80 -59q64 0 100.5 40t36.5 116v10l-135 -31q-82 -19 -82 -76zM29 1018q0 103 71.5 161t214.5 87l250 51v8q0 96 -102 96q-54 0 -78 -28t-27 -84h-315q13 173 124.5 251t293.5 78q196 0 301.5 -86t105.5 -256v-473h-295l-4 101q-40 -56 -110.5 -89.5
t-163.5 -33.5q-51 0 -95.5 10.5t-84.5 34.5t-63 68t-23 104z" />
    <glyph glyph-name="guillemotleft" unicode="&#xab;" horiz-adv-x="1583" 
d="M453 41l-420 524l420 520h479l-416 -520l416 -524h-479zM1087 41l-419 524l419 520h480l-416 -520l416 -524h-480z" />
    <glyph glyph-name="logicalnot" unicode="&#xac;" horiz-adv-x="1314" 
d="M53 1464h1209v-1464h-1209v1464zM788 731l166 -237v475zM360 492l166 239l-166 242v-481zM659 922l220 315h-441zM438 227h439l-220 316z" />
    <glyph glyph-name="registered" unicode="&#xae;" horiz-adv-x="1947" 
d="M37 731q0 189 74 358.5t200.5 292t301.5 194t370 71.5q194 0 367 -71.5t295.5 -194t194 -292t71.5 -358.5t-71 -358.5t-193.5 -291.5t-295.5 -193.5t-368 -71.5t-370.5 71.5t-301.5 193.5t-200 291.5t-74 358.5zM283 731q0 -146 53.5 -273.5t145.5 -218t221.5 -142.5
t277.5 -52q147 0 274.5 52t217.5 142.5t141 218t51 273.5t-51 273.5t-141 218t-217.5 142.5t-274.5 52q-148 0 -277.5 -52t-221.5 -142.5t-145.5 -218t-53.5 -273.5zM600 291v885h418q371 0 371 -299q0 -191 -152 -261l178 -323v-2h-323l-131 287h-80v-287h-281zM881 786
h125q100 0 100 84q0 82 -100 82h-125v-166z" />
    <glyph glyph-name="macron" unicode="&#xaf;" horiz-adv-x="741" 
d="M53 1176v245h635v-245h-635z" />
    <glyph glyph-name="degree" unicode="&#xb0;" horiz-adv-x="798" 
d="M53 1163q0 145 97.5 238.5t246.5 93.5q151 0 249.5 -93.5t98.5 -238.5q0 -143 -99 -237.5t-249 -94.5q-151 0 -247.5 93.5t-96.5 238.5zM289 1163q0 -54 29.5 -86.5t80.5 -32.5t81 32.5t30 86.5t-29 86.5t-80 32.5t-81.5 -32.5t-30.5 -86.5z" />
    <glyph glyph-name="plusminus" unicode="&#xb1;" horiz-adv-x="1187" 
d="M53 772v356h357v365h368v-365h357v-356h-357v-364h-368v364h-357zM53 -31v357h1082v-357h-1082z" />
    <glyph glyph-name="twosuperior" unicode="&#xb2;" horiz-adv-x="759" 
d="M37 817v90q0 62 18 114t41.5 84.5t65.5 63.5t69.5 45.5t75.5 36.5q39 17 59 27.5t44 27t34.5 34t10.5 38.5q0 52 -62 52q-41 0 -62.5 -26t-25.5 -85h-270q8 156 98 237.5t258 81.5q159 0 247.5 -68t88.5 -186q0 -35 -9 -67t-21 -55t-35 -46t-40 -37t-48.5 -32t-48 -26
t-48.5 -23q-97 -44 -125 -68h375v-213h-690z" />
    <glyph glyph-name="threesuperior" unicode="&#xb3;" horiz-adv-x="792" 
d="M33 1100h282q6 -46 26 -67t58 -21q37 0 57.5 17t20.5 48q0 58 -94 58h-76v186h66q80 0 80 49q0 55 -66 55q-62 0 -68 -61h-282q6 131 99.5 202.5t260.5 71.5q154 0 245 -60.5t91 -168.5q0 -133 -153 -170q178 -36 178 -188q0 -118 -95.5 -185t-263.5 -67
q-175 0 -267.5 76t-98.5 225z" />
    <glyph glyph-name="acute" unicode="&#xb4;" horiz-adv-x="671" 
d="M53 1165l166 328h399l-258 -328h-307z" />
    <glyph glyph-name="paragraph" unicode="&#xb6;" horiz-adv-x="1687" 
d="M680 -369v768h-90q-271 0 -416 144t-145 389t145 388.5t416 143.5h520v-1833h-430zM1196 -369v1833h430v-1833h-430z" />
    <glyph glyph-name="periodcentered" unicode="&#xb7;" horiz-adv-x="507" 
d="M53 399v389h402v-389h-402z" />
    <glyph glyph-name="cedilla" unicode="&#xb8;" horiz-adv-x="643" 
d="M53 -307l53 117q120 -66 199 -66q82 0 82 51q0 24 -20 37.5t-58 13.5q-35 0 -67 -14l-109 43l49 156h148l-37 -109q57 23 113 23q80 0 132 -44.5t52 -111.5q0 -81 -74.5 -135.5t-185.5 -54.5q-141 0 -277 94z" />
    <glyph glyph-name="onesuperior" unicode="&#xb9;" horiz-adv-x="532" 
d="M23 1255v218h51q89 0 124 31.5t35 115.5h238v-805h-281v440h-167z" />
    <glyph glyph-name="ordmasculine" unicode="&#xba;" horiz-adv-x="978" 
d="M37 1219q0 188 124 303.5t328 115.5t328.5 -115.5t124.5 -303.5q0 -189 -124.5 -303.5t-328.5 -114.5t-328 114.5t-124 303.5zM356 1219q0 -83 35 -127.5t98 -44.5t98.5 44.5t35.5 127.5t-35.5 128.5t-98.5 45.5t-98 -45.5t-35 -128.5z" />
    <glyph glyph-name="guillemotright" unicode="&#xbb;" horiz-adv-x="1583" 
d="M1550 565l-420 -524h-479l416 524l-416 520h479zM915 565l-419 -524h-480l416 524l-416 520h480z" />
    <glyph glyph-name="onequarter" unicode="&#xbc;" horiz-adv-x="1714" 
d="M1161 356h125v191zM53 1100v217h51q89 0 124.5 31.5t35.5 115.5h238v-805h-281v441h-168zM180 0l991 1464h328l-991 -1464h-328zM897 135v211l303 459h367v-449h94v-221h-94v-135h-281v135h-389z" />
    <glyph glyph-name="onehalf" unicode="&#xbd;" horiz-adv-x="1806" 
d="M180 0l991 1464h328l-991 -1464h-328zM1063 2v90q0 62 18 114t41.5 84.5t65.5 63.5t69.5 45.5t75.5 36.5q39 17 59 27.5t44 27t34.5 34t10.5 38.5q0 51 -62 51q-41 0 -62.5 -25.5t-25.5 -84.5h-270q8 156 98 237.5t258 81.5q159 0 247.5 -68t88.5 -186q0 -35 -9 -67
t-21 -55t-35 -46t-40 -37t-48.5 -32t-48 -26t-48.5 -23q-97 -44 -125 -68h375v-213h-690zM53 1100v217h51q89 0 124.5 31.5t35.5 115.5h238v-805h-281v441h-168z" />
    <glyph glyph-name="threequarters" unicode="&#xbe;" horiz-adv-x="1890" 
d="M1337 356h125v191zM53 956h283q6 -46 26 -67t58 -21q37 0 57.5 17.5t20.5 48.5q0 57 -95 57h-75v187h65q80 0 80 49q0 55 -65 55q-62 0 -68 -61h-283q6 131 100 202.5t261 71.5q154 0 245 -60.5t91 -168.5q0 -133 -154 -170q178 -36 178 -189q0 -118 -95 -185t-263 -67
q-175 0 -268 76t-99 225zM356 0l992 1464h327l-991 -1464h-328zM1073 135v211l303 459h367v-449h94v-221h-94v-135h-281v135h-389z" />
    <glyph glyph-name="questiondown" unicode="&#xbf;" horiz-adv-x="1286" 
d="M874 1128v-389h-401v389h401zM782 225h471q-35 -592 -622 -592q-270 0 -423 120t-153 333q0 81 23.5 143t61.5 98t83.5 63t91 47.5t83.5 42t61.5 56t23.5 80.5v62h381v-41q0 -93 -18.5 -165.5t-48.5 -117t-66 -77.5t-72 -55t-66 -41.5t-48.5 -45.5t-18.5 -59
q0 -43 30.5 -68.5t82.5 -25.5q74 0 106.5 55t36.5 188z" />
    <glyph glyph-name="Agrave" unicode="&#xc0;" horiz-adv-x="1521" 
d="M629 571h264l-131 451zM-29 0l480 1464h624l477 -1464h-493l-64 219h-469l-65 -219h-490zM604 1544l-258 328h399l166 -328h-307z" />
    <glyph glyph-name="Aacute" unicode="&#xc1;" horiz-adv-x="1521" 
d="M629 571h264l-131 451zM-29 0l480 1464h624l477 -1464h-493l-64 219h-469l-65 -219h-490zM608 1544l166 328h400l-259 -328h-307z" />
    <glyph glyph-name="Acircumflex" unicode="&#xc2;" horiz-adv-x="1521" 
d="M629 571h264l-131 451zM-29 0l480 1464h624l477 -1464h-493l-64 219h-469l-65 -219h-490zM590 1870h344l219 -328h-266l-125 144l-125 -144h-266z" />
    <glyph glyph-name="Atilde" unicode="&#xc3;" horiz-adv-x="1521" 
d="M629 571h264l-131 451zM-29 0l480 1464h624l477 -1464h-493l-64 219h-469l-65 -219h-490zM573 1534h-137q0 175 44.5 259.5t137.5 84.5q62 0 150 -47q80 -41 121 -41q65 0 65 78h133q0 -183 -41 -263.5t-137 -80.5q-70 0 -166 51q-80 37 -112 37q-34 0 -46 -20.5
t-12 -57.5z" />
    <glyph glyph-name="Adieresis" unicode="&#xc4;" horiz-adv-x="1521" 
d="M629 571h264l-131 451zM-29 0l480 1464h624l477 -1464h-493l-64 219h-469l-65 -219h-490zM395 1536v295h336v-295h-336zM805 1536v295h336v-295h-336z" />
    <glyph glyph-name="Aring" unicode="&#xc5;" horiz-adv-x="1521" 
d="M629 571h264l-131 451zM-29 0l480 1464h624l477 -1464h-493l-64 219h-469l-65 -219h-490zM698 1753q0 -29 16.5 -47t47.5 -18q30 0 45.5 18t15.5 47t-15.5 47.5t-45.5 18.5q-31 0 -47.5 -18.5t-16.5 -47.5zM520 1755q0 96 67.5 158.5t174.5 62.5q105 0 172 -62.5
t67 -158.5q0 -97 -67 -161t-172 -64q-107 0 -174.5 64t-67.5 161z" />
    <glyph glyph-name="AE" unicode="&#xc6;" horiz-adv-x="2070" 
d="M680 571h190v449h-20zM870 0v219h-325l-84 -219h-490l596 1464h1444v-368h-676v-178h635v-365h-635v-184h684v-369h-1149z" />
    <glyph glyph-name="Ccedilla" unicode="&#xc7;" horiz-adv-x="1576" 
d="M602 -307l53 117q120 -66 199 -66q82 0 82 51q0 24 -20 37.5t-58 13.5q-36 0 -67 -14l-109 43l31 98q-313 25 -494.5 229.5t-181.5 530.5q0 347 206 554.5t562 207.5q200 0 353.5 -69.5t252 -211.5t125.5 -348h-483q-13 123 -81 191.5t-175 68.5q-134 0 -209.5 -104.5
t-75.5 -288.5q0 -186 76.5 -290.5t214.5 -104.5q110 0 174 69.5t76 204.5h485q-35 -291 -216.5 -457t-463.5 -184l-16 -49q58 23 112 23q80 0 132.5 -44.5t52.5 -111.5q0 -81 -74.5 -135.5t-185.5 -54.5q-141 0 -277 94z" />
    <glyph glyph-name="Egrave" unicode="&#xc8;" horiz-adv-x="1261" 
d="M61 0v1464h1141v-368h-676v-178h635v-365h-635v-184h684v-369h-1149zM477 1544l-258 328h399l166 -328h-307z" />
    <glyph glyph-name="Eacute" unicode="&#xc9;" horiz-adv-x="1261" 
d="M61 0v1464h1141v-368h-676v-178h635v-365h-635v-184h684v-369h-1149zM481 1544l166 328h400l-259 -328h-307z" />
    <glyph glyph-name="Ecircumflex" unicode="&#xca;" horiz-adv-x="1261" 
d="M61 0v1464h1141v-368h-676v-178h635v-365h-635v-184h684v-369h-1149zM463 1870h344l219 -328h-266l-125 144l-125 -144h-266z" />
    <glyph glyph-name="Edieresis" unicode="&#xcb;" horiz-adv-x="1261" 
d="M61 0v1464h1141v-368h-676v-178h635v-365h-635v-184h684v-369h-1149zM268 1536v295h336v-295h-336zM678 1536v295h336v-295h-336z" />
    <glyph glyph-name="Igrave" unicode="&#xcc;" horiz-adv-x="587" 
d="M61 0v1464h465v-1464h-465zM139 1544l-258 328h400l165 -328h-307z" />
    <glyph glyph-name="Iacute" unicode="&#xcd;" horiz-adv-x="587" 
d="M61 0v1464h465v-1464h-465zM143 1544l166 328h400l-258 -328h-308z" />
    <glyph glyph-name="Icircumflex" unicode="&#xce;" horiz-adv-x="587" 
d="M61 0v1464h465v-1464h-465zM125 1870h344l219 -328h-266l-125 144l-125 -144h-266z" />
    <glyph glyph-name="Idieresis" unicode="&#xcf;" horiz-adv-x="587" 
d="M61 0v1464h465v-1464h-465zM-70 1536v295h336v-295h-336zM340 1536v295h336v-295h-336z" />
    <glyph glyph-name="Eth" unicode="&#xd0;" horiz-adv-x="1556" 
d="M37 584v307h123v573h561q385 0 592 -190.5t207 -544.5q0 -353 -206.5 -541t-592.5 -188h-561v584h-123zM625 369h84q173 0 253 89t80 275q0 185 -80 274t-253 89h-84v-205h204v-307h-204v-215z" />
    <glyph glyph-name="Ntilde" unicode="&#xd1;" horiz-adv-x="1482" 
d="M63 0v1464h488l405 -759v759h465v-1464h-495l-398 709v-709h-465zM553 1534h-137q0 175 44.5 259.5t137.5 84.5q62 0 150 -47q80 -41 120 -41q66 0 66 78h133q0 -183 -41 -263.5t-137 -80.5q-70 0 -166 51q-80 37 -113 37q-34 0 -45.5 -20t-11.5 -58z" />
    <glyph glyph-name="Ograve" unicode="&#xd2;" horiz-adv-x="1622" 
d="M512 731q0 -188 80 -290.5t219 -102.5t219 102.5t80 290.5q0 189 -80 292t-219 103t-219 -103t-80 -292zM37 731q0 234 96 407t271.5 265t408.5 92q354 0 563 -205t209 -559q0 -353 -208.5 -557.5t-563.5 -204.5t-565.5 204.5t-210.5 557.5zM655 1544l-258 328h400
l166 -328h-308z" />
    <glyph glyph-name="Oacute" unicode="&#xd3;" horiz-adv-x="1622" 
d="M512 731q0 -188 80 -290.5t219 -102.5t219 102.5t80 290.5q0 189 -80 292t-219 103t-219 -103t-80 -292zM37 731q0 234 96 407t271.5 265t408.5 92q354 0 563 -205t209 -559q0 -353 -208.5 -557.5t-563.5 -204.5t-565.5 204.5t-210.5 557.5zM659 1544l166 328h400
l-258 -328h-308z" />
    <glyph glyph-name="Ocircumflex" unicode="&#xd4;" horiz-adv-x="1622" 
d="M512 731q0 -188 80 -290.5t219 -102.5t219 102.5t80 290.5q0 189 -80 292t-219 103t-219 -103t-80 -292zM37 731q0 234 96 407t271.5 265t408.5 92q354 0 563 -205t209 -559q0 -353 -208.5 -557.5t-563.5 -204.5t-565.5 204.5t-210.5 557.5zM641 1870h344l219 -328h-266
l-125 144l-125 -144h-266z" />
    <glyph glyph-name="Otilde" unicode="&#xd5;" horiz-adv-x="1622" 
d="M512 731q0 -188 80 -290.5t219 -102.5t219 102.5t80 290.5q0 189 -80 292t-219 103t-219 -103t-80 -292zM37 731q0 234 96 407t271.5 265t408.5 92q354 0 563 -205t209 -559q0 -353 -208.5 -557.5t-563.5 -204.5t-565.5 204.5t-210.5 557.5zM625 1534h-138
q0 175 44.5 259.5t138.5 84.5q61 0 149 -47q80 -41 121 -41q66 0 66 78h133q0 -183 -41 -263.5t-137 -80.5q-70 0 -166 51q-80 37 -113 37q-34 0 -45.5 -20t-11.5 -58z" />
    <glyph glyph-name="Odieresis" unicode="&#xd6;" horiz-adv-x="1622" 
d="M512 731q0 -188 80 -290.5t219 -102.5t219 102.5t80 290.5q0 189 -80 292t-219 103t-219 -103t-80 -292zM37 731q0 234 96 407t271.5 265t408.5 92q354 0 563 -205t209 -559q0 -353 -208.5 -557.5t-563.5 -204.5t-565.5 204.5t-210.5 557.5zM446 1536v295h336v-295h-336z
M856 1536v295h336v-295h-336z" />
    <glyph glyph-name="multiply" unicode="&#xd7;" horiz-adv-x="1153" 
d="M55 455l262 262l-262 260l260 262l260 -260l261 260l260 -262l-260 -260l262 -260l-260 -260l-260 258l-261 -260z" />
    <glyph glyph-name="Oslash" unicode="&#xd8;" horiz-adv-x="1622" 
d="M102 -31l148 203q-213 207 -213 559q0 234 96 407t271.5 265t408.5 92q207 0 369 -72l53 72h287l-148 -203q211 -205 211 -561q0 -353 -208.5 -557.5t-563.5 -204.5q-209 0 -371 72l-53 -72h-287zM506 514l459 619q-67 34 -154 34q-158 0 -249 -113.5t-91 -322.5
q0 -124 35 -217zM1118 948l-461 -616q68 -35 154 -35q159 0 249.5 113t90.5 321q0 116 -33 217z" />
    <glyph glyph-name="Ugrave" unicode="&#xd9;" horiz-adv-x="1454" 
d="M61 559v905h465v-889q0 -237 201 -237t201 237v889h465v-905q0 -276 -179.5 -433t-488.5 -157q-304 0 -484 157.5t-180 432.5zM569 1544l-258 328h400l166 -328h-308z" />
    <glyph glyph-name="Uacute" unicode="&#xda;" horiz-adv-x="1454" 
d="M61 559v905h465v-889q0 -237 201 -237t201 237v889h465v-905q0 -276 -179.5 -433t-488.5 -157q-304 0 -484 157.5t-180 432.5zM573 1544l166 328h400l-258 -328h-308z" />
    <glyph glyph-name="Ucircumflex" unicode="&#xdb;" horiz-adv-x="1454" 
d="M61 559v905h465v-889q0 -237 201 -237t201 237v889h465v-905q0 -276 -179.5 -433t-488.5 -157q-304 0 -484 157.5t-180 432.5zM555 1870h344l219 -328h-266l-125 144l-125 -144h-266z" />
    <glyph glyph-name="Udieresis" unicode="&#xdc;" horiz-adv-x="1454" 
d="M61 559v905h465v-889q0 -237 201 -237t201 237v889h465v-905q0 -276 -179.5 -433t-488.5 -157q-304 0 -484 157.5t-180 432.5zM360 1536v295h336v-295h-336zM770 1536v295h336v-295h-336z" />
    <glyph glyph-name="Yacute" unicode="&#xdd;" horiz-adv-x="1411" 
d="M475 0v483l-504 981h518l220 -553l215 553h518l-502 -981v-483h-465zM555 1544l166 328h399l-258 -328h-307z" />
    <glyph glyph-name="Thorn" unicode="&#xde;" horiz-adv-x="1384" 
d="M526 586h187q164 0 164 147q0 148 -164 148h-187v-295zM61 0v1464h465v-215h207q615 0 615 -516t-615 -516h-207v-217h-465z" />
    <glyph glyph-name="germandbls" unicode="&#xdf;" horiz-adv-x="1439" 
d="M61 0v965q0 295 168 446.5t480 151.5q276 0 443 -113.5t167 -316.5q0 -133 -75.5 -222.5t-207.5 -109.5q171 -15 271 -121t100 -272q0 -205 -157 -309.5t-437 -104.5q-103 0 -188 18v365q77 -15 129 -15q192 0 192 130q0 64 -50.5 95t-154.5 31h-96v349h72q69 0 110 29
t41 85q0 52 -39 82.5t-114 30.5q-203 0 -203 -231v-963h-451z" />
    <glyph glyph-name="agrave" unicode="&#xe0;" horiz-adv-x="1273" 
d="M483 362q0 -86 113 -86q91 0 144 58t53 166v14l-193 -45q-117 -25 -117 -107zM29 279q0 148 101.5 230t305.5 122l357 71v7q0 143 -146 143q-76 0 -110 -40.5t-37 -121.5h-451q10 126 59 218.5t130.5 146.5t182 79t224.5 25q279 0 428.5 -122t149.5 -363v-674h-420
l-6 145q-57 -80 -157.5 -128t-233.5 -48q-56 0 -107.5 9t-101.5 31.5t-86.5 57t-59 89t-22.5 123.5zM487 1208l-258 328h400l166 -328h-308z" />
    <glyph glyph-name="aacute" unicode="&#xe1;" horiz-adv-x="1273" 
d="M483 362q0 -86 113 -86q91 0 144 58t53 166v14l-193 -45q-117 -25 -117 -107zM29 279q0 148 101.5 230t305.5 122l357 71v7q0 143 -146 143q-76 0 -110 -40.5t-37 -121.5h-451q10 126 59 218.5t130.5 146.5t182 79t224.5 25q279 0 428.5 -122t149.5 -363v-674h-420
l-6 145q-57 -80 -157.5 -128t-233.5 -48q-56 0 -107.5 9t-101.5 31.5t-86.5 57t-59 89t-22.5 123.5zM492 1208l165 328h400l-258 -328h-307z" />
    <glyph glyph-name="acircumflex" unicode="&#xe2;" horiz-adv-x="1273" 
d="M483 362q0 -86 113 -86q91 0 144 58t53 166v14l-193 -45q-117 -25 -117 -107zM29 279q0 148 101.5 230t305.5 122l357 71v7q0 143 -146 143q-76 0 -110 -40.5t-37 -121.5h-451q10 126 59 218.5t130.5 146.5t182 79t224.5 25q279 0 428.5 -122t149.5 -363v-674h-420
l-6 145q-57 -80 -157.5 -128t-233.5 -48q-56 0 -107.5 9t-101.5 31.5t-86.5 57t-59 89t-22.5 123.5zM473 1534h344l219 -328h-266l-125 144l-125 -144h-266z" />
    <glyph glyph-name="atilde" unicode="&#xe3;" horiz-adv-x="1273" 
d="M483 362q0 -86 113 -86q91 0 144 58t53 166v14l-193 -45q-117 -25 -117 -107zM29 279q0 148 101.5 230t305.5 122l357 71v7q0 143 -146 143q-76 0 -110 -40.5t-37 -121.5h-451q10 126 59 218.5t130.5 146.5t182 79t224.5 25q279 0 428.5 -122t149.5 -363v-674h-420
l-6 145q-57 -80 -157.5 -128t-233.5 -48q-56 0 -107.5 9t-101.5 31.5t-86.5 57t-59 89t-22.5 123.5zM457 1198h-138q0 175 44.5 259.5t138.5 84.5q61 0 149 -47q80 -41 121 -41q66 0 66 78h133q0 -183 -41 -263.5t-137 -80.5q-70 0 -166 51q-80 37 -113 37q-34 0 -45.5 -20
t-11.5 -58z" />
    <glyph glyph-name="adieresis" unicode="&#xe4;" horiz-adv-x="1273" 
d="M483 362q0 -86 113 -86q91 0 144 58t53 166v14l-193 -45q-117 -25 -117 -107zM29 279q0 148 101.5 230t305.5 122l357 71v7q0 143 -146 143q-76 0 -110 -40.5t-37 -121.5h-451q10 126 59 218.5t130.5 146.5t182 79t224.5 25q279 0 428.5 -122t149.5 -363v-674h-420
l-6 145q-57 -80 -157.5 -128t-233.5 -48q-56 0 -107.5 9t-101.5 31.5t-86.5 57t-59 89t-22.5 123.5zM279 1200v295h335v-295h-335zM688 1200v295h336v-295h-336z" />
    <glyph glyph-name="aring" unicode="&#xe5;" horiz-adv-x="1273" 
d="M483 362q0 -86 113 -86q91 0 144 58t53 166v14l-193 -45q-117 -25 -117 -107zM29 279q0 148 101.5 230t305.5 122l357 71v7q0 143 -146 143q-76 0 -110 -40.5t-37 -121.5h-451q10 126 59 218.5t130.5 146.5t182 79t224.5 25q279 0 428.5 -122t149.5 -363v-674h-420
l-6 145q-57 -80 -157.5 -128t-233.5 -48q-56 0 -107.5 9t-101.5 31.5t-86.5 57t-59 89t-22.5 123.5zM582 1417q0 -29 16 -47t47 -18q30 0 46 18t16 47t-16 47.5t-46 18.5q-31 0 -47 -18.5t-16 -47.5zM403 1419q0 96 67.5 158.5t174.5 62.5q105 0 172.5 -62.5t67.5 -158.5
q0 -97 -67.5 -161t-172.5 -64q-107 0 -174.5 64t-67.5 161z" />
    <glyph glyph-name="ae" unicode="&#xe6;" horiz-adv-x="2095" 
d="M483 362q0 -86 113 -86q91 0 144 58t53 166v18l-193 -49q-58 -14 -87.5 -39t-29.5 -68zM1255 657h359q-15 84 -60.5 129t-117.5 45t-119 -45.5t-62 -128.5zM29 279q0 147 100.5 227.5t306.5 124.5l357 76v6q0 70 -38 104.5t-108 34.5q-76 0 -110 -40.5t-37 -121.5h-451
q10 126 59 218.5t130.5 146.5t182 79t224.5 25q257 0 404 -102q158 102 387 102q290 0 456 -164.5t166 -441.5v-82h-803q15 -83 61.5 -128.5t117.5 -45.5q101 0 149 92h473q-53 -195 -217.5 -307.5t-402.5 -112.5q-197 0 -345.5 78.5t-226.5 218.5q-49 -137 -161.5 -217
t-296.5 -80q-56 0 -107.5 9t-101.5 31.5t-86.5 57t-59 89t-22.5 123.5z" />
    <glyph glyph-name="ccedilla" unicode="&#xe7;" horiz-adv-x="1341" 
d="M492 -307l53 117q120 -66 198 -66q82 0 82 51t-77 51q-36 0 -68 -14l-109 43l31 98q-258 22 -411.5 182t-153.5 410q0 267 176.5 430.5t466.5 163.5q263 0 434.5 -136t202.5 -364h-459q-17 73 -62.5 112.5t-115.5 39.5q-90 0 -139 -64.5t-49 -181.5q0 -119 48.5 -183.5
t139.5 -64.5q70 0 115.5 40t62.5 114h459q-29 -214 -181 -347.5t-388 -152.5l-17 -49q57 23 113 23q80 0 132 -44.5t52 -111.5q0 -81 -74.5 -135.5t-185.5 -54.5q-140 0 -276 94z" />
    <glyph glyph-name="egrave" unicode="&#xe8;" horiz-adv-x="1339" 
d="M37 565q0 267 176.5 430.5t466.5 163.5t456.5 -164.5t166.5 -441.5v-82h-803q15 -83 61.5 -128.5t116.5 -45.5q101 0 149 92h473q-53 -195 -217.5 -307.5t-402.5 -112.5q-290 0 -466.5 163.5t-176.5 432.5zM500 657h358q-15 84 -60.5 129t-117.5 45t-118.5 -45
t-61.5 -129zM522 1208l-258 328h400l165 -328h-307z" />
    <glyph glyph-name="eacute" unicode="&#xe9;" horiz-adv-x="1339" 
d="M37 565q0 267 176.5 430.5t466.5 163.5t456.5 -164.5t166.5 -441.5v-82h-803q15 -83 61.5 -128.5t116.5 -45.5q101 0 149 92h473q-53 -195 -217.5 -307.5t-402.5 -112.5q-290 0 -466.5 163.5t-176.5 432.5zM500 657h358q-15 84 -60.5 129t-117.5 45t-118.5 -45
t-61.5 -129zM526 1208l166 328h400l-258 -328h-308z" />
    <glyph glyph-name="ecircumflex" unicode="&#xea;" horiz-adv-x="1339" 
d="M37 565q0 267 176.5 430.5t466.5 163.5t456.5 -164.5t166.5 -441.5v-82h-803q15 -83 61.5 -128.5t116.5 -45.5q101 0 149 92h473q-53 -195 -217.5 -307.5t-402.5 -112.5q-290 0 -466.5 163.5t-176.5 432.5zM500 657h358q-15 84 -60.5 129t-117.5 45t-118.5 -45
t-61.5 -129zM508 1534h344l219 -328h-266l-125 144l-125 -144h-266z" />
    <glyph glyph-name="edieresis" unicode="&#xeb;" horiz-adv-x="1339" 
d="M37 565q0 267 176.5 430.5t466.5 163.5t456.5 -164.5t166.5 -441.5v-82h-803q15 -83 61.5 -128.5t116.5 -45.5q101 0 149 92h473q-53 -195 -217.5 -307.5t-402.5 -112.5q-290 0 -466.5 163.5t-176.5 432.5zM500 657h358q-15 84 -60.5 129t-117.5 45t-118.5 -45
t-61.5 -129zM313 1200v295h336v-295h-336zM723 1200v295h336v-295h-336z" />
    <glyph glyph-name="igrave" unicode="&#xec;" horiz-adv-x="577" 
d="M63 0v1128h451v-1128h-451zM133 1208l-258 328h399l166 -328h-307z" />
    <glyph glyph-name="iacute" unicode="&#xed;" horiz-adv-x="577" 
d="M63 0v1128h451v-1128h-451zM137 1208l166 328h399l-258 -328h-307z" />
    <glyph glyph-name="icircumflex" unicode="&#xee;" horiz-adv-x="577" 
d="M63 0v1128h451v-1128h-451zM119 1534h344l219 -328h-266l-125 144l-125 -144h-266z" />
    <glyph glyph-name="idieresis" unicode="&#xef;" horiz-adv-x="577" 
d="M63 0v1128h451v-1128h-451zM-76 1200v295h336v-295h-336zM334 1200v295h336v-295h-336z" />
    <glyph glyph-name="eth" unicode="&#xf0;" horiz-adv-x="1359" 
d="M492 563q0 -117 49.5 -181.5t138.5 -64.5t138.5 65t49.5 181q0 119 -48.5 182.5t-139.5 63.5t-139.5 -63.5t-48.5 -182.5zM37 563q0 246 140 398.5t366 152.5q191 0 280 -123q-51 143 -157 258l-195 -92l-74 148l135 63q-48 38 -133 92l133 207q172 -73 299 -158l197 95
l74 -146l-125 -59q346 -313 346 -834q0 -267 -178 -431.5t-465 -164.5q-286 0 -464.5 165t-178.5 429z" />
    <glyph glyph-name="ntilde" unicode="&#xf1;" 
d="M53 0v1128h420l8 -202q76 233 336 233q176 0 279.5 -113.5t103.5 -316.5v-729h-450v594q0 109 -25 153t-92 44q-65 0 -97 -45.5t-32 -151.5v-594h-451zM438 1198h-137q0 175 44.5 259.5t137.5 84.5q62 0 150 -47q80 -41 121 -41q65 0 65 78h133q0 -183 -41 -263.5
t-137 -80.5q-70 0 -166 51q-80 37 -112 37q-34 0 -46 -20.5t-12 -57.5z" />
    <glyph glyph-name="ograve" unicode="&#xf2;" horiz-adv-x="1359" 
d="M492 565q0 -120 48.5 -184t139.5 -64t139.5 64t48.5 184q0 117 -49 181.5t-139 64.5t-139 -64.5t-49 -181.5zM37 565q0 266 176.5 430t466.5 164t466.5 -164t176.5 -430q0 -269 -176.5 -432.5t-466.5 -163.5t-466.5 163.5t-176.5 432.5zM522 1208l-258 328h400l165 -328
h-307z" />
    <glyph glyph-name="oacute" unicode="&#xf3;" horiz-adv-x="1359" 
d="M492 565q0 -120 48.5 -184t139.5 -64t139.5 64t48.5 184q0 117 -49 181.5t-139 64.5t-139 -64.5t-49 -181.5zM37 565q0 266 176.5 430t466.5 164t466.5 -164t176.5 -430q0 -269 -176.5 -432.5t-466.5 -163.5t-466.5 163.5t-176.5 432.5zM526 1208l166 328h400l-258 -328
h-308z" />
    <glyph glyph-name="ocircumflex" unicode="&#xf4;" horiz-adv-x="1359" 
d="M492 565q0 -120 48.5 -184t139.5 -64t139.5 64t48.5 184q0 117 -49 181.5t-139 64.5t-139 -64.5t-49 -181.5zM37 565q0 266 176.5 430t466.5 164t466.5 -164t176.5 -430q0 -269 -176.5 -432.5t-466.5 -163.5t-466.5 163.5t-176.5 432.5zM508 1534h344l219 -328h-266
l-125 144l-125 -144h-266z" />
    <glyph glyph-name="otilde" unicode="&#xf5;" horiz-adv-x="1359" 
d="M492 565q0 -120 48.5 -184t139.5 -64t139.5 64t48.5 184q0 117 -49 181.5t-139 64.5t-139 -64.5t-49 -181.5zM37 565q0 266 176.5 430t466.5 164t466.5 -164t176.5 -430q0 -269 -176.5 -432.5t-466.5 -163.5t-466.5 163.5t-176.5 432.5zM492 1198h-138q0 175 44.5 259.5
t138.5 84.5q61 0 149 -47q80 -41 121 -41q65 0 65 78h134q0 -183 -41.5 -263.5t-137.5 -80.5q-69 0 -165 51q-80 37 -113 37q-34 0 -45.5 -20t-11.5 -58z" />
    <glyph glyph-name="odieresis" unicode="&#xf6;" horiz-adv-x="1359" 
d="M492 565q0 -120 48.5 -184t139.5 -64t139.5 64t48.5 184q0 117 -49 181.5t-139 64.5t-139 -64.5t-49 -181.5zM37 565q0 266 176.5 430t466.5 164t466.5 -164t176.5 -430q0 -269 -176.5 -432.5t-466.5 -163.5t-466.5 163.5t-176.5 432.5zM313 1200v295h336v-295h-336z
M723 1200v295h336v-295h-336z" />
    <glyph glyph-name="divide" unicode="&#xf7;" horiz-adv-x="1187" 
d="M414 975v350h360v-350h-360zM414 104v351h360v-351h-360zM53 537v356h1082v-356h-1082z" />
    <glyph glyph-name="oslash" unicode="&#xf8;" horiz-adv-x="1359" 
d="M119 -31l108 150q-92 79 -141 192.5t-49 253.5q0 266 176.5 430t466.5 164q145 0 272 -45l33 45h256l-108 -151q92 -79 141 -193t49 -252q0 -267 -176.5 -430.5t-466.5 -163.5q-148 0 -272 45l-35 -45h-254zM465 446l289 396q-38 10 -74 10q-110 0 -169.5 -75.5
t-59.5 -211.5q0 -70 14 -119zM895 682l-289 -395q42 -11 74 -11q109 0 169 75.5t60 211.5q0 70 -14 119z" />
    <glyph glyph-name="ugrave" unicode="&#xf9;" 
d="M49 399v729h451v-593q0 -109 25 -153t91 -44q65 0 97 45.5t32 151.5v593h451v-1128h-420l-8 203q-77 -234 -336 -234q-176 0 -279.5 113.5t-103.5 316.5zM465 1208l-258 328h399l166 -328h-307z" />
    <glyph glyph-name="uacute" unicode="&#xfa;" 
d="M49 399v729h451v-593q0 -109 25 -153t91 -44q65 0 97 45.5t32 151.5v593h451v-1128h-420l-8 203q-77 -234 -336 -234q-176 0 -279.5 113.5t-103.5 316.5zM469 1208l166 328h399l-258 -328h-307z" />
    <glyph glyph-name="ucircumflex" unicode="&#xfb;" 
d="M49 399v729h451v-593q0 -109 25 -153t91 -44q65 0 97 45.5t32 151.5v593h451v-1128h-420l-8 203q-77 -234 -336 -234q-176 0 -279.5 113.5t-103.5 316.5zM451 1534h344l219 -328h-266l-125 144l-125 -144h-267z" />
    <glyph glyph-name="udieresis" unicode="&#xfc;" 
d="M49 399v729h451v-593q0 -109 25 -153t91 -44q65 0 97 45.5t32 151.5v593h451v-1128h-420l-8 203q-77 -234 -336 -234q-176 0 -279.5 113.5t-103.5 316.5zM256 1200v295h336v-295h-336zM666 1200v295h335v-295h-335z" />
    <glyph glyph-name="yacute" unicode="&#xfd;" horiz-adv-x="1198" 
d="M-2 -377v357q83 -17 147 -17q115 0 174 49l-350 1116h471l164 -708l154 708h471l-328 -1077q-135 -446 -647 -446q-145 0 -256 18zM444 1208l166 328h400l-258 -328h-308z" />
    <glyph glyph-name="thorn" unicode="&#xfe;" horiz-adv-x="1357" 
d="M498 565q0 -117 48 -182.5t134 -65.5q88 0 137 66.5t49 183.5q0 116 -48 180t-136 64t-136 -64t-48 -182zM53 -375v1878h430v-553q54 102 146 155.5t213 53.5q217 0 348 -162t131 -432t-131 -433t-346 -163q-121 0 -215 54.5t-146 156.5v-555h-430z" />
    <glyph glyph-name="ydieresis" unicode="&#xff;" horiz-adv-x="1198" 
d="M-2 -377v357q83 -17 147 -17q115 0 174 49l-350 1116h471l164 -708l154 708h471l-328 -1077q-135 -446 -647 -446q-145 0 -256 18zM231 1200v295h336v-295h-336zM641 1200v295h336v-295h-336z" />
    <glyph glyph-name="Amacron" unicode="&#x100;" horiz-adv-x="1521" 
d="M629 571h264l-131 451zM-29 0l480 1464h624l477 -1464h-493l-64 219h-469l-65 -219h-490zM444 1554v246h635v-246h-635z" />
    <glyph glyph-name="amacron" unicode="&#x101;" horiz-adv-x="1273" 
d="M483 362q0 -86 113 -86q91 0 144 58t53 166v14l-193 -45q-117 -25 -117 -107zM29 279q0 148 101.5 230t305.5 122l357 71v7q0 143 -146 143q-76 0 -110 -40.5t-37 -121.5h-451q10 126 59 218.5t130.5 146.5t182 79t224.5 25q279 0 428.5 -122t149.5 -363v-674h-420
l-6 145q-57 -80 -157.5 -128t-233.5 -48q-56 0 -107.5 9t-101.5 31.5t-86.5 57t-59 89t-22.5 123.5zM328 1219v245h635v-245h-635z" />
    <glyph glyph-name="Abreve" unicode="&#x102;" horiz-adv-x="1521" 
d="M629 571h264l-131 451zM-29 0l480 1464h624l477 -1464h-493l-64 219h-469l-65 -219h-490zM442 1868h226q13 -99 94 -99t94 99h225q-6 -163 -89.5 -250.5t-229.5 -87.5t-230 87.5t-90 250.5z" />
    <glyph glyph-name="abreve" unicode="&#x103;" horiz-adv-x="1273" 
d="M483 362q0 -86 113 -86q91 0 144 58t53 166v14l-193 -45q-117 -25 -117 -107zM29 279q0 148 101.5 230t305.5 122l357 71v7q0 143 -146 143q-76 0 -110 -40.5t-37 -121.5h-451q10 126 59 218.5t130.5 146.5t182 79t224.5 25q279 0 428.5 -122t149.5 -363v-674h-420
l-6 145q-57 -80 -157.5 -128t-233.5 -48q-56 0 -107.5 9t-101.5 31.5t-86.5 57t-59 89t-22.5 123.5zM326 1532h225q13 -98 94 -98t94 98h226q-6 -163 -90 -250.5t-230 -87.5t-229.5 87.5t-89.5 250.5z" />
    <glyph glyph-name="Aogonek" unicode="&#x104;" horiz-adv-x="1521" 
d="M-29 0l480 1464h624l477 -1464q-101 -7 -157 -27t-56 -47q0 -39 131 -39q44 0 84 7v-267q-63 -8 -129 -8q-148 0 -241.5 50t-93.5 141q0 138 225 190h-256l-64 219h-469l-65 -219h-490zM629 571h264l-131 451z" />
    <glyph glyph-name="aogonek" unicode="&#x105;" horiz-adv-x="1273" 
d="M1223 674v-674q-101 -7 -157 -27t-56 -47q0 -39 131 -39q44 0 84 7v-267q-63 -8 -129 -8q-148 0 -242 50t-94 141q0 138 225 190h-182l-6 145q-57 -80 -157.5 -128t-233.5 -48q-56 0 -107.5 9t-101.5 31.5t-86.5 57t-59 89t-22.5 123.5q0 148 101.5 230t305.5 122l357 71
v7q0 143 -146 143q-76 0 -110 -40.5t-37 -121.5h-451q10 126 59 218.5t130.5 146.5t182 79t224.5 25q279 0 428.5 -122t149.5 -363zM483 362q0 -86 113 -86q91 0 144 58t53 166v14l-193 -45q-117 -25 -117 -107z" />
    <glyph glyph-name="Cacute" unicode="&#x106;" horiz-adv-x="1576" 
d="M37 733q0 347 206 554.5t562 207.5q200 0 353.5 -69.5t252 -211.5t125.5 -348h-483q-13 123 -81 191.5t-175 68.5q-134 0 -209.5 -104.5t-75.5 -288.5q0 -186 76.5 -290.5t214.5 -104.5q110 0 174 69.5t76 204.5h485q-24 -205 -125 -351.5t-258.5 -219t-359.5 -72.5
q-231 0 -403 94.5t-263.5 267.5t-91.5 402zM651 1544l166 328h400l-259 -328h-307z" />
    <glyph glyph-name="cacute" unicode="&#x107;" horiz-adv-x="1341" 
d="M37 565q0 267 176.5 430.5t466.5 163.5q263 0 434.5 -136t202.5 -364h-459q-17 73 -62.5 112.5t-115.5 39.5q-90 0 -139 -64.5t-49 -181.5q0 -119 48.5 -183.5t139.5 -64.5q70 0 115.5 40t62.5 114h459q-31 -230 -202.5 -366t-434.5 -136q-290 0 -466.5 163.5
t-176.5 432.5zM526 1208l166 328h400l-258 -328h-308z" />
    <glyph glyph-name="Ccircumflex" unicode="&#x108;" horiz-adv-x="1576" 
d="M37 733q0 347 206 554.5t562 207.5q200 0 353.5 -69.5t252 -211.5t125.5 -348h-483q-13 123 -81 191.5t-175 68.5q-134 0 -209.5 -104.5t-75.5 -288.5q0 -186 76.5 -290.5t214.5 -104.5q110 0 174 69.5t76 204.5h485q-24 -205 -125 -351.5t-258.5 -219t-359.5 -72.5
q-231 0 -403 94.5t-263.5 267.5t-91.5 402zM633 1870h344l219 -328h-266l-125 144l-125 -144h-266z" />
    <glyph glyph-name="ccircumflex" unicode="&#x109;" horiz-adv-x="1341" 
d="M37 565q0 267 176.5 430.5t466.5 163.5q263 0 434.5 -136t202.5 -364h-459q-17 73 -62.5 112.5t-115.5 39.5q-90 0 -139 -64.5t-49 -181.5q0 -119 48.5 -183.5t139.5 -64.5q70 0 115.5 40t62.5 114h459q-31 -230 -202.5 -366t-434.5 -136q-290 0 -466.5 163.5
t-176.5 432.5zM508 1534h344l219 -328h-266l-125 144l-125 -144h-266z" />
    <glyph glyph-name="Cdotaccent" unicode="&#x10a;" horiz-adv-x="1576" 
d="M37 733q0 347 206 554.5t562 207.5q200 0 353.5 -69.5t252 -211.5t125.5 -348h-483q-13 123 -81 191.5t-175 68.5q-134 0 -209.5 -104.5t-75.5 -288.5q0 -186 76.5 -290.5t214.5 -104.5q110 0 174 69.5t76 204.5h485q-24 -205 -125 -351.5t-258.5 -219t-359.5 -72.5
q-231 0 -403 94.5t-263.5 267.5t-91.5 402zM637 1536v295h336v-295h-336z" />
    <glyph glyph-name="cdotaccent" unicode="&#x10b;" horiz-adv-x="1341" 
d="M37 565q0 267 176.5 430.5t466.5 163.5q263 0 434.5 -136t202.5 -364h-459q-17 73 -62.5 112.5t-115.5 39.5q-90 0 -139 -64.5t-49 -181.5q0 -119 48.5 -183.5t139.5 -64.5q70 0 115.5 40t62.5 114h459q-31 -230 -202.5 -366t-434.5 -136q-290 0 -466.5 163.5
t-176.5 432.5zM512 1200v295h336v-295h-336z" />
    <glyph glyph-name="Ccaron" unicode="&#x10c;" horiz-adv-x="1576" 
d="M37 733q0 347 206 554.5t562 207.5q200 0 353.5 -69.5t252 -211.5t125.5 -348h-483q-13 123 -81 191.5t-175 68.5q-134 0 -209.5 -104.5t-75.5 -288.5q0 -186 76.5 -290.5t214.5 -104.5q110 0 174 69.5t76 204.5h485q-24 -205 -125 -351.5t-258.5 -219t-359.5 -72.5
q-231 0 -403 94.5t-263.5 267.5t-91.5 402zM633 1542l-219 328h266l125 -144l125 144h266l-219 -328h-344z" />
    <glyph glyph-name="ccaron" unicode="&#x10d;" horiz-adv-x="1341" 
d="M37 565q0 267 176.5 430.5t466.5 163.5q263 0 434.5 -136t202.5 -364h-459q-17 73 -62.5 112.5t-115.5 39.5q-90 0 -139 -64.5t-49 -181.5q0 -119 48.5 -183.5t139.5 -64.5q70 0 115.5 40t62.5 114h459q-31 -230 -202.5 -366t-434.5 -136q-290 0 -466.5 163.5
t-176.5 432.5zM508 1206l-219 328h266l125 -143l125 143h266l-219 -328h-344z" />
    <glyph glyph-name="Dcaron" unicode="&#x10e;" horiz-adv-x="1458" 
d="M526 369h84q173 0 253.5 89t80.5 275q0 185 -80.5 274t-253.5 89h-84v-727zM61 0v1464h562q385 0 591.5 -190.5t206.5 -544.5q0 -353 -206 -541t-592 -188h-562zM401 1542l-219 328h267l124 -144l125 144h267l-220 -328h-344z" />
    <glyph glyph-name="dcaron" unicode="&#x10f;" horiz-adv-x="1689" 
d="M860 565q0 117 -48 181.5t-136 64.5t-136 -64t-48 -180q0 -117 49 -183.5t137 -66.5q86 0 134 65.5t48 182.5zM1305 0h-420l-6 180q-52 -103 -146 -157t-217 -54q-217 0 -348 163t-131 433t131 432t348 162q121 0 212.5 -53.5t145.5 -155.5v553h431v-1503zM1677 1505
l-80 -571h-225l39 571h266z" />
    <glyph glyph-name="Dcroat" unicode="&#x110;" horiz-adv-x="1556" 
d="M37 584v307h123v573h561q385 0 592 -190.5t207 -544.5q0 -353 -206.5 -541t-592.5 -188h-561v584h-123zM625 369h84q173 0 253 89t80 275q0 185 -80 274t-253 89h-84v-205h204v-307h-204v-215z" />
    <glyph glyph-name="dcroat" unicode="&#x111;" horiz-adv-x="1443" 
d="M860 565q0 117 -48 181.5t-136 64.5t-136 -64t-48 -180q0 -117 49 -183.5t137 -66.5q86 0 134 65.5t48 182.5zM625 1178v245h249v80h431v-80h102v-245h-102v-1178h-420l-6 180q-52 -103 -146 -157t-217 -54q-217 0 -348 163t-131 433t131 432t348 162q121 0 212.5 -53.5
t145.5 -155.5v228h-249z" />
    <glyph glyph-name="Emacron" unicode="&#x112;" horiz-adv-x="1261" 
d="M61 0v1464h1141v-368h-676v-178h635v-365h-635v-184h684v-369h-1149zM317 1554v246h635v-246h-635z" />
    <glyph glyph-name="emacron" unicode="&#x113;" horiz-adv-x="1339" 
d="M37 565q0 267 176.5 430.5t466.5 163.5t456.5 -164.5t166.5 -441.5v-82h-803q15 -83 61.5 -128.5t116.5 -45.5q101 0 149 92h473q-53 -195 -217.5 -307.5t-402.5 -112.5q-290 0 -466.5 163.5t-176.5 432.5zM500 657h358q-15 84 -60.5 129t-117.5 45t-118.5 -45
t-61.5 -129zM362 1219v245h635v-245h-635z" />
    <glyph glyph-name="Ebreve" unicode="&#x114;" horiz-adv-x="1261" 
d="M61 0v1464h1141v-368h-676v-178h635v-365h-635v-184h684v-369h-1149zM315 1868h226q13 -99 94 -99t94 99h225q-6 -163 -89.5 -250.5t-229.5 -87.5t-230 87.5t-90 250.5z" />
    <glyph glyph-name="ebreve" unicode="&#x115;" horiz-adv-x="1339" 
d="M37 565q0 267 176.5 430.5t466.5 163.5t456.5 -164.5t166.5 -441.5v-82h-803q15 -83 61.5 -128.5t116.5 -45.5q101 0 149 92h473q-53 -195 -217.5 -307.5t-402.5 -112.5q-290 0 -466.5 163.5t-176.5 432.5zM500 657h358q-15 84 -60.5 129t-117.5 45t-118.5 -45
t-61.5 -129zM360 1532h226q13 -98 94 -98t94 98h225q-6 -163 -89.5 -250.5t-229.5 -87.5t-230 87.5t-90 250.5z" />
    <glyph glyph-name="Edotaccent" unicode="&#x116;" horiz-adv-x="1261" 
d="M61 0v1464h1141v-368h-676v-178h635v-365h-635v-184h684v-369h-1149zM467 1536v295h336v-295h-336z" />
    <glyph glyph-name="edotaccent" unicode="&#x117;" horiz-adv-x="1339" 
d="M37 565q0 267 176.5 430.5t466.5 163.5t456.5 -164.5t166.5 -441.5v-82h-803q15 -83 61.5 -128.5t116.5 -45.5q101 0 149 92h473q-53 -195 -217.5 -307.5t-402.5 -112.5q-290 0 -466.5 163.5t-176.5 432.5zM500 657h358q-15 84 -60.5 129t-117.5 45t-118.5 -45
t-61.5 -129zM512 1200v295h336v-295h-336z" />
    <glyph glyph-name="Eogonek" unicode="&#x118;" horiz-adv-x="1261" 
d="M61 0v1464h1141v-368h-676v-178h635v-365h-635v-184h684v-369q-101 -7 -157 -27t-56 -47q0 -39 131 -39q44 0 84 7v-267q-63 -8 -129 -8q-148 0 -241.5 50t-93.5 141q0 138 225 190h-912z" />
    <glyph glyph-name="eogonek" unicode="&#x119;" horiz-adv-x="1339" 
d="M37 565q0 267 176.5 430.5t466.5 163.5t456.5 -164.5t166.5 -441.5v-82h-803q15 -83 61.5 -128.5t116.5 -45.5q101 0 149 92h473q-59 -218 -251 -328q-101 -82 -101 -137q0 -28 32 -41.5t107 -13.5q41 0 87 6v-264q-61 -10 -132 -10q-153 0 -244 51t-91 137
q0 103 147 199q-84 -19 -174 -19q-290 0 -466.5 163.5t-176.5 432.5zM500 657h358q-15 84 -60.5 129t-117.5 45t-118.5 -45t-61.5 -129z" />
    <glyph glyph-name="Ecaron" unicode="&#x11a;" horiz-adv-x="1261" 
d="M61 0v1464h1141v-368h-676v-178h635v-365h-635v-184h684v-369h-1149zM463 1542l-219 328h266l125 -144l125 144h266l-219 -328h-344z" />
    <glyph glyph-name="ecaron" unicode="&#x11b;" horiz-adv-x="1339" 
d="M37 565q0 267 176.5 430.5t466.5 163.5t456.5 -164.5t166.5 -441.5v-82h-803q15 -83 61.5 -128.5t116.5 -45.5q101 0 149 92h473q-53 -195 -217.5 -307.5t-402.5 -112.5q-290 0 -466.5 163.5t-176.5 432.5zM500 657h358q-15 84 -60.5 129t-117.5 45t-118.5 -45
t-61.5 -129zM508 1206l-219 328h266l125 -143l125 143h266l-219 -328h-344z" />
    <glyph glyph-name="Gcircumflex" unicode="&#x11c;" horiz-adv-x="1595" 
d="M37 723q0 355 206 563.5t562 208.5q294 0 484.5 -150t240.5 -438h-483q-22 105 -87 162t-163 57q-133 0 -209 -103.5t-76 -285.5q0 -192 76 -295.5t223 -103.5q182 0 250 156h-256v307h729v-801h-266l-31 182q-162 -213 -475 -213q-334 0 -529.5 206.5t-195.5 547.5z
M633 1870h344l219 -328h-266l-125 144l-125 -144h-266z" />
    <glyph glyph-name="gcircumflex" unicode="&#x11d;" horiz-adv-x="1357" 
d="M492 612q0 -100 48.5 -156.5t135.5 -56.5q88 0 136 56t48 159t-48 160t-134 57q-88 0 -137 -58t-49 -161zM78 31h454q35 -119 168 -119q174 0 174 201v168q-111 -209 -364 -209q-213 0 -343 148t-130 394q0 247 130.5 396t344.5 149q126 0 220.5 -54t146.5 -157l6 180
h420v-974q0 -277 -156 -413t-451 -136q-71 0 -136 8t-132 26t-123 51t-103.5 78.5t-80 112.5t-45.5 150zM500 1534h344l219 -328h-266l-125 144l-125 -144h-266z" />
    <glyph glyph-name="Gbreve" unicode="&#x11e;" horiz-adv-x="1595" 
d="M37 723q0 355 206 563.5t562 208.5q294 0 484.5 -150t240.5 -438h-483q-22 105 -87 162t-163 57q-133 0 -209 -103.5t-76 -285.5q0 -192 76 -295.5t223 -103.5q182 0 250 156h-256v307h729v-801h-266l-31 182q-162 -213 -475 -213q-334 0 -529.5 206.5t-195.5 547.5z
M485 1868h226q13 -99 94 -99t94 99h225q-6 -163 -89.5 -250.5t-229.5 -87.5t-230 87.5t-90 250.5z" />
    <glyph glyph-name="gbreve" unicode="&#x11f;" horiz-adv-x="1357" 
d="M492 612q0 -100 48.5 -156.5t135.5 -56.5q88 0 136 56t48 159t-48 160t-134 57q-88 0 -137 -58t-49 -161zM78 31h454q35 -119 168 -119q174 0 174 201v168q-111 -209 -364 -209q-213 0 -343 148t-130 394q0 247 130.5 396t344.5 149q126 0 220.5 -54t146.5 -157l6 180
h420v-974q0 -277 -156 -413t-451 -136q-71 0 -136 8t-132 26t-123 51t-103.5 78.5t-80 112.5t-45.5 150zM352 1532h226q13 -98 94 -98t94 98h225q-6 -163 -89.5 -250.5t-229.5 -87.5t-230 87.5t-90 250.5z" />
    <glyph glyph-name="Gdotaccent" unicode="&#x120;" horiz-adv-x="1595" 
d="M37 723q0 355 206 563.5t562 208.5q294 0 484.5 -150t240.5 -438h-483q-22 105 -87 162t-163 57q-133 0 -209 -103.5t-76 -285.5q0 -192 76 -295.5t223 -103.5q182 0 250 156h-256v307h729v-801h-266l-31 182q-162 -213 -475 -213q-334 0 -529.5 206.5t-195.5 547.5z
M637 1536v295h336v-295h-336z" />
    <glyph glyph-name="gdotaccent" unicode="&#x121;" horiz-adv-x="1357" 
d="M492 612q0 -100 48.5 -156.5t135.5 -56.5q88 0 136 56t48 159t-48 160t-134 57q-88 0 -137 -58t-49 -161zM78 31h454q35 -119 168 -119q174 0 174 201v168q-111 -209 -364 -209q-213 0 -343 148t-130 394q0 247 130.5 396t344.5 149q126 0 220.5 -54t146.5 -157l6 180
h420v-974q0 -277 -156 -413t-451 -136q-71 0 -136 8t-132 26t-123 51t-103.5 78.5t-80 112.5t-45.5 150zM504 1200v295h336v-295h-336z" />
    <glyph glyph-name="uni0122" unicode="&#x122;" horiz-adv-x="1595" 
d="M37 723q0 355 206 563.5t562 208.5q294 0 484.5 -150t240.5 -438h-483q-22 105 -87 162t-163 57q-133 0 -209 -103.5t-76 -285.5q0 -192 76 -295.5t223 -103.5q182 0 250 156h-256v307h729v-801h-266l-31 182q-162 -213 -475 -213q-334 0 -529.5 206.5t-195.5 547.5z
M479 -428v4l84 344h400v-4l-177 -344h-307z" />
    <glyph glyph-name="uni0123" unicode="&#x123;" horiz-adv-x="1357" 
d="M492 612q0 -100 48.5 -156.5t135.5 -56.5q88 0 136 56t48 159t-48 160t-134 57q-88 0 -137 -58t-49 -161zM78 31h454q35 -119 168 -119q174 0 174 201v168q-111 -209 -364 -209q-213 0 -343 148t-130 394q0 247 130.5 396t344.5 149q126 0 220.5 -54t146.5 -157l6 180
h420v-974q0 -277 -156 -413t-451 -136q-71 0 -136 8t-132 26t-123 51t-103.5 78.5t-80 112.5t-45.5 150zM952 1556v-6l-84 -342h-399v4l176 344h307z" />
    <glyph glyph-name="Hcircumflex" unicode="&#x124;" horiz-adv-x="1419" 
d="M61 0v1464h465v-542h367v542h465v-1464h-465v557h-367v-557h-465zM539 1870h344l219 -328h-266l-125 144l-125 -144h-267z" />
    <glyph glyph-name="hcircumflex" unicode="&#x125;" 
d="M53 0v1505h451v-522q90 176 313 176q176 0 279.5 -113.5t103.5 -316.5v-729h-450v594q0 109 -25 153t-92 44q-65 0 -97 -45.5t-32 -151.5v-594h-451zM106 1911h345l219 -328h-267l-124 143l-125 -143h-267z" />
    <glyph glyph-name="Hbar" unicode="&#x126;" horiz-adv-x="1615" 
d="M37 1055v266h123v143h465v-143h366v143h465v-143h123v-266h-123v-1055h-465v557h-366v-557h-465v1055h-123zM625 922h366v133h-366v-133z" />
    <glyph glyph-name="hbar" unicode="&#x127;" horiz-adv-x="1335" 
d="M37 1178v245h102v82h451v-82h229v-245h-229v-195q90 176 313 176q176 0 279.5 -113.5t103.5 -316.5v-729h-450v594q0 109 -25 153t-92 44q-65 0 -97 -45.5t-32 -151.5v-594h-451v1178h-102z" />
    <glyph glyph-name="Itilde" unicode="&#x128;" horiz-adv-x="587" 
d="M61 0v1464h465v-1464h-465zM109 1534h-138q0 175 44.5 259.5t138.5 84.5q61 0 149 -47q80 -41 121 -41q65 0 65 78h134q0 -183 -41.5 -263.5t-137.5 -80.5q-69 0 -165 51q-80 37 -113 37q-34 0 -45.5 -20t-11.5 -58z" />
    <glyph glyph-name="itilde" unicode="&#x129;" horiz-adv-x="577" 
d="M63 0v1128h451v-1128h-451zM102 1198h-137q0 175 44.5 259.5t137.5 84.5q62 0 150 -47q80 -41 121 -41q65 0 65 78h133q0 -183 -41 -263.5t-137 -80.5q-70 0 -166 51q-80 37 -112 37q-34 0 -46 -20.5t-12 -57.5z" />
    <glyph glyph-name="Imacron" unicode="&#x12a;" horiz-adv-x="587" 
d="M61 0v1464h465v-1464h-465zM-20 1554v246h634v-246h-634z" />
    <glyph glyph-name="imacron" unicode="&#x12b;" horiz-adv-x="577" 
d="M63 0v1128h451v-1128h-451zM-27 1219v245h635v-245h-635z" />
    <glyph glyph-name="Ibreve" unicode="&#x12c;" horiz-adv-x="587" 
d="M61 0v1464h465v-1464h-465zM-23 1868h226q13 -99 94 -99t94 99h225q-6 -163 -89.5 -250.5t-229.5 -87.5t-230 87.5t-90 250.5z" />
    <glyph glyph-name="ibreve" unicode="&#x12d;" horiz-adv-x="577" 
d="M63 0v1128h451v-1128h-451zM-29 1532h226q13 -98 94 -98t94 98h225q-6 -163 -89.5 -250.5t-229.5 -87.5t-230 87.5t-90 250.5z" />
    <glyph glyph-name="Iogonek" unicode="&#x12e;" horiz-adv-x="587" 
d="M61 0v1464h465v-1464q-101 -7 -157 -27t-56 -47q0 -39 131 -39q44 0 84 7v-267q-63 -8 -129 -8q-148 0 -242 50t-94 141q0 137 226 190h-228z" />
    <glyph glyph-name="iogonek" unicode="&#x12f;" horiz-adv-x="557" 
d="M53 0v1128h451v-1116l6 -12q-101 -7 -157 -27t-56 -47q0 -39 131 -39q44 0 84 7v-267q-63 -8 -129 -8q-148 0 -242 50t-94 141q0 138 225 190h-219zM53 1190v315h451v-315h-451z" />
    <glyph glyph-name="Idotaccent" unicode="&#x130;" horiz-adv-x="587" 
d="M61 0v1464h465v-1464h-465zM129 1536v295h336v-295h-336z" />
    <glyph glyph-name="dotlessi" unicode="&#x131;" horiz-adv-x="577" 
d="M63 0v1128h451v-1128h-451z" />
    <glyph glyph-name="IJ" unicode="&#x132;" horiz-adv-x="1888" 
d="M61 0v1464h465v-1464h-465zM616 606h465q6 -149 39 -208.5t107 -59.5q65 0 100 44.5t35 154.5v927h465v-925q0 -273 -160 -421.5t-442 -148.5q-154 0 -269 45.5t-187.5 131t-110 200t-42.5 260.5z" />
    <glyph glyph-name="ij" unicode="&#x133;" horiz-adv-x="1114" 
d="M53 0v1128h451v-1128h-451zM53 1190v315h451v-315h-451zM453 -365v328q35 -6 63 -6q46 0 70 24.5t24 90.5v1056h451v-972q0 -295 -108 -413t-378 -118q-60 0 -122 10zM610 1190v315h451v-315h-451z" />
    <glyph glyph-name="Jcircumflex" unicode="&#x134;" horiz-adv-x="1300" 
d="M29 606h465q6 -150 38.5 -209t106.5 -59q65 0 100 44.5t35 154.5v927h465v-925q0 -273 -160 -421.5t-442 -148.5q-154 0 -269 45.5t-187 131t-109.5 200t-42.5 260.5zM836 1870h344l219 -328h-266l-125 144l-125 -144h-267z" />
    <glyph glyph-name="jcircumflex" unicode="&#x135;" horiz-adv-x="557" 
d="M-104 -365v328q35 -6 63 -6q46 0 70 24.5t24 90.5v1056h451v-972q0 -295 -108 -413t-378 -118q-60 0 -122 10zM106 1534h345l219 -328h-267l-124 144l-125 -144h-267z" />
    <glyph glyph-name="uni0136" unicode="&#x136;" horiz-adv-x="1429" 
d="M63 0v1464h465v-432l349 432h553l-515 -616l545 -848h-532l-320 524l-80 -92v-432h-465zM444 -428v4l84 344h400v-4l-176 -344h-308z" />
    <glyph glyph-name="uni0137" unicode="&#x137;" horiz-adv-x="1300" 
d="M53 0v1505h451v-659l270 282h551l-446 -444l456 -684h-518l-254 420l-59 -62v-358h-451zM358 -428v4l84 344h400v-4l-176 -344h-308z" />
    <glyph glyph-name="kgreenlandic" unicode="&#x138;" horiz-adv-x="1226" 
d="M53 1464h1209v-1464h-1209v1464zM788 731l166 -237v475zM360 492l166 239l-166 242v-481zM659 922l220 315h-441zM438 227h439l-220 316z" />
    <glyph glyph-name="Lacute" unicode="&#x139;" horiz-adv-x="1208" 
d="M61 0v1464h465v-1095h643v-369h-1108zM139 1544l166 328h400l-259 -328h-307z" />
    <glyph glyph-name="lacute" unicode="&#x13a;" horiz-adv-x="557" 
d="M53 0v1505h451v-1505h-451zM125 1585l166 328h399l-258 -328h-307z" />
    <glyph glyph-name="uni013B" unicode="&#x13b;" horiz-adv-x="1208" 
d="M61 0v1464h465v-1095h643v-369h-1108zM332 -428v4l84 344h399v-4l-176 -344h-307z" />
    <glyph glyph-name="uni013C" unicode="&#x13c;" horiz-adv-x="557" 
d="M53 0v1505h451v-1505h-451zM-8 -428v4l84 344h399v-4l-176 -344h-307z" />
    <glyph glyph-name="Lcaron" unicode="&#x13d;" horiz-adv-x="1208" 
d="M61 0v1464h465v-1095h643v-369h-1108zM1135 1464l-80 -571h-226l39 571h267z" />
    <glyph glyph-name="lcaron" unicode="&#x13e;" horiz-adv-x="888" 
d="M53 0v1505h451v-1505h-451zM877 1505l-80 -571h-226l39 571h267z" />
    <glyph glyph-name="Ldot" unicode="&#x13f;" horiz-adv-x="1208" 
d="M61 0v1464h465v-1095h643v-369h-1108zM768 707v286h319v-286h-319z" />
    <glyph glyph-name="ldot" unicode="&#x140;" horiz-adv-x="919" 
d="M53 0v1505h451v-1505h-451zM586 631v287h319v-287h-319z" />
    <glyph glyph-name="Lslash" unicode="&#x141;" horiz-adv-x="1327" 
d="M37 408v297l143 63v696h465v-487l250 113v-297l-250 -113v-311h643v-369h-1108v471z" />
    <glyph glyph-name="lslash" unicode="&#x142;" horiz-adv-x="749" 
d="M37 399v297l113 52v757h450v-551l113 52v-297l-113 -52v-657h-450v451z" />
    <glyph glyph-name="Nacute" unicode="&#x143;" horiz-adv-x="1482" 
d="M63 0v1464h488l405 -759v759h465v-1464h-495l-398 709v-709h-465zM588 1544l166 328h399l-258 -328h-307z" />
    <glyph glyph-name="nacute" unicode="&#x144;" 
d="M53 0v1128h420l8 -202q76 233 336 233q176 0 279.5 -113.5t103.5 -316.5v-729h-450v594q0 109 -25 153t-92 44q-65 0 -97 -45.5t-32 -151.5v-594h-451zM473 1208l166 328h399l-258 -328h-307z" />
    <glyph glyph-name="uni0145" unicode="&#x145;" horiz-adv-x="1482" 
d="M63 0v1464h488l405 -759v759h465v-1464h-495l-398 709v-709h-465zM442 -428v4l84 344h400v-4l-176 -344h-308z" />
    <glyph glyph-name="uni0146" unicode="&#x146;" 
d="M53 0v1128h420l8 -202q76 233 336 233q176 0 279.5 -113.5t103.5 -316.5v-729h-450v594q0 109 -25 153t-92 44q-65 0 -97 -45.5t-32 -151.5v-594h-451zM340 -428v4l84 344h399v-4l-176 -344h-307z" />
    <glyph glyph-name="Ncaron" unicode="&#x147;" horiz-adv-x="1482" 
d="M63 0v1464h488l405 -759v759h465v-1464h-495l-398 709v-709h-465zM569 1542l-219 328h266l125 -144l125 144h267l-220 -328h-344z" />
    <glyph glyph-name="ncaron" unicode="&#x148;" 
d="M53 0v1128h420l8 -202q76 233 336 233q176 0 279.5 -113.5t103.5 -316.5v-729h-450v594q0 109 -25 153t-92 44q-65 0 -97 -45.5t-32 -151.5v-594h-451zM455 1206l-219 328h266l125 -143l125 143h266l-219 -328h-344z" />
    <glyph glyph-name="Omacron" unicode="&#x14c;" horiz-adv-x="1622" 
d="M512 731q0 -188 80 -290.5t219 -102.5t219 102.5t80 290.5q0 189 -80 292t-219 103t-219 -103t-80 -292zM37 731q0 234 96 407t271.5 265t408.5 92q354 0 563 -205t209 -559q0 -353 -208.5 -557.5t-563.5 -204.5t-565.5 204.5t-210.5 557.5zM496 1554v246h634v-246h-634z
" />
    <glyph glyph-name="omacron" unicode="&#x14d;" horiz-adv-x="1359" 
d="M492 565q0 -120 48.5 -184t139.5 -64t139.5 64t48.5 184q0 117 -49 181.5t-139 64.5t-139 -64.5t-49 -181.5zM37 565q0 266 176.5 430t466.5 164t466.5 -164t176.5 -430q0 -269 -176.5 -432.5t-466.5 -163.5t-466.5 163.5t-176.5 432.5zM362 1219v245h635v-245h-635z" />
    <glyph glyph-name="Obreve" unicode="&#x14e;" horiz-adv-x="1622" 
d="M512 731q0 -188 80 -290.5t219 -102.5t219 102.5t80 290.5q0 189 -80 292t-219 103t-219 -103t-80 -292zM37 731q0 234 96 407t271.5 265t408.5 92q354 0 563 -205t209 -559q0 -353 -208.5 -557.5t-563.5 -204.5t-565.5 204.5t-210.5 557.5zM494 1868h225q13 -99 94 -99
t94 99h226q-6 -163 -90 -250.5t-230 -87.5t-229.5 87.5t-89.5 250.5z" />
    <glyph glyph-name="obreve" unicode="&#x14f;" horiz-adv-x="1359" 
d="M492 565q0 -120 48.5 -184t139.5 -64t139.5 64t48.5 184q0 117 -49 181.5t-139 64.5t-139 -64.5t-49 -181.5zM37 565q0 266 176.5 430t466.5 164t466.5 -164t176.5 -430q0 -269 -176.5 -432.5t-466.5 -163.5t-466.5 163.5t-176.5 432.5zM360 1532h226q13 -98 94 -98
t94 98h225q-6 -163 -89.5 -250.5t-229.5 -87.5t-230 87.5t-90 250.5z" />
    <glyph glyph-name="Ohungarumlaut" unicode="&#x150;" horiz-adv-x="1622" 
d="M512 731q0 -188 80 -290.5t219 -102.5t219 102.5t80 290.5q0 189 -80 292t-219 103t-219 -103t-80 -292zM37 731q0 234 96 407t271.5 265t408.5 92q354 0 563 -205t209 -559q0 -353 -208.5 -557.5t-563.5 -204.5t-565.5 204.5t-210.5 557.5zM793 1544h-291l108 328h336z
M1139 1544h-291l149 328h336z" />
    <glyph glyph-name="ohungarumlaut" unicode="&#x151;" horiz-adv-x="1359" 
d="M492 565q0 -120 48.5 -184t139.5 -64t139.5 64t48.5 184q0 117 -49 181.5t-139 64.5t-139 -64.5t-49 -181.5zM37 565q0 266 176.5 430t466.5 164t466.5 -164t176.5 -430q0 -269 -176.5 -432.5t-466.5 -163.5t-466.5 163.5t-176.5 432.5zM659 1208h-290l108 328h336z
M1006 1208h-291l149 328h336z" />
    <glyph glyph-name="OE" unicode="&#x152;" horiz-adv-x="2131" 
d="M37 729q0 354 207 544.5t592 190.5h1237v-368h-676v-178h635v-365h-635v-184h684v-369h-1245q-386 0 -592.5 188t-206.5 541zM932 369v727h-84q-173 0 -253.5 -89t-80.5 -274q0 -186 80.5 -275t253.5 -89h84z" />
    <glyph glyph-name="oe" unicode="&#x153;" horiz-adv-x="2172" 
d="M494 565q0 -120 48.5 -184t139.5 -64t139.5 64t48.5 184q0 117 -49 181.5t-139 64.5t-139 -64.5t-49 -181.5zM1333 657h359q-15 84 -61 129t-118 45t-118.5 -45t-61.5 -129zM39 565q0 266 176.5 430t466.5 164q248 0 416 -123q168 123 415 123q290 0 456.5 -164.5
t166.5 -441.5v-82h-803q15 -83 61.5 -128.5t116.5 -45.5q102 0 150 92h473q-53 -195 -218 -307.5t-403 -112.5q-246 0 -415 121q-169 -121 -416 -121q-290 0 -466.5 163.5t-176.5 432.5z" />
    <glyph glyph-name="Racute" unicode="&#x154;" horiz-adv-x="1433" 
d="M61 0v1464h693q614 0 614 -495q0 -316 -252 -432l295 -537h-534l-215 473h-136v-473h-465zM526 821h207q164 0 164 137q0 138 -164 138h-207v-275zM481 1544l166 328h400l-259 -328h-307z" />
    <glyph glyph-name="racute" unicode="&#x155;" horiz-adv-x="903" 
d="M53 0v1128h420l10 -249q37 131 103.5 190t175.5 59h115v-450h-125q-141 0 -194.5 -43t-53.5 -160v-475h-451zM299 1208l166 328h399l-258 -328h-307z" />
    <glyph glyph-name="uni0156" unicode="&#x156;" horiz-adv-x="1433" 
d="M61 0v1464h693q614 0 614 -495q0 -316 -252 -432l295 -537h-534l-215 473h-136v-473h-465zM526 821h207q164 0 164 137q0 138 -164 138h-207v-275zM414 -428v4l84 344h399v-4l-176 -344h-307z" />
    <glyph glyph-name="uni0157" unicode="&#x157;" horiz-adv-x="903" 
d="M53 0v1128h420l10 -249q37 131 103.5 190t175.5 59h115v-450h-125q-141 0 -194.5 -43t-53.5 -160v-475h-451zM-6 -428v4l84 344h399v-4l-176 -344h-307z" />
    <glyph glyph-name="Rcaron" unicode="&#x158;" horiz-adv-x="1433" 
d="M61 0v1464h693q614 0 614 -495q0 -316 -252 -432l295 -537h-534l-215 473h-136v-473h-465zM526 821h207q164 0 164 137q0 138 -164 138h-207v-275zM463 1542l-219 328h266l125 -144l125 144h266l-219 -328h-344z" />
    <glyph glyph-name="rcaron" unicode="&#x159;" horiz-adv-x="903" 
d="M53 0v1128h420l10 -249q37 131 103.5 190t175.5 59h115v-450h-125q-141 0 -194.5 -43t-53.5 -160v-475h-451zM281 1206l-220 328h267l125 -143l125 143h266l-219 -328h-344z" />
    <glyph glyph-name="Sacute" unicode="&#x15a;" horiz-adv-x="1347" 
d="M12 528h482q21 -198 202 -198q71 0 112.5 24.5t41.5 73.5q0 34 -16.5 54.5t-73.5 42t-170 44.5q-152 30 -251.5 66t-168 90t-98 127.5t-29.5 177.5q0 210 164 337.5t450 127.5q306 0 472.5 -150t177.5 -399h-480q-8 88 -52.5 138.5t-117.5 50.5q-65 0 -102 -27t-37 -72
q0 -52 54 -81t194 -52q162 -27 272.5 -69.5t172.5 -102t88 -128.5t26 -161q0 -219 -167 -346t-462 -127q-323 0 -499 149t-185 410zM514 1544l166 328h399l-258 -328h-307z" />
    <glyph glyph-name="sacute" unicode="&#x15b;" horiz-adv-x="1198" 
d="M23 395h442q9 -139 141 -139q51 0 80 19t29 51q0 23 -15 38.5t-52 27t-70.5 17.5t-98.5 15q-46 7 -80.5 13t-83.5 19.5t-84 29.5t-73.5 43.5t-62.5 61t-40 81.5t-16 106q0 178 139 279.5t408 101.5q525 0 563 -422h-442q-12 135 -127 135q-46 0 -67 -18.5t-21 -46.5
q0 -20 11.5 -35.5t28 -25t49 -18.5t60.5 -14t76 -12q50 -7 83 -12.5t85 -18.5t87 -29t75.5 -43.5t64.5 -61t40.5 -82.5t16.5 -109q0 -185 -145 -281t-416 -96q-561 0 -585 426zM432 1208l166 328h399l-258 -328h-307z" />
    <glyph glyph-name="Scircumflex" unicode="&#x15c;" horiz-adv-x="1347" 
d="M12 528h482q21 -198 202 -198q71 0 112.5 24.5t41.5 73.5q0 34 -16.5 54.5t-73.5 42t-170 44.5q-152 30 -251.5 66t-168 90t-98 127.5t-29.5 177.5q0 210 164 337.5t450 127.5q306 0 472.5 -150t177.5 -399h-480q-8 88 -52.5 138.5t-117.5 50.5q-65 0 -102 -27t-37 -72
q0 -52 54 -81t194 -52q162 -27 272.5 -69.5t172.5 -102t88 -128.5t26 -161q0 -219 -167 -346t-462 -127q-323 0 -499 149t-185 410zM496 1870h344l219 -328h-266l-125 144l-125 -144h-267z" />
    <glyph glyph-name="scircumflex" unicode="&#x15d;" horiz-adv-x="1198" 
d="M23 395h442q9 -139 141 -139q51 0 80 19t29 51q0 23 -15 38.5t-52 27t-70.5 17.5t-98.5 15q-46 7 -80.5 13t-83.5 19.5t-84 29.5t-73.5 43.5t-62.5 61t-40 81.5t-16 106q0 178 139 279.5t408 101.5q525 0 563 -422h-442q-12 135 -127 135q-46 0 -67 -18.5t-21 -46.5
q0 -20 11.5 -35.5t28 -25t49 -18.5t60.5 -14t76 -12q50 -7 83 -12.5t85 -18.5t87 -29t75.5 -43.5t64.5 -61t40.5 -82.5t16.5 -109q0 -185 -145 -281t-416 -96q-561 0 -585 426zM414 1534h344l219 -328h-266l-125 144l-125 -144h-266z" />
    <glyph glyph-name="Scedilla" unicode="&#x15e;" horiz-adv-x="1347" 
d="M506 -307l53 117q120 -66 199 -66q82 0 82 51q0 24 -20 37.5t-58 13.5q-37 0 -68 -14l-108 43l30 96q-286 20 -440.5 166t-163.5 391h482q21 -198 202 -198q71 0 112.5 24.5t41.5 73.5q0 34 -16.5 54.5t-73.5 42t-170 44.5q-152 30 -251.5 66t-168 90t-98 127.5
t-29.5 177.5q0 210 164 337.5t450 127.5q306 0 472.5 -150t177.5 -399h-480q-8 88 -52.5 138.5t-117.5 50.5q-65 0 -102 -27t-37 -72q0 -52 54 -81t194 -52q162 -27 272.5 -69.5t172.5 -102t88 -128.5t26 -161q0 -207 -148.5 -332.5t-414.5 -138.5l-17 -49q57 23 113 23
q80 0 132 -44.5t52 -111.5q0 -81 -74.5 -135.5t-185.5 -54.5q-140 0 -276 94z" />
    <glyph glyph-name="scedilla" unicode="&#x15f;" horiz-adv-x="1198" 
d="M418 -307l53 117q120 -66 199 -66q82 0 82 51q0 24 -20 37.5t-58 13.5q-36 0 -68 -14l-108 43l30 96q-484 29 -505 424h442q9 -139 141 -139q51 0 80 19t29 51q0 23 -15 38.5t-52 27t-70.5 17.5t-98.5 15q-46 7 -80.5 13t-83.5 19.5t-84 29.5t-73.5 43.5t-62.5 61
t-40 81.5t-16 106q0 178 139 279.5t408 101.5q525 0 563 -422h-442q-12 135 -127 135q-46 0 -67 -18.5t-21 -46.5q0 -20 11.5 -35.5t28 -25t49 -18.5t60.5 -14t76 -12q50 -7 83 -12.5t85 -18.5t87 -29t75.5 -43.5t64.5 -61t40.5 -82.5t16.5 -109q0 -172 -128 -268t-367 -107
l-17 -49q57 23 113 23q80 0 132 -44.5t52 -111.5q0 -81 -74.5 -135.5t-185.5 -54.5q-140 0 -276 94z" />
    <glyph glyph-name="Scaron" unicode="&#x160;" horiz-adv-x="1347" 
d="M12 528h482q21 -198 202 -198q71 0 112.5 24.5t41.5 73.5q0 34 -16.5 54.5t-73.5 42t-170 44.5q-152 30 -251.5 66t-168 90t-98 127.5t-29.5 177.5q0 210 164 337.5t450 127.5q306 0 472.5 -150t177.5 -399h-480q-8 88 -52.5 138.5t-117.5 50.5q-65 0 -102 -27t-37 -72
q0 -52 54 -81t194 -52q162 -27 272.5 -69.5t172.5 -102t88 -128.5t26 -161q0 -219 -167 -346t-462 -127q-323 0 -499 149t-185 410zM496 1542l-220 328h267l125 -144l125 144h266l-219 -328h-344z" />
    <glyph glyph-name="scaron" unicode="&#x161;" horiz-adv-x="1198" 
d="M23 395h442q9 -139 141 -139q51 0 80 19t29 51q0 23 -15 38.5t-52 27t-70.5 17.5t-98.5 15q-46 7 -80.5 13t-83.5 19.5t-84 29.5t-73.5 43.5t-62.5 61t-40 81.5t-16 106q0 178 139 279.5t408 101.5q525 0 563 -422h-442q-12 135 -127 135q-46 0 -67 -18.5t-21 -46.5
q0 -20 11.5 -35.5t28 -25t49 -18.5t60.5 -14t76 -12q50 -7 83 -12.5t85 -18.5t87 -29t75.5 -43.5t64.5 -61t40.5 -82.5t16.5 -109q0 -185 -145 -281t-416 -96q-561 0 -585 426zM414 1206l-219 328h266l125 -143l125 143h266l-219 -328h-344z" />
    <glyph glyph-name="uni0162" unicode="&#x162;" horiz-adv-x="1363" 
d="M449 0v1096h-422v368h1310v-368h-424v-1096h-153l-27 -78q57 23 113 23q80 0 132 -44.5t52 -111.5q0 -81 -74.5 -135.5t-185.5 -54.5q-140 0 -276 94l53 117q120 -66 198 -66q82 0 82 51t-77 51q-36 0 -68 -14l-109 43l39 125h-163z" />
    <glyph glyph-name="uni0163" unicode="&#x163;" horiz-adv-x="962" 
d="M174 457v323h-143v348h143v261h451v-261h307v-348h-307v-291q0 -48 13.5 -79t39.5 -45.5t53 -19.5t66 -5q67 0 135 12v-348q-169 -35 -301 -35q-26 0 -80 4l-16 -51q57 23 112 23q80 0 132 -44.5t52 -111.5q0 -81 -74.5 -135.5t-185.5 -54.5q-140 0 -276 94l53 117
q120 -66 199 -66q82 0 82 51q0 24 -20 37.5t-58 13.5q-37 0 -68 -14l-108 43l41 127q-122 45 -182 156t-60 299z" />
    <glyph glyph-name="Tcaron" unicode="&#x164;" horiz-adv-x="1363" 
d="M449 0v1096h-422v368h1310v-368h-424v-1096h-464zM512 1542l-219 328h266l125 -144l125 144h266l-219 -328h-344z" />
    <glyph glyph-name="tcaron" unicode="&#x165;" horiz-adv-x="983" 
d="M174 457v323h-143v348h143v261h451v-261h307v-348h-307v-291q0 -48 13.5 -79t39.5 -45.5t53 -19.5t66 -5q67 0 135 12v-348q-169 -35 -301 -35q-232 0 -344.5 116t-112.5 372zM1034 1638l-59 -407h-227l20 407h266z" />
    <glyph glyph-name="Tbar" unicode="&#x166;" horiz-adv-x="1363" 
d="M1180 727v-276h-267v-451h-464v451h-267v276h267v369h-424v368h1312v-368h-424v-369h267z" />
    <glyph glyph-name="tbar" unicode="&#x167;" horiz-adv-x="995" 
d="M45 483v246h143v51h-143v348h143v261h451v-261h307v-348h-307v-51h307v-246h-307v-12q0 -78 45.5 -104.5t126.5 -26.5q67 0 135 12v-348q-169 -35 -301 -35q-232 0 -344.5 116t-112.5 372v26h-143z" />
    <glyph glyph-name="Utilde" unicode="&#x168;" horiz-adv-x="1454" 
d="M61 559v905h465v-889q0 -237 201 -237t201 237v889h465v-905q0 -276 -179.5 -433t-488.5 -157q-304 0 -484 157.5t-180 432.5zM539 1534h-138q0 175 44.5 259.5t138.5 84.5q61 0 149 -47q80 -41 121 -41q66 0 66 78h133q0 -183 -41.5 -263.5t-137.5 -80.5q-69 0 -165 51
q-80 37 -113 37q-34 0 -45.5 -20t-11.5 -58z" />
    <glyph glyph-name="utilde" unicode="&#x169;" 
d="M49 399v729h451v-593q0 -109 25 -153t91 -44q65 0 97 45.5t32 151.5v593h451v-1128h-420l-8 203q-77 -234 -336 -234q-176 0 -279.5 113.5t-103.5 316.5zM434 1198h-137q0 175 44.5 259.5t137.5 84.5q62 0 150 -47q80 -41 121 -41q65 0 65 78h133q0 -183 -41 -263.5
t-137 -80.5q-70 0 -166 51q-80 37 -112 37q-34 0 -46 -20.5t-12 -57.5z" />
    <glyph glyph-name="Umacron" unicode="&#x16a;" horiz-adv-x="1454" 
d="M61 559v905h465v-889q0 -237 201 -237t201 237v889h465v-905q0 -276 -179.5 -433t-488.5 -157q-304 0 -484 157.5t-180 432.5zM410 1554v246h634v-246h-634z" />
    <glyph glyph-name="umacron" unicode="&#x16b;" 
d="M49 399v729h451v-593q0 -109 25 -153t91 -44q65 0 97 45.5t32 151.5v593h451v-1128h-420l-8 203q-77 -234 -336 -234q-176 0 -279.5 113.5t-103.5 316.5zM305 1219v245h635v-245h-635z" />
    <glyph glyph-name="Ubreve" unicode="&#x16c;" horiz-adv-x="1454" 
d="M61 559v905h465v-889q0 -237 201 -237t201 237v889h465v-905q0 -276 -179.5 -433t-488.5 -157q-304 0 -484 157.5t-180 432.5zM408 1868h225q13 -99 94 -99t94 99h226q-6 -163 -90 -250.5t-230 -87.5t-229.5 87.5t-89.5 250.5z" />
    <glyph glyph-name="ubreve" unicode="&#x16d;" 
d="M49 399v729h451v-593q0 -109 25 -153t91 -44q65 0 97 45.5t32 151.5v593h451v-1128h-420l-8 203q-77 -234 -336 -234q-176 0 -279.5 113.5t-103.5 316.5zM303 1532h225q13 -98 95 -98q81 0 94 98h225q-6 -163 -89.5 -250.5t-229.5 -87.5t-230 87.5t-90 250.5z" />
    <glyph glyph-name="Uring" unicode="&#x16e;" horiz-adv-x="1454" 
d="M61 559v905h465v-889q0 -237 201 -237t201 237v889h465v-905q0 -276 -179.5 -433t-488.5 -157q-304 0 -484 157.5t-180 432.5zM664 1753q0 -29 16 -47t47 -18q30 0 45.5 18t15.5 47t-15.5 47.5t-45.5 18.5q-31 0 -47 -18.5t-16 -47.5zM485 1755q0 96 67.5 158.5
t174.5 62.5q105 0 172.5 -62.5t67.5 -158.5q0 -97 -67.5 -161t-172.5 -64q-107 0 -174.5 64t-67.5 161z" />
    <glyph glyph-name="uring" unicode="&#x16f;" 
d="M49 399v729h451v-593q0 -109 25 -153t91 -44q65 0 97 45.5t32 151.5v593h451v-1128h-420l-8 203q-77 -234 -336 -234q-176 0 -279.5 113.5t-103.5 316.5zM559 1417q0 -29 16.5 -47t47.5 -18q30 0 45.5 18t15.5 47t-15.5 47.5t-45.5 18.5q-31 0 -47.5 -18.5t-16.5 -47.5z
M381 1419q0 96 67.5 158.5t174.5 62.5q105 0 172 -62.5t67 -158.5q0 -97 -67 -161t-172 -64q-107 0 -174.5 64t-67.5 161z" />
    <glyph glyph-name="Uhungarumlaut" unicode="&#x170;" horiz-adv-x="1454" 
d="M61 559v905h465v-889q0 -237 201 -237t201 237v889h465v-905q0 -276 -179.5 -433t-488.5 -157q-304 0 -484 157.5t-180 432.5zM707 1544h-291l108 328h336zM1053 1544h-291l149 328h336z" />
    <glyph glyph-name="uhungarumlaut" unicode="&#x171;" 
d="M49 399v729h451v-593q0 -109 25 -153t91 -44q65 0 97 45.5t32 151.5v593h451v-1128h-420l-8 203q-77 -234 -336 -234q-176 0 -279.5 113.5t-103.5 316.5zM602 1208h-291l109 328h336zM948 1208h-291l150 328h336z" />
    <glyph glyph-name="Uogonek" unicode="&#x172;" horiz-adv-x="1454" 
d="M61 559v905h465v-889q0 -237 201 -237t201 237v889h465v-905q0 -167 -68.5 -293t-196.5 -200q-46 -34 -78 -74t-32 -70q0 -28 32 -41.5t107 -13.5q39 0 86 6v-264q-61 -10 -131 -10q-153 0 -244.5 51t-91.5 137q0 108 158 205q-104 -23 -209 -23q-304 0 -484 157.5
t-180 432.5z" />
    <glyph glyph-name="uogonek" unicode="&#x173;" 
d="M49 399v729h451v-593q0 -109 25 -153t91 -44q65 0 97 45.5t32 151.5v593h451v-1128q-101 -7 -157 -27t-56 -47q0 -39 131 -39q44 0 84 7v-267q-63 -8 -129 -8q-148 0 -242 50t-94 141q0 138 225 190h-182l-8 203q-77 -234 -336 -234q-176 0 -279.5 113.5t-103.5 316.5z
" />
    <glyph glyph-name="Wcircumflex" unicode="&#x174;" horiz-adv-x="2107" 
d="M338 0l-369 1464h496l166 -927l174 927h500l172 -927l163 927h496l-364 -1464h-533l-184 829l-185 -829h-532zM881 1870h344l219 -328h-266l-125 144l-125 -144h-266z" />
    <glyph glyph-name="wcircumflex" unicode="&#x175;" horiz-adv-x="1882" 
d="M276 0l-307 1128h475l125 -714l144 714h458l142 -714l123 714h475l-303 -1128h-512l-154 639l-154 -639h-512zM772 1534h344l219 -328h-266l-125 144l-125 -144h-266z" />
    <glyph glyph-name="Ycircumflex" unicode="&#x176;" horiz-adv-x="1411" 
d="M475 0v483l-504 981h518l220 -553l215 553h518l-502 -981v-483h-465zM537 1870h344l219 -328h-266l-125 144l-125 -144h-267z" />
    <glyph glyph-name="ycircumflex" unicode="&#x177;" horiz-adv-x="1198" 
d="M-2 -377v357q83 -17 147 -17q115 0 174 49l-350 1116h471l164 -708l154 708h471l-328 -1077q-135 -446 -647 -446q-145 0 -256 18zM426 1534h344l219 -328h-266l-125 144l-125 -144h-266z" />
    <glyph glyph-name="Ydieresis" unicode="&#x178;" horiz-adv-x="1411" 
d="M475 0v483l-504 981h518l220 -553l215 553h518l-502 -981v-483h-465zM342 1536v295h336v-295h-336zM752 1536v295h335v-295h-335z" />
    <glyph glyph-name="Zacute" unicode="&#x179;" horiz-adv-x="1359" 
d="M61 0v350l637 746h-608v368h1186v-350l-658 -745h680v-369h-1237zM526 1544l166 328h400l-258 -328h-308z" />
    <glyph glyph-name="zacute" unicode="&#x17a;" horiz-adv-x="1247" 
d="M59 0v336l498 444h-467v348h1084v-333l-515 -447h531v-348h-1131zM471 1208l166 328h399l-258 -328h-307z" />
    <glyph glyph-name="Zdotaccent" unicode="&#x17b;" horiz-adv-x="1359" 
d="M61 0v350l637 746h-608v368h1186v-350l-658 -745h680v-369h-1237zM512 1536v295h336v-295h-336z" />
    <glyph glyph-name="zdotaccent" unicode="&#x17c;" horiz-adv-x="1247" 
d="M59 0v336l498 444h-467v348h1084v-333l-515 -447h531v-348h-1131zM457 1200v295h336v-295h-336z" />
    <glyph glyph-name="Zcaron" unicode="&#x17d;" horiz-adv-x="1359" 
d="M61 0v350l637 746h-608v368h1186v-350l-658 -745h680v-369h-1237zM508 1542l-219 328h266l125 -144l125 144h266l-219 -328h-344z" />
    <glyph glyph-name="zcaron" unicode="&#x17e;" horiz-adv-x="1247" 
d="M59 0v336l498 444h-467v348h1084v-333l-515 -447h531v-348h-1131zM453 1206l-220 328h267l125 -143l125 143h266l-219 -328h-344z" />
    <glyph glyph-name="florin" unicode="&#x192;" horiz-adv-x="1052" 
d="M31 -403v327q52 -8 125 -8q83 0 114 18t31 64v782h-164v348h164v41q0 198 124.5 296t377.5 98q99 0 219 -15v-327q-52 8 -125 8q-83 0 -114 -18t-31 -64v-19h266v-348h-266v-805q0 -198 -124.5 -295.5t-377.5 -97.5q-99 0 -219 15z" />
    <glyph glyph-name="AEacute" unicode="&#x1fc;" horiz-adv-x="2070" 
d="M680 571h190v449h-20zM870 0v219h-325l-84 -219h-490l596 1464h1444v-368h-676v-178h635v-365h-635v-184h684v-369h-1149zM1251 1544l166 328h400l-258 -328h-308z" />
    <glyph glyph-name="aeacute" unicode="&#x1fd;" horiz-adv-x="2095" 
d="M483 362q0 -86 113 -86q91 0 144 58t53 166v18l-193 -49q-58 -14 -87.5 -39t-29.5 -68zM1255 657h359q-15 84 -60.5 129t-117.5 45t-119 -45.5t-62 -128.5zM29 279q0 147 100.5 227.5t306.5 124.5l357 76v6q0 70 -38 104.5t-108 34.5q-76 0 -110 -40.5t-37 -121.5h-451
q10 126 59 218.5t130.5 146.5t182 79t224.5 25q257 0 404 -102q158 102 387 102q290 0 456 -164.5t166 -441.5v-82h-803q15 -83 61.5 -128.5t117.5 -45.5q101 0 149 92h473q-53 -195 -217.5 -307.5t-402.5 -112.5q-197 0 -345.5 78.5t-226.5 218.5q-49 -137 -161.5 -217
t-296.5 -80q-56 0 -107.5 9t-101.5 31.5t-86.5 57t-59 89t-22.5 123.5zM895 1208l166 328h399l-258 -328h-307z" />
    <glyph glyph-name="Oslashacute" unicode="&#x1fe;" horiz-adv-x="1622" 
d="M102 -31l148 203q-213 207 -213 559q0 234 96 407t271.5 265t408.5 92q207 0 369 -72l53 72h287l-148 -203q211 -205 211 -561q0 -353 -208.5 -557.5t-563.5 -204.5q-209 0 -371 72l-53 -72h-287zM506 514l459 619q-67 34 -154 34q-158 0 -249 -113.5t-91 -322.5
q0 -124 35 -217zM1118 948l-461 -616q68 -35 154 -35q159 0 249.5 113t90.5 321q0 116 -33 217zM657 1544l166 328h400l-258 -328h-308z" />
    <glyph glyph-name="oslashacute" unicode="&#x1ff;" horiz-adv-x="1359" 
d="M119 -31l108 150q-92 79 -141 192.5t-49 253.5q0 266 176.5 430t466.5 164q145 0 272 -45l33 45h256l-108 -151q92 -79 141 -193t49 -252q0 -267 -176.5 -430.5t-466.5 -163.5q-148 0 -272 45l-35 -45h-254zM465 446l289 396q-38 10 -74 10q-110 0 -169.5 -75.5
t-59.5 -211.5q0 -70 14 -119zM895 682l-289 -395q42 -11 74 -11q109 0 169 75.5t60 211.5q0 70 -14 119zM528 1208l166 328h400l-258 -328h-308z" />
    <glyph glyph-name="uni0218" unicode="&#x218;" horiz-adv-x="1347" 
d="M12 528h482q21 -198 202 -198q71 0 112.5 24.5t41.5 73.5q0 34 -16.5 54.5t-73.5 42t-170 44.5q-152 30 -251.5 66t-168 90t-98 127.5t-29.5 177.5q0 210 164 337.5t450 127.5q306 0 472.5 -150t177.5 -399h-480q-8 88 -52.5 138.5t-117.5 50.5q-65 0 -102 -27t-37 -72
q0 -52 54 -81t194 -52q162 -27 272.5 -69.5t172.5 -102t88 -128.5t26 -161q0 -219 -167 -346t-462 -127q-323 0 -499 149t-185 410zM414 -428v4l84 344h399v-4l-176 -344h-307z" />
    <glyph glyph-name="uni0219" unicode="&#x219;" horiz-adv-x="1198" 
d="M23 395h442q9 -139 141 -139q51 0 80 19t29 51q0 23 -15 38.5t-52 27t-70.5 17.5t-98.5 15q-46 7 -80.5 13t-83.5 19.5t-84 29.5t-73.5 43.5t-62.5 61t-40 81.5t-16 106q0 178 139 279.5t408 101.5q525 0 563 -422h-442q-12 135 -127 135q-46 0 -67 -18.5t-21 -46.5
q0 -20 11.5 -35.5t28 -25t49 -18.5t60.5 -14t76 -12q50 -7 83 -12.5t85 -18.5t87 -29t75.5 -43.5t64.5 -61t40.5 -82.5t16.5 -109q0 -185 -145 -281t-416 -96q-561 0 -585 426zM326 -428v4l84 344h399v-4l-176 -344h-307z" />
    <glyph glyph-name="uni021A" unicode="&#x21a;" horiz-adv-x="1363" 
d="M449 0v1096h-422v368h1310v-368h-424v-1096h-464zM401 -428v4l84 344h400v-4l-176 -344h-308z" />
    <glyph glyph-name="uni021B" unicode="&#x21b;" horiz-adv-x="962" 
d="M174 457v323h-143v348h143v261h451v-261h307v-348h-307v-291q0 -48 13.5 -79t39.5 -45.5t53 -19.5t66 -5q67 0 135 12v-348q-169 -35 -301 -35q-232 0 -344.5 116t-112.5 372zM285 -428v4l84 344h399v-4l-176 -344h-307z" />
    <glyph glyph-name="uni0237" unicode="&#x237;" horiz-adv-x="557" 
d="M-104 -365v328q35 -6 63 -6q46 0 70 24.5t24 90.5v1056h451v-972q0 -295 -108 -413t-378 -118q-60 0 -122 10z" />
    <glyph glyph-name="circumflex" unicode="&#x2c6;" horiz-adv-x="888" 
d="M272 1491h344l220 -328h-267l-125 144l-125 -144h-266z" />
    <glyph glyph-name="caron" unicode="&#x2c7;" horiz-adv-x="888" 
d="M272 1163l-219 328h266l125 -143l125 143h267l-220 -328h-344z" />
    <glyph glyph-name="breve" unicode="&#x2d8;" horiz-adv-x="745" 
d="M53 1489h226q13 -98 94 -98t94 98h225q-6 -163 -89.5 -250.5t-229.5 -87.5t-230 87.5t-90 250.5z" />
    <glyph glyph-name="dotaccent" unicode="&#x2d9;" horiz-adv-x="444" 
d="M53 1157v295h336v-295h-336z" />
    <glyph glyph-name="ring" unicode="&#x2da;" horiz-adv-x="587" 
d="M231 1374q0 -29 16.5 -47t47.5 -18q30 0 45.5 18t15.5 47t-15.5 47.5t-45.5 18.5q-31 0 -47.5 -18.5t-16.5 -47.5zM53 1376q0 96 67.5 158.5t174.5 62.5q105 0 172.5 -62.5t67.5 -158.5q0 -97 -67.5 -161t-172.5 -64q-107 0 -174.5 64t-67.5 161z" />
    <glyph glyph-name="ogonek" unicode="&#x2db;" horiz-adv-x="571" 
d="M502 -4l14 -27q-101 -7 -157 -26.5t-56 -46.5q0 -39 131 -39q50 0 84 6v-266q-70 -9 -129 -9q-148 0 -242 50t-94 141q0 54 35.5 95.5t99 66.5t141.5 38.5t173 16.5z" />
    <glyph glyph-name="tilde" unicode="&#x2dc;" horiz-adv-x="759" 
d="M193 1155h-138q0 175 44.5 259.5t138.5 84.5q61 0 149 -47q80 -41 121 -41q65 0 65 78h134q0 -183 -41.5 -263.5t-137.5 -80.5q-70 0 -166 51q-80 37 -112 37q-34 0 -45.5 -20t-11.5 -58z" />
    <glyph glyph-name="hungarumlaut" unicode="&#x2dd;" horiz-adv-x="937" 
d="M344 1165h-291l109 328h336zM690 1165h-291l150 328h336z" />
    <glyph glyph-name="uni03BC" unicode="&#x3bc;" horiz-adv-x="1314" 
d="M53 1464h1209v-1464h-1209v1464zM788 731l166 -237v475zM360 492l166 239l-166 242v-481zM659 922l220 315h-441zM438 227h439l-220 316z" />
    <glyph glyph-name="Wgrave" unicode="&#x1e80;" horiz-adv-x="2107" 
d="M338 0l-369 1464h496l166 -927l174 927h500l172 -927l163 927h496l-364 -1464h-533l-184 829l-185 -829h-532zM895 1544l-258 328h399l166 -328h-307z" />
    <glyph glyph-name="wgrave" unicode="&#x1e81;" horiz-adv-x="1882" 
d="M276 0l-307 1128h475l125 -714l144 714h458l142 -714l123 714h475l-303 -1128h-512l-154 639l-154 -639h-512zM786 1208l-258 328h400l166 -328h-308z" />
    <glyph glyph-name="Wacute" unicode="&#x1e82;" horiz-adv-x="2107" 
d="M338 0l-369 1464h496l166 -927l174 927h500l172 -927l163 927h496l-364 -1464h-533l-184 829l-185 -829h-532zM899 1544l166 328h399l-258 -328h-307z" />
    <glyph glyph-name="wacute" unicode="&#x1e83;" horiz-adv-x="1882" 
d="M276 0l-307 1128h475l125 -714l144 714h458l142 -714l123 714h475l-303 -1128h-512l-154 639l-154 -639h-512zM791 1208l165 328h400l-258 -328h-307z" />
    <glyph glyph-name="Wdieresis" unicode="&#x1e84;" horiz-adv-x="2107" 
d="M338 0l-369 1464h496l166 -927l174 927h500l172 -927l163 927h496l-364 -1464h-533l-184 829l-185 -829h-532zM686 1536v295h336v-295h-336zM1096 1536v295h336v-295h-336z" />
    <glyph glyph-name="wdieresis" unicode="&#x1e85;" horiz-adv-x="1882" 
d="M276 0l-307 1128h475l125 -714l144 714h458l142 -714l123 714h475l-303 -1128h-512l-154 639l-154 -639h-512zM578 1200v295h335v-295h-335zM987 1200v295h336v-295h-336z" />
    <glyph glyph-name="Ygrave" unicode="&#x1ef2;" horiz-adv-x="1411" 
d="M475 0v483l-504 981h518l220 -553l215 553h518l-502 -981v-483h-465zM551 1544l-258 328h399l166 -328h-307z" />
    <glyph glyph-name="ygrave" unicode="&#x1ef3;" horiz-adv-x="1198" 
d="M-2 -377v357q83 -17 147 -17q115 0 174 49l-350 1116h471l164 -708l154 708h471l-328 -1077q-135 -446 -647 -446q-145 0 -256 18zM440 1208l-258 328h400l166 -328h-308z" />
    <glyph glyph-name="endash" unicode="&#x2013;" horiz-adv-x="1540" 
d="M53 422v344h1434v-344h-1434z" />
    <glyph glyph-name="emdash" unicode="&#x2014;" horiz-adv-x="2011" 
d="M53 422v344h1905v-344h-1905z" />
    <glyph glyph-name="quoteleft" unicode="&#x2018;" horiz-adv-x="593" 
d="M20 688l252 778h289l-139 -778h-402z" />
    <glyph glyph-name="quoteright" unicode="&#x2019;" horiz-adv-x="593" 
d="M33 688l139 778h401l-251 -778h-289z" />
    <glyph glyph-name="quotesinglbase" unicode="&#x201a;" horiz-adv-x="509" 
d="M-41 -389l137 778h402l-252 -778h-287z" />
    <glyph glyph-name="quotedblleft" unicode="&#x201c;" horiz-adv-x="1038" 
d="M20 688l252 778h289l-139 -778h-402zM465 688l252 778h289l-140 -778h-401z" />
    <glyph glyph-name="quotedblright" unicode="&#x201d;" horiz-adv-x="1038" 
d="M477 688l139 778h402l-252 -778h-289zM33 688l139 778h401l-251 -778h-289z" />
    <glyph glyph-name="quotedblbase" unicode="&#x201e;" horiz-adv-x="952" 
d="M-41 -389l137 778h402l-252 -778h-287zM401 -389l138 778h401l-252 -778h-287z" />
    <glyph glyph-name="dagger" unicode="&#x2020;" horiz-adv-x="1085" 
d="M307 1464h471v-336h246v-368h-246v-760h-471v760h-246v368h246v336z" />
    <glyph glyph-name="daggerdbl" unicode="&#x2021;" horiz-adv-x="1085" 
d="M307 1464h471v-336h246v-368h-246v-55h246v-369h-246v-336h-471v336h-246v369h246v55h-246v368h246v336z" />
    <glyph glyph-name="bullet" unicode="&#x2022;" horiz-adv-x="727" 
d="M53 592q0 135 86.5 222t222.5 87t223 -87t87 -222t-87 -222t-223 -87t-222.5 87t-86.5 222z" />
    <glyph glyph-name="ellipsis" unicode="&#x2026;" horiz-adv-x="1529" 
d="M55 0v389h402v-389h-402zM565 0v389h402v-389h-402zM1075 0v389h402v-389h-402z" />
    <glyph glyph-name="perthousand" unicode="&#x2030;" horiz-adv-x="2764" 
d="M1569 342q0 74 -30 114t-87 40t-87 -40t-30 -114t30 -115t87 -41t87 41t30 115zM2429 342q0 74 -30 114t-87 40t-87 -40t-30 -114t30 -115t87 -41t87 41t30 115zM336 1124q0 -74 30 -114.5t87 -40.5t86.5 40.5t29.5 114.5t-29.5 114t-86.5 40t-87 -40t-30 -114zM293 0
l991 1464h328l-991 -1464h-328zM1851 342q0 -167 -109.5 -270t-289.5 -103t-289.5 103t-109.5 270t109.5 269t289.5 102t289.5 -102t109.5 -269zM2712 342q0 -167 -110 -270t-290 -103t-289.5 103t-109.5 270t109.5 269t289.5 102t290 -102t110 -269zM53 1124q0 167 110 269
t290 102t289.5 -102t109.5 -269t-109.5 -269.5t-289.5 -102.5t-290 102.5t-110 269.5z" />
    <glyph glyph-name="guilsinglleft" unicode="&#x2039;" horiz-adv-x="948" 
d="M453 41l-420 524l420 520h479l-416 -520l416 -524h-479z" />
    <glyph glyph-name="guilsinglright" unicode="&#x203a;" horiz-adv-x="948" 
d="M496 41h-480l416 524l-416 520h480l419 -520z" />
    <glyph glyph-name="fraction" unicode="&#x2044;" horiz-adv-x="1425" 
d="M53 0l991 1464h328l-991 -1464h-328z" />
    <glyph glyph-name="uni2074" unicode="&#x2074;" horiz-adv-x="821" 
d="M29 950v211l303 459h366v-449h95v-221h-95v-135h-280v135h-389zM293 1171h125v191z" />
    <glyph glyph-name="Euro" unicode="&#x20ac;" horiz-adv-x="1720" 
d="M37 506v168h145q-2 18 -2 59q0 37 2 55h-145v168h168q62 252 256 395.5t487 143.5q200 0 353.5 -69.5t252 -211.5t125.5 -348h-483q-13 123 -81 191.5t-175 68.5q-86 0 -149 -44t-97 -126h301v-168h-338q-2 -18 -2 -55q0 -41 2 -59h338v-168h-299q69 -168 250 -168
q110 0 174 69.5t76 204.5h485q-24 -205 -125 -351.5t-258.5 -219t-359.5 -72.5q-286 0 -478 143.5t-253 393.5h-170z" />
    <glyph glyph-name="trademark" unicode="&#x2122;" horiz-adv-x="1839" 
d="M258 659v603h-231v202h721v-202h-234v-603h-256zM788 659v805h392l108 -524l107 524h391v-805h-256v467l-113 -467h-260l-113 467v-467h-256z" />
    <glyph glyph-name="minus" unicode="&#x2212;" horiz-adv-x="1187" 
d="M53 537v356h1082v-356h-1082z" />
    <glyph glyph-name="NULL" horiz-adv-x="0" 
 />
    <glyph glyph-name="cedilla2" horiz-adv-x="643" 
d="M53 -307l53 117q120 -66 199 -66q82 0 82 51q0 24 -20 37.5t-58 13.5q-35 0 -67 -14l-109 43l49 156h148l-37 -109q57 23 113 23q80 0 132 -44.5t52 -111.5q0 -81 -74.5 -135.5t-185.5 -54.5q-141 0 -277 94z" />
    <glyph glyph-name="commaccent" horiz-adv-x="413" 
d="M360 -10l-79 -572h-226l39 572h266z" />
    <glyph glyph-name="commaccent2" horiz-adv-x="589" 
d="M53 -406v5l84 344h400v-4l-177 -345h-307z" />
    <glyph glyph-name="commaccent3" horiz-adv-x="589" 
d="M537 397v-6l-84 -342h-400v4l176 344h308z" />
    <glyph glyph-name="dotaccent2" horiz-adv-x="428" 
d="M53 1196v287h320v-287h-320z" />
    <glyph glyph-name="ogonek2" horiz-adv-x="575" 
d="M406 76l10 -15q-49 -35 -84 -76.5t-35 -72.5q0 -28 32 -41.5t107 -13.5q40 0 86 6v-264q-67 -11 -131 -11q-153 0 -244.5 51.5t-91.5 137.5q0 39 21.5 76.5t53.5 67t81.5 59.5t93.5 51t101 45z" />
    </font>
</defs>
</svg>
