<?xml version="1.0" standalone="no"?>
<!DOCTYPE svg PUBLIC "-//W3C//DTD SVG 1.1//EN" "http://www.w3.org/Graphics/SVG/1.1/DTD/svg11.dtd" >
<svg xmlns="http://www.w3.org/2000/svg" xmlns:xlink="http://www.w3.org/1999/xlink" version="1.1">
<metadata>
Created by FontForge 20201107 at Thu Jun 25 07:42:46 2026
 By www-data
Rajesh Rajput
</metadata>
<defs>
<font id="Delight-SemiBold" horiz-adv-x="475" >
  <font-face 
    font-family="Delight SemBd"
    font-weight="600"
    font-stretch="normal"
    units-per-em="2048"
    panose-1="0 0 0 0 0 0 0 0 0 0"
    ascent="1638"
    descent="-410"
    x-height="1114"
    cap-height="1464"
    bbox="-127 -582 2621 1991"
    underline-thickness="102"
    underline-position="-153"
    unicode-range="U+000D-FB02"
  />
<missing-glyph horiz-adv-x="1320" 
d="M305 373l242 358l-242 361v-719zM395 184h523l-261 383zM657 895l261 385h-523zM770 731l246 -360v721zM74 1464h1173v-1464h-1173v1464z" />
    <glyph glyph-name="fi" unicode="fi" horiz-adv-x="1359" 
d="M225 0v879h-188v235h188v64q0 192 110 286.5t333 94.5q75 0 204 -17v-225q-69 14 -151 14q-115 0 -163 -37t-48 -125v-55h360v-235h-360v-879h-285zM993 0v1114h285v-1114h-285zM989 1235v262h293v-262h-293z" />
    <glyph glyph-name="fl" unicode="fl" horiz-adv-x="1349" 
d="M225 0v879h-188v235h188v64q0 192 110 286.5t333 94.5q75 0 204 -17v-225q-69 14 -151 14q-115 0 -163 -37t-48 -125v-55h360v-235h-360v-879h-285zM989 0v1505h283v-1505h-283z" />
    <glyph glyph-name=".notdef" horiz-adv-x="1320" 
d="M305 373l242 358l-242 361v-719zM395 184h523l-261 383zM657 895l261 385h-523zM770 731l246 -360v721zM74 1464h1173v-1464h-1173v1464z" />
    <glyph glyph-name=".null" horiz-adv-x="0" 
 />
    <glyph glyph-name="uni000D" unicode="&#xd;" horiz-adv-x="307" 
 />
    <glyph glyph-name="space" unicode=" " horiz-adv-x="385" 
 />
    <glyph glyph-name="exclam" unicode="!" horiz-adv-x="538" 
d="M168 397l-41 768v299h285v-299l-41 -768h-203zM121 0v289h295v-289h-295z" />
    <glyph glyph-name="quotedbl" unicode="&#x22;" horiz-adv-x="804" 
d="M115 803l-41 661h291l-39 -661h-211zM483 803l-41 661h291l-39 -661h-211z" />
    <glyph glyph-name="numbersign" unicode="#" horiz-adv-x="1556" 
d="M74 328v225h268l45 360h-266v226h295l41 325h262l-41 -325h303l41 325h262l-41 -325h240v-226h-269l-45 -360h267v-225h-295l-39 -328h-262l41 328h-303l-41 -328h-263l41 328h-241zM967 913h-332l-45 -360h332z" />
    <glyph glyph-name="dollar" unicode="$" horiz-adv-x="1277" 
d="M524 1487l-20 233h258l-23 -237q219 -33 343.5 -170t136.5 -338h-304q-11 122 -92 198t-215 76q-112 0 -180 -52t-68 -136q0 -38 17 -68t43.5 -50t74 -37t91.5 -27.5t114 -24.5q107 -19 186.5 -42t149 -57.5t113 -79.5t68 -108.5t24.5 -144.5q0 -193 -135.5 -311.5
t-368.5 -135.5l21 -231h-258l20 240q-228 36 -357 177.5t-138 354.5h303q15 -143 103.5 -222t238.5 -79q126 0 199 51.5t73 143.5q0 41 -15.5 71.5t-40.5 51t-74 38.5t-96.5 30t-127.5 28q-72 14 -126 27.5t-112 33.5t-99 42t-79.5 54t-61.5 70t-37 88.5t-14 110.5
q0 180 123.5 296t341.5 136z" />
    <glyph glyph-name="percent" unicode="%" horiz-adv-x="1855" 
d="M1581 348q0 96 -44.5 151.5t-123.5 55.5q-81 0 -125.5 -55.5t-44.5 -151.5q0 -97 44.5 -153t125.5 -56q79 0 123.5 56.5t44.5 152.5zM274 1116q0 -97 43.5 -152t124.5 -55q79 0 123.5 55.5t44.5 151.5q0 97 -44.5 153t-123.5 56q-81 0 -124.5 -55.5t-43.5 -153.5zM297 0
l1028 1464h231l-1026 -1464h-233zM1782 348q0 -168 -102 -271.5t-267 -103.5q-167 0 -269 103.5t-102 271.5t102 271.5t269 103.5q165 0 267 -103.5t102 -271.5zM74 1116q0 168 100.5 271.5t267.5 103.5t269 -103.5t102 -271.5t-102 -271.5t-269 -103.5t-267.5 103.5
t-100.5 271.5z" />
    <glyph glyph-name="ampersand" unicode="&#x26;" horiz-adv-x="1581" 
d="M1180 823h272q-23 -304 -168 -510q111 -67 229 -67h37v-246h-69q-200 0 -383 125q-216 -152 -510 -152q-113 0 -211 24.5t-176 73.5t-123 131t-45 189q0 82 26 149t74 116.5t101 83.5t122 65q-81 85 -115 160.5t-34 156.5q0 169 127 269t323 100q192 0 317.5 -95
t125.5 -261q0 -60 -18.5 -113t-47 -91t-71.5 -73t-82 -58t-88 -46l290 -273q86 148 97 342zM332 418q0 -106 78.5 -161.5t203.5 -55.5q163 0 291 88l-375 352q-105 -49 -151.5 -99.5t-46.5 -123.5zM840 1133q0 64 -51.5 105.5t-131.5 41.5q-78 0 -127 -42.5t-49 -109.5
q0 -47 30.5 -92.5t113.5 -124.5q215 95 215 222z" />
    <glyph glyph-name="quotesingle" unicode="'" horiz-adv-x="436" 
d="M115 803l-41 661h291l-39 -661h-211z" />
    <glyph glyph-name="parenleft" unicode="(" horiz-adv-x="729" 
d="M698 -223l-149 -111q-239 202 -359 463.5t-120 548.5t120 548.5t359 463.5l149 -111q-342 -421 -342 -901q0 -483 342 -901z" />
    <glyph glyph-name="parenright" unicode=")" horiz-adv-x="729" 
d="M180 -334l-149 111q340 419 340 901q0 483 -342 901l151 111q238 -202 357.5 -463.5t119.5 -548.5q0 -288 -119.5 -549t-357.5 -463z" />
    <glyph glyph-name="asterisk" unicode="*" horiz-adv-x="876" 
d="M111 881l190 200l-270 52l73 229l252 -121l-39 275h244l-39 -275l250 119l76 -230l-275 -51l191 -198l-197 -144l-131 244l-131 -242z" />
    <glyph glyph-name="plus" unicode="+" horiz-adv-x="1153" 
d="M74 598v238h377v387h251v-387h379v-238h-379v-387h-251v387h-377z" />
    <glyph glyph-name="comma" unicode="," horiz-adv-x="442" 
d="M-10 -401l131 737h280l-213 -737h-198z" />
    <glyph glyph-name="hyphen" unicode="-" horiz-adv-x="903" 
d="M74 471v234h755v-234h-755z" />
    <glyph glyph-name="period" unicode="." horiz-adv-x="442" 
d="M74 0v289h295v-289h-295z" />
    <glyph glyph-name="slash" unicode="/" horiz-adv-x="813" 
d="M0 -223l500 1763h313l-500 -1763h-313z" />
    <glyph glyph-name="zero" unicode="0" horiz-adv-x="1382" 
d="M352 729q0 -249 86 -379.5t250 -130.5q165 0 253.5 132t88.5 380q0 250 -87.5 382t-252.5 132q-164 0 -251 -132.5t-87 -383.5zM51 729q0 351 172.5 556.5t466.5 205.5q295 0 467 -205t172 -555q0 -351 -171.5 -554.5t-467.5 -203.5q-295 0 -467 203.5t-172 552.5z" />
    <glyph glyph-name="one" unicode="1" horiz-adv-x="839" 
d="M92 1014v231h121q136 0 188 49.5t52 186.5h243v-1481h-293v1014h-311z" />
    <glyph glyph-name="two" unicode="2" horiz-adv-x="1263" 
d="M63 0v139q0 56 10.5 107t25 92t43 81t52.5 68.5t65 60t69.5 51t77.5 46t76.5 40t78.5 38.5t76.5 38t68.5 37t65.5 40.5t51.5 42t43 49t24.5 54t10.5 63.5q0 90 -67 146t-181 56q-130 0 -202.5 -77.5t-83.5 -227.5h-301q15 257 166.5 402t424.5 145q249 0 397 -119
t148 -321q0 -44 -7 -84.5t-23 -76.5t-32.5 -66.5t-45.5 -60.5t-51.5 -52t-61 -48t-63 -41.5t-69 -39t-67.5 -35t-69 -33.5q-61 -29 -98 -47.5t-85.5 -48t-76.5 -53.5t-49.5 -55.5t-24.5 -63.5h823v-246h-1139z" />
    <glyph glyph-name="three" unicode="3" horiz-adv-x="1284" 
d="M51 481h301q35 -262 299 -262q130 0 206.5 59.5t76.5 161.5q0 101 -77.5 154t-223.5 53h-133v223h123q126 0 193 48t67 137q0 88 -65 137t-181 49q-120 0 -186 -54.5t-74 -158.5h-301q12 219 160.5 341t404.5 122q245 0 392 -109.5t147 -294.5q0 -243 -269 -313
q156 -34 239 -127t83 -233q0 -200 -160.5 -320.5t-423.5 -120.5q-272 0 -425.5 132t-172.5 376z" />
    <glyph glyph-name="four" unicode="4" horiz-adv-x="1320" 
d="M360 539h435v604zM41 293v231l684 940h360v-925h193v-246h-193v-293h-290v293h-754z" />
    <glyph glyph-name="five" unicode="5" horiz-adv-x="1275" 
d="M53 432h295q12 -101 91 -157t194 -56q131 0 212 70.5t81 193.5q0 120 -76 193.5t-209 73.5q-96 0 -170 -39t-102 -101h-295l106 854h940v-245h-686l-47 -363q117 117 328 117q233 0 371.5 -137.5t138.5 -352.5q0 -233 -161 -371.5t-431 -138.5q-257 0 -411.5 125
t-168.5 334z" />
    <glyph glyph-name="six" unicode="6" horiz-adv-x="1300" 
d="M389 489q0 -118 83.5 -194t205.5 -76q126 0 199 70.5t73 193.5q0 117 -75 187.5t-197 70.5q-129 0 -209 -68t-80 -184zM53 723q0 122 21.5 232t70.5 209t121 171t180 114t242 42q230 0 375 -114t174 -316h-283q-19 87 -89.5 135.5t-176.5 48.5q-318 0 -336 -452
q52 76 149 124t220 48q239 0 383.5 -132t144.5 -352q0 -236 -156 -372t-411 -136q-142 0 -257.5 48t-198.5 141t-128 236t-45 325z" />
    <glyph glyph-name="seven" unicode="7" horiz-adv-x="1214" 
d="M655 0h-315q0 320 135.5 633t372.5 577h-807v254h1120v-233q-265 -284 -385.5 -570t-120.5 -661z" />
    <glyph glyph-name="eight" unicode="8" horiz-adv-x="1331" 
d="M352 438q0 -104 83 -163.5t231 -59.5q146 0 229.5 59.5t83.5 163.5t-82 161.5t-231 57.5t-231.5 -57.5t-82.5 -161.5zM393 1049q0 -89 69.5 -136t201.5 -47q135 0 204.5 47t69.5 138q0 94 -71 146t-199 52q-129 0 -202 -53t-73 -147zM51 403q0 140 83.5 235.5
t232.5 129.5q-126 34 -194.5 115t-68.5 204q0 187 154 295.5t408 108.5q255 0 408 -108.5t153 -297.5q0 -123 -68 -203t-196 -114q150 -35 232.5 -130t82.5 -235q0 -200 -165.5 -315t-446.5 -115t-448 114.5t-167 315.5z" />
    <glyph glyph-name="nine" unicode="9" horiz-adv-x="1298" 
d="M909 965q0 123 -81.5 201.5t-204.5 78.5q-126 0 -199.5 -73.5t-73.5 -200.5q0 -121 75.5 -195t197.5 -74q127 0 206.5 71.5t79.5 191.5zM1247 741q0 -122 -21.5 -232t-70.5 -209t-121 -171t-180 -114t-242 -42q-223 0 -367 108.5t-179 301.5h286q23 -77 92 -120.5
t168 -43.5q154 0 239 109.5t95 328.5q-54 -79 -149.5 -128.5t-216.5 -49.5q-239 0 -384 135t-145 359q0 241 156 379.5t411 138.5q289 0 459 -194t170 -556z" />
    <glyph glyph-name="colon" unicode=":" horiz-adv-x="460" 
d="M82 0v289h297v-289h-297zM82 825v289h297v-289h-297z" />
    <glyph glyph-name="semicolon" unicode=";" horiz-adv-x="481" 
d="M92 825v289h297v-289h-297zM-29 -401l129 737h281l-213 -737h-197z" />
    <glyph glyph-name="less" unicode="&#x3c;" horiz-adv-x="1003" 
d="M74 580v237l856 385v-274l-602 -230l602 -231v-274z" />
    <glyph glyph-name="equal" unicode="=" horiz-adv-x="976" 
d="M903 784h-829v224h829v-224zM903 385h-829v223h829v-223z" />
    <glyph glyph-name="greater" unicode="&#x3e;" horiz-adv-x="1003" 
d="M930 817v-237l-856 -387v274l602 231l-602 230v274z" />
    <glyph glyph-name="question" unicode="?" horiz-adv-x="1216" 
d="M418 0v289h295v-289h-295zM346 928h-301q19 275 165.5 419t407.5 144q243 0 384 -121t141 -328q0 -84 -25 -149.5t-64.5 -105t-87.5 -71t-95.5 -56.5t-87 -50.5t-64.5 -63.5t-25 -87v-62h-258v41q0 88 22.5 156t58.5 109.5t79.5 74t87 58t79.5 52.5t58.5 67t22.5 92
q0 94 -64 150t-170 56q-243 0 -264 -325z" />
    <glyph glyph-name="at" unicode="@" horiz-adv-x="2088" 
d="M778 545q0 -130 56 -204.5t167 -74.5q109 0 172.5 74t63.5 205t-62.5 206.5t-170.5 75.5t-167 -76t-59 -206zM51 555q0 204 73.5 378t203.5 297t315.5 192t403.5 69q285 0 511.5 -113.5t353 -316t126.5 -457.5q0 -247 -120 -392.5t-321 -145.5q-50 0 -96 10t-92 32
t-83 63.5t-58 98.5q-44 -101 -128.5 -152.5t-199.5 -51.5q-187 0 -297.5 129.5t-110.5 353.5q0 220 109 349.5t293 129.5q208 0 303 -160v138h246v-539q0 -95 37 -144t96 -49q79 0 130.5 85t51.5 233q0 199 -94.5 353t-264 238.5t-386.5 84.5q-339 0 -550.5 -198
t-211.5 -513q0 -157 57.5 -292t158 -229.5t241 -148t301.5 -53.5q261 0 493 119l88 -203q-269 -139 -590 -139q-213 0 -396.5 70t-314 194t-204.5 300t-74 380z" />
    <glyph glyph-name="A" unicode="A" horiz-adv-x="1404" 
d="M487 578h433l-215 618zM-23 0l533 1464h389l531 -1464h-316l-117 338h-587l-119 -338h-314z" />
    <glyph glyph-name="B" unicode="B" horiz-adv-x="1345" 
d="M383 238h346q134 0 203 50t69 148q0 99 -69.5 152t-202.5 53h-346v-403zM383 852h285q139 0 210.5 48.5t71.5 139.5q0 95 -69 141t-213 46h-285v-375zM90 0v1464h608q285 0 422 -95.5t137 -299.5q0 -129 -79.5 -210.5t-225.5 -100.5q165 -21 258 -112.5t93 -242.5
q0 -403 -541 -403h-672z" />
    <glyph glyph-name="C" unicode="C" horiz-adv-x="1517" 
d="M53 731q0 347 194 553.5t521 206.5q279 0 462 -151t230 -427h-307q-32 157 -134.5 244.5t-254.5 87.5q-188 0 -300 -137.5t-112 -374.5q0 -238 112.5 -376t303.5 -138q158 0 259.5 93.5t129.5 265.5h307q-40 -286 -226.5 -445.5t-473.5 -159.5q-324 0 -517.5 205.5
t-193.5 552.5z" />
    <glyph glyph-name="D" unicode="D" horiz-adv-x="1417" 
d="M383 246h215q235 0 351 120.5t116 366.5t-116 366t-351 120h-215v-973zM90 0v1464h512q369 0 566.5 -190t197.5 -543t-197.5 -542t-566.5 -189h-512z" />
    <glyph glyph-name="E" unicode="E" horiz-adv-x="1206" 
d="M90 0v1464h1040v-245h-747v-363h713v-242h-713v-368h758v-246h-1051z" />
    <glyph glyph-name="F" unicode="F" horiz-adv-x="1159" 
d="M90 0v1464h1020v-245h-727v-385h692v-242h-692v-592h-293z" />
    <glyph glyph-name="G" unicode="G" horiz-adv-x="1546" 
d="M51 727q0 350 195 557t522 207q268 0 447.5 -140t236.5 -397h-309q-40 138 -139 214.5t-240 76.5q-188 0 -300 -137.5t-112 -374.5q0 -239 112 -376.5t306 -137.5q157 0 261.5 89t135.5 249h-395v219h684v-776h-186l-29 221q-162 -248 -489 -248q-320 0 -510.5 205
t-190.5 549z" />
    <glyph glyph-name="H" unicode="H" horiz-adv-x="1390" 
d="M90 0v1464h293v-604h625v604h290v-1464h-290v616h-625v-616h-293z" />
    <glyph glyph-name="I" unicode="I" 
d="M92 0v1464h291v-1464h-291z" />
    <glyph glyph-name="J" unicode="J" horiz-adv-x="1206" 
d="M41 559h291q13 -181 72 -260.5t178 -79.5q241 0 241 303v942h291v-940q0 -260 -142.5 -405.5t-389.5 -145.5q-256 0 -393 155t-148 431z" />
    <glyph glyph-name="K" unicode="K" horiz-adv-x="1323" 
d="M92 0v1464h293v-622l569 622h355l-564 -622l601 -842h-347l-450 637l-164 -176v-461h-293z" />
    <glyph glyph-name="L" unicode="L" horiz-adv-x="1150" 
d="M90 0v1464h293v-1218h719v-246h-1012z" />
    <glyph glyph-name="M" unicode="M" horiz-adv-x="1810" 
d="M92 0v1464h432l381 -1161l383 1161h430v-1464h-291v1042l-358 -1042h-328l-358 1042v-1042h-291z" />
    <glyph glyph-name="N" unicode="N" horiz-adv-x="1454" 
d="M92 0v1464h340l639 -1069v1069h293v-1464h-352l-627 1034v-1034h-293z" />
    <glyph glyph-name="O" unicode="O" horiz-adv-x="1568" 
d="M352 731q0 -238 117 -375t313 -137q198 0 315 137t117 375q0 240 -117.5 377t-314.5 137q-196 0 -313 -137.5t-117 -376.5zM51 731q0 231 91 403.5t256 264.5t384 92q333 0 533.5 -205t200.5 -555t-199.5 -554t-534.5 -204q-333 0 -532 204.5t-199 553.5z" />
    <glyph glyph-name="P" unicode="P" horiz-adv-x="1323" 
d="M383 772h326q133 0 198.5 53.5t65.5 169.5q0 224 -264 224h-326v-447zM90 0v1464h633q273 0 411 -120.5t138 -348.5t-138 -348.5t-411 -120.5h-340v-526h-293z" />
    <glyph glyph-name="Q" unicode="Q" horiz-adv-x="1568" 
d="M352 731q0 -238 117 -375t313 -137q198 0 316.5 137.5t118.5 374.5q0 240 -118 377t-317 137q-196 0 -313 -137.5t-117 -376.5zM51 731q0 348 200.5 554t532.5 206q333 0 532.5 -205t199.5 -555q0 -375 -228 -581l217 -306h-327l-115 179q-124 -50 -279 -50
q-333 0 -533 205t-200 553z" />
    <glyph glyph-name="R" unicode="R" horiz-adv-x="1382" 
d="M90 0v1464h653q272 0 410.5 -116.5t138.5 -337.5q0 -329 -297 -420l340 -590h-338l-292 555h-322v-555h-293zM383 793h346q133 0 198.5 51t65.5 162q0 213 -264 213h-346v-426z" />
    <glyph glyph-name="S" unicode="S" horiz-adv-x="1275" 
d="M27 514h301q15 -142 103.5 -220.5t238.5 -78.5q126 0 199 51.5t73 143.5q0 41 -15.5 71.5t-40.5 51t-74 38.5t-96.5 30t-127.5 28q-72 14 -126 27.5t-112 33.5t-99 42t-79.5 54t-61.5 70t-37 88.5t-14 110.5q0 198 148.5 317t404.5 119q139 0 251.5 -39t187.5 -108.5
t118 -163.5t50 -205h-301q-12 122 -93.5 198t-214.5 76q-112 0 -181 -52t-69 -136q0 -32 10.5 -58t34 -45.5t50 -34t69.5 -27.5t81 -22t95 -20q136 -24 229.5 -55t167 -80.5t109 -122.5t35.5 -174q0 -209 -155.5 -329t-417.5 -120q-293 0 -461.5 147.5t-179.5 393.5z" />
    <glyph glyph-name="T" unicode="T" horiz-adv-x="1277" 
d="M494 0v1219h-461v245h1212v-245h-461v-1219h-290z" />
    <glyph glyph-name="U" unicode="U" horiz-adv-x="1413" 
d="M92 530v934h293v-923q0 -154 84.5 -238t239.5 -84q154 0 237.5 84t83.5 238v923h293v-934q0 -258 -165.5 -407.5t-448.5 -149.5t-450 150t-167 407z" />
    <glyph glyph-name="V" unicode="V" horiz-adv-x="1425" 
d="M518 0l-541 1464h314l422 -1183l422 1183h313l-541 -1464h-389z" />
    <glyph glyph-name="W" unicode="W" horiz-adv-x="1953" 
d="M369 0l-394 1464h312l266 -1130l256 1130h332l258 -1130l264 1130h313l-391 -1464h-350l-260 1055l-256 -1055h-350z" />
    <glyph glyph-name="X" unicode="X" horiz-adv-x="1368" 
d="M-2 0l485 739l-481 725h348l332 -540l334 540h346l-479 -725l487 -739h-348l-340 553l-338 -553h-346z" />
    <glyph glyph-name="Y" unicode="Y" horiz-adv-x="1308" 
d="M510 0v537l-533 927h330l348 -653l346 653h332l-532 -927v-537h-291z" />
    <glyph glyph-name="Z" unicode="Z" horiz-adv-x="1314" 
d="M92 0v233l754 986h-731v245h1091v-233l-760 -985h777v-246h-1131z" />
    <glyph glyph-name="bracketleft" unicode="[" horiz-adv-x="649" 
d="M70 1622h530v-240h-242v-1445h242v-240h-530v1925z" />
    <glyph glyph-name="backslash" unicode="\" horiz-adv-x="811" 
d="M498 -223l-498 1763h313l500 -1763h-315z" />
    <glyph glyph-name="bracketright" unicode="]" horiz-adv-x="649" 
d="M49 -303v240h242v1445h-242v240h531v-1925h-531z" />
    <glyph glyph-name="asciicircum" unicode="^" horiz-adv-x="870" 
d="M74 887l237 577h246l240 -577h-228l-133 389l-135 -389h-227z" />
    <glyph glyph-name="underscore" unicode="_" horiz-adv-x="966" 
d="M893 0v-217h-819v217h819z" />
    <glyph glyph-name="grave" unicode="`" horiz-adv-x="577" 
d="M303 1194l-229 303h270l162 -303h-203z" />
    <glyph glyph-name="a" unicode="a" horiz-adv-x="1175" 
d="M336 324q0 -66 49 -101t137 -35q136 0 218.5 78.5t82.5 206.5v53l-313 -59q-93 -19 -133.5 -52.5t-40.5 -90.5zM45 285q0 138 94.5 217.5t290.5 115.5l393 72v8q0 111 -60.5 167.5t-172.5 56.5q-217 0 -242 -211h-289q18 208 160 319t373 111q244 0 378 -121t134 -344
v-676h-264l-6 164q-53 -84 -164 -137.5t-250 -53.5q-78 0 -144.5 18.5t-119 55.5t-82 98t-29.5 140z" />
    <glyph glyph-name="b" unicode="b" horiz-adv-x="1255" 
d="M358 559q0 -164 75.5 -258t207.5 -94q130 0 201 92t71 260q0 166 -71 256t-201 90q-132 0 -207.5 -92t-75.5 -254zM78 0v1505h278v-569q51 99 146.5 152t218.5 53q217 0 350 -161t133 -423q0 -264 -132.5 -424t-350.5 -160q-124 0 -223.5 54.5t-149.5 156.5l-6 -184h-264
z" />
    <glyph glyph-name="c" unicode="c" horiz-adv-x="1232" 
d="M51 559q0 260 159 421t419 161q224 0 375 -120.5t186 -324.5h-295q-25 99 -93 154t-171 55q-137 0 -213 -93t-76 -253q0 -162 76 -256t213 -94q107 0 175.5 59.5t92.5 165.5h293q-32 -211 -183 -336t-380 -125q-261 0 -419.5 161.5t-158.5 424.5z" />
    <glyph glyph-name="d" unicode="d" horiz-adv-x="1255" 
d="M897 559q0 163 -75 254.5t-208 91.5q-130 0 -201 -90t-71 -256q0 -167 72 -259.5t202 -92.5q131 0 206 94t75 258zM1178 0h-265l-6 184q-48 -102 -147.5 -156.5t-224.5 -54.5q-218 0 -351 160t-133 424q0 262 133.5 423t350.5 161q123 0 218.5 -53t147.5 -152v569h277
v-1505z" />
    <glyph glyph-name="e" unicode="e" horiz-adv-x="1236" 
d="M348 647h549q-14 125 -84 195.5t-186 70.5q-115 0 -187.5 -70.5t-91.5 -195.5zM51 559q0 261 158 421.5t418 160.5q255 0 407 -157t152 -415v-86h-840q15 -132 89.5 -207t193.5 -75q89 0 151.5 43t93.5 121h302q-50 -181 -195.5 -286.5t-353.5 -105.5q-260 0 -418 161.5
t-158 424.5z" />
    <glyph glyph-name="f" unicode="f" horiz-adv-x="911" 
d="M225 0v879h-188v235h188v64q0 192 110 286.5t333 94.5q75 0 204 -17v-225q-69 14 -151 14q-115 0 -163 -37t-48 -125v-55h360v-235h-360v-879h-285z" />
    <glyph glyph-name="g" unicode="g" horiz-adv-x="1255" 
d="M342 594q0 -151 71 -233t201 -82q134 0 208.5 83t74.5 232t-75.5 235t-207.5 86q-129 0 -200.5 -84.5t-71.5 -236.5zM92 14h291q10 -88 80.5 -139t177.5 -51q122 0 191 74.5t69 216.5v141q-52 -99 -148.5 -152t-220.5 -53q-216 0 -348.5 150t-132.5 395q0 246 132 395.5
t347 149.5q128 0 228.5 -54.5t148.5 -156.5l6 184h265v-985q0 -135 -38.5 -236.5t-111 -164t-170 -93t-221.5 -30.5q-81 0 -153.5 13.5t-140 44t-119 77t-86.5 116.5t-46 158z" />
    <glyph glyph-name="h" unicode="h" horiz-adv-x="1163" 
d="M78 0v1505h287v-555q45 95 131.5 143t203.5 48q181 0 286.5 -113t105.5 -311v-717h-285v625q0 138 -49.5 205t-153.5 67q-111 0 -175 -71.5t-64 -200.5v-625h-287z" />
    <glyph glyph-name="i" unicode="i" horiz-adv-x="448" 
d="M82 0v1114h285v-1114h-285zM78 1235v262h293v-262h-293z" />
    <glyph glyph-name="j" unicode="j" horiz-adv-x="448" 
d="M-113 -367v228q35 -6 66 -6q70 0 99.5 38t29.5 138v1083h283v-1048q0 -228 -86 -334.5t-287 -106.5q-35 0 -105 8zM78 1235v262h293v-262h-293z" />
    <glyph glyph-name="k" unicode="k" horiz-adv-x="1185" 
d="M80 0v1505h282v-817l467 426h361l-479 -440l495 -674h-338l-358 502l-148 -135v-367h-282z" />
    <glyph glyph-name="l" unicode="l" horiz-adv-x="438" 
d="M78 0v1505h282v-1505h-282z" />
    <glyph glyph-name="m" unicode="m" horiz-adv-x="1832" 
d="M78 0v1114h264l6 -199q40 113 127.5 169.5t210.5 56.5q128 0 218 -62.5t130 -177.5q39 119 129 179.5t217 60.5q176 0 278.5 -113t102.5 -311v-717h-286v625q0 139 -45.5 205.5t-143.5 66.5q-104 0 -163.5 -71.5t-59.5 -200.5v-625h-287v625q0 139 -45 205.5t-143 66.5
q-104 0 -163.5 -71.5t-59.5 -200.5v-625h-287z" />
    <glyph glyph-name="n" unicode="n" horiz-adv-x="1165" 
d="M80 0v1114h264l6 -201q42 113 133.5 170.5t218.5 57.5q181 0 286.5 -113t105.5 -311v-717h-285v625q0 138 -49.5 205t-153.5 67q-111 0 -175 -71.5t-64 -200.5v-625h-287z" />
    <glyph glyph-name="o" unicode="o" horiz-adv-x="1259" 
d="M342 557q0 -161 76.5 -254.5t212.5 -93.5t212.5 93.5t76.5 254.5q0 160 -77 254t-212 94t-212 -94t-77 -254zM51 557q0 262 159 423t421 161q260 0 418.5 -161t158.5 -423t-158.5 -423t-418.5 -161q-262 0 -421 161t-159 423z" />
    <glyph glyph-name="p" unicode="p" horiz-adv-x="1255" 
d="M358 555q0 -162 75.5 -254t207.5 -92q130 0 201 90t71 256q0 168 -71 260t-201 92q-132 0 -207.5 -94t-75.5 -258zM78 1114h264l6 -184q50 102 149.5 156.5t223.5 54.5q218 0 350.5 -160t132.5 -424q0 -262 -133 -423t-350 -161q-123 0 -218.5 53t-146.5 152v-553h-278
v1489z" />
    <glyph glyph-name="q" unicode="q" horiz-adv-x="1255" 
d="M897 555q0 164 -75 258t-206 94q-130 0 -202 -92.5t-72 -259.5q0 -166 71 -256t201 -90q133 0 208 91.5t75 254.5zM1178 1114v-1489h-277v553q-52 -99 -147.5 -152t-218.5 -53q-217 0 -350.5 161t-133.5 423q0 264 133 424t351 160q125 0 224.5 -54.5t147.5 -156.5l6 184
h265z" />
    <glyph glyph-name="r" unicode="r" horiz-adv-x="772" 
d="M80 0v1114h264l8 -233q32 120 102.5 176.5t184.5 56.5h121v-291h-131q-137 0 -199.5 -62.5t-62.5 -193.5v-567h-287z" />
    <glyph glyph-name="s" unicode="s" horiz-adv-x="1093" 
d="M27 375h284q8 -92 70.5 -141.5t177.5 -49.5q93 0 150 32t57 95q0 19 -4.5 34.5t-17 28t-23.5 22t-35 18t-40 13.5t-49.5 12t-53 10t-60.5 10q-53 8 -86 14.5t-83.5 20t-83 28t-70.5 39.5t-59.5 55.5t-36.5 74t-15 95.5q0 162 126 258.5t351 96.5q233 0 362.5 -104.5
t147.5 -284.5h-284q-9 85 -69.5 131.5t-160.5 46.5q-89 0 -135.5 -33.5t-46.5 -87.5q0 -24 8.5 -43.5t29 -33.5t40.5 -24t57 -19t63.5 -14t73.5 -13q56 -9 90 -15.5t87 -20t85.5 -28.5t71 -41t60 -57t36.5 -75.5t15 -98.5q0 -172 -134.5 -262.5t-361.5 -90.5
q-250 0 -387.5 107t-146.5 295z" />
    <glyph glyph-name="t" unicode="t" horiz-adv-x="899" 
d="M205 401v478h-168v235h168v275h284v-275h371v-235h-371v-467q0 -108 50 -150.5t159 -42.5q81 0 162 17v-236q-141 -27 -248 -27q-207 0 -307 103.5t-100 324.5z" />
    <glyph glyph-name="u" unicode="u" horiz-adv-x="1163" 
d="M72 397v717h284v-625q0 -138 49.5 -205t153.5 -67q111 0 175.5 71.5t64.5 200.5v625h286v-1114h-264l-6 201q-42 -113 -133.5 -170.5t-218.5 -57.5q-181 0 -286 113t-105 311z" />
    <glyph glyph-name="v" unicode="v" horiz-adv-x="1140" 
d="M389 0l-407 1114h299l288 -858l291 858h301l-409 -1114h-363z" />
    <glyph glyph-name="w" unicode="w" horiz-adv-x="1726" 
d="M309 0l-327 1114h299l211 -840l219 840h305l219 -840l209 840h301l-326 -1114h-338l-219 780l-217 -780h-336z" />
    <glyph glyph-name="x" unicode="x" horiz-adv-x="1202" 
d="M18 0l390 567l-375 547h313l256 -389l250 389h319l-372 -549l387 -565h-314l-266 414l-268 -414h-320z" />
    <glyph glyph-name="y" unicode="y" horiz-adv-x="1079" 
d="M8 -383v238q102 -13 133 -13q174 0 236 117l-395 1155h299l262 -846l258 846h299l-387 -1137q-35 -104 -88 -177t-122 -115.5t-146.5 -61t-172.5 -18.5q-94 0 -176 12z" />
    <glyph glyph-name="z" unicode="z" horiz-adv-x="1159" 
d="M66 0v225l628 654h-602v235h985v-225l-633 -653h650v-236h-1028z" />
    <glyph glyph-name="braceleft" unicode="{" horiz-adv-x="833" 
d="M782 1622v-240h-118q-89 0 -114.5 -34.5t-25.5 -137.5v-260q0 -140 -50.5 -216.5t-147.5 -76.5q98 0 148 -74.5t50 -215.5v-261q0 -101 25.5 -135t114.5 -34h118v-240h-164q-203 0 -292.5 100.5t-89.5 315.5v258q0 89 -31.5 128.5t-100.5 39.5h-53v241h53
q69 0 100.5 39.5t31.5 128.5v258q0 215 89.5 315.5t292.5 100.5h164z" />
    <glyph glyph-name="bar" unicode="|" horiz-adv-x="473" 
d="M90 -303v1925h293v-1925h-293z" />
    <glyph glyph-name="braceright" unicode="}" horiz-adv-x="833" 
d="M51 1622h164q202 0 292.5 -100.5t90.5 -315.5v-258q0 -89 31 -128.5t100 -39.5h53v-241h-53q-69 0 -100 -39.5t-31 -128.5v-258q0 -215 -90.5 -315.5t-292.5 -100.5h-164v240h119q89 0 114 34t25 135v261q0 140 50.5 215t148.5 75q-97 0 -148 76.5t-51 216.5v260
q0 103 -25 137.5t-114 34.5h-119v240z" />
    <glyph glyph-name="asciitilde" unicode="~" horiz-adv-x="1067" 
d="M834 926h161q-11 -260 -62 -367.5t-165 -107.5q-38 0 -73.5 10t-72.5 32.5t-58 38t-60 46.5q-38 32 -58 47t-50.5 30t-55.5 15q-49 0 -73.5 -49.5t-30.5 -159.5h-162q10 255 63.5 364t167.5 109q36 0 70 -9.5t69.5 -32.5t54.5 -37t58 -46t59.5 -47.5t52 -31t58.5 -15.5
q50 0 75 48.5t32 162.5z" />
    <glyph glyph-name="exclamdown" unicode="&#xa1;" horiz-adv-x="538" 
d="M127 -51l41 768h203l41 -768v-299h-285v299zM121 825v289h295v-289h-295z" />
    <glyph glyph-name="cent" unicode="&#xa2;" horiz-adv-x="1245" 
d="M510 1130l-21 240h259l-21 -235q185 -25 308 -141.5t155 -297.5h-295q-25 99 -93 154t-171 55q-137 0 -213 -93t-76 -253q0 -162 76 -256t213 -94q107 0 175.5 59.5t92.5 165.5h293q-28 -186 -151.5 -307t-313.5 -147l21 -236h-259l21 240q-211 35 -335 190t-124 385
q0 228 124 382t335 189z" />
    <glyph glyph-name="sterling" unicode="&#xa3;" horiz-adv-x="1368" 
d="M1063 774v-219h-502q4 -46 4 -70q0 -84 -38.5 -146.5t-114.5 -92.5h880v-246h-1243v246h78q96 0 139 35.5t43 109.5q0 64 -35 164h-225v219h139q-41 128 -41 234q0 218 147.5 350.5t403.5 132.5q254 0 408.5 -137.5t167.5 -395.5h-301q-9 145 -81 216t-198 71
q-121 0 -184.5 -62.5t-63.5 -176.5q0 -86 52 -232h565z" />
    <glyph glyph-name="currency" unicode="&#xa4;" horiz-adv-x="1320" 
d="M305 373l242 358l-242 361v-719zM395 184h523l-261 383zM657 895l261 385h-523zM770 731l246 -360v721zM74 1464h1173v-1464h-1173v1464z" />
    <glyph glyph-name="yen" unicode="&#xa5;" horiz-adv-x="1308" 
d="M1188 874v-202h-311l-70 -123h381v-205h-387v-344h-293v344h-389v205h383l-70 123h-313v202h196l-338 590h330l348 -653l346 653h330l-338 -590h195z" />
    <glyph glyph-name="brokenbar" unicode="&#xa6;" horiz-adv-x="473" 
d="M90 -303v805h293v-805h-293zM90 817v805h293v-805h-293z" />
    <glyph glyph-name="section" unicode="&#xa7;" horiz-adv-x="1189" 
d="M266 727q0 -29 11.5 -52t36.5 -40t53 -29.5t71 -23t80.5 -17t91.5 -14.5q172 -29 246 -55q59 44 59 102q0 28 -11.5 50.5t-37 40t-53.5 30t-73 23.5t-84 18t-97 16q-145 18 -235 51q-58 -43 -58 -100zM106 221h285q9 -85 69 -131.5t158 -46.5q90 0 138.5 37.5t48.5 97.5
q0 23 -9 42t-21 32.5t-36.5 26t-43.5 19.5t-55.5 15.5t-58.5 12.5t-65 12q-55 10 -84.5 15.5t-79 16.5t-77.5 20t-67.5 24.5t-62 32t-49 40t-39.5 50.5t-22.5 61.5t-9.5 75.5q0 157 141 246q-80 77 -80 204q0 168 125.5 267.5t353.5 99.5q232 0 362 -104.5t148 -284.5h-287
q-9 85 -69 131.5t-158 46.5q-90 0 -137 -37t-47 -96q0 -23 8.5 -42.5t20.5 -33.5t36.5 -26t43.5 -19.5t55 -16t59 -13t66 -11.5q52 -9 84 -15t79.5 -16.5t77 -20t67.5 -24.5t61.5 -32t48.5 -40.5t39 -50.5t23 -61.5t9 -75.5q0 -157 -139 -243q78 -81 78 -207
q0 -166 -126.5 -266.5t-353.5 -100.5q-231 0 -360.5 104.5t-147.5 284.5z" />
    <glyph glyph-name="dieresis" unicode="&#xa8;" horiz-adv-x="731" 
d="M74 1210v254h245v-254h-245zM412 1210v254h247v-254h-247z" />
    <glyph glyph-name="copyright" unicode="&#xa9;" horiz-adv-x="1951" 
d="M248 733q0 -157 55.5 -294.5t152 -235t231.5 -153.5t290 -56q207 0 373.5 96.5t260 267t93.5 381.5q0 209 -92 376t-257 261t-372 94q-209 0 -377.5 -95t-263 -263.5t-94.5 -378.5zM51 731q0 190 73 360.5t197 292.5t297.5 193.5t366.5 71.5q192 0 362 -70.5t291.5 -192
t192 -290.5t70.5 -359q0 -191 -71 -362t-193.5 -293.5t-294 -194t-363.5 -71.5q-257 0 -470 120.5t-335.5 330.5t-122.5 464zM532 733q0 212 122.5 338.5t328.5 126.5q175 0 290 -91.5t144 -260.5h-219q-20 80 -77.5 125t-141.5 45q-106 0 -168.5 -76.5t-62.5 -206.5
t62.5 -205t170.5 -75q89 0 146.5 48t72.5 138h221q-26 -176 -143 -273.5t-297 -97.5q-205 0 -327 126t-122 339z" />
    <glyph glyph-name="ordfeminine" unicode="&#xaa;" horiz-adv-x="851" 
d="M260 1063q0 -43 31.5 -64.5t87.5 -21.5q89 0 141.5 51t52.5 135v31l-200 -41q-60 -12 -86.5 -33.5t-26.5 -56.5zM43 1034q0 97 65 154t199 82l266 49v8q0 61 -39.5 97t-109.5 36q-139 0 -158 -133h-213q13 144 112 221.5t261 77.5q168 0 261 -83.5t93 -239.5v-472h-194
l-4 115q-35 -59 -111 -96t-172 -37q-111 0 -183.5 56t-72.5 165z" />
    <glyph glyph-name="guillemotleft" unicode="&#xab;" horiz-adv-x="1441" 
d="M512 57l-467 508l467 504h315l-462 -504l462 -508h-315zM1098 57l-467 508l467 504h315l-463 -504l463 -508h-315z" />
    <glyph glyph-name="logicalnot" unicode="&#xac;" horiz-adv-x="1320" 
d="M305 373l242 358l-242 361v-719zM395 184h523l-261 383zM657 895l261 385h-523zM770 731l246 -360v721zM74 1464h1173v-1464h-1173v1464z" />
    <glyph glyph-name="registered" unicode="&#xae;" horiz-adv-x="1951" 
d="M51 731q0 190 73 360.5t197 292.5t297.5 193.5t366.5 71.5q192 0 362 -70.5t291.5 -192t192 -290.5t70.5 -359q0 -191 -71 -362t-193.5 -293.5t-294 -194t-363.5 -71.5q-257 0 -470 120.5t-335.5 330.5t-122.5 464zM248 733q0 -157 55.5 -294.5t152 -235t231.5 -153.5
t290 -56q207 0 373.5 96.5t260 267t93.5 381.5q0 209 -92 376t-257 261t-372 94q-209 0 -377.5 -95t-263 -263.5t-94.5 -378.5zM604 291v885h438q164 0 248 -75.5t84 -213.5q0 -197 -170 -256l195 -338v-2h-238l-166 315h-180v-315h-211zM815 774h184q80 0 120 23.5t40 85.5
q0 63 -40 86.5t-120 23.5h-184v-219z" />
    <glyph glyph-name="macron" unicode="&#xaf;" horiz-adv-x="704" 
d="M74 1235v172h557v-172h-557z" />
    <glyph glyph-name="degree" unicode="&#xb0;" horiz-adv-x="755" 
d="M233 1188q0 -65 40 -105.5t104 -40.5t104.5 40.5t40.5 105.5t-40.5 106t-104.5 41q-63 0 -103.5 -40.5t-40.5 -106.5zM57 1188q0 132 91 219.5t229 87.5t229.5 -87.5t91.5 -219.5q0 -131 -91.5 -218t-229.5 -87t-229 86.5t-91 218.5z" />
    <glyph glyph-name="plusminus" unicode="&#xb1;" horiz-adv-x="1153" 
d="M74 692v238h377v387h251v-387h379v-238h-379v-387h-251v387h-377zM74 -4v235h1007v-235h-1007z" />
    <glyph glyph-name="twosuperior" unicode="&#xb2;" horiz-adv-x="722" 
d="M47 817v76q0 56 17 103t39.5 78t63 61.5t68.5 46t76 39.5q47 24 67 36t49.5 33.5t41.5 44t12 49.5q0 41 -27.5 63.5t-78.5 22.5q-119 0 -131 -135h-197q9 139 94 219t234 80q140 0 221.5 -67.5t81.5 -182.5q0 -47 -16 -88t-37.5 -68t-60 -54.5t-65.5 -42t-71 -35.5
q-68 -33 -107.5 -58.5t-52.5 -54.5h410v-166h-631z" />
    <glyph glyph-name="threesuperior" unicode="&#xb3;" horiz-adv-x="757" 
d="M45 1081h201q12 -59 43.5 -85.5t91.5 -26.5q62 0 96.5 25t34.5 71q0 44 -39.5 68t-112.5 24h-65v152h61q63 0 96 21t33 59q0 79 -108 79q-111 0 -117 -88h-203q11 118 96 186t230 68q136 0 218.5 -60t82.5 -165q0 -132 -143 -166q172 -35 172 -190q0 -116 -89.5 -183
t-240.5 -67q-150 0 -236.5 71t-101.5 207z" />
    <glyph glyph-name="acute" unicode="&#xb4;" horiz-adv-x="577" 
d="M74 1194l162 303h270l-232 -303h-200z" />
    <glyph glyph-name="paragraph" unicode="&#xb6;" horiz-adv-x="1464" 
d="M647 -369v818h-57q-254 0 -401.5 138t-147.5 369t147.5 369.5t401.5 138.5h338v-1833h-281zM1094 -369v1833h278v-1833h-278z" />
    <glyph glyph-name="periodcentered" unicode="&#xb7;" horiz-adv-x="442" 
d="M74 444v287h295v-287h-295z" />
    <glyph glyph-name="cedilla" unicode="&#xb8;" horiz-adv-x="653" 
d="M72 -313l47 98q104 -61 198 -61q51 0 78 17t27 48q0 28 -21.5 44.5t-62.5 16.5q-42 0 -82 -14l-96 37l53 160h125l-41 -119q45 18 104 18q83 0 131 -41.5t48 -103.5q0 -75 -67 -127.5t-179 -52.5q-133 0 -262 80z" />
    <glyph glyph-name="onesuperior" unicode="&#xb9;" horiz-adv-x="487" 
d="M35 1323v166h63q76 0 104.5 27.5t28.5 103.5h172v-803h-198v506h-170z" />
    <glyph glyph-name="ordmasculine" unicode="&#xba;" horiz-adv-x="911" 
d="M268 1221q0 -105 50 -167.5t137 -62.5q88 0 138 62.5t50 167.5t-50 167t-138 62q-87 0 -137 -62t-50 -167zM51 1221q0 182 111.5 294.5t292.5 112.5q182 0 292.5 -112.5t110.5 -294.5q0 -184 -110.5 -296t-292.5 -112q-181 0 -292.5 112.5t-111.5 295.5z" />
    <glyph glyph-name="guillemotright" unicode="&#xbb;" horiz-adv-x="1441" 
d="M1397 565l-467 -508h-316l463 508l-463 504h316zM811 565l-467 -508h-315l463 508l-463 504h315z" />
    <glyph glyph-name="onequarter" unicode="&#xbc;" horiz-adv-x="1642" 
d="M1069 317h195v283zM74 1167v166h63q76 0 104.5 27.5t28.5 103.5h172v-802h-198v505h-170zM184 0l1028 1464h232l-1028 -1464h-232zM870 150v159l340 496h252v-488h107v-167h-107v-148h-198v148h-394z" />
    <glyph glyph-name="onehalf" unicode="&#xbd;" horiz-adv-x="1746" 
d="M184 0l1028 1464h232l-1028 -1464h-232zM1044 2v76q0 40 9 76t21.5 62.5t35.5 52.5t42.5 43t51 36.5t51.5 30t54 27.5q47 24 67 36t49.5 33.5t41.5 44t12 49.5q0 41 -28 63.5t-79 22.5q-119 0 -131 -135h-197q9 139 94 219t234 80q140 0 221.5 -67.5t81.5 -182.5
q0 -47 -16 -88t-37.5 -68t-60 -54.5t-65.5 -42t-71 -35.5q-67 -33 -106 -58.5t-53 -54.5h409v-166h-631zM74 1167v166h63q76 0 104.5 27.5t28.5 103.5h172v-802h-198v505h-170z" />
    <glyph glyph-name="threequarters" unicode="&#xbe;" horiz-adv-x="1808" 
d="M1237 317h195v283zM74 938h200q12 -59 44 -86t92 -27q62 0 96.5 25.5t34.5 71.5q0 44 -39.5 68t-112.5 24h-65v151h61q63 0 96 21t33 59t-28 59t-80 21q-111 0 -117 -88h-203q11 118 96 186t230 68q136 0 218.5 -60t82.5 -165q0 -132 -144 -166q172 -35 172 -191
q0 -116 -89.5 -183t-239.5 -67t-236.5 71.5t-101.5 207.5zM350 0l1028 1464h232l-1028 -1464h-232zM1038 150v159l340 496h252v-488h107v-167h-107v-148h-198v148h-394z" />
    <glyph glyph-name="questiondown" unicode="&#xbf;" horiz-adv-x="1218" 
d="M801 1114v-289h-295v289h295zM872 186h302q-19 -275 -166 -419t-408 -144q-243 0 -383.5 121t-140.5 328q0 66 15.5 120.5t41.5 92t59.5 68t70.5 53t74 42t70.5 40t59.5 43t41.5 54t15.5 70.5v62h258v-41q0 -88 -22.5 -156t-58.5 -109.5t-79.5 -73.5t-86.5 -57.5
t-79 -52.5t-58.5 -67t-22.5 -92q0 -94 63.5 -150.5t169.5 -56.5q243 0 264 325z" />
    <glyph glyph-name="Agrave" unicode="&#xc0;" horiz-adv-x="1404" 
d="M487 578h433l-215 618zM-23 0l533 1464h389l531 -1464h-316l-117 338h-587l-119 -338h-314zM598 1573l-229 303h270l162 -303h-203z" />
    <glyph glyph-name="Aacute" unicode="&#xc1;" horiz-adv-x="1404" 
d="M487 578h433l-215 618zM-23 0l533 1464h389l531 -1464h-316l-117 338h-587l-119 -338h-314zM602 1573l162 303h270l-231 -303h-201z" />
    <glyph glyph-name="Acircumflex" unicode="&#xc2;" horiz-adv-x="1404" 
d="M487 578h433l-215 618zM-23 0l533 1464h389l531 -1464h-316l-117 338h-587l-119 -338h-314zM584 1874h235l232 -303h-191l-158 174l-159 -174h-189z" />
    <glyph glyph-name="Atilde" unicode="&#xc3;" horiz-adv-x="1404" 
d="M487 578h433l-215 618zM-23 0l533 1464h389l531 -1464h-316l-117 338h-587l-119 -338h-314zM506 1583h-105q0 291 168 291q33 0 64.5 -12.5t49 -25.5t44.5 -36q69 -53 111 -53q36 0 50.5 29t14.5 88h103q0 -149 -41 -220t-127 -71q-33 0 -66 12.5t-51 25.5t-47 36
q-66 51 -107 51q-35 0 -48 -29t-13 -86z" />
    <glyph glyph-name="Adieresis" unicode="&#xc4;" horiz-adv-x="1404" 
d="M487 578h433l-215 618zM-23 0l533 1464h389l531 -1464h-316l-117 338h-587l-119 -338h-314zM408 1589v254h245v-254h-245zM745 1589v254h248v-254h-248z" />
    <glyph glyph-name="Aring" unicode="&#xc5;" horiz-adv-x="1404" 
d="M487 578h433l-215 618zM-23 0l533 1464h389l531 -1464h-316l-117 338h-587l-119 -338h-314zM612 1778q0 -39 24.5 -63.5t65.5 -24.5t66 24t25 64t-25 64t-66 24t-65.5 -24.5t-24.5 -63.5zM475 1778q0 93 64 153t163 60q98 0 163 -60.5t65 -152.5t-64 -152.5t-164 -60.5
q-99 0 -163 60t-64 153z" />
    <glyph glyph-name="AE" unicode="&#xc6;" horiz-adv-x="1968" 
d="M549 578h305v616h-20zM854 0v338h-405l-158 -338h-314l682 1464h1235v-245h-749v-363h713v-242h-713v-368h760v-246h-1051z" />
    <glyph glyph-name="Ccedilla" unicode="&#xc7;" horiz-adv-x="1517" 
d="M569 -313l47 98q104 -61 199 -61q51 0 78 17t27 48q0 28 -21.5 44.5t-62.5 16.5q-42 0 -82 -14l-97 37l35 102q-294 25 -466.5 227.5t-172.5 528.5q0 347 194 553.5t521 206.5q279 0 462 -151t230 -427h-307q-32 157 -134.5 244.5t-254.5 87.5q-188 0 -300 -137.5
t-112 -374.5q0 -238 112.5 -376t303.5 -138q158 0 259.5 93.5t129.5 265.5h307q-38 -272 -210 -430.5t-439 -172.5l-20 -61q45 18 104 18q83 0 130.5 -41t47.5 -104q0 -75 -67 -127.5t-179 -52.5q-133 0 -262 80z" />
    <glyph glyph-name="Egrave" unicode="&#xc8;" horiz-adv-x="1206" 
d="M90 0v1464h1040v-245h-747v-363h713v-242h-713v-368h758v-246h-1051zM510 1573l-229 303h270l162 -303h-203z" />
    <glyph glyph-name="Eacute" unicode="&#xc9;" horiz-adv-x="1206" 
d="M90 0v1464h1040v-245h-747v-363h713v-242h-713v-368h758v-246h-1051zM516 1573l162 303h270l-231 -303h-201z" />
    <glyph glyph-name="Ecircumflex" unicode="&#xca;" horiz-adv-x="1206" 
d="M90 0v1464h1040v-245h-747v-363h713v-242h-713v-368h758v-246h-1051zM496 1874h235l232 -303h-191l-158 174l-159 -174h-189z" />
    <glyph glyph-name="Edieresis" unicode="&#xcb;" horiz-adv-x="1206" 
d="M90 0v1464h1040v-245h-747v-363h713v-242h-713v-368h758v-246h-1051zM322 1589v254h245v-254h-245zM659 1589v254h248v-254h-248z" />
    <glyph glyph-name="Igrave" unicode="&#xcc;" 
d="M92 0v1464h291v-1464h-291zM135 1573l-229 303h270l162 -303h-203z" />
    <glyph glyph-name="Iacute" unicode="&#xcd;" 
d="M92 0v1464h291v-1464h-291zM139 1573l162 303h270l-231 -303h-201z" />
    <glyph glyph-name="Icircumflex" unicode="&#xce;" 
d="M92 0v1464h291v-1464h-291zM121 1874h235l232 -303h-191l-157 174l-160 -174h-189z" />
    <glyph glyph-name="Idieresis" unicode="&#xcf;" 
d="M92 0v1464h291v-1464h-291zM-55 1589v254h245v-254h-245zM283 1589v254h247v-254h-247z" />
    <glyph glyph-name="Eth" unicode="&#xd0;" horiz-adv-x="1515" 
d="M479 246h217q235 0 350 120.5t115 366.5t-115 366t-350 120h-217v-375h303v-213h-303v-385zM41 631v213h147v620h512q367 0 565.5 -190t198.5 -543t-198.5 -542t-567.5 -189h-510v631h-147z" />
    <glyph glyph-name="Ntilde" unicode="&#xd1;" horiz-adv-x="1454" 
d="M92 0v1464h340l639 -1069v1069h293v-1464h-352l-627 1034v-1034h-293zM530 1583h-104q0 291 168 291q33 0 64.5 -12.5t49 -25.5t44.5 -36q23 -18 36 -27t34 -17.5t40 -8.5q37 0 51.5 29t14.5 88h102q0 -149 -41 -220t-127 -71q-33 0 -66 12.5t-51 25.5t-47 36
q-66 51 -106 51q-35 0 -48.5 -29t-13.5 -86z" />
    <glyph glyph-name="Ograve" unicode="&#xd2;" horiz-adv-x="1568" 
d="M352 731q0 -238 117 -375t313 -137q198 0 315 137t117 375q0 240 -117.5 377t-314.5 137q-196 0 -313 -137.5t-117 -376.5zM51 731q0 231 91 403.5t256 264.5t384 92q333 0 533.5 -205t200.5 -555t-199.5 -554t-534.5 -204q-333 0 -532 204.5t-199 553.5zM680 1573
l-229 303h270l162 -303h-203z" />
    <glyph glyph-name="Oacute" unicode="&#xd3;" horiz-adv-x="1568" 
d="M352 731q0 -238 117 -375t313 -137q198 0 315 137t117 375q0 240 -117.5 377t-314.5 137q-196 0 -313 -137.5t-117 -376.5zM51 731q0 231 91 403.5t256 264.5t384 92q333 0 533.5 -205t200.5 -555t-199.5 -554t-534.5 -204q-333 0 -532 204.5t-199 553.5zM684 1573
l162 303h270l-231 -303h-201z" />
    <glyph glyph-name="Ocircumflex" unicode="&#xd4;" horiz-adv-x="1568" 
d="M352 731q0 -238 117 -375t313 -137q198 0 315 137t117 375q0 240 -117.5 377t-314.5 137q-196 0 -313 -137.5t-117 -376.5zM51 731q0 231 91 403.5t256 264.5t384 92q333 0 533.5 -205t200.5 -555t-199.5 -554t-534.5 -204q-333 0 -532 204.5t-199 553.5zM666 1874h235
l232 -303h-191l-158 174l-159 -174h-189z" />
    <glyph glyph-name="Otilde" unicode="&#xd5;" horiz-adv-x="1568" 
d="M352 731q0 -238 117 -375t313 -137q198 0 315 137t117 375q0 240 -117.5 377t-314.5 137q-196 0 -313 -137.5t-117 -376.5zM51 731q0 231 91 403.5t256 264.5t384 92q333 0 533.5 -205t200.5 -555t-199.5 -554t-534.5 -204q-333 0 -532 204.5t-199 553.5zM588 1583h-105
q0 291 168 291q33 0 64.5 -12.5t49 -25.5t44.5 -36q69 -53 111 -53q36 0 50.5 29t14.5 88h102q0 -150 -40.5 -220.5t-126.5 -70.5q-33 0 -66 12.5t-51 25.5t-47 36q-66 51 -107 51q-35 0 -48 -29t-13 -86z" />
    <glyph glyph-name="Odieresis" unicode="&#xd6;" horiz-adv-x="1568" 
d="M352 731q0 -238 117 -375t313 -137q198 0 315 137t117 375q0 240 -117.5 377t-314.5 137q-196 0 -313 -137.5t-117 -376.5zM51 731q0 231 91 403.5t256 264.5t384 92q333 0 533.5 -205t200.5 -555t-199.5 -554t-534.5 -204q-333 0 -532 204.5t-199 553.5zM489 1589v254
h246v-254h-246zM827 1589v254h248v-254h-248z" />
    <glyph glyph-name="multiply" unicode="&#xd7;" horiz-adv-x="1050" 
d="M74 438l278 279l-278 278l174 174l276 -278l279 278l174 -174l-279 -278l279 -279l-174 -174l-277 279l-278 -279z" />
    <glyph glyph-name="Oslash" unicode="&#xd8;" horiz-adv-x="1568" 
d="M424 399l590 803q-102 60 -232 60q-203 0 -324.5 -141.5t-121.5 -389.5q0 -202 88 -332zM1143 1067l-590 -803q94 -61 229 -61q206 0 328.5 140.5t122.5 387.5q0 200 -90 336zM113 -25l143 197q-205 205 -205 559q0 348 200.5 554t532.5 206q215 0 377 -90l66 90h225
l-141 -199q205 -205 205 -561q0 -350 -199.5 -554t-532.5 -204q-215 0 -381 90l-65 -88h-225z" />
    <glyph glyph-name="Ugrave" unicode="&#xd9;" horiz-adv-x="1413" 
d="M92 530v934h293v-923q0 -154 84.5 -238t239.5 -84q154 0 237.5 84t83.5 238v923h293v-934q0 -258 -165.5 -407.5t-448.5 -149.5t-450 150t-167 407zM602 1573l-229 303h270l162 -303h-203z" />
    <glyph glyph-name="Uacute" unicode="&#xda;" horiz-adv-x="1413" 
d="M92 530v934h293v-923q0 -154 84.5 -238t239.5 -84q154 0 237.5 84t83.5 238v923h293v-934q0 -258 -165.5 -407.5t-448.5 -149.5t-450 150t-167 407zM606 1573l162 303h270l-231 -303h-201z" />
    <glyph glyph-name="Ucircumflex" unicode="&#xdb;" horiz-adv-x="1413" 
d="M92 530v934h293v-923q0 -154 84.5 -238t239.5 -84q154 0 237.5 84t83.5 238v923h293v-934q0 -258 -165.5 -407.5t-448.5 -149.5t-450 150t-167 407zM588 1874h235l232 -303h-191l-157 174l-160 -174h-189z" />
    <glyph glyph-name="Udieresis" unicode="&#xdc;" horiz-adv-x="1413" 
d="M92 530v934h293v-923q0 -154 84.5 -238t239.5 -84q154 0 237.5 84t83.5 238v923h293v-934q0 -258 -165.5 -407.5t-448.5 -149.5t-450 150t-167 407zM412 1589v254h245v-254h-245zM750 1589v254h247v-254h-247z" />
    <glyph glyph-name="Yacute" unicode="&#xdd;" horiz-adv-x="1308" 
d="M510 0v537l-533 927h330l348 -653l346 653h332l-532 -927v-537h-291zM555 1573l162 303h270l-231 -303h-201z" />
    <glyph glyph-name="Thorn" unicode="&#xde;" horiz-adv-x="1323" 
d="M383 510h326q133 0 198.5 53t65.5 168q0 116 -66 170.5t-198 54.5h-326v-446zM90 0v1464h293v-262h340q272 0 410.5 -121.5t138.5 -349.5q0 -227 -138.5 -347t-410.5 -120h-340v-264h-293z" />
    <glyph glyph-name="germandbls" unicode="&#xdf;" horiz-adv-x="1284" 
d="M90 0v1036q0 249 144 386t399 137q150 0 267 -45t187 -138.5t70 -222.5q0 -128 -67 -217.5t-185 -114.5q154 -23 246 -132.5t92 -270.5q0 -202 -149.5 -314t-419.5 -112q-81 0 -150 14v242q68 -12 127 -12q299 0 299 223q0 113 -77 172t-230 59h-96v234h86
q109 0 173 52.5t64 141.5q0 86 -61.5 141.5t-171.5 55.5q-124 0 -192 -72t-68 -205v-1038h-287z" />
    <glyph glyph-name="agrave" unicode="&#xe0;" horiz-adv-x="1175" 
d="M336 324q0 -66 49 -101t137 -35q136 0 218.5 78.5t82.5 206.5v53l-313 -59q-93 -19 -133.5 -52.5t-40.5 -90.5zM45 285q0 138 94.5 217.5t290.5 115.5l393 72v8q0 111 -60.5 167.5t-172.5 56.5q-217 0 -242 -211h-289q18 208 160 319t373 111q244 0 378 -121t134 -344
v-676h-264l-6 164q-53 -84 -164 -137.5t-250 -53.5q-78 0 -144.5 18.5t-119 55.5t-82 98t-29.5 140zM487 1223l-229 303h270l162 -303h-203z" />
    <glyph glyph-name="aacute" unicode="&#xe1;" horiz-adv-x="1175" 
d="M336 324q0 -66 49 -101t137 -35q136 0 218.5 78.5t82.5 206.5v53l-313 -59q-93 -19 -133.5 -52.5t-40.5 -90.5zM45 285q0 138 94.5 217.5t290.5 115.5l393 72v8q0 111 -60.5 167.5t-172.5 56.5q-217 0 -242 -211h-289q18 208 160 319t373 111q244 0 378 -121t134 -344
v-676h-264l-6 164q-53 -84 -164 -137.5t-250 -53.5q-78 0 -144.5 18.5t-119 55.5t-82 98t-29.5 140zM492 1223l161 303h271l-232 -303h-200z" />
    <glyph glyph-name="acircumflex" unicode="&#xe2;" horiz-adv-x="1175" 
d="M336 324q0 -66 49 -101t137 -35q136 0 218.5 78.5t82.5 206.5v53l-313 -59q-93 -19 -133.5 -52.5t-40.5 -90.5zM45 285q0 138 94.5 217.5t290.5 115.5l393 72v8q0 111 -60.5 167.5t-172.5 56.5q-217 0 -242 -211h-289q18 208 160 319t373 111q244 0 378 -121t134 -344
v-676h-264l-6 164q-53 -84 -164 -137.5t-250 -53.5q-78 0 -144.5 18.5t-119 55.5t-82 98t-29.5 140zM473 1524h236l231 -303h-190l-158 174l-160 -174h-188z" />
    <glyph glyph-name="atilde" unicode="&#xe3;" horiz-adv-x="1175" 
d="M336 324q0 -66 49 -101t137 -35q136 0 218.5 78.5t82.5 206.5v53l-313 -59q-93 -19 -133.5 -52.5t-40.5 -90.5zM45 285q0 138 94.5 217.5t290.5 115.5l393 72v8q0 111 -60.5 167.5t-172.5 56.5q-217 0 -242 -211h-289q18 208 160 319t373 111q244 0 378 -121t134 -344
v-676h-264l-6 164q-53 -84 -164 -137.5t-250 -53.5q-78 0 -144.5 18.5t-119 55.5t-82 98t-29.5 140zM395 1233h-104q0 291 168 291q33 0 64 -12.5t48 -25t45 -36.5q69 -53 111 -53q37 0 51.5 28.5t14.5 87.5h102q0 -149 -41 -219.5t-127 -70.5q-34 0 -66.5 12.5t-51 25
t-46.5 35.5q-67 52 -106 52q-35 0 -48.5 -29t-13.5 -86z" />
    <glyph glyph-name="adieresis" unicode="&#xe4;" horiz-adv-x="1175" 
d="M336 324q0 -66 49 -101t137 -35q136 0 218.5 78.5t82.5 206.5v53l-313 -59q-93 -19 -133.5 -52.5t-40.5 -90.5zM45 285q0 138 94.5 217.5t290.5 115.5l393 72v8q0 111 -60.5 167.5t-172.5 56.5q-217 0 -242 -211h-289q18 208 160 319t373 111q244 0 378 -121t134 -344
v-676h-264l-6 164q-53 -84 -164 -137.5t-250 -53.5q-78 0 -144.5 18.5t-119 55.5t-82 98t-29.5 140zM297 1239v254h246v-254h-246zM635 1239v254h248v-254h-248z" />
    <glyph glyph-name="aring" unicode="&#xe5;" horiz-adv-x="1175" 
d="M336 324q0 -66 49 -101t137 -35q136 0 218.5 78.5t82.5 206.5v53l-313 -59q-93 -19 -133.5 -52.5t-40.5 -90.5zM45 285q0 138 94.5 217.5t290.5 115.5l393 72v8q0 111 -60.5 167.5t-172.5 56.5q-217 0 -242 -211h-289q18 208 160 319t373 111q244 0 378 -121t134 -344
v-676h-264l-6 164q-53 -84 -164 -137.5t-250 -53.5q-78 0 -144.5 18.5t-119 55.5t-82 98t-29.5 140zM502 1427q0 -39 24.5 -63.5t65.5 -24.5t65.5 24t24.5 64t-24.5 64.5t-65.5 24.5t-65.5 -25t-24.5 -64zM365 1427q0 93 64 153t163 60q98 0 162.5 -60.5t64.5 -152.5
q0 -93 -64 -153t-163 -60t-163 60t-64 153z" />
    <glyph glyph-name="ae" unicode="&#xe6;" horiz-adv-x="2007" 
d="M336 324q0 -66 49 -101t135 -35q136 0 218.5 78.5t82.5 206.5v55l-313 -61q-92 -19 -132 -52.5t-40 -90.5zM1118 647h551q-15 125 -86 195.5t-186 70.5t-187.5 -70.5t-91.5 -195.5zM43 285q0 137 95 217t290 116l393 74v6q0 111 -60 167.5t-171 56.5q-217 0 -242 -211
h-289q18 208 160 319t373 111q271 0 401 -158q155 158 404 158q255 0 407 -157t152 -415v-86h-840q15 -132 89.5 -207t193.5 -75q89 0 152 43t94 121h301q-50 -182 -195 -287t-354 -105q-175 0 -306.5 76t-201.5 211q-46 -133 -172.5 -210t-296.5 -77q-79 0 -146 18.5
t-119 55.5t-82 98t-30 140z" />
    <glyph glyph-name="ccedilla" unicode="&#xe7;" horiz-adv-x="1232" 
d="M440 -313l47 98q104 -61 199 -61q51 0 78 17t27 48q0 28 -21.5 44.5t-62.5 16.5q-42 0 -82 -14l-97 37l35 102q-234 22 -373 180t-139 404q0 260 159 421t419 161q224 0 375 -120.5t186 -324.5h-295q-25 99 -93 154t-171 55q-137 0 -213 -93t-76 -253q0 -162 76 -256
t213 -94q107 0 175.5 59.5t92.5 165.5h293q-31 -196 -165.5 -319t-340.5 -140l-20 -61q45 18 104 18q83 0 130.5 -41t47.5 -104q0 -75 -67 -127.5t-179 -52.5q-133 0 -262 80z" />
    <glyph glyph-name="egrave" unicode="&#xe8;" horiz-adv-x="1236" 
d="M348 647h549q-14 125 -84 195.5t-186 70.5q-115 0 -187.5 -70.5t-91.5 -195.5zM51 559q0 261 158 421.5t418 160.5q255 0 407 -157t152 -415v-86h-840q15 -132 89.5 -207t193.5 -75q89 0 151.5 43t93.5 121h302q-50 -181 -195.5 -286.5t-353.5 -105.5q-260 0 -418 161.5
t-158 424.5zM522 1223l-229 303h270l162 -303h-203z" />
    <glyph glyph-name="eacute" unicode="&#xe9;" horiz-adv-x="1236" 
d="M348 647h549q-14 125 -84 195.5t-186 70.5q-115 0 -187.5 -70.5t-91.5 -195.5zM51 559q0 261 158 421.5t418 160.5q255 0 407 -157t152 -415v-86h-840q15 -132 89.5 -207t193.5 -75q89 0 151.5 43t93.5 121h302q-50 -181 -195.5 -286.5t-353.5 -105.5q-260 0 -418 161.5
t-158 424.5zM526 1223l162 303h270l-231 -303h-201z" />
    <glyph glyph-name="ecircumflex" unicode="&#xea;" horiz-adv-x="1236" 
d="M348 647h549q-14 125 -84 195.5t-186 70.5q-115 0 -187.5 -70.5t-91.5 -195.5zM51 559q0 261 158 421.5t418 160.5q255 0 407 -157t152 -415v-86h-840q15 -132 89.5 -207t193.5 -75q89 0 151.5 43t93.5 121h302q-50 -181 -195.5 -286.5t-353.5 -105.5q-260 0 -418 161.5
t-158 424.5zM506 1524h235l232 -303h-191l-157 174l-160 -174h-189z" />
    <glyph glyph-name="edieresis" unicode="&#xeb;" horiz-adv-x="1236" 
d="M348 647h549q-14 125 -84 195.5t-186 70.5q-115 0 -187.5 -70.5t-91.5 -195.5zM51 559q0 261 158 421.5t418 160.5q255 0 407 -157t152 -415v-86h-840q15 -132 89.5 -207t193.5 -75q89 0 151.5 43t93.5 121h302q-50 -181 -195.5 -286.5t-353.5 -105.5q-260 0 -418 161.5
t-158 424.5zM332 1239v254h246v-254h-246zM670 1239v254h248v-254h-248z" />
    <glyph glyph-name="igrave" unicode="&#xec;" 
d="M94 0v1114h287v-1114h-287zM133 1223l-229 303h270l162 -303h-203z" />
    <glyph glyph-name="iacute" unicode="&#xed;" 
d="M94 0v1114h287v-1114h-287zM137 1223l162 303h270l-231 -303h-201z" />
    <glyph glyph-name="icircumflex" unicode="&#xee;" 
d="M94 0v1114h287v-1114h-287zM119 1524h235l232 -303h-191l-157 174l-160 -174h-189z" />
    <glyph glyph-name="idieresis" unicode="&#xef;" 
d="M94 0v1114h287v-1114h-287zM-57 1239v254h245v-254h-245zM281 1239v254h247v-254h-247z" />
    <glyph glyph-name="eth" unicode="&#xf0;" horiz-adv-x="1259" 
d="M342 557q0 -160 78.5 -254t210.5 -94t210.5 94t78.5 254q0 151 -83.5 246.5t-215.5 95.5q-128 0 -203.5 -92.5t-75.5 -249.5zM51 557q0 246 140 397.5t366 151.5q190 0 297 -125q-69 170 -217 297l-248 -119l-61 123l186 90q-69 47 -174 103l88 149q160 -69 293 -154
l219 105l61 -125l-153 -74q184 -153 272 -354.5t88 -464.5q0 -261 -159 -422.5t-418 -161.5q-258 0 -419 161.5t-161 422.5z" />
    <glyph glyph-name="ntilde" unicode="&#xf1;" horiz-adv-x="1165" 
d="M80 0v1114h264l6 -201q42 113 133.5 170.5t218.5 57.5q181 0 286.5 -113t105.5 -311v-717h-285v625q0 138 -49.5 205t-153.5 67q-111 0 -175 -71.5t-64 -200.5v-625h-287zM395 1233h-104q0 291 168 291q33 0 64 -12.5t48 -25t45 -36.5q69 -53 111 -53q37 0 51.5 28.5
t14.5 87.5h102q0 -149 -41 -219.5t-127 -70.5q-34 0 -66.5 12.5t-51 25t-46.5 35.5q-67 52 -106 52q-35 0 -48.5 -29t-13.5 -86z" />
    <glyph glyph-name="ograve" unicode="&#xf2;" horiz-adv-x="1259" 
d="M342 557q0 -161 76.5 -254.5t212.5 -93.5t212.5 93.5t76.5 254.5q0 160 -77 254t-212 94t-212 -94t-77 -254zM51 557q0 262 159 423t421 161q260 0 418.5 -161t158.5 -423t-158.5 -423t-418.5 -161q-262 0 -421 161t-159 423zM524 1223l-229 303h270l162 -303h-203z" />
    <glyph glyph-name="oacute" unicode="&#xf3;" horiz-adv-x="1259" 
d="M342 557q0 -161 76.5 -254.5t212.5 -93.5t212.5 93.5t76.5 254.5q0 160 -77 254t-212 94t-212 -94t-77 -254zM51 557q0 262 159 423t421 161q260 0 418.5 -161t158.5 -423t-158.5 -423t-418.5 -161q-262 0 -421 161t-159 423zM530 1223l162 303h271l-232 -303h-201z" />
    <glyph glyph-name="ocircumflex" unicode="&#xf4;" horiz-adv-x="1259" 
d="M342 557q0 -161 76.5 -254.5t212.5 -93.5t212.5 93.5t76.5 254.5q0 160 -77 254t-212 94t-212 -94t-77 -254zM51 557q0 262 159 423t421 161q260 0 418.5 -161t158.5 -423t-158.5 -423t-418.5 -161q-262 0 -421 161t-159 423zM510 1524h235l232 -303h-191l-157 174
l-160 -174h-188z" />
    <glyph glyph-name="otilde" unicode="&#xf5;" horiz-adv-x="1259" 
d="M342 557q0 -161 76.5 -254.5t212.5 -93.5t212.5 93.5t76.5 254.5q0 160 -77 254t-212 94t-212 -94t-77 -254zM51 557q0 262 159 423t421 161q260 0 418.5 -161t158.5 -423t-158.5 -423t-418.5 -161q-262 0 -421 161t-159 423zM432 1233h-104q0 291 168 291q33 0 64 -12.5
t48 -25t45 -36.5q69 -53 111 -53q36 0 50.5 28.5t14.5 87.5h103q0 -149 -41 -219.5t-127 -70.5q-34 0 -66.5 12.5t-51 25t-46.5 35.5q-67 52 -106 52q-35 0 -48.5 -29t-13.5 -86z" />
    <glyph glyph-name="odieresis" unicode="&#xf6;" horiz-adv-x="1259" 
d="M342 557q0 -161 76.5 -254.5t212.5 -93.5t212.5 93.5t76.5 254.5q0 160 -77 254t-212 94t-212 -94t-77 -254zM51 557q0 262 159 423t421 161q260 0 418.5 -161t158.5 -423t-158.5 -423t-418.5 -161q-262 0 -421 161t-159 423zM336 1239v254h246v-254h-246zM674 1239v254
h248v-254h-248z" />
    <glyph glyph-name="divide" unicode="&#xf7;" horiz-adv-x="1153" 
d="M74 598v236h1007v-236h-1007zM444 219v260h267v-260h-267zM444 952v260h267v-260h-267z" />
    <glyph glyph-name="oslash" unicode="&#xf8;" horiz-adv-x="1259" 
d="M379 340l385 553q-63 29 -133 29q-143 0 -224 -98.5t-81 -266.5q0 -131 53 -217zM883 774l-385 -553q58 -28 133 -28q144 0 224.5 97.5t80.5 266.5q0 131 -53 217zM121 -27l104 148q-174 160 -174 436q0 262 159 423t421 161q146 0 268 -58l39 58h201l-103 -148
q172 -158 172 -436q0 -262 -158.5 -423t-418.5 -161q-146 0 -271 58l-38 -58h-201z" />
    <glyph glyph-name="ugrave" unicode="&#xf9;" horiz-adv-x="1163" 
d="M72 397v717h284v-625q0 -138 49.5 -205t153.5 -67q111 0 175.5 71.5t64.5 200.5v625h286v-1114h-264l-6 201q-42 -113 -133.5 -170.5t-218.5 -57.5q-181 0 -286 113t-105 311zM473 1223l-229 303h270l162 -303h-203z" />
    <glyph glyph-name="uacute" unicode="&#xfa;" horiz-adv-x="1163" 
d="M72 397v717h284v-625q0 -138 49.5 -205t153.5 -67q111 0 175.5 71.5t64.5 200.5v625h286v-1114h-264l-6 201q-42 -113 -133.5 -170.5t-218.5 -57.5q-181 0 -286 113t-105 311zM479 1223l162 303h270l-231 -303h-201z" />
    <glyph glyph-name="ucircumflex" unicode="&#xfb;" horiz-adv-x="1163" 
d="M72 397v717h284v-625q0 -138 49.5 -205t153.5 -67q111 0 175.5 71.5t64.5 200.5v625h286v-1114h-264l-6 201q-42 -113 -133.5 -170.5t-218.5 -57.5q-181 0 -286 113t-105 311zM459 1524h235l232 -303h-191l-157 174l-160 -174h-189z" />
    <glyph glyph-name="udieresis" unicode="&#xfc;" horiz-adv-x="1163" 
d="M72 397v717h284v-625q0 -138 49.5 -205t153.5 -67q111 0 175.5 71.5t64.5 200.5v625h286v-1114h-264l-6 201q-42 -113 -133.5 -170.5t-218.5 -57.5q-181 0 -286 113t-105 311zM285 1239v254h245v-254h-245zM623 1239v254h247v-254h-247z" />
    <glyph glyph-name="yacute" unicode="&#xfd;" horiz-adv-x="1079" 
d="M8 -383v238q102 -13 133 -13q174 0 236 117l-395 1155h299l262 -846l258 846h299l-387 -1137q-35 -104 -88 -177t-122 -115.5t-146.5 -61t-172.5 -18.5q-94 0 -176 12zM438 1223l162 303h270l-231 -303h-201z" />
    <glyph glyph-name="thorn" unicode="&#xfe;" horiz-adv-x="1255" 
d="M358 559q0 -163 75.5 -256.5t207.5 -93.5q130 0 201 91.5t71 258.5q0 166 -71 256t-201 90q-132 0 -207.5 -92t-75.5 -254zM78 -391v1896h278v-569q51 99 146.5 152t218.5 53q217 0 350 -161t133 -423q0 -264 -131 -424t-348 -160q-123 0 -222 54.5t-147 156.5v-575h-278
z" />
    <glyph glyph-name="ydieresis" unicode="&#xff;" horiz-adv-x="1079" 
d="M8 -383v238q102 -13 133 -13q174 0 236 117l-395 1155h299l262 -846l258 846h299l-387 -1137q-35 -104 -88 -177t-122 -115.5t-146.5 -61t-172.5 -18.5q-94 0 -176 12zM244 1239v254h245v-254h-245zM582 1239v254h247v-254h-247z" />
    <glyph glyph-name="Amacron" unicode="&#x100;" horiz-adv-x="1404" 
d="M487 578h433l-215 618zM-23 0l533 1464h389l531 -1464h-316l-117 338h-587l-119 -338h-314zM424 1614v172h557v-172h-557z" />
    <glyph glyph-name="amacron" unicode="&#x101;" horiz-adv-x="1175" 
d="M336 324q0 -66 49 -101t137 -35q136 0 218.5 78.5t82.5 206.5v53l-313 -59q-93 -19 -133.5 -52.5t-40.5 -90.5zM45 285q0 138 94.5 217.5t290.5 115.5l393 72v8q0 111 -60.5 167.5t-172.5 56.5q-217 0 -242 -211h-289q18 208 160 319t373 111q244 0 378 -121t134 -344
v-676h-264l-6 164q-53 -84 -164 -137.5t-250 -53.5q-78 0 -144.5 18.5t-119 55.5t-82 98t-29.5 140zM313 1264v172h557v-172h-557z" />
    <glyph glyph-name="Abreve" unicode="&#x102;" horiz-adv-x="1404" 
d="M487 578h433l-215 618zM-23 0l533 1464h389l531 -1464h-316l-117 338h-587l-119 -338h-314zM418 1884h151q2 -66 38.5 -105.5t97.5 -39.5t97 39.5t38 105.5h151q-3 -148 -79 -231.5t-207 -83.5t-207.5 83t-79.5 232z" />
    <glyph glyph-name="abreve" unicode="&#x103;" horiz-adv-x="1175" 
d="M336 324q0 -66 49 -101t137 -35q136 0 218.5 78.5t82.5 206.5v53l-313 -59q-93 -19 -133.5 -52.5t-40.5 -90.5zM45 285q0 138 94.5 217.5t290.5 115.5l393 72v8q0 111 -60.5 167.5t-172.5 56.5q-217 0 -242 -211h-289q18 208 160 319t373 111q244 0 378 -121t134 -344
v-676h-264l-6 164q-53 -84 -164 -137.5t-250 -53.5q-78 0 -144.5 18.5t-119 55.5t-82 98t-29.5 140zM307 1534h152q2 -66 38 -105.5t97 -39.5t97 39.5t38 105.5h152q-3 -147 -79.5 -231t-207.5 -84t-207.5 83t-79.5 232z" />
    <glyph glyph-name="Aogonek" unicode="&#x104;" horiz-adv-x="1404" 
d="M-23 0l533 1464h389l531 -1464h-5q-116 -11 -185 -40.5t-69 -72.5q0 -33 44 -50t120 -17q54 0 95 8v-188q-88 -9 -119 -9q-137 0 -222 45.5t-85 128.5q0 71 64.5 120t178.5 75h-133l-117 338h-587l-119 -338h-314zM487 578h433l-215 618z" />
    <glyph glyph-name="aogonek" unicode="&#x105;" horiz-adv-x="1175" 
d="M1104 0h-2q-116 -11 -185 -40.5t-69 -72.5q0 -33 44 -50t120 -17q53 0 94 8v-188q-88 -9 -119 -9q-137 0 -222 45.5t-85 128.5q0 71 65 120t179 75h-84l-6 164q-53 -84 -164 -137.5t-250 -53.5q-78 0 -144.5 18.5t-119 55.5t-82 98t-29.5 140q0 138 94.5 217.5
t290.5 115.5l393 72v8q0 111 -60.5 167.5t-172.5 56.5q-217 0 -242 -211h-289q18 208 160 319t373 111q244 0 378 -121t134 -344v-676zM336 324q0 -66 49 -101t137 -35q136 0 218.5 78.5t82.5 206.5v53l-313 -59q-93 -19 -133.5 -52.5t-40.5 -90.5z" />
    <glyph glyph-name="Cacute" unicode="&#x106;" horiz-adv-x="1517" 
d="M53 731q0 347 194 553.5t521 206.5q279 0 462 -151t230 -427h-307q-32 157 -134.5 244.5t-254.5 87.5q-188 0 -300 -137.5t-112 -374.5q0 -238 112.5 -376t303.5 -138q158 0 259.5 93.5t129.5 265.5h307q-40 -286 -226.5 -445.5t-473.5 -159.5q-324 0 -517.5 205.5
t-193.5 552.5zM664 1573l161 303h271l-232 -303h-200z" />
    <glyph glyph-name="cacute" unicode="&#x107;" horiz-adv-x="1232" 
d="M51 559q0 260 159 421t419 161q224 0 375 -120.5t186 -324.5h-295q-25 99 -93 154t-171 55q-137 0 -213 -93t-76 -253q0 -162 76 -256t213 -94q107 0 175.5 59.5t92.5 165.5h293q-32 -211 -183 -336t-380 -125q-261 0 -419.5 161.5t-158.5 424.5zM528 1223l162 303h271
l-232 -303h-201z" />
    <glyph glyph-name="Ccircumflex" unicode="&#x108;" horiz-adv-x="1517" 
d="M53 731q0 347 194 553.5t521 206.5q279 0 462 -151t230 -427h-307q-32 157 -134.5 244.5t-254.5 87.5q-188 0 -300 -137.5t-112 -374.5q0 -238 112.5 -376t303.5 -138q158 0 259.5 93.5t129.5 265.5h307q-40 -286 -226.5 -445.5t-473.5 -159.5q-324 0 -517.5 205.5
t-193.5 552.5zM645 1874h236l231 -303h-190l-158 174l-160 -174h-188z" />
    <glyph glyph-name="ccircumflex" unicode="&#x109;" horiz-adv-x="1232" 
d="M51 559q0 260 159 421t419 161q224 0 375 -120.5t186 -324.5h-295q-25 99 -93 154t-171 55q-137 0 -213 -93t-76 -253q0 -162 76 -256t213 -94q107 0 175.5 59.5t92.5 165.5h293q-32 -211 -183 -336t-380 -125q-261 0 -419.5 161.5t-158.5 424.5zM510 1524h235l232 -303
h-191l-157 174l-160 -174h-188z" />
    <glyph glyph-name="Cdotaccent" unicode="&#x10a;" horiz-adv-x="1517" 
d="M53 731q0 347 194 553.5t521 206.5q279 0 462 -151t230 -427h-307q-32 157 -134.5 244.5t-254.5 87.5q-188 0 -300 -137.5t-112 -374.5q0 -238 112.5 -376t303.5 -138q158 0 259.5 93.5t129.5 265.5h307q-40 -286 -226.5 -445.5t-473.5 -159.5q-324 0 -517.5 205.5
t-193.5 552.5zM643 1589v254h248v-254h-248z" />
    <glyph glyph-name="cdotaccent" unicode="&#x10b;" horiz-adv-x="1232" 
d="M51 559q0 260 159 421t419 161q224 0 375 -120.5t186 -324.5h-295q-25 99 -93 154t-171 55q-137 0 -213 -93t-76 -253q0 -162 76 -256t213 -94q107 0 175.5 59.5t92.5 165.5h293q-32 -211 -183 -336t-380 -125q-261 0 -419.5 161.5t-158.5 424.5zM506 1239v254h248v-254
h-248z" />
    <glyph glyph-name="Ccaron" unicode="&#x10c;" horiz-adv-x="1517" 
d="M53 731q0 347 194 553.5t521 206.5q279 0 462 -151t230 -427h-307q-32 157 -134.5 244.5t-254.5 87.5q-188 0 -300 -137.5t-112 -374.5q0 -238 112.5 -376t303.5 -138q158 0 259.5 93.5t129.5 265.5h307q-40 -286 -226.5 -445.5t-473.5 -159.5q-324 0 -517.5 205.5
t-193.5 552.5zM645 1571l-229 303h188l160 -174l158 174h190l-231 -303h-236z" />
    <glyph glyph-name="ccaron" unicode="&#x10d;" horiz-adv-x="1232" 
d="M51 559q0 260 159 421t419 161q224 0 375 -120.5t186 -324.5h-295q-25 99 -93 154t-171 55q-137 0 -213 -93t-76 -253q0 -162 76 -256t213 -94q107 0 175.5 59.5t92.5 165.5h293q-32 -211 -183 -336t-380 -125q-261 0 -419.5 161.5t-158.5 424.5zM510 1221l-229 303h188
l160 -174l157 174h191l-232 -303h-235z" />
    <glyph glyph-name="Dcaron" unicode="&#x10e;" horiz-adv-x="1417" 
d="M383 246h215q235 0 351 120.5t116 366.5t-116 366t-351 120h-215v-973zM90 0v1464h512q369 0 566.5 -190t197.5 -543t-197.5 -542t-566.5 -189h-512zM483 1571l-229 303h188l160 -174l158 174h190l-231 -303h-236z" />
    <glyph glyph-name="dcaron" unicode="&#x10f;" horiz-adv-x="1525" 
d="M897 559q0 163 -75 254.5t-208 91.5q-130 0 -201 -90t-71 -256q0 -167 72 -259.5t202 -92.5q131 0 206 94t75 258zM1178 0h-265l-6 184q-48 -102 -147.5 -156.5t-224.5 -54.5q-218 0 -351 160t-133 424q0 262 133.5 423t350.5 161q123 0 218.5 -53t147.5 -152v569h277
v-1505zM1507 1505l-82 -571h-165l43 571h204z" />
    <glyph glyph-name="Dcroat" unicode="&#x110;" horiz-adv-x="1515" 
d="M479 246h217q235 0 350 120.5t115 366.5t-115 366t-350 120h-217v-375h303v-213h-303v-385zM41 631v213h147v620h512q367 0 565.5 -190t198.5 -543t-198.5 -542t-567.5 -189h-510v631h-147z" />
    <glyph glyph-name="dcroat" unicode="&#x111;" horiz-adv-x="1335" 
d="M897 559q0 163 -75 254.5t-208 91.5q-130 0 -201 -90t-71 -256q0 -167 72 -259.5t202 -92.5q131 0 206 94t75 258zM580 1202v178h321v125h277v-125h114v-178h-114v-1202h-265l-6 184q-48 -102 -147.5 -156.5t-224.5 -54.5q-218 0 -351 160t-133 424q0 262 133.5 423
t350.5 161q123 0 218.5 -53t147.5 -152v266h-321z" />
    <glyph glyph-name="Emacron" unicode="&#x112;" horiz-adv-x="1206" 
d="M90 0v1464h1040v-245h-747v-363h713v-242h-713v-368h758v-246h-1051zM336 1614v172h557v-172h-557z" />
    <glyph glyph-name="emacron" unicode="&#x113;" horiz-adv-x="1236" 
d="M348 647h549q-14 125 -84 195.5t-186 70.5q-115 0 -187.5 -70.5t-91.5 -195.5zM51 559q0 261 158 421.5t418 160.5q255 0 407 -157t152 -415v-86h-840q15 -132 89.5 -207t193.5 -75q89 0 151.5 43t93.5 121h302q-50 -181 -195.5 -286.5t-353.5 -105.5q-260 0 -418 161.5
t-158 424.5zM348 1264v172h557v-172h-557z" />
    <glyph glyph-name="Ebreve" unicode="&#x114;" horiz-adv-x="1206" 
d="M90 0v1464h1040v-245h-747v-363h713v-242h-713v-368h758v-246h-1051zM330 1884h151q2 -66 38 -105.5t97 -39.5t97.5 39.5t38.5 105.5h151q-3 -147 -79.5 -231t-207.5 -84t-207 83t-79 232z" />
    <glyph glyph-name="ebreve" unicode="&#x115;" horiz-adv-x="1236" 
d="M348 647h549q-14 125 -84 195.5t-186 70.5q-115 0 -187.5 -70.5t-91.5 -195.5zM51 559q0 261 158 421.5t418 160.5q255 0 407 -157t152 -415v-86h-840q15 -132 89.5 -207t193.5 -75q89 0 151.5 43t93.5 121h302q-50 -181 -195.5 -286.5t-353.5 -105.5q-260 0 -418 161.5
t-158 424.5zM340 1534h152q2 -66 38 -105.5t97 -39.5t97 39.5t38 105.5h151q-3 -148 -79 -231.5t-207 -83.5t-207.5 83t-79.5 232z" />
    <glyph glyph-name="Edotaccent" unicode="&#x116;" horiz-adv-x="1206" 
d="M90 0v1464h1040v-245h-747v-363h713v-242h-713v-368h758v-246h-1051zM494 1589v254h247v-254h-247z" />
    <glyph glyph-name="edotaccent" unicode="&#x117;" horiz-adv-x="1236" 
d="M348 647h549q-14 125 -84 195.5t-186 70.5q-115 0 -187.5 -70.5t-91.5 -195.5zM51 559q0 261 158 421.5t418 160.5q255 0 407 -157t152 -415v-86h-840q15 -132 89.5 -207t193.5 -75q89 0 151.5 43t93.5 121h302q-50 -181 -195.5 -286.5t-353.5 -105.5q-260 0 -418 161.5
t-158 424.5zM504 1239v254h248v-254h-248z" />
    <glyph glyph-name="Eogonek" unicode="&#x118;" horiz-adv-x="1206" 
d="M90 0v1464h1040v-245h-747v-363h713v-242h-713v-368h758v-246h-2q-116 -11 -185 -40.5t-69 -72.5q0 -33 44 -50t120 -17q53 0 94 8v-188q-88 -9 -119 -9q-137 0 -222 45.5t-85 128.5q0 71 65 120t179 75h-871z" />
    <glyph glyph-name="eogonek" unicode="&#x119;" horiz-adv-x="1236" 
d="M51 559q0 261 158 421.5t418 160.5q255 0 407 -157t152 -415v-86h-840q15 -132 89.5 -207t193.5 -75q89 0 151.5 43t93.5 121h302q-56 -210 -242 -316q-56 -42 -92.5 -91t-36.5 -85q0 -74 170 -74q45 0 92 8v-188q-43 -8 -125 -8q-132 0 -216.5 45t-84.5 127
q0 104 156 211q-79 -21 -170 -21q-260 0 -418 161.5t-158 424.5zM348 647h549q-14 125 -84 195.5t-186 70.5q-115 0 -187.5 -70.5t-91.5 -195.5z" />
    <glyph glyph-name="Ecaron" unicode="&#x11a;" horiz-adv-x="1206" 
d="M90 0v1464h1040v-245h-747v-363h713v-242h-713v-368h758v-246h-1051zM496 1571l-230 303h189l159 -174l158 174h191l-232 -303h-235z" />
    <glyph glyph-name="ecaron" unicode="&#x11b;" horiz-adv-x="1236" 
d="M348 647h549q-14 125 -84 195.5t-186 70.5q-115 0 -187.5 -70.5t-91.5 -195.5zM51 559q0 261 158 421.5t418 160.5q255 0 407 -157t152 -415v-86h-840q15 -132 89.5 -207t193.5 -75q89 0 151.5 43t93.5 121h302q-50 -181 -195.5 -286.5t-353.5 -105.5q-260 0 -418 161.5
t-158 424.5zM506 1221l-230 303h189l160 -174l157 174h191l-232 -303h-235z" />
    <glyph glyph-name="Gcircumflex" unicode="&#x11c;" horiz-adv-x="1546" 
d="M51 727q0 350 195 557t522 207q268 0 447.5 -140t236.5 -397h-309q-40 138 -139 214.5t-240 76.5q-188 0 -300 -137.5t-112 -374.5q0 -239 112 -376.5t306 -137.5q157 0 261.5 89t135.5 249h-395v219h684v-776h-186l-29 221q-162 -248 -489 -248q-320 0 -510.5 205
t-190.5 549zM647 1874h236l231 -303h-190l-158 174l-160 -174h-188z" />
    <glyph glyph-name="gcircumflex" unicode="&#x11d;" horiz-adv-x="1255" 
d="M342 594q0 -151 71 -233t201 -82q134 0 208.5 83t74.5 232t-75.5 235t-207.5 86q-129 0 -200.5 -84.5t-71.5 -236.5zM92 14h291q10 -88 80.5 -139t177.5 -51q122 0 191 74.5t69 216.5v141q-52 -99 -148.5 -152t-220.5 -53q-216 0 -348.5 150t-132.5 395q0 246 132 395.5
t347 149.5q128 0 228.5 -54.5t148.5 -156.5l6 184h265v-985q0 -135 -38.5 -236.5t-111 -164t-170 -93t-221.5 -30.5q-81 0 -153.5 13.5t-140 44t-119 77t-86.5 116.5t-46 158zM496 1524h235l232 -303h-191l-158 174l-159 -174h-189z" />
    <glyph glyph-name="Gbreve" unicode="&#x11e;" horiz-adv-x="1546" 
d="M51 727q0 350 195 557t522 207q268 0 447.5 -140t236.5 -397h-309q-40 138 -139 214.5t-240 76.5q-188 0 -300 -137.5t-112 -374.5q0 -239 112 -376.5t306 -137.5q157 0 261.5 89t135.5 249h-395v219h684v-776h-186l-29 221q-162 -248 -489 -248q-320 0 -510.5 205
t-190.5 549zM481 1884h152q2 -66 38 -105.5t97 -39.5t97 39.5t38 105.5h152q-3 -147 -79.5 -231t-207.5 -84t-207.5 83t-79.5 232z" />
    <glyph glyph-name="gbreve" unicode="&#x11f;" horiz-adv-x="1255" 
d="M342 594q0 -151 71 -233t201 -82q134 0 208.5 83t74.5 232t-75.5 235t-207.5 86q-129 0 -200.5 -84.5t-71.5 -236.5zM92 14h291q10 -88 80.5 -139t177.5 -51q122 0 191 74.5t69 216.5v141q-52 -99 -148.5 -152t-220.5 -53q-216 0 -348.5 150t-132.5 395q0 246 132 395.5
t347 149.5q128 0 228.5 -54.5t148.5 -156.5l6 184h265v-985q0 -135 -38.5 -236.5t-111 -164t-170 -93t-221.5 -30.5q-81 0 -153.5 13.5t-140 44t-119 77t-86.5 116.5t-46 158zM330 1534h151q2 -66 38 -105.5t97 -39.5t97.5 39.5t38.5 105.5h151q-3 -147 -79.5 -231
t-207.5 -84t-207 83t-79 232z" />
    <glyph glyph-name="Gdotaccent" unicode="&#x120;" horiz-adv-x="1546" 
d="M51 727q0 350 195 557t522 207q268 0 447.5 -140t236.5 -397h-309q-40 138 -139 214.5t-240 76.5q-188 0 -300 -137.5t-112 -374.5q0 -239 112 -376.5t306 -137.5q157 0 261.5 89t135.5 249h-395v219h684v-776h-186l-29 221q-162 -248 -489 -248q-320 0 -510.5 205
t-190.5 549zM645 1589v254h248v-254h-248z" />
    <glyph glyph-name="gdotaccent" unicode="&#x121;" horiz-adv-x="1255" 
d="M342 594q0 -151 71 -233t201 -82q134 0 208.5 83t74.5 232t-75.5 235t-207.5 86q-129 0 -200.5 -84.5t-71.5 -236.5zM92 14h291q10 -88 80.5 -139t177.5 -51q122 0 191 74.5t69 216.5v141q-52 -99 -148.5 -152t-220.5 -53q-216 0 -348.5 150t-132.5 395q0 246 132 395.5
t347 149.5q128 0 228.5 -54.5t148.5 -156.5l6 184h265v-985q0 -135 -38.5 -236.5t-111 -164t-170 -93t-221.5 -30.5q-81 0 -153.5 13.5t-140 44t-119 77t-86.5 116.5t-46 158zM494 1239v254h247v-254h-247z" />
    <glyph glyph-name="uni0122" unicode="&#x122;" horiz-adv-x="1546" 
d="M51 727q0 350 195 557t522 207q268 0 447.5 -140t236.5 -397h-309q-40 138 -139 214.5t-240 76.5q-188 0 -300 -137.5t-112 -374.5q0 -239 112 -376.5t306 -137.5q157 0 261.5 89t135.5 249h-395v219h684v-776h-186l-29 221q-162 -248 -489 -248q-320 0 -510.5 205
t-190.5 549zM551 -434v4l72 321h258v-4l-133 -321h-197z" />
    <glyph glyph-name="uni0123" unicode="&#x123;" horiz-adv-x="1255" 
d="M342 594q0 -151 71 -233t201 -82q134 0 208.5 83t74.5 232t-75.5 235t-207.5 86q-129 0 -200.5 -84.5t-71.5 -236.5zM92 14h291q10 -88 80.5 -139t177.5 -51q122 0 191 74.5t69 216.5v141q-52 -99 -148.5 -152t-220.5 -53q-216 0 -348.5 150t-132.5 395q0 246 132 395.5
t347 149.5q128 0 228.5 -54.5t148.5 -156.5l6 184h265v-985q0 -135 -38.5 -236.5t-111 -164t-170 -93t-221.5 -30.5q-81 0 -153.5 13.5t-140 44t-119 77t-86.5 116.5t-46 158zM813 1550v-6l-70 -319h-258v4l133 321h195z" />
    <glyph glyph-name="Hcircumflex" unicode="&#x124;" horiz-adv-x="1390" 
d="M90 0v1464h293v-604h625v604h290v-1464h-290v616h-625v-616h-293zM578 1874h235l231 -303h-190l-158 174l-159 -174h-189z" />
    <glyph glyph-name="hcircumflex" unicode="&#x125;" horiz-adv-x="1163" 
d="M78 0v1505h287v-555q45 95 131.5 143t203.5 48q181 0 286.5 -113t105.5 -311v-717h-285v625q0 138 -49.5 205t-153.5 67q-111 0 -175 -71.5t-64 -200.5v-625h-287zM102 1913h236l231 -303h-190l-158 174l-160 -174h-188z" />
    <glyph glyph-name="Hbar" unicode="&#x126;" horiz-adv-x="1611" 
d="M494 860h624v207h-624v-207zM41 1067v197h160v200h293v-200h624v200h291v-200h160v-197h-160v-1067h-291v616h-624v-616h-293v1067h-160z" />
    <glyph glyph-name="hbar" unicode="&#x127;" horiz-adv-x="1241" 
d="M41 1200v180h115v125h286v-125h312v-180h-312v-250q46 95 133 143t203 48q181 0 287 -113t106 -311v-717h-286v625q0 139 -49 205.5t-154 66.5q-111 0 -175.5 -71.5t-64.5 -200.5v-625h-286v1200h-115z" />
    <glyph glyph-name="Itilde" unicode="&#x128;" 
d="M92 0v1464h291v-1464h-291zM41 1583h-104q0 291 167 291q33 0 64.5 -12.5t49 -25.5t44.5 -36q69 -53 111 -53q36 0 50.5 29t14.5 88h103q0 -149 -41 -220t-127 -71q-33 0 -66 12.5t-51 25.5t-47 36q-66 51 -107 51q-35 0 -48 -29t-13 -86z" />
    <glyph glyph-name="itilde" unicode="&#x129;" 
d="M94 0v1114h287v-1114h-287zM41 1233h-104q0 291 167 291q33 0 64.5 -12.5t49 -25.5t44.5 -36q69 -53 111 -53q37 0 51 28.5t14 87.5h103q0 -149 -41 -219.5t-127 -70.5q-34 0 -66.5 12.5t-51 25t-46.5 35.5q-67 52 -107 52q-35 0 -48 -29t-13 -86z" />
    <glyph glyph-name="Imacron" unicode="&#x12a;" 
d="M92 0v1464h291v-1464h-291zM-39 1614v172h557v-172h-557z" />
    <glyph glyph-name="imacron" unicode="&#x12b;" 
d="M94 0v1114h287v-1114h-287zM-41 1264v172h557v-172h-557z" />
    <glyph glyph-name="Ibreve" unicode="&#x12c;" 
d="M92 0v1464h291v-1464h-291zM-47 1884h151q2 -66 38.5 -105.5t97.5 -39.5t97 39.5t38 105.5h151q-3 -148 -79 -231.5t-207 -83.5t-207.5 83t-79.5 232z" />
    <glyph glyph-name="ibreve" unicode="&#x12d;" 
d="M94 0v1114h287v-1114h-287zM-47 1534h151q2 -66 38.5 -105.5t97.5 -39.5t97 39.5t38 105.5h151q-3 -148 -79 -231.5t-207 -83.5t-207.5 83t-79.5 232z" />
    <glyph glyph-name="Iogonek" unicode="&#x12e;" 
d="M92 0v1464h291v-1464h-2q-116 -11 -185 -40.5t-69 -72.5q0 -33 44 -50t120 -17q53 0 94 8v-188q-88 -9 -119 -9q-137 0 -222 45.5t-85 128.5q0 71 65 120t179 75h-111z" />
    <glyph glyph-name="iogonek" unicode="&#x12f;" horiz-adv-x="448" 
d="M82 0v1114h285v-1110l2 -4q-116 -11 -185 -40.5t-69 -72.5q0 -33 44 -50t120 -17q53 0 94 8v-188q-88 -9 -119 -9q-137 0 -222 45.5t-85 128.5q0 71 64.5 120t178.5 75h-108zM78 1235v262h293v-262h-293z" />
    <glyph glyph-name="Idotaccent" unicode="&#x130;" 
d="M92 0v1464h291v-1464h-291zM117 1589v254h248v-254h-248z" />
    <glyph glyph-name="dotlessi" unicode="&#x131;" 
d="M94 0v1114h287v-1114h-287z" />
    <glyph glyph-name="IJ" unicode="&#x132;" horiz-adv-x="1681" 
d="M92 0v1464h291v-1464h-291zM516 559h291q13 -181 72 -260.5t178 -79.5q241 0 241 303v942h291v-940q0 -260 -142.5 -405.5t-389.5 -145.5q-256 0 -393 155t-148 431z" />
    <glyph glyph-name="ij" unicode="&#x133;" horiz-adv-x="897" 
d="M82 0v1114h285v-1114h-285zM78 1235v262h293v-262h-293zM336 -367v228q35 -6 65 -6q70 0 99.5 38t29.5 138v1083h283v-1048q0 -228 -86 -334.5t-287 -106.5q-34 0 -104 8zM526 1235v262h293v-262h-293z" />
    <glyph glyph-name="Jcircumflex" unicode="&#x134;" horiz-adv-x="1206" 
d="M41 559h291q13 -181 72 -260.5t178 -79.5q241 0 241 303v942h291v-940q0 -260 -142.5 -405.5t-389.5 -145.5q-256 0 -393 155t-148 431zM850 1874h235l232 -303h-191l-157 174l-160 -174h-188z" />
    <glyph glyph-name="jcircumflex" unicode="&#x135;" horiz-adv-x="448" 
d="M-109 -383v227q34 -6 66 -6q70 0 99.5 38t29.5 138v1100h283v-1065q0 -228 -86 -334t-287 -106q-35 0 -105 8zM111 1524h235l232 -303h-191l-158 174l-159 -174h-189z" />
    <glyph glyph-name="uni0136" unicode="&#x136;" horiz-adv-x="1323" 
d="M92 0v1464h293v-622l569 622h355l-564 -622l601 -842h-347l-450 637l-164 -176v-461h-293zM494 -434v4l71 321h258v-4l-133 -321h-196z" />
    <glyph glyph-name="uni0137" unicode="&#x137;" horiz-adv-x="1185" 
d="M80 0v1505h282v-817l467 426h361l-479 -440l495 -674h-338l-358 502l-148 -135v-367h-282zM403 -434v4l72 321h258v-4l-133 -321h-197z" />
    <glyph glyph-name="kgreenlandic" unicode="&#x138;" horiz-adv-x="1230" 
d="M309 373l242 358l-242 361v-719zM399 184h523l-260 383zM662 895l260 385h-523zM774 731l246 -360v721zM78 1464h1173v-1464h-1173v1464z" />
    <glyph glyph-name="Lacute" unicode="&#x139;" horiz-adv-x="1150" 
d="M90 0v1464h293v-1218h719v-246h-1012zM137 1573l162 303h270l-231 -303h-201z" />
    <glyph glyph-name="lacute" unicode="&#x13a;" horiz-adv-x="438" 
d="M78 0v1505h282v-1505h-282zM119 1612l162 303h270l-232 -303h-200z" />
    <glyph glyph-name="uni013B" unicode="&#x13b;" horiz-adv-x="1150" 
d="M90 0v1464h293v-1218h719v-246h-1012zM397 -434v4l72 321h258v-4l-133 -321h-197z" />
    <glyph glyph-name="uni013C" unicode="&#x13c;" horiz-adv-x="438" 
d="M78 0v1505h282v-1505h-282zM20 -434v4l72 321h258v-4l-133 -321h-197z" />
    <glyph glyph-name="Lcaron" unicode="&#x13d;" horiz-adv-x="1150" 
d="M90 0v1464h293v-1218h719v-246h-1012zM1055 1464l-82 -571h-166l43 571h205z" />
    <glyph glyph-name="lcaron" unicode="&#x13e;" horiz-adv-x="708" 
d="M78 0v1505h282v-1505h-282zM690 1505l-82 -571h-166l43 571h205z" />
    <glyph glyph-name="Ldot" unicode="&#x13f;" horiz-adv-x="1150" 
d="M90 0v1464h293v-1218h719v-246h-1012zM719 725v248h254v-248h-254z" />
    <glyph glyph-name="ldot" unicode="&#x140;" horiz-adv-x="737" 
d="M78 0v1505h282v-1505h-282zM465 649v248h254v-248h-254z" />
    <glyph glyph-name="Lslash" unicode="&#x141;" horiz-adv-x="1257" 
d="M43 424v217l154 80v743h292v-600l338 178v-217l-338 -178v-401h719v-246h-1011v504z" />
    <glyph glyph-name="lslash" unicode="&#x142;" horiz-adv-x="618" 
d="M41 451v211l125 61v782h287v-643l125 64v-209l-125 -64v-653h-287v514z" />
    <glyph glyph-name="Nacute" unicode="&#x143;" horiz-adv-x="1454" 
d="M92 0v1464h340l639 -1069v1069h293v-1464h-352l-627 1034v-1034h-293zM629 1573l162 303h270l-232 -303h-200z" />
    <glyph glyph-name="nacute" unicode="&#x144;" horiz-adv-x="1165" 
d="M80 0v1114h264l6 -201q42 113 133.5 170.5t218.5 57.5q181 0 286.5 -113t105.5 -311v-717h-285v625q0 138 -49.5 205t-153.5 67q-111 0 -175 -71.5t-64 -200.5v-625h-287zM494 1223l161 303h271l-232 -303h-200z" />
    <glyph glyph-name="uni0145" unicode="&#x145;" horiz-adv-x="1454" 
d="M92 0v1464h340l639 -1069v1069h293v-1464h-352l-627 1034v-1034h-293zM522 -434v4l72 321h258v-4l-133 -321h-197z" />
    <glyph glyph-name="uni0146" unicode="&#x146;" horiz-adv-x="1165" 
d="M80 0v1114h264l6 -201q42 113 133.5 170.5t218.5 57.5q181 0 286.5 -113t105.5 -311v-717h-285v625q0 138 -49.5 205t-153.5 67q-111 0 -175 -71.5t-64 -200.5v-625h-287zM385 -434v4l72 321h258v-4l-133 -321h-197z" />
    <glyph glyph-name="Ncaron" unicode="&#x147;" horiz-adv-x="1454" 
d="M92 0v1464h340l639 -1069v1069h293v-1464h-352l-627 1034v-1034h-293zM610 1571l-229 303h188l160 -174l158 174h190l-231 -303h-236z" />
    <glyph glyph-name="ncaron" unicode="&#x148;" horiz-adv-x="1165" 
d="M80 0v1114h264l6 -201q42 113 133.5 170.5t218.5 57.5q181 0 286.5 -113t105.5 -311v-717h-285v625q0 138 -49.5 205t-153.5 67q-111 0 -175 -71.5t-64 -200.5v-625h-287zM475 1221l-229 303h188l160 -174l158 174h190l-231 -303h-236z" />
    <glyph glyph-name="Omacron" unicode="&#x14c;" horiz-adv-x="1568" 
d="M352 731q0 -238 117 -375t313 -137q198 0 315 137t117 375q0 240 -117.5 377t-314.5 137q-196 0 -313 -137.5t-117 -376.5zM51 731q0 231 91 403.5t256 264.5t384 92q333 0 533.5 -205t200.5 -555t-199.5 -554t-534.5 -204q-333 0 -532 204.5t-199 553.5zM506 1614v172
h557v-172h-557z" />
    <glyph glyph-name="omacron" unicode="&#x14d;" horiz-adv-x="1259" 
d="M342 557q0 -161 76.5 -254.5t212.5 -93.5t212.5 93.5t76.5 254.5q0 160 -77 254t-212 94t-212 -94t-77 -254zM51 557q0 262 159 423t421 161q260 0 418.5 -161t158.5 -423t-158.5 -423t-418.5 -161q-262 0 -421 161t-159 423zM350 1264v172h557v-172h-557z" />
    <glyph glyph-name="Obreve" unicode="&#x14e;" horiz-adv-x="1568" 
d="M352 731q0 -238 117 -375t313 -137q198 0 315 137t117 375q0 240 -117.5 377t-314.5 137q-196 0 -313 -137.5t-117 -376.5zM51 731q0 231 91 403.5t256 264.5t384 92q333 0 533.5 -205t200.5 -555t-199.5 -554t-534.5 -204q-333 0 -532 204.5t-199 553.5zM500 1884h151
q2 -66 38 -105.5t97 -39.5t97.5 39.5t38.5 105.5h151q-3 -147 -79.5 -231t-207.5 -84t-207 83t-79 232z" />
    <glyph glyph-name="obreve" unicode="&#x14f;" horiz-adv-x="1259" 
d="M342 557q0 -161 76.5 -254.5t212.5 -93.5t212.5 93.5t76.5 254.5q0 160 -77 254t-212 94t-212 -94t-77 -254zM51 557q0 262 159 423t421 161q260 0 418.5 -161t158.5 -423t-158.5 -423t-418.5 -161q-262 0 -421 161t-159 423zM344 1534h152q2 -66 38 -105.5t97 -39.5
t97 39.5t38 105.5h152q-3 -147 -79.5 -231t-207.5 -84t-207.5 83t-79.5 232z" />
    <glyph glyph-name="Ohungarumlaut" unicode="&#x150;" horiz-adv-x="1568" 
d="M352 731q0 -238 117 -375t313 -137q198 0 315 137t117 375q0 240 -117.5 377t-314.5 137q-196 0 -313 -137.5t-117 -376.5zM51 731q0 231 91 403.5t256 264.5t384 92q333 0 533.5 -205t200.5 -555t-199.5 -554t-534.5 -204q-333 0 -532 204.5t-199 553.5zM737 1573h-182
l121 303h225zM1004 1573h-183l164 303h225z" />
    <glyph glyph-name="ohungarumlaut" unicode="&#x151;" horiz-adv-x="1259" 
d="M342 557q0 -161 76.5 -254.5t212.5 -93.5t212.5 93.5t76.5 254.5q0 160 -77 254t-212 94t-212 -94t-77 -254zM51 557q0 262 159 423t421 161q260 0 418.5 -161t158.5 -423t-158.5 -423t-418.5 -161q-262 0 -421 161t-159 423zM582 1223h-183l121 303h225zM848 1223h-182
l163 303h226z" />
    <glyph glyph-name="OE" unicode="&#x152;" horiz-adv-x="2150" 
d="M1034 246v973h-215q-235 0 -351 -120t-116 -366t116 -366.5t351 -120.5h215zM51 731q0 353 198.5 543t565.5 190h1260v-245h-748v-363h713v-242h-713v-368h758v-246h-1270q-367 0 -565.5 189t-198.5 542z" />
    <glyph glyph-name="oe" unicode="&#x153;" horiz-adv-x="2107" 
d="M344 557q0 -161 76.5 -254.5t212.5 -93.5t212.5 93.5t76.5 254.5q0 160 -77 254t-212 94t-212 -94t-77 -254zM1217 647h550q-15 125 -85 195.5t-185 70.5t-188 -70.5t-92 -195.5zM53 557q0 262 159 423t421 161q136 0 246.5 -49t185.5 -140q156 189 430 189
q256 0 407.5 -157t151.5 -415v-86h-837q15 -132 88 -207t192 -75q89 0 152 43t94 121h301q-50 -182 -195 -287t-352 -105q-136 0 -246.5 49t-185.5 140q-75 -91 -185.5 -140t-246.5 -49q-262 0 -421 161t-159 423z" />
    <glyph glyph-name="Racute" unicode="&#x154;" horiz-adv-x="1382" 
d="M90 0v1464h653q272 0 410.5 -116.5t138.5 -337.5q0 -329 -297 -420l340 -590h-338l-292 555h-322v-555h-293zM383 793h346q133 0 198.5 51t65.5 162q0 213 -264 213h-346v-426zM528 1573l162 303h271l-232 -303h-201z" />
    <glyph glyph-name="racute" unicode="&#x155;" horiz-adv-x="772" 
d="M80 0v1114h264l8 -233q32 120 102.5 176.5t184.5 56.5h121v-291h-131q-137 0 -199.5 -62.5t-62.5 -193.5v-567h-287zM303 1223l162 303h270l-231 -303h-201z" />
    <glyph glyph-name="uni0156" unicode="&#x156;" horiz-adv-x="1382" 
d="M383 793h346q133 0 198.5 51t65.5 162q0 213 -264 213h-346v-426zM90 0v1464h653q272 0 410.5 -116.5t138.5 -337.5q0 -329 -297 -420l340 -590h-338l-292 555h-322v-555h-293zM471 -434v4l72 321h258v-4l-133 -321h-197z" />
    <glyph glyph-name="uni0157" unicode="&#x157;" horiz-adv-x="772" 
d="M80 0v1114h264l8 -233q32 120 102.5 176.5t184.5 56.5h121v-291h-131q-137 0 -199.5 -62.5t-62.5 -193.5v-567h-287zM23 -434v4l71 321h258v-4l-133 -321h-196z" />
    <glyph glyph-name="Rcaron" unicode="&#x158;" horiz-adv-x="1382" 
d="M90 0v1464h653q272 0 410.5 -116.5t138.5 -337.5q0 -329 -297 -420l340 -590h-338l-292 555h-322v-555h-293zM383 793h346q133 0 198.5 51t65.5 162q0 213 -264 213h-346v-426zM510 1571l-229 303h188l160 -174l157 174h191l-232 -303h-235z" />
    <glyph glyph-name="rcaron" unicode="&#x159;" horiz-adv-x="772" 
d="M80 0v1114h264l8 -233q32 120 102.5 176.5t184.5 56.5h121v-291h-131q-137 0 -199.5 -62.5t-62.5 -193.5v-567h-287zM285 1221l-230 303h189l159 -174l158 174h191l-232 -303h-235z" />
    <glyph glyph-name="Sacute" unicode="&#x15a;" horiz-adv-x="1275" 
d="M27 514h301q15 -142 103.5 -220.5t238.5 -78.5q126 0 199 51.5t73 143.5q0 41 -15.5 71.5t-40.5 51t-74 38.5t-96.5 30t-127.5 28q-72 14 -126 27.5t-112 33.5t-99 42t-79.5 54t-61.5 70t-37 88.5t-14 110.5q0 198 148.5 317t404.5 119q139 0 251.5 -39t187.5 -108.5
t118 -163.5t50 -205h-301q-12 122 -93.5 198t-214.5 76q-112 0 -181 -52t-69 -136q0 -32 10.5 -58t34 -45.5t50 -34t69.5 -27.5t81 -22t95 -20q136 -24 229.5 -55t167 -80.5t109 -122.5t35.5 -174q0 -209 -155.5 -329t-417.5 -120q-293 0 -461.5 147.5t-179.5 393.5z
M518 1573l162 303h270l-231 -303h-201z" />
    <glyph glyph-name="sacute" unicode="&#x15b;" horiz-adv-x="1093" 
d="M27 375h284q8 -92 70.5 -141.5t177.5 -49.5q93 0 150 32t57 95q0 19 -4.5 34.5t-17 28t-23.5 22t-35 18t-40 13.5t-49.5 12t-53 10t-60.5 10q-53 8 -86 14.5t-83.5 20t-83 28t-70.5 39.5t-59.5 55.5t-36.5 74t-15 95.5q0 162 126 258.5t351 96.5q233 0 362.5 -104.5
t147.5 -284.5h-284q-9 85 -69.5 131.5t-160.5 46.5q-89 0 -135.5 -33.5t-46.5 -87.5q0 -24 8.5 -43.5t29 -33.5t40.5 -24t57 -19t63.5 -14t73.5 -13q56 -9 90 -15.5t87 -20t85.5 -28.5t71 -41t60 -57t36.5 -75.5t15 -98.5q0 -172 -134.5 -262.5t-361.5 -90.5
q-250 0 -387.5 107t-146.5 295zM426 1223l162 303h270l-231 -303h-201z" />
    <glyph glyph-name="Scircumflex" unicode="&#x15c;" horiz-adv-x="1275" 
d="M27 514h301q15 -142 103.5 -220.5t238.5 -78.5q126 0 199 51.5t73 143.5q0 41 -15.5 71.5t-40.5 51t-74 38.5t-96.5 30t-127.5 28q-72 14 -126 27.5t-112 33.5t-99 42t-79.5 54t-61.5 70t-37 88.5t-14 110.5q0 198 148.5 317t404.5 119q139 0 251.5 -39t187.5 -108.5
t118 -163.5t50 -205h-301q-12 122 -93.5 198t-214.5 76q-112 0 -181 -52t-69 -136q0 -32 10.5 -58t34 -45.5t50 -34t69.5 -27.5t81 -22t95 -20q136 -24 229.5 -55t167 -80.5t109 -122.5t35.5 -174q0 -209 -155.5 -329t-417.5 -120q-293 0 -461.5 147.5t-179.5 393.5z
M498 1874h235l232 -303h-191l-158 174l-159 -174h-189z" />
    <glyph glyph-name="scircumflex" unicode="&#x15d;" horiz-adv-x="1093" 
d="M27 375h284q8 -92 70.5 -141.5t177.5 -49.5q93 0 150 32t57 95q0 19 -4.5 34.5t-17 28t-23.5 22t-35 18t-40 13.5t-49.5 12t-53 10t-60.5 10q-53 8 -86 14.5t-83.5 20t-83 28t-70.5 39.5t-59.5 55.5t-36.5 74t-15 95.5q0 162 126 258.5t351 96.5q233 0 362.5 -104.5
t147.5 -284.5h-284q-9 85 -69.5 131.5t-160.5 46.5q-89 0 -135.5 -33.5t-46.5 -87.5q0 -24 8.5 -43.5t29 -33.5t40.5 -24t57 -19t63.5 -14t73.5 -13q56 -9 90 -15.5t87 -20t85.5 -28.5t71 -41t60 -57t36.5 -75.5t15 -98.5q0 -172 -134.5 -262.5t-361.5 -90.5
q-250 0 -387.5 107t-146.5 295zM408 1524h235l231 -303h-190l-158 174l-159 -174h-189z" />
    <glyph glyph-name="Scedilla" unicode="&#x15e;" horiz-adv-x="1275" 
d="M477 -313l47 98q104 -61 199 -61q104 0 104 65q0 28 -21.5 44.5t-62.5 16.5t-81 -14l-97 37l35 102q-263 18 -412.5 163t-160.5 376h301q15 -142 103.5 -220.5t238.5 -78.5q126 0 199 51.5t73 143.5q0 41 -15.5 71.5t-40.5 51t-74 38.5t-96.5 30t-127.5 28
q-72 14 -126 27.5t-112 33.5t-99 42t-79.5 54t-61.5 70t-37 88.5t-14 110.5q0 198 148.5 317t404.5 119q139 0 251.5 -39t187.5 -108.5t118 -163.5t50 -205h-301q-12 122 -93.5 198t-214.5 76q-112 0 -181 -52t-69 -136q0 -32 10.5 -58t34 -45.5t50 -34t69.5 -27.5t81 -22
t95 -20q136 -24 229.5 -55t167 -80.5t109 -122.5t35.5 -174q0 -197 -140 -316t-378 -131l-21 -61q45 18 105 18q83 0 130.5 -41t47.5 -104q0 -75 -67 -127.5t-179 -52.5q-133 0 -262 80z" />
    <glyph glyph-name="scedilla" unicode="&#x15f;" horiz-adv-x="1093" 
d="M369 -313l47 98q104 -61 198 -61q51 0 78 17t27 48q0 28 -21.5 44.5t-62.5 16.5q-42 0 -82 -14l-96 37l35 102q-217 15 -336.5 120.5t-128.5 279.5h284q8 -92 70.5 -141.5t177.5 -49.5q93 0 150 32t57 95q0 19 -4.5 34.5t-17 28t-23.5 22t-35 18t-40 13.5t-49.5 12
t-53 10t-60.5 10q-53 8 -86 14.5t-83.5 20t-83 28t-70.5 39.5t-59.5 55.5t-36.5 74t-15 95.5q0 162 126 258.5t351 96.5q233 0 362.5 -104.5t147.5 -284.5h-284q-9 85 -69.5 131.5t-160.5 46.5q-89 0 -135.5 -33.5t-46.5 -87.5q0 -24 8.5 -43.5t29 -33.5t40.5 -24t57 -19
t63.5 -14t73.5 -13q56 -9 90 -15.5t87 -20t85.5 -28.5t71 -41t60 -57t36.5 -75.5t15 -98.5q0 -162 -119.5 -252t-323.5 -99l-20 -61q45 18 104 18q83 0 131 -41.5t48 -103.5q0 -75 -67 -127.5t-179 -52.5q-133 0 -262 80z" />
    <glyph glyph-name="Scaron" unicode="&#x160;" horiz-adv-x="1275" 
d="M27 514h301q15 -142 103.5 -220.5t238.5 -78.5q126 0 199 51.5t73 143.5q0 41 -15.5 71.5t-40.5 51t-74 38.5t-96.5 30t-127.5 28q-72 14 -126 27.5t-112 33.5t-99 42t-79.5 54t-61.5 70t-37 88.5t-14 110.5q0 198 148.5 317t404.5 119q139 0 251.5 -39t187.5 -108.5
t118 -163.5t50 -205h-301q-12 122 -93.5 198t-214.5 76q-112 0 -181 -52t-69 -136q0 -32 10.5 -58t34 -45.5t50 -34t69.5 -27.5t81 -22t95 -20q136 -24 229.5 -55t167 -80.5t109 -122.5t35.5 -174q0 -209 -155.5 -329t-417.5 -120q-293 0 -461.5 147.5t-179.5 393.5z
M498 1571l-230 303h189l159 -174l158 174h191l-232 -303h-235z" />
    <glyph glyph-name="scaron" unicode="&#x161;" horiz-adv-x="1093" 
d="M27 375h284q8 -92 70.5 -141.5t177.5 -49.5q93 0 150 32t57 95q0 19 -4.5 34.5t-17 28t-23.5 22t-35 18t-40 13.5t-49.5 12t-53 10t-60.5 10q-53 8 -86 14.5t-83.5 20t-83 28t-70.5 39.5t-59.5 55.5t-36.5 74t-15 95.5q0 162 126 258.5t351 96.5q233 0 362.5 -104.5
t147.5 -284.5h-284q-9 85 -69.5 131.5t-160.5 46.5q-89 0 -135.5 -33.5t-46.5 -87.5q0 -24 8.5 -43.5t29 -33.5t40.5 -24t57 -19t63.5 -14t73.5 -13q56 -9 90 -15.5t87 -20t85.5 -28.5t71 -41t60 -57t36.5 -75.5t15 -98.5q0 -172 -134.5 -262.5t-361.5 -90.5
q-250 0 -387.5 107t-146.5 295zM408 1221l-230 303h189l159 -174l158 174h190l-231 -303h-235z" />
    <glyph glyph-name="uni0162" unicode="&#x162;" horiz-adv-x="1277" 
d="M494 0v1219h-461v245h1212v-245h-461v-1219h-84l-28 -86q45 18 104 18q83 0 130.5 -41t47.5 -104q0 -75 -66.5 -127.5t-178.5 -52.5q-134 0 -263 80l48 98q104 -61 198 -61q51 0 78 17t27 48q0 28 -21.5 44.5t-62.5 16.5q-42 0 -82 -14l-96 37l43 127h-84z" />
    <glyph glyph-name="uni0163" unicode="&#x163;" horiz-adv-x="899" 
d="M205 401v478h-168v235h168v275h284v-275h371v-235h-371v-467q0 -108 50 -150.5t159 -42.5q81 0 162 17v-236q-141 -27 -248 -27q-30 0 -88 4l-22 -63q45 18 104 18q83 0 130.5 -41t47.5 -104q0 -75 -66.5 -127.5t-178.5 -52.5q-134 0 -263 80l48 98q104 -61 198 -61
q51 0 78 17t27 48q0 28 -21.5 44.5t-62.5 16.5q-42 0 -82 -14l-96 37l45 133q-205 85 -205 395z" />
    <glyph glyph-name="Tcaron" unicode="&#x164;" horiz-adv-x="1277" 
d="M494 0v1219h-461v245h1212v-245h-461v-1219h-290zM520 1571l-229 303h188l160 -174l158 174h190l-231 -303h-236z" />
    <glyph glyph-name="tcaron" unicode="&#x165;" horiz-adv-x="907" 
d="M205 401v478h-168v235h168v275h287v-275h370v-235h-370v-467q0 -109 49 -151t159 -42q78 0 162 17v-236q-141 -27 -248 -27q-208 0 -308.5 103.5t-100.5 324.5zM893 1640l-74 -407h-166l37 407h203z" />
    <glyph glyph-name="Tbar" unicode="&#x166;" horiz-adv-x="1277" 
d="M1100 772v-201h-316v-571h-290v571h-316v201h316v447h-461v245h1212v-245h-461v-447h316z" />
    <glyph glyph-name="tbar" unicode="&#x167;" horiz-adv-x="929" 
d="M51 559v180h168v140h-168v235h168v275h287v-275h371v-235h-371v-140h371v-180h-371v-156q0 -103 49.5 -143.5t159.5 -40.5q78 0 162 17v-236q-141 -27 -248 -27q-209 0 -309.5 103.5t-100.5 324.5v158h-168z" />
    <glyph glyph-name="Utilde" unicode="&#x168;" horiz-adv-x="1413" 
d="M92 530v934h293v-923q0 -154 84.5 -238t239.5 -84q154 0 237.5 84t83.5 238v923h293v-934q0 -258 -165.5 -407.5t-448.5 -149.5t-450 150t-167 407zM508 1583h-105q0 291 168 291q33 0 64.5 -12.5t49 -25.5t44.5 -36q69 -53 111 -53q36 0 50.5 29t14.5 88h103
q0 -149 -41 -220t-127 -71q-33 0 -66 12.5t-51 25.5t-47 36q-66 51 -107 51q-35 0 -48 -29t-13 -86z" />
    <glyph glyph-name="utilde" unicode="&#x169;" horiz-adv-x="1163" 
d="M72 397v717h284v-625q0 -138 49.5 -205t153.5 -67q111 0 175.5 71.5t64.5 200.5v625h286v-1114h-264l-6 201q-42 -113 -133.5 -170.5t-218.5 -57.5q-181 0 -286 113t-105 311zM381 1233h-105q0 291 168 291q33 0 64.5 -12.5t49 -25.5t44.5 -36q69 -53 111 -53
q37 0 51 28.5t14 87.5h103q0 -149 -41 -219.5t-127 -70.5q-34 0 -66.5 12.5t-51 25t-46.5 35.5q-67 52 -107 52q-35 0 -48 -29t-13 -86z" />
    <glyph glyph-name="Umacron" unicode="&#x16a;" horiz-adv-x="1413" 
d="M92 530v934h293v-923q0 -154 84.5 -238t239.5 -84q154 0 237.5 84t83.5 238v923h293v-934q0 -258 -165.5 -407.5t-448.5 -149.5t-450 150t-167 407zM428 1614v172h557v-172h-557z" />
    <glyph glyph-name="umacron" unicode="&#x16b;" horiz-adv-x="1163" 
d="M72 397v717h284v-625q0 -138 49.5 -205t153.5 -67q111 0 175.5 71.5t64.5 200.5v625h286v-1114h-264l-6 201q-42 -113 -133.5 -170.5t-218.5 -57.5q-181 0 -286 113t-105 311zM299 1264v172h557v-172h-557z" />
    <glyph glyph-name="Ubreve" unicode="&#x16c;" horiz-adv-x="1413" 
d="M92 530v934h293v-923q0 -154 84.5 -238t239.5 -84q154 0 237.5 84t83.5 238v923h293v-934q0 -258 -165.5 -407.5t-448.5 -149.5t-450 150t-167 407zM420 1884h151q2 -66 38.5 -105.5t97.5 -39.5t97 39.5t38 105.5h151q-3 -148 -79 -231.5t-207 -83.5t-207.5 83t-79.5 232
z" />
    <glyph glyph-name="ubreve" unicode="&#x16d;" horiz-adv-x="1163" 
d="M72 397v717h284v-625q0 -138 49.5 -205t153.5 -67q111 0 175.5 71.5t64.5 200.5v625h286v-1114h-264l-6 201q-42 -113 -133.5 -170.5t-218.5 -57.5q-181 0 -286 113t-105 311zM293 1534h151q2 -66 38.5 -105.5t97.5 -39.5t97 39.5t38 105.5h151q-3 -148 -79 -231.5
t-207 -83.5t-207.5 83t-79.5 232z" />
    <glyph glyph-name="Uring" unicode="&#x16e;" horiz-adv-x="1413" 
d="M92 530v934h293v-923q0 -154 84.5 -238t239.5 -84q154 0 237.5 84t83.5 238v923h293v-934q0 -258 -165.5 -407.5t-448.5 -149.5t-450 150t-167 407zM616 1778q0 -39 25 -63.5t66 -24.5t65.5 24t24.5 64t-24.5 64t-65.5 24t-66 -24.5t-25 -63.5zM479 1778q0 92 64 152.5
t164 60.5q98 0 162.5 -60.5t64.5 -152.5q0 -93 -64 -153t-163 -60q-100 0 -164 60.5t-64 152.5z" />
    <glyph glyph-name="uring" unicode="&#x16f;" horiz-adv-x="1163" 
d="M72 397v717h284v-625q0 -138 49.5 -205t153.5 -67q111 0 175.5 71.5t64.5 200.5v625h286v-1114h-264l-6 201q-42 -113 -133.5 -170.5t-218.5 -57.5q-181 0 -286 113t-105 311zM487 1427q0 -39 25 -63.5t66 -24.5t65.5 24t24.5 64t-24.5 64.5t-65.5 24.5t-66 -25t-25 -64z
M350 1427q0 92 64 152.5t164 60.5q98 0 162.5 -60.5t64.5 -152.5q0 -93 -64 -153t-163 -60q-100 0 -164 60.5t-64 152.5z" />
    <glyph glyph-name="Uhungarumlaut" unicode="&#x170;" horiz-adv-x="1413" 
d="M92 530v934h293v-923q0 -154 84.5 -238t239.5 -84q154 0 237.5 84t83.5 238v923h293v-934q0 -258 -165.5 -407.5t-448.5 -149.5t-450 150t-167 407zM659 1573h-182l121 303h225zM926 1573h-183l164 303h226z" />
    <glyph glyph-name="uhungarumlaut" unicode="&#x171;" horiz-adv-x="1163" 
d="M72 397v717h284v-625q0 -138 49.5 -205t153.5 -67q111 0 175.5 71.5t64.5 200.5v625h286v-1114h-264l-6 201q-42 -113 -133.5 -170.5t-218.5 -57.5q-181 0 -286 113t-105 311zM530 1223h-182l121 303h225zM797 1223h-183l164 303h226z" />
    <glyph glyph-name="Uogonek" unicode="&#x172;" horiz-adv-x="1413" 
d="M92 530v934h293v-923q0 -154 84.5 -238t239.5 -84q154 0 237.5 84t83.5 238v923h293v-934q0 -163 -68.5 -285t-195.5 -192q-59 -44 -97 -93.5t-38 -86.5q0 -74 170 -74q45 0 92 8v-188q-43 -8 -125 -8q-132 0 -216.5 45t-84.5 127q0 104 164 217q-99 -27 -215 -27
q-283 0 -450 150t-167 407z" />
    <glyph glyph-name="uogonek" unicode="&#x173;" horiz-adv-x="1163" 
d="M72 397v717h284v-625q0 -138 49.5 -205t153.5 -67q111 0 175.5 71.5t64.5 200.5v625h286v-1114h-2q-116 -11 -185 -40.5t-69 -72.5q0 -33 44 -50t120 -17q53 0 94 8v-188q-88 -9 -118 -9q-137 0 -222 45.5t-85 128.5q0 71 64.5 120t178.5 75h-84l-6 201
q-42 -113 -133.5 -170.5t-218.5 -57.5q-181 0 -286 113t-105 311z" />
    <glyph glyph-name="Wcircumflex" unicode="&#x174;" horiz-adv-x="1953" 
d="M369 0l-394 1464h312l266 -1130l256 1130h332l258 -1130l264 1130h313l-391 -1464h-350l-260 1055l-256 -1055h-350zM856 1874h236l231 -303h-190l-158 174l-160 -174h-188z" />
    <glyph glyph-name="wcircumflex" unicode="&#x175;" horiz-adv-x="1726" 
d="M309 0l-327 1114h299l211 -840l219 840h305l219 -840l209 840h301l-326 -1114h-338l-219 780l-217 -780h-336zM745 1524h236l231 -303h-190l-158 174l-159 -174h-189z" />
    <glyph glyph-name="Ycircumflex" unicode="&#x176;" horiz-adv-x="1308" 
d="M510 0v537l-533 927h330l348 -653l346 653h332l-532 -927v-537h-291zM537 1874h235l232 -303h-191l-158 174l-159 -174h-189z" />
    <glyph glyph-name="ycircumflex" unicode="&#x177;" horiz-adv-x="1079" 
d="M8 -383v238q102 -13 133 -13q174 0 236 117l-395 1155h299l262 -846l258 846h299l-387 -1137q-35 -104 -88 -177t-122 -115.5t-146.5 -61t-172.5 -18.5q-94 0 -176 12zM420 1524h235l232 -303h-191l-157 174l-160 -174h-189z" />
    <glyph glyph-name="Ydieresis" unicode="&#x178;" horiz-adv-x="1308" 
d="M510 0v537l-533 927h330l348 -653l346 653h332l-532 -927v-537h-291zM360 1589v254h246v-254h-246zM698 1589v254h248v-254h-248z" />
    <glyph glyph-name="Zacute" unicode="&#x179;" horiz-adv-x="1314" 
d="M92 0v233l754 986h-731v245h1091v-233l-760 -985h777v-246h-1131zM557 1573l162 303h270l-231 -303h-201z" />
    <glyph glyph-name="zacute" unicode="&#x17a;" horiz-adv-x="1159" 
d="M66 0v225l628 654h-602v235h985v-225l-633 -653h650v-236h-1028zM481 1223l162 303h270l-231 -303h-201z" />
    <glyph glyph-name="Zdotaccent" unicode="&#x17b;" horiz-adv-x="1314" 
d="M92 0v233l754 986h-731v245h1091v-233l-760 -985h777v-246h-1131zM535 1589v254h247v-254h-247z" />
    <glyph glyph-name="zdotaccent" unicode="&#x17c;" horiz-adv-x="1159" 
d="M66 0v225l628 654h-602v235h985v-225l-633 -653h650v-236h-1028zM459 1239v254h248v-254h-248z" />
    <glyph glyph-name="Zcaron" unicode="&#x17d;" horiz-adv-x="1314" 
d="M92 0v233l754 986h-731v245h1091v-233l-760 -985h777v-246h-1131zM537 1571l-230 303h189l159 -174l158 174h191l-232 -303h-235z" />
    <glyph glyph-name="zcaron" unicode="&#x17e;" horiz-adv-x="1159" 
d="M66 0v225l628 654h-602v235h985v-225l-633 -653h650v-236h-1028zM461 1221l-230 303h189l160 -174l157 174h191l-232 -303h-235z" />
    <glyph glyph-name="florin" unicode="&#x192;" horiz-adv-x="1085" 
d="M37 -397v225q89 -14 151 -14q115 0 163 36.5t48 124.5v904h-188v235h188v64q0 192 110 286.5t333 94.5q74 0 207 -17v-225q-71 14 -152 14q-115 0 -163 -37t-48 -125v-55h361v-235h-361v-912q0 -192 -110 -286.5t-334 -94.5q-72 0 -205 17z" />
    <glyph glyph-name="AEacute" unicode="&#x1fc;" horiz-adv-x="1968" 
d="M549 578h305v616h-20zM854 0v338h-405l-158 -338h-314l682 1464h1235v-245h-749v-363h713v-242h-713v-368h760v-246h-1051zM1241 1573l162 303h270l-231 -303h-201z" />
    <glyph glyph-name="aeacute" unicode="&#x1fd;" horiz-adv-x="2007" 
d="M336 324q0 -66 49 -101t135 -35q136 0 218.5 78.5t82.5 206.5v55l-313 -61q-92 -19 -132 -52.5t-40 -90.5zM1118 647h551q-15 125 -86 195.5t-186 70.5t-187.5 -70.5t-91.5 -195.5zM43 285q0 137 95 217t290 116l393 74v6q0 111 -60 167.5t-171 56.5q-217 0 -242 -211
h-289q18 208 160 319t373 111q271 0 401 -158q155 158 404 158q255 0 407 -157t152 -415v-86h-840q15 -132 89.5 -207t193.5 -75q89 0 152 43t94 121h301q-50 -182 -195 -287t-354 -105q-175 0 -306.5 76t-201.5 211q-46 -133 -172.5 -210t-296.5 -77q-79 0 -146 18.5
t-119 55.5t-82 98t-30 140zM893 1223l162 303h270l-231 -303h-201z" />
    <glyph glyph-name="Oslashacute" unicode="&#x1fe;" horiz-adv-x="1568" 
d="M424 399l590 803q-102 60 -232 60q-203 0 -324.5 -141.5t-121.5 -389.5q0 -202 88 -332zM1143 1067l-590 -803q94 -61 229 -61q206 0 328.5 140.5t122.5 387.5q0 200 -90 336zM113 -25l143 197q-205 205 -205 559q0 348 200.5 554t532.5 206q215 0 377 -90l66 90h225
l-141 -199q205 -205 205 -561q0 -350 -199.5 -554t-532.5 -204q-215 0 -381 90l-65 -88h-225zM682 1573l162 303h270l-231 -303h-201z" />
    <glyph glyph-name="oslashacute" unicode="&#x1ff;" horiz-adv-x="1259" 
d="M379 340l385 553q-63 29 -133 29q-143 0 -224 -98.5t-81 -266.5q0 -131 53 -217zM883 774l-385 -553q58 -28 133 -28q144 0 224.5 97.5t80.5 266.5q0 131 -53 217zM121 -27l104 148q-174 160 -174 436q0 262 159 423t421 161q146 0 268 -58l39 58h201l-103 -148
q172 -158 172 -436q0 -262 -158.5 -423t-418.5 -161q-146 0 -271 58l-38 -58h-201zM532 1223l162 303h271l-232 -303h-201z" />
    <glyph glyph-name="uni0218" unicode="&#x218;" horiz-adv-x="1275" 
d="M27 514h301q15 -142 103.5 -220.5t238.5 -78.5q126 0 199 51.5t73 143.5q0 41 -15.5 71.5t-40.5 51t-74 38.5t-96.5 30t-127.5 28q-72 14 -126 27.5t-112 33.5t-99 42t-79.5 54t-61.5 70t-37 88.5t-14 110.5q0 198 148.5 317t404.5 119q139 0 251.5 -39t187.5 -108.5
t118 -163.5t50 -205h-301q-12 122 -93.5 198t-214.5 76q-112 0 -181 -52t-69 -136q0 -32 10.5 -58t34 -45.5t50 -34t69.5 -27.5t81 -22t95 -20q136 -24 229.5 -55t167 -80.5t109 -122.5t35.5 -174q0 -209 -155.5 -329t-417.5 -120q-293 0 -461.5 147.5t-179.5 393.5z
M469 -434v4l72 321h258v-4l-133 -321h-197z" />
    <glyph glyph-name="uni0219" unicode="&#x219;" horiz-adv-x="1093" 
d="M27 375h284q8 -92 70.5 -141.5t177.5 -49.5q93 0 150 32t57 95q0 19 -4.5 34.5t-17 28t-23.5 22t-35 18t-40 13.5t-49.5 12t-53 10t-60.5 10q-53 8 -86 14.5t-83.5 20t-83 28t-70.5 39.5t-59.5 55.5t-36.5 74t-15 95.5q0 162 126 258.5t351 96.5q233 0 362.5 -104.5
t147.5 -284.5h-284q-9 85 -69.5 131.5t-160.5 46.5q-89 0 -135.5 -33.5t-46.5 -87.5q0 -24 8.5 -43.5t29 -33.5t40.5 -24t57 -19t63.5 -14t73.5 -13q56 -9 90 -15.5t87 -20t85.5 -28.5t71 -41t60 -57t36.5 -75.5t15 -98.5q0 -172 -134.5 -262.5t-361.5 -90.5
q-250 0 -387.5 107t-146.5 295zM362 -434v4l72 321h258v-4l-133 -321h-197z" />
    <glyph glyph-name="uni021A" unicode="&#x21a;" horiz-adv-x="1277" 
d="M494 0v1219h-461v245h1212v-245h-461v-1219h-290zM440 -434v4l72 321h258v-4l-133 -321h-197z" />
    <glyph glyph-name="uni021B" unicode="&#x21b;" horiz-adv-x="899" 
d="M205 401v478h-168v235h168v275h284v-275h371v-235h-371v-467q0 -108 50 -150.5t159 -42.5q81 0 162 17v-236q-141 -27 -248 -27q-207 0 -307 103.5t-100 324.5zM350 -434v4l72 321h258v-4l-133 -321h-197z" />
    <glyph glyph-name="uni0237" unicode="&#x237;" horiz-adv-x="448" 
d="M-109 -383v227q34 -6 66 -6q70 0 99.5 38t29.5 138v1100h283v-1065q0 -228 -86 -334t-287 -106q-35 0 -105 8z" />
    <glyph glyph-name="circumflex" unicode="&#x2c6;" horiz-adv-x="843" 
d="M303 1495h236l231 -303h-190l-158 174l-160 -174h-188z" />
    <glyph glyph-name="caron" unicode="&#x2c7;" horiz-adv-x="843" 
d="M303 1192l-229 303h188l160 -174l158 174h190l-231 -303h-236z" />
    <glyph glyph-name="breve" unicode="&#x2d8;" horiz-adv-x="718" 
d="M74 1505h151q2 -66 38 -105.5t97 -39.5t97.5 39.5t38.5 105.5h151q-3 -147 -79.5 -231t-207.5 -84t-207 83t-79 232z" />
    <glyph glyph-name="dotaccent" unicode="&#x2d9;" horiz-adv-x="393" 
d="M74 1210v254h248v-254h-248z" />
    <glyph glyph-name="ring" unicode="&#x2da;" horiz-adv-x="602" 
d="M211 1399q0 -39 24.5 -63.5t65.5 -24.5t65.5 24t24.5 64t-24.5 64t-65.5 24t-65.5 -24.5t-24.5 -63.5zM74 1399q0 93 64 153t163 60q98 0 162.5 -60.5t64.5 -152.5q0 -93 -64 -153t-163 -60t-163 60t-64 153z" />
    <glyph glyph-name="ogonek" unicode="&#x2db;" horiz-adv-x="571" 
d="M485 -8l11 -23q-116 -11 -185 -40t-69 -72q0 -33 44.5 -50.5t119.5 -17.5q53 0 94 8v-188q-78 -8 -119 -8q-137 0 -222 45.5t-85 128.5q0 95 114 150.5t297 66.5z" />
    <glyph glyph-name="tilde" unicode="&#x2dc;" horiz-adv-x="751" 
d="M178 1204h-104q0 291 168 291q33 0 64 -12.5t48 -25t45 -36.5q69 -53 111 -53q36 0 50.5 29t14.5 88h103q0 -149 -41 -220t-127 -71q-33 0 -66 12.5t-51 25.5t-47 36q-66 51 -106 51q-35 0 -48.5 -29t-13.5 -86z" />
    <glyph glyph-name="hungarumlaut" unicode="&#x2dd;" horiz-adv-x="802" 
d="M256 1194h-182l121 303h225zM522 1194h-182l164 303h225z" />
    <glyph glyph-name="uni03BC" unicode="&#x3bc;" horiz-adv-x="1320" 
d="M305 373l242 358l-242 361v-719zM395 184h523l-261 383zM657 895l261 385h-523zM770 731l246 -360v721zM74 1464h1173v-1464h-1173v1464z" />
    <glyph glyph-name="Wgrave" unicode="&#x1e80;" horiz-adv-x="1953" 
d="M369 0l-394 1464h312l266 -1130l256 1130h332l258 -1130l264 1130h313l-391 -1464h-350l-260 1055l-256 -1055h-350zM870 1573l-229 303h270l162 -303h-203z" />
    <glyph glyph-name="wgrave" unicode="&#x1e81;" horiz-adv-x="1726" 
d="M309 0l-327 1114h299l211 -840l219 840h305l219 -840l209 840h301l-326 -1114h-338l-219 780l-217 -780h-336zM760 1223l-230 303h271l162 -303h-203z" />
    <glyph glyph-name="Wacute" unicode="&#x1e82;" horiz-adv-x="1953" 
d="M369 0l-394 1464h312l266 -1130l256 1130h332l258 -1130l264 1130h313l-391 -1464h-350l-260 1055l-256 -1055h-350zM874 1573l162 303h271l-232 -303h-201z" />
    <glyph glyph-name="wacute" unicode="&#x1e83;" horiz-adv-x="1726" 
d="M309 0l-327 1114h299l211 -840l219 840h305l219 -840l209 840h301l-326 -1114h-338l-219 780l-217 -780h-336zM764 1223l162 303h270l-231 -303h-201z" />
    <glyph glyph-name="Wdieresis" unicode="&#x1e84;" horiz-adv-x="1953" 
d="M369 0l-394 1464h312l266 -1130l256 1130h332l258 -1130l264 1130h313l-391 -1464h-350l-260 1055l-256 -1055h-350zM680 1589v254h246v-254h-246zM1018 1589v254h248v-254h-248z" />
    <glyph glyph-name="wdieresis" unicode="&#x1e85;" horiz-adv-x="1726" 
d="M309 0l-327 1114h299l211 -840l219 840h305l219 -840l209 840h301l-326 -1114h-338l-219 780l-217 -780h-336zM569 1239v254h246v-254h-246zM907 1239v254h248v-254h-248z" />
    <glyph glyph-name="Ygrave" unicode="&#x1ef2;" horiz-adv-x="1308" 
d="M510 0v537l-533 927h330l348 -653l346 653h332l-532 -927v-537h-291zM551 1573l-229 303h270l162 -303h-203z" />
    <glyph glyph-name="ygrave" unicode="&#x1ef3;" horiz-adv-x="1079" 
d="M8 -383v238q102 -13 133 -13q174 0 236 117l-395 1155h299l262 -846l258 846h299l-387 -1137q-35 -104 -88 -177t-122 -115.5t-146.5 -61t-172.5 -18.5q-94 0 -176 12zM434 1223l-229 303h270l162 -303h-203z" />
    <glyph glyph-name="endash" unicode="&#x2013;" horiz-adv-x="1505" 
d="M74 471v234h1360v-234h-1360z" />
    <glyph glyph-name="emdash" unicode="&#x2014;" horiz-adv-x="1976" 
d="M74 471v234h1831v-234h-1831z" />
    <glyph glyph-name="quoteleft" unicode="&#x2018;" horiz-adv-x="491" 
d="M33 729l213 737h200l-133 -737h-280z" />
    <glyph glyph-name="quoteright" unicode="&#x2019;" horiz-adv-x="491" 
d="M45 729l133 737h281l-213 -737h-201z" />
    <glyph glyph-name="quotesinglbase" unicode="&#x201a;" horiz-adv-x="442" 
d="M-10 -401l131 737h280l-213 -737h-198z" />
    <glyph glyph-name="quotedblleft" unicode="&#x201c;" horiz-adv-x="849" 
d="M33 729l213 737h200l-133 -737h-280zM393 729l213 737h199l-131 -737h-281z" />
    <glyph glyph-name="quotedblright" unicode="&#x201d;" horiz-adv-x="849" 
d="M45 729l133 737h281l-213 -737h-201zM406 729l131 737h280l-213 -737h-198z" />
    <glyph glyph-name="quotedblbase" unicode="&#x201e;" horiz-adv-x="800" 
d="M-10 -401l131 737h280l-213 -737h-198zM348 -401l131 737h281l-213 -737h-199z" />
    <glyph glyph-name="dagger" unicode="&#x2020;" horiz-adv-x="1118" 
d="M410 1464h297v-350h319v-246h-319v-868h-297v868h-320v246h320v350z" />
    <glyph glyph-name="daggerdbl" unicode="&#x2021;" horiz-adv-x="1118" 
d="M410 1464h297v-350h319v-246h-319v-272h319v-246h-319v-350h-297v350h-320v246h320v272h-320v246h320v350z" />
    <glyph glyph-name="bullet" unicode="&#x2022;" horiz-adv-x="700" 
d="M74 586q0 121 76.5 198.5t197.5 77.5q123 0 201 -78t78 -198t-78.5 -198.5t-200.5 -78.5q-121 0 -197.5 78t-76.5 199z" />
    <glyph glyph-name="ellipsis" unicode="&#x2026;" horiz-adv-x="1327" 
d="M74 0v289h295v-289h-295zM516 0v289h295v-289h-295zM958 0v289h295v-289h-295z" />
    <glyph glyph-name="perthousand" unicode="&#x2030;" horiz-adv-x="2695" 
d="M1581 348q0 96 -44.5 151.5t-123.5 55.5q-81 0 -125.5 -55.5t-44.5 -151.5q0 -97 44.5 -153t125.5 -56q79 0 123.5 56.5t44.5 152.5zM2421 348q0 96 -44.5 151.5t-123.5 55.5q-81 0 -125.5 -55.5t-44.5 -151.5q0 -97 44.5 -153t125.5 -56q79 0 123.5 56.5t44.5 152.5z
M274 1116q0 -97 43.5 -152t124.5 -55q79 0 123.5 55.5t44.5 151.5q0 97 -44.5 153t-123.5 56q-81 0 -124.5 -55.5t-43.5 -153.5zM297 0l1028 1464h231l-1026 -1464h-233zM1782 348q0 -168 -102 -271.5t-267 -103.5q-167 0 -269 103.5t-102 271.5t102 271.5t269 103.5
q165 0 267 -103.5t102 -271.5zM2621 348q0 -168 -101.5 -271.5t-268.5 -103.5q-165 0 -267 103.5t-102 271.5t102 271.5t267 103.5q167 0 268.5 -103.5t101.5 -271.5zM74 1116q0 168 100.5 271.5t267.5 103.5t269 -103.5t102 -271.5t-102 -271.5t-269 -103.5t-267.5 103.5
t-100.5 271.5z" />
    <glyph glyph-name="guilsinglleft" unicode="&#x2039;" horiz-adv-x="856" 
d="M512 57l-467 508l467 504h315l-462 -504l462 -508h-315z" />
    <glyph glyph-name="guilsinglright" unicode="&#x203a;" horiz-adv-x="856" 
d="M344 57h-315l463 508l-463 504h315l467 -504z" />
    <glyph glyph-name="fraction" unicode="&#x2044;" horiz-adv-x="1406" 
d="M74 0l1028 1464h231l-1028 -1464h-231z" />
    <glyph glyph-name="uni2074" unicode="&#x2074;" horiz-adv-x="780" 
d="M240 1133h194v282zM41 965v159l340 496h252v-487h106v-168h-106v-148h-199v148h-393z" />
    <glyph glyph-name="Euro" unicode="&#x20ac;" horiz-adv-x="1662" 
d="M51 516v152h148v129h-148v149h168q57 255 239.5 400t454.5 145q279 0 462.5 -151t230.5 -427h-308q-32 157 -134.5 244.5t-254.5 87.5q-140 0 -240 -78.5t-143 -220.5h398v-149h-424v-129h424v-152h-396q43 -142 143 -219.5t242 -77.5q158 0 260 93.5t130 265.5h307
q-39 -285 -227 -445t-474 -160q-269 0 -451.5 145t-238.5 398h-168z" />
    <glyph glyph-name="trademark" unicode="&#x2122;" horiz-adv-x="1726" 
d="M279 659v650h-242v155h672v-155h-248v-650h-182zM768 659v805h283l166 -624l161 624h283v-805h-184v566l-154 -566h-215l-156 568v-568h-184z" />
    <glyph glyph-name="minus" unicode="&#x2212;" horiz-adv-x="1153" 
d="M74 598v236h1007v-236h-1007z" />
    <glyph glyph-name="NULL" horiz-adv-x="0" 
 />
    <glyph glyph-name="cedilla2" horiz-adv-x="653" 
d="M74 -313l47 98q104 -61 198 -61q51 0 78 17t27 48q0 28 -21.5 44.5t-62.5 16.5q-42 0 -82 -14l-96 37l53 160h125l-41 -119q45 18 104 18q83 0 131 -41.5t48 -103.5q0 -75 -67 -127.5t-179 -52.5q-133 0 -262 80z" />
    <glyph glyph-name="commaccent" horiz-adv-x="395" 
d="M322 -10l-82 -572h-166l43 572h205z" />
    <glyph glyph-name="commaccent2" 
d="M74 -426v4l71 322h258v-4l-133 -322h-196z" />
    <glyph glyph-name="commaccent3" 
d="M401 406v-7l-69 -319h-258v4l133 322h194z" />
    <glyph glyph-name="dotaccent2" horiz-adv-x="401" 
d="M74 1206v248h254v-248h-254z" />
    <glyph glyph-name="ogonek2" horiz-adv-x="573" 
d="M397 80l9 -14q-70 -43 -119 -102t-49 -101q0 -74 170 -74q45 0 92 8v-188q-43 -8 -125 -8q-132 0 -216.5 45t-84.5 127q0 147 323 307z" />
    </font>
</defs>
</svg>
