<?xml version="1.0" standalone="no"?>
<!DOCTYPE svg PUBLIC "-//W3C//DTD SVG 1.1//EN" "http://www.w3.org/Graphics/SVG/1.1/DTD/svg11.dtd" >
<svg xmlns="http://www.w3.org/2000/svg" xmlns:xlink="http://www.w3.org/1999/xlink" version="1.1">
<metadata>
Created by FontForge 20201107 at Thu Jun 25 07:42:46 2026
 By www-data
Rajesh Rajput
</metadata>
<defs>
<font id="Delight-Medium" horiz-adv-x="1142" >
  <font-face 
    font-family="Delight Med"
    font-weight="500"
    font-stretch="normal"
    units-per-em="2048"
    panose-1="0 0 0 0 0 0 0 0 0 0"
    ascent="1638"
    descent="-410"
    x-height="1108"
    cap-height="1464"
    bbox="-133 -582 2591 1995"
    underline-thickness="102"
    underline-position="-153"
    unicode-range="U+000D-FB02"
  />
<missing-glyph horiz-adv-x="1323" 
d="M285 334l268 397l-268 402v-799zM381 170h549l-273 408zM657 887l275 407h-549zM764 731l272 -401v803zM80 1464h1163v-1464h-1163v1464z" />
    <glyph glyph-name="fi" unicode="fi" horiz-adv-x="1310" 
d="M236 0v911h-197v197h197v72q0 191 105 285t318 94q68 0 201 -17v-194q-73 16 -160 16q-127 0 -180 -42.5t-53 -143.5v-70h391v-197h-391v-911h-231zM991 0v1108h228v-1108h-228zM985 1249v244h242v-244h-242z" />
    <glyph glyph-name="fl" unicode="fl" horiz-adv-x="1298" 
d="M236 0v911h-197v197h197v72q0 191 105 285t318 94q68 0 201 -17v-194q-73 16 -160 16q-127 0 -180 -42.5t-53 -143.5v-70h391v-197h-391v-911h-231zM985 0v1505h227v-1505h-227z" />
    <glyph glyph-name=".notdef" horiz-adv-x="1323" 
d="M285 334l268 397l-268 402v-799zM381 170h549l-273 408zM657 887l275 407h-549zM764 731l272 -401v803zM80 1464h1163v-1464h-1163v1464z" />
    <glyph glyph-name=".null" horiz-adv-x="0" 
 />
    <glyph glyph-name="uni000D" unicode="&#xd;" horiz-adv-x="307" 
 />
    <glyph glyph-name="space" unicode=" " horiz-adv-x="389" 
 />
    <glyph glyph-name="exclam" unicode="!" horiz-adv-x="514" 
d="M176 379l-35 788v297h232v-297l-37 -788h-160zM127 0v254h260v-254h-260z" />
    <glyph glyph-name="quotedbl" unicode="&#x22;" horiz-adv-x="724" 
d="M117 813l-37 651h237l-34 -651h-166zM444 813l-36 651h237l-35 -651h-166z" />
    <glyph glyph-name="numbersign" unicode="#" horiz-adv-x="1531" 
d="M80 348v191h282l48 389h-283v190h307l43 346h217l-43 -346h328l43 346h217l-43 -346h256v-190h-281l-47 -389h283v-191h-307l-43 -348h-217l45 348h-330l-43 -348h-217l43 348h-258zM969 928h-355l-47 -389h353z" />
    <glyph glyph-name="dollar" unicode="$" horiz-adv-x="1253" 
d="M532 1489l-22 231h221l-20 -237q214 -30 338.5 -165.5t138.5 -334.5h-242q-14 135 -107 219t-247 84q-127 0 -206 -60t-79 -157q0 -37 12 -66.5t39.5 -52t56 -38.5t77.5 -30t86 -22.5t100 -21.5q102 -19 173.5 -38t144.5 -52.5t117 -76t71.5 -108t27.5 -149.5
q0 -193 -138 -310t-369 -129l20 -231h-221l22 240q-226 33 -356 173.5t-141 352.5h243q17 -159 117 -245.5t270 -86.5q145 0 228.5 60t83.5 165q0 34 -10 62t-25 49t-44 39t-56 30t-72.5 25t-82 21t-95.5 20q-68 14 -116.5 25.5t-107 30t-99 39.5t-81 52t-65 68t-39.5 87.5
t-15 111.5q0 181 125 295t344 131z" />
    <glyph glyph-name="percent" unicode="%" horiz-adv-x="1839" 
d="M1585 350q0 104 -49 164.5t-137 60.5q-87 0 -137 -61t-50 -164t50 -164t137 -61q88 0 137 60.5t49 164.5zM254 1114q0 -104 48.5 -164.5t135.5 -60.5q88 0 137.5 60.5t49.5 164.5t-49.5 164.5t-137.5 60.5q-87 0 -135.5 -60.5t-48.5 -164.5zM299 0l1040 1464h199
l-1038 -1464h-201zM1759 350q0 -168 -99 -272.5t-261 -104.5t-261.5 104.5t-99.5 272.5t99.5 271.5t261.5 103.5t261 -103.5t99 -271.5zM80 1114q0 168 99 272.5t261 104.5q161 0 260 -104.5t99 -272.5t-99 -271.5t-260 -103.5q-162 0 -261 103.5t-99 271.5z" />
    <glyph glyph-name="ampersand" unicode="&#x26;" horiz-adv-x="1560" 
d="M1194 823h221q-23 -312 -178 -524q128 -94 262 -94h27v-205h-53q-199 0 -388 141q-215 -168 -514 -168q-110 0 -204.5 25.5t-170 75t-118.5 131.5t-43 188q0 67 18.5 124.5t49 99.5t76 79t92.5 62.5t106 50.5q-88 91 -124 168t-36 156q0 110 56.5 192.5t151.5 124
t214 41.5q116 0 209.5 -39t152 -119t58.5 -190q0 -76 -27.5 -139t-78 -109t-99.5 -76t-113 -59l334 -318q105 163 119 381zM276 416q0 -123 88.5 -185.5t221.5 -62.5q192 0 342 115l-406 387q-137 -60 -191.5 -115t-54.5 -139zM848 1145q0 73 -58.5 119.5t-148.5 46.5
t-145.5 -46t-55.5 -122q0 -53 34.5 -106t125.5 -142q109 46 178.5 108t69.5 142z" />
    <glyph glyph-name="quotesingle" unicode="'" horiz-adv-x="397" 
d="M117 813l-37 651h237l-34 -651h-166z" />
    <glyph glyph-name="parenleft" unicode="(" horiz-adv-x="714" 
d="M682 -236l-125 -98q-240 201 -361.5 462.5t-121.5 549.5q0 289 121.5 549.5t361.5 462.5l125 -101q-375 -423 -375 -911t375 -914z" />
    <glyph glyph-name="parenright" unicode=")" horiz-adv-x="714" 
d="M158 -334l-125 98q375 426 375 914t-375 911l125 101q240 -202 361.5 -462.5t121.5 -549.5q0 -288 -121.5 -549.5t-361.5 -462.5z" />
    <glyph glyph-name="asterisk" unicode="*" horiz-adv-x="856" 
d="M119 883l194 213l-282 59l63 193l264 -119l-32 287h202l-30 -289l262 119l63 -191l-282 -61l194 -211l-166 -119l-143 250l-143 -250z" />
    <glyph glyph-name="plus" unicode="+" 
d="M80 618v197h385v395h211v-395h387v-197h-387v-395h-211v395h-385z" />
    <glyph glyph-name="comma" unicode="," horiz-adv-x="419" 
d="M0 -406l129 723h240l-199 -723h-170z" />
    <glyph glyph-name="hyphen" unicode="-" horiz-adv-x="892" 
d="M80 487v197h735v-197h-735z" />
    <glyph glyph-name="period" unicode="." horiz-adv-x="419" 
d="M80 0v254h260v-254h-260z" />
    <glyph glyph-name="slash" unicode="/" horiz-adv-x="768" 
d="M6 -223l504 1763h252l-504 -1763h-252z" />
    <glyph glyph-name="zero" unicode="0" horiz-adv-x="1363" 
d="M299 729q0 -267 98 -409t281 -142q184 0 284.5 143.5t100.5 407.5q0 268 -99 412.5t-284 144.5q-183 0 -282 -144.5t-99 -412.5zM57 731q0 349 168 554.5t455 205.5q289 0 457 -205t168 -555t-168 -554t-457 -204q-287 0 -455 204t-168 554z" />
    <glyph glyph-name="one" unicode="1" horiz-adv-x="813" 
d="M100 1067v193h133q129 0 176.5 46.5t47.5 178.5h196v-1485h-233v1067h-320z" />
    <glyph glyph-name="two" unicode="2" horiz-adv-x="1249" 
d="M70 0v131q0 53 10 102t25 88t43 77.5t52 66t65 58.5t69.5 50.5t78 46.5t77.5 41t81 39q53 26 82 40.5t74 40t70.5 44t56 46.5t46.5 54t27 59t11 69q0 104 -79 169.5t-212 65.5q-149 0 -234.5 -87t-97.5 -245h-243q15 247 165 391t414 144q239 0 384 -117t145 -315
q0 -62 -16.5 -118.5t-40 -99t-67 -85.5t-79 -71t-96.5 -63t-98 -53.5t-103 -50.5q-57 -28 -89.5 -45t-80.5 -44t-75.5 -49t-56 -50.5t-43 -59.5t-16.5 -65h861v-205h-1110z" />
    <glyph glyph-name="three" unicode="3" horiz-adv-x="1261" 
d="M57 469h242q19 -141 105 -216t235 -75q148 0 236 67.5t88 184.5q0 114 -88 175t-252 61h-129v194h122q140 0 216.5 54.5t76.5 154.5t-75 155.5t-207 55.5q-137 0 -213.5 -62t-85.5 -180h-242q12 214 155.5 333.5t387.5 119.5q236 0 379 -108.5t143 -290.5
q0 -245 -268 -316q153 -35 237 -131t84 -237q0 -196 -156.5 -315.5t-410.5 -119.5q-259 0 -409.5 130t-170.5 366z" />
    <glyph glyph-name="four" unicode="4" horiz-adv-x="1292" 
d="M315 510h498v678zM45 305v193l723 966h281v-954h198v-205h-198v-305h-236v305h-768z" />
    <glyph glyph-name="five" unicode="5" horiz-adv-x="1249" 
d="M57 424h240q12 -116 104 -181t222 -65q145 0 236 81t91 222q0 134 -85.5 216.5t-233.5 82.5q-106 0 -188.5 -42.5t-116.5 -112.5h-244l104 839h901v-204h-692l-53 -420q118 133 342 133q230 0 369 -138t139 -354q0 -230 -156.5 -369t-414.5 -139q-245 0 -397.5 124
t-166.5 327z" />
    <glyph glyph-name="six" unicode="6" horiz-adv-x="1280" 
d="M338 494q0 -138 96.5 -227t235.5 -89q145 0 228 81.5t83 225.5q0 134 -85.5 214.5t-223.5 80.5q-150 0 -242 -76.5t-92 -209.5zM59 723q0 120 20 228t66.5 208t116.5 172.5t176.5 116t239.5 43.5q223 0 363 -111.5t169 -306.5h-233q-17 99 -98 156t-203 57
q-177 0 -273.5 -130t-103.5 -390q52 90 158 148.5t239 58.5q239 0 383 -133.5t144 -356.5q0 -236 -151.5 -373t-403.5 -137q-134 0 -244 46.5t-192 137.5t-127.5 235.5t-45.5 330.5z" />
    <glyph glyph-name="seven" unicode="7" horiz-adv-x="1210" 
d="M621 0h-256q0 330 142 655t394 600h-856v209h1108v-194q-279 -299 -405.5 -598t-126.5 -672z" />
    <glyph glyph-name="eight" unicode="8" horiz-adv-x="1296" 
d="M299 426q0 -117 92 -183.5t256 -66.5q165 0 257.5 66.5t92.5 185.5q0 117 -90.5 179.5t-257.5 62.5t-258.5 -63.5t-91.5 -180.5zM346 1061q0 -205 301 -205q149 0 226 53t77 154q0 106 -80 165.5t-221 59.5t-222 -60.5t-81 -166.5zM57 399q0 139 83.5 237.5t228.5 133.5
q-124 36 -192 119t-68 203q0 182 148.5 290.5t391.5 108.5t391 -109t148 -292q0 -121 -67.5 -202.5t-192.5 -117.5q147 -37 229 -133.5t82 -235.5q0 -197 -161 -312.5t-431 -115.5q-268 0 -429 115t-161 311z" />
    <glyph glyph-name="nine" unicode="9" horiz-adv-x="1277" 
d="M940 961q0 142 -95.5 233.5t-234.5 91.5q-145 0 -228 -84t-83 -233q0 -139 85 -222t224 -83q149 0 240.5 80t91.5 217zM1221 741q0 -120 -20 -228t-66.5 -208t-116.5 -172.5t-176.5 -116t-239.5 -43.5q-218 0 -357 106t-173 292h235q23 -91 101.5 -142t195.5 -51
q173 0 269 127t106 379q-55 -94 -158.5 -153.5t-234.5 -59.5q-241 0 -385 136.5t-144 363.5q0 241 151 380.5t402 139.5q134 0 245 -46.5t193 -137.5t127.5 -235.5t45.5 -330.5z" />
    <glyph glyph-name="colon" unicode=":" horiz-adv-x="436" 
d="M88 0v254h260v-254h-260zM88 854v254h260v-254h-260z" />
    <glyph glyph-name="semicolon" unicode=";" horiz-adv-x="456" 
d="M98 854v254h260v-254h-260zM-18 -406l127 721h239l-198 -721h-168z" />
    <glyph glyph-name="less" unicode="&#x3c;" horiz-adv-x="991" 
d="M80 596v203l831 385v-232l-612 -254l612 -260v-229z" />
    <glyph glyph-name="equal" unicode="=" horiz-adv-x="974" 
d="M895 793h-815v190h815v-190zM895 412h-815v190h815v-190z" />
    <glyph glyph-name="greater" unicode="&#x3e;" horiz-adv-x="991" 
d="M911 799v-203l-831 -387v229l612 260l-612 254v232z" />
    <glyph glyph-name="question" unicode="?" horiz-adv-x="1193" 
d="M420 0v254h260v-254h-260zM293 936h-244q20 269 163.5 412t393.5 143q233 0 370.5 -121.5t137.5 -325.5q0 -85 -25 -151.5t-65 -108t-88.5 -75t-97.5 -60t-89 -54t-65 -66.5t-25 -89v-61h-217v41q0 77 18.5 138t48.5 99.5t69 71.5t79 54.5t79 48t69 52.5t48.5 67t18.5 93
q0 111 -75 178.5t-199 67.5q-137 0 -214.5 -89.5t-90.5 -264.5z" />
    <glyph glyph-name="at" unicode="@" horiz-adv-x="2082" 
d="M741 547q0 -142 62.5 -224.5t187.5 -82.5t197 81.5t72 225.5t-71.5 226.5t-193.5 82.5q-123 0 -188.5 -84t-65.5 -225zM57 555q0 273 123.5 486t348.5 331.5t515 118.5q213 0 396 -66.5t312 -183.5t202.5 -283t73.5 -358q0 -245 -115.5 -389.5t-308.5 -144.5
q-67 0 -125 17t-112.5 65t-80.5 124q-93 -206 -338 -206q-191 0 -301 129t-110 354q0 222 110 350.5t299 128.5q104 0 185.5 -41.5t128.5 -120.5v142h204v-555q0 -102 42.5 -154.5t107.5 -52.5q91 0 151 95t60 257q0 207 -99 368t-276.5 249t-402.5 88q-232 0 -411.5 -94
t-278.5 -263t-99 -387q0 -220 102 -394.5t279 -270t395 -95.5q267 0 488 121l80 -168q-258 -141 -578 -141q-208 0 -387.5 70t-307 194t-200 300t-72.5 380z" />
    <glyph glyph-name="A" unicode="A" horiz-adv-x="1366" 
d="M440 580h488l-244 673zM-20 0l548 1464h312l546 -1464h-253l-138 379h-624l-138 -379h-253z" />
    <glyph glyph-name="B" unicode="B" horiz-adv-x="1323" 
d="M334 201h397q147 0 225 57.5t78 165.5q0 109 -78 169t-225 60h-397v-452zM334 840h334q154 0 236.5 55.5t82.5 157.5q0 107 -79 159t-240 52h-334v-424zM100 0v1464h586q280 0 413.5 -95t133.5 -298q0 -128 -78 -211t-217 -102q157 -22 248.5 -113.5t91.5 -241.5
q0 -200 -134 -301.5t-394 -101.5h-650z" />
    <glyph glyph-name="C" unicode="C" horiz-adv-x="1497" 
d="M57 731q0 348 190.5 554t508.5 206q270 0 449.5 -147.5t228.5 -413.5h-248q-38 169 -151.5 262.5t-280.5 93.5q-207 0 -331 -149t-124 -404t124.5 -405t332.5 -150q175 0 289.5 102t146.5 287h248q-41 -280 -223 -437t-463 -157q-318 0 -507.5 205t-189.5 553z" />
    <glyph glyph-name="D" unicode="D" horiz-adv-x="1404" 
d="M334 205h260q256 0 383 131t127 397q0 527 -510 527h-260v-1055zM100 0v1464h496q361 0 556.5 -190t195.5 -541q0 -354 -195.5 -543.5t-558.5 -189.5h-494z" />
    <glyph glyph-name="E" unicode="E" horiz-adv-x="1187" 
d="M100 0v1464h1008v-204h-774v-424h739v-201h-739v-430h784v-205h-1018z" />
    <glyph glyph-name="F" unicode="F" horiz-adv-x="1140" 
d="M100 0v1464h987v-204h-753v-445h719v-201h-719v-614h-234z" />
    <glyph glyph-name="G" unicode="G" horiz-adv-x="1529" 
d="M57 729q0 349 190 555.5t509 206.5q260 0 435.5 -136.5t233.5 -383.5h-251q-46 150 -156 232.5t-266 82.5q-205 0 -329 -149t-124 -404q0 -256 124 -405.5t335 -149.5q179 0 297 106.5t147 295.5h-440v188h668v-768h-160l-27 236q-166 -263 -495 -263
q-314 0 -502.5 205.5t-188.5 550.5z" />
    <glyph glyph-name="H" unicode="H" horiz-adv-x="1380" 
d="M100 0v1464h234v-624h710v624h236v-1464h-236v635h-710v-635h-234z" />
    <glyph glyph-name="I" unicode="I" horiz-adv-x="436" 
d="M102 0v1464h234v-1464h-234z" />
    <glyph glyph-name="J" unicode="J" horiz-adv-x="1173" 
d="M45 543h234q17 -192 84 -278.5t198 -86.5q136 0 207.5 86t71.5 254v946h233v-946q0 -255 -137.5 -400t-374.5 -145q-240 0 -372.5 150t-143.5 420z" />
    <glyph glyph-name="K" unicode="K" horiz-adv-x="1286" 
d="M102 0v1464h234v-688l643 688h289l-580 -624l619 -840h-283l-494 674l-194 -203v-471h-234z" />
    <glyph glyph-name="L" unicode="L" horiz-adv-x="1130" 
d="M100 0v1464h234v-1259h743v-205h-977z" />
    <glyph glyph-name="M" unicode="M" horiz-adv-x="1769" 
d="M102 0v1464h338l445 -1228l442 1228h340v-1464h-233v1108l-410 -1108h-279l-409 1108v-1108h-234z" />
    <glyph glyph-name="N" unicode="N" horiz-adv-x="1445" 
d="M102 0v1464h291l717 -1171v1171h233v-1464h-303l-704 1143v-1143h-234z" />
    <glyph glyph-name="O" unicode="O" horiz-adv-x="1550" 
d="M299 731q0 -255 129.5 -404t345.5 -149q217 0 347 148.5t130 404.5q0 257 -130 406t-347 149q-216 0 -345.5 -149t-129.5 -406zM55 731q0 348 196.5 554t522.5 206q327 0 523 -205t196 -555t-196 -554t-523 -204q-326 0 -522.5 205t-196.5 553z" />
    <glyph glyph-name="P" unicode="P" horiz-adv-x="1302" 
d="M334 764h373q150 0 223.5 59t73.5 187q0 130 -73.5 190t-223.5 60h-373v-496zM100 0v1464h621q258 0 391 -117.5t133 -336.5t-132.5 -335t-391.5 -116h-387v-559h-234z" />
    <glyph glyph-name="Q" unicode="Q" horiz-adv-x="1550" 
d="M299 731q0 -255 129.5 -404t345.5 -149q218 0 347.5 148.5t129.5 404.5q0 257 -130 406t-347 149q-216 0 -345.5 -149t-129.5 -406zM57 731q0 231 89 403.5t251 264.5t377 92q327 0 523 -205t196 -555q0 -191 -60 -341t-173 -249l219 -297h-279l-123 189
q-138 -60 -303 -60q-326 0 -521.5 205t-195.5 553z" />
    <glyph glyph-name="R" unicode="R" horiz-adv-x="1363" 
d="M100 0v1464h641q259 0 392 -114t133 -328q0 -162 -79 -267.5t-233 -146.5l355 -608h-273l-317 584h-385v-584h-234zM334 784h393q150 0 223.5 56.5t73.5 179.5q0 124 -73.5 182t-223.5 58h-393v-476z" />
    <glyph glyph-name="S" unicode="S" horiz-adv-x="1253" 
d="M31 510h241q17 -159 117.5 -246.5t269.5 -87.5q145 0 228.5 60.5t83.5 164.5q0 40 -11 71.5t-37.5 55.5t-54.5 40.5t-78.5 32t-91.5 25t-110 23.5t-118 25.5t-107.5 30t-99 39.5t-81 52t-65 68t-39.5 87.5t-15 111.5q0 195 143.5 311.5t389.5 116.5q266 0 421 -141
t171 -365h-242q-14 134 -106.5 218.5t-245.5 84.5q-127 0 -207 -61t-80 -158q0 -37 12 -66.5t39.5 -52t56 -38.5t78 -30t87 -23t100.5 -21q71 -13 125.5 -26t112.5 -32.5t100 -41.5t81 -53.5t63 -70t38 -89t14 -111.5q0 -204 -153 -322.5t-404 -118.5q-282 0 -448.5 148
t-177.5 389z" />
    <glyph glyph-name="T" unicode="T" horiz-adv-x="1249" 
d="M508 0v1260h-473v204h1179v-204h-473v-1260h-233z" />
    <glyph glyph-name="U" unicode="U" horiz-adv-x="1398" 
d="M102 520v944h234v-936q0 -165 95.5 -257.5t268.5 -92.5t268 92.5t95 257.5v936h235v-944q0 -253 -161 -400t-437 -147t-437 147t-161 400z" />
    <glyph glyph-name="V" unicode="V" horiz-adv-x="1386" 
d="M537 0l-557 1464h253l459 -1241l461 1241h254l-559 -1464h-311z" />
    <glyph glyph-name="W" unicode="W" horiz-adv-x="1902" 
d="M381 0l-401 1464h249l299 -1198l285 1198h277l284 -1198l297 1198h252l-397 -1464h-291l-285 1128l-280 -1128h-289z" />
    <glyph glyph-name="X" unicode="X" horiz-adv-x="1312" 
d="M0 0l500 739l-494 725h279l370 -569l371 569h279l-494 -725l502 -739h-281l-377 584l-376 -584h-279z" />
    <glyph glyph-name="Y" unicode="Y" horiz-adv-x="1275" 
d="M520 0v555l-540 909h268l389 -688l391 688h266l-540 -909v-555h-234z" />
    <glyph glyph-name="Z" unicode="Z" horiz-adv-x="1298" 
d="M102 0v195l791 1065h-770v204h1061v-194l-795 -1065h809v-205h-1096z" />
    <glyph glyph-name="bracketleft" unicode="[" horiz-adv-x="614" 
d="M74 1622h487v-205h-254v-1515h254v-205h-487v1925z" />
    <glyph glyph-name="backslash" unicode="\" horiz-adv-x="768" 
d="M510 -223l-504 1763h252l504 -1763h-252z" />
    <glyph glyph-name="bracketright" unicode="]" horiz-adv-x="614" 
d="M53 -303v205h254v1515h-254v205h488v-1925h-488z" />
    <glyph glyph-name="asciicircum" unicode="^" horiz-adv-x="872" 
d="M80 887l248 577h217l250 -577h-205l-152 409l-155 -409h-203z" />
    <glyph glyph-name="underscore" unicode="_" horiz-adv-x="958" 
d="M879 0v-186h-799v186h799z" />
    <glyph glyph-name="grave" unicode="`" horiz-adv-x="546" 
d="M301 1204l-221 295h227l160 -295h-166z" />
    <glyph glyph-name="a" unicode="a" 
d="M289 311q0 -76 55.5 -114.5t153.5 -38.5q151 0 243.5 86t92.5 219v67l-353 -65q-104 -18 -148 -55t-44 -99zM49 287q0 134 93 213.5t286 113.5l406 72v10q0 122 -68.5 186t-194.5 64q-120 0 -188.5 -59.5t-83.5 -169.5h-236q19 195 154 306.5t358 111.5
q231 0 359.5 -120.5t128.5 -336.5v-678h-211l-6 170q-51 -86 -166 -141.5t-254 -55.5q-167 0 -272 81.5t-105 232.5z" />
    <glyph glyph-name="b" unicode="b" horiz-adv-x="1222" 
d="M313 557q0 -180 83 -282.5t231 -102.5q146 0 224.5 100t78.5 283q0 185 -78.5 284t-224.5 99q-148 0 -231 -101t-83 -280zM86 0v1505h227v-573q51 97 147.5 150t219.5 53q218 0 351.5 -160.5t133.5 -421.5t-133.5 -420.5t-351.5 -159.5q-124 0 -225.5 55t-151.5 158
l-6 -186h-211z" />
    <glyph glyph-name="c" unicode="c" horiz-adv-x="1196" 
d="M57 555q0 260 152 420t403 160q212 0 355 -115.5t180 -310.5h-240q-28 108 -103.5 168.5t-189.5 60.5q-152 0 -237.5 -104t-85.5 -279q0 -176 85.5 -280.5t237.5 -104.5q119 0 196 67t101 185h240q-32 -205 -177 -327t-362 -122q-251 0 -403 160.5t-152 421.5z" />
    <glyph glyph-name="d" unicode="d" horiz-adv-x="1222" 
d="M909 557q0 179 -83.5 280t-231.5 101q-145 0 -224 -99.5t-79 -283.5q0 -183 79 -283t224 -100q148 0 231.5 102.5t83.5 282.5zM1137 0h-213l-6 186q-48 -103 -149.5 -158t-227.5 -55q-218 0 -351 159.5t-133 420.5t133.5 421.5t350.5 160.5q123 0 220.5 -53t147.5 -150
v573h228v-1505z" />
    <glyph glyph-name="e" unicode="e" horiz-adv-x="1204" 
d="M297 643h614q-15 139 -93.5 219t-207.5 80q-130 0 -211 -80t-102 -219zM57 555q0 261 150.5 420.5t400.5 159.5q245 0 392 -154.5t147 -407.5v-86h-852q15 -148 98.5 -234.5t218.5 -86.5q102 0 173 50t104 140h244q-48 -176 -187.5 -279.5t-335.5 -103.5
q-251 0 -402 160.5t-151 421.5z" />
    <glyph glyph-name="f" unicode="f" horiz-adv-x="899" 
d="M236 0v911h-197v197h197v72q0 191 105 285t318 94q68 0 201 -17v-194q-73 16 -160 16q-127 0 -180 -42.5t-53 -143.5v-70h391v-197h-391v-911h-231z" />
    <glyph glyph-name="g" unicode="g" horiz-adv-x="1222" 
d="M291 588q0 -168 79 -259t224 -91q148 0 231.5 93t83.5 257t-83.5 258t-231.5 94q-145 0 -224 -91.5t-79 -260.5zM98 10h234q12 -103 92 -160t197 -57q132 0 210 80t78 242v131q-51 -97 -148.5 -150t-221.5 -53q-216 0 -349 150.5t-133 396.5q0 244 132.5 394.5
t347.5 150.5q128 0 230.5 -55t150.5 -158l6 186h213v-987q0 -134 -38.5 -234.5t-108.5 -161t-163.5 -90.5t-208.5 -30q-100 0 -186.5 23t-158 70.5t-118 127t-57.5 184.5z" />
    <glyph glyph-name="h" unicode="h" horiz-adv-x="1134" 
d="M86 0v1505h231v-565q45 94 135 144.5t210 50.5q182 0 288.5 -113t106.5 -309v-713h-232v635q0 299 -231 299q-126 0 -201.5 -80.5t-75.5 -218.5v-635h-231z" />
    <glyph glyph-name="i" unicode="i" horiz-adv-x="413" 
d="M92 0v1108h227v-1108h-227zM86 1249v244h242v-244h-242z" />
    <glyph glyph-name="j" unicode="j" horiz-adv-x="413" 
d="M-115 -367v195q35 -6 66 -6q78 0 108.5 41.5t30.5 152.5v1092h229v-1073q0 -205 -78 -307.5t-257 -102.5q-55 0 -99 8zM86 1249v244h242v-244h-242z" />
    <glyph glyph-name="k" unicode="k" horiz-adv-x="1146" 
d="M88 0v1505h227v-870l531 473h299l-492 -440l510 -668h-276l-395 528l-177 -159v-369h-227z" />
    <glyph glyph-name="l" unicode="l" horiz-adv-x="399" 
d="M86 0v1505h227v-1505h-227z" />
    <glyph glyph-name="m" unicode="m" horiz-adv-x="1802" 
d="M86 0v1108h213l4 -197q41 108 130.5 166t211.5 58q127 0 216.5 -62.5t129.5 -177.5q39 116 131 178t221 62q175 0 278 -113t103 -309v-713h-231v635q0 297 -215 297q-118 0 -188 -80t-70 -217v-635h-229v635q0 297 -216 297q-119 0 -188.5 -79.5t-69.5 -217.5v-635h-231z
" />
    <glyph glyph-name="n" unicode="n" horiz-adv-x="1136" 
d="M88 0v1108h213l4 -199q42 109 136 167.5t223 58.5q182 0 288.5 -113t106.5 -309v-713h-232v635q0 297 -231 297q-127 0 -202 -80t-75 -217v-635h-231z" />
    <glyph glyph-name="o" unicode="o" horiz-adv-x="1226" 
d="M291 555q0 -175 86 -280t237 -105q150 0 236 105t86 280q0 174 -86 278.5t-236 104.5t-236.5 -104.5t-86.5 -278.5zM57 555q0 259 153 419.5t404 160.5t404 -160.5t153 -419.5q0 -260 -153 -421t-404 -161t-404 161t-153 421z" />
    <glyph glyph-name="p" unicode="p" horiz-adv-x="1222" 
d="M313 551q0 -179 83 -280t231 -101q146 0 224.5 99t78.5 284q0 183 -78.5 283t-224.5 100q-148 0 -231 -102.5t-83 -282.5zM86 1108h211l6 -186q50 103 151.5 158t225.5 55q218 0 351.5 -159.5t133.5 -420.5t-133.5 -421.5t-351.5 -160.5q-123 0 -219.5 53t-147.5 150
v-551h-227v1483z" />
    <glyph glyph-name="q" unicode="q" horiz-adv-x="1222" 
d="M909 551q0 180 -83.5 282.5t-231.5 102.5q-145 0 -224 -100t-79 -283q0 -184 79 -283.5t224 -99.5q148 0 231.5 101t83.5 280zM1137 1108v-1483h-228v551q-50 -97 -147.5 -150t-220.5 -53q-217 0 -350.5 160.5t-133.5 421.5t133 420.5t351 159.5q126 0 227.5 -55
t149.5 -158l6 186h213z" />
    <glyph glyph-name="r" unicode="r" horiz-adv-x="729" 
d="M88 0v1108h211l8 -227q62 227 289 227h123v-238h-133q-267 0 -267 -274v-596h-231z" />
    <glyph glyph-name="s" unicode="s" horiz-adv-x="1058" 
d="M27 367h233q8 -99 79.5 -154t205.5 -55q106 0 172.5 37.5t66.5 111.5q0 19 -5 35t-12 28.5t-22.5 23.5t-28 19t-36 15.5t-40.5 12t-48.5 10.5t-51.5 9t-57 9q-53 9 -86.5 15.5t-84 20t-82.5 28.5t-69 39.5t-58 54t-35.5 71.5t-14.5 93q0 156 121.5 250t333.5 94
q220 0 346.5 -104t144.5 -275h-231q-11 91 -80.5 142.5t-183.5 51.5q-102 0 -158.5 -40t-56.5 -101q0 -27 9.5 -48.5t31.5 -37t44 -26.5t60.5 -20.5t66.5 -14.5t77 -13q59 -10 92.5 -17t87 -21t85 -29t69.5 -40t58.5 -55t35 -73t14.5 -95q0 -113 -63 -192.5t-168 -116.5
t-244 -37q-238 0 -373.5 107.5t-144.5 286.5z" />
    <glyph glyph-name="t" unicode="t" horiz-adv-x="876" 
d="M215 383v528h-176v197h176v281h231v-281h392v-197h-392v-526q0 -114 51 -160.5t171 -46.5q87 0 170 19v-199q-145 -23 -230 -23q-200 0 -296.5 99t-96.5 309z" />
    <glyph glyph-name="u" unicode="u" horiz-adv-x="1134" 
d="M78 395v713h231v-635q0 -297 232 -297q127 0 201.5 80t74.5 217v635h232v-1108h-213l-5 199q-42 -109 -135.5 -167.5t-222.5 -58.5q-182 0 -288.5 113t-106.5 309z" />
    <glyph glyph-name="v" unicode="v" horiz-adv-x="1089" 
d="M399 0l-413 1108h241l318 -897l317 897h244l-418 -1108h-289z" />
    <glyph glyph-name="w" unicode="w" horiz-adv-x="1673" 
d="M319 0l-335 1108h243l238 -881l244 881h256l243 -881l238 881h244l-334 -1108h-279l-241 827l-240 -827h-277z" />
    <glyph glyph-name="x" unicode="x" horiz-adv-x="1157" 
d="M20 0l410 567l-391 541h256l285 -406l280 406h260l-387 -545l404 -563h-254l-301 432l-299 -432h-263z" />
    <glyph glyph-name="y" unicode="y" horiz-adv-x="1040" 
d="M10 -385v199q86 -11 131 -11q190 0 254 148l-411 1157h243l293 -891l293 891h244l-408 -1155q-66 -189 -186.5 -268.5t-302.5 -79.5q-86 0 -150 10z" />
    <glyph glyph-name="z" unicode="z" horiz-adv-x="1130" 
d="M70 0v188l671 723h-649v197h952v-188l-673 -723h692v-197h-993z" />
    <glyph glyph-name="braceleft" unicode="{" horiz-adv-x="796" 
d="M741 1622v-205h-116q-41 0 -66 -6t-41 -16.5t-23.5 -35t-9.5 -50.5t-2 -74v-299q0 -130 -51 -204.5t-141 -74.5q90 0 141 -73t51 -201v-299q0 -48 2 -74t9.5 -50.5t23.5 -35t41 -16.5t66 -6h116v-205h-143q-190 0 -269 95t-79 308v285q0 88 -31.5 129t-101.5 41h-60v209
h60q70 0 101.5 41t31.5 129v285q0 213 79 308t269 95h143z" />
    <glyph glyph-name="bar" unicode="|" horiz-adv-x="436" 
d="M100 -303v1925h234v-1925h-234z" />
    <glyph glyph-name="braceright" unicode="}" horiz-adv-x="796" 
d="M57 1622h144q189 0 268.5 -95t79.5 -308v-285q0 -88 31.5 -129t101.5 -41h59v-209h-59q-70 0 -101.5 -41t-31.5 -129v-285q0 -213 -79.5 -308t-268.5 -95h-144v205h115q50 0 78 7.5t42.5 32t17.5 53.5t3 89v299q0 128 51.5 201t143.5 73q-92 0 -143.5 74.5t-51.5 204.5
v299q0 60 -3 89t-17.5 53.5t-42.5 32t-78 7.5h-115v205z" />
    <glyph glyph-name="asciitilde" unicode="~" horiz-adv-x="1046" 
d="M829 911h138q-10 -238 -62.5 -342t-161.5 -104q-51 0 -101.5 23.5t-80.5 48t-74 67.5q-39 38 -56 53t-47.5 32.5t-57.5 17.5q-51 0 -77 -55.5t-32 -178.5h-137q9 236 62.5 341.5t162.5 105.5q38 0 73 -11t68 -34.5t55 -43t54 -51.5q37 -36 56 -52.5t49.5 -33t58.5 -16.5
q51 0 76 53.5t34 179.5z" />
    <glyph glyph-name="exclamdown" unicode="&#xa1;" horiz-adv-x="514" 
d="M141 -59l35 788h160l37 -788v-297h-232v297zM127 854v254h260v-254h-260z" />
    <glyph glyph-name="cent" unicode="&#xa2;" horiz-adv-x="1208" 
d="M512 1126l-20 238h221l-23 -234q182 -22 302.5 -133.5t154.5 -287.5h-240q-28 107 -103.5 167t-189.5 60q-152 0 -237.5 -103t-85.5 -278t85.5 -279t237.5 -104q120 0 196.5 66.5t100.5 183.5h240q-29 -185 -151.5 -302.5t-309.5 -139.5l23 -236h-221l22 238
q-211 32 -334 186.5t-123 386.5t123 386t332 185z" />
    <glyph glyph-name="sterling" unicode="&#xa3;" horiz-adv-x="1351" 
d="M1036 758v-185h-526q16 -69 16 -129q0 -177 -129 -239h875v-205h-1219v205h90q96 0 137.5 37.5t41.5 113.5q0 81 -52 217h-217v185h148q-45 137 -45 250q0 217 142 350t390 133q246 0 396 -135t165 -391h-243q-9 161 -92.5 241t-229.5 80q-140 0 -213.5 -71t-73.5 -199
q0 -96 56 -258h583z" />
    <glyph glyph-name="currency" unicode="&#xa4;" horiz-adv-x="1323" 
d="M285 334l268 397l-268 402v-799zM381 170h549l-273 408zM657 887l275 407h-549zM764 731l272 -401v803zM80 1464h1163v-1464h-1163v1464z" />
    <glyph glyph-name="yen" unicode="&#xa5;" horiz-adv-x="1275" 
d="M1157 862v-186h-332l-71 -121v-12h403v-187h-403v-356h-234v356h-403v187h403v12l-71 121h-332v186h221l-358 602h268l389 -688l389 688h268l-358 -602h221z" />
    <glyph glyph-name="brokenbar" unicode="&#xa6;" horiz-adv-x="436" 
d="M100 -303v797h234v-797h-234zM100 825v797h234v-797h-234z" />
    <glyph glyph-name="section" unicode="&#xa7;" horiz-adv-x="1153" 
d="M229 729q0 -30 12 -54.5t37.5 -43t53 -31.5t72 -24t80 -17.5t89.5 -15.5q176 -27 267 -62q71 50 71 117q0 31 -12 55.5t-38.5 43t-54 31.5t-74.5 24t-83 18t-96 16q-156 22 -252 60q-72 -53 -72 -117zM106 213h234q10 -90 79.5 -141.5t180.5 -51.5q105 0 162 44t57 112
q0 30 -10.5 54t-34 41.5t-46.5 29.5t-64.5 23t-69 17t-78.5 15q-56 10 -89 16.5t-82 17.5t-77.5 20.5t-66.5 25t-60 31.5t-47 39t-37.5 49t-21 60t-8.5 73q0 85 36 141.5t103 98.5q-78 78 -78 202q0 163 121.5 262t335.5 99q219 0 346 -103.5t143 -273.5h-231
q-12 91 -81 142t-179 51q-105 0 -162 -44.5t-57 -113.5q0 -29 10.5 -52.5t34 -41t46.5 -29.5t64.5 -23t69 -17t78.5 -15q62 -11 99.5 -18.5t90.5 -20t84.5 -25.5t70 -31t61 -40.5t43 -51t29.5 -65t9 -80.5q0 -158 -137 -240q76 -76 76 -200q0 -165 -120.5 -265t-336.5 -100
q-219 0 -345.5 104t-144.5 275z" />
    <glyph glyph-name="dieresis" unicode="&#xa8;" horiz-adv-x="692" 
d="M80 1229v239h217v-239h-217zM393 1229v239h219v-239h-219z" />
    <glyph glyph-name="copyright" unicode="&#xa9;" horiz-adv-x="1953" 
d="M238 733q0 -214 95 -387.5t264 -272t378 -98.5q157 0 295 58.5t236.5 160t155 243.5t56.5 304q0 213 -94.5 384t-262.5 267.5t-378 96.5q-212 0 -382.5 -97.5t-266.5 -270.5t-96 -388zM535 733q0 213 121.5 339t324.5 126q172 0 285.5 -90t144.5 -254h-194
q-23 83 -85.5 128.5t-154.5 45.5q-113 0 -181.5 -79.5t-68.5 -215.5t68 -215.5t184 -79.5q95 0 158.5 50.5t83.5 142.5h194q-25 -170 -141 -266.5t-295 -96.5q-202 0 -323 126t-121 339zM57 729q0 191 72 361.5t195.5 293t295.5 194t365 71.5q191 0 360.5 -70.5
t290.5 -191.5t191.5 -290.5t70.5 -359.5q0 -191 -71.5 -362t-193.5 -293.5t-293 -194t-363 -71.5t-362.5 71t-293 192.5t-193.5 290.5t-71 359z" />
    <glyph glyph-name="ordfeminine" unicode="&#xaa;" horiz-adv-x="831" 
d="M229 1057q0 -46 37 -70t99 -24q96 0 154.5 55.5t58.5 142.5v35l-224 -43q-67 -12 -96 -35t-29 -61zM49 1038q0 96 62 151.5t192 80.5l275 49v8q0 64 -45 105t-123 41q-151 0 -174 -142h-179q12 135 107 213t250 78q160 0 249 -82.5t89 -234.5v-469h-162l-4 118
q-35 -60 -112 -98.5t-173 -38.5q-112 0 -182 57.5t-70 163.5z" />
    <glyph glyph-name="guillemotleft" unicode="&#xab;" horiz-adv-x="1394" 
d="M532 63l-483 502l483 498h261l-480 -498l480 -502h-261zM1102 63l-484 502l484 498h260l-479 -498l479 -502h-260z" />
    <glyph glyph-name="logicalnot" unicode="&#xac;" horiz-adv-x="1323" 
d="M285 334l268 397l-268 402v-799zM381 170h549l-273 408zM657 887l275 407h-549zM764 731l272 -401v803zM80 1464h1163v-1464h-1163v1464z" />
    <glyph glyph-name="registered" unicode="&#xae;" horiz-adv-x="1953" 
d="M57 729q0 191 72 361.5t195.5 293t295.5 194t365 71.5q191 0 360.5 -70.5t290.5 -191.5t191.5 -290.5t70.5 -359.5q0 -191 -71.5 -362t-193.5 -293.5t-293 -194t-363 -71.5t-362.5 71t-293 192.5t-193.5 290.5t-71 359zM238 733q0 -214 95 -387.5t264 -272t378 -98.5
q157 0 295 58.5t236.5 160t155 243.5t56.5 304q0 213 -94.5 384t-262.5 267.5t-378 96.5q-212 0 -382.5 -97.5t-266.5 -270.5t-96 -388zM604 291v885h447q156 0 236.5 -75.5t80.5 -211.5q0 -199 -174 -254l201 -342v-2h-209l-178 323h-215v-323h-189zM793 768h204
q92 0 136.5 24.5t44.5 94.5t-45 95.5t-136 25.5h-204v-240z" />
    <glyph glyph-name="macron" unicode="&#xaf;" horiz-adv-x="692" 
d="M80 1255v148h532v-148h-532z" />
    <glyph glyph-name="degree" unicode="&#xb0;" horiz-adv-x="741" 
d="M215 1196q0 -69 43 -112.5t111 -43.5q69 0 113 44t44 112q0 69 -44 113.5t-113 44.5q-68 0 -111 -44t-43 -114zM59 1196q0 129 88 214t222 85q133 0 223 -85.5t90 -213.5t-89 -212.5t-224 -84.5q-133 0 -221.5 84.5t-88.5 212.5z" />
    <glyph glyph-name="plusminus" unicode="&#xb1;" 
d="M80 4v197h983v-197h-983zM80 666v196h385v395h211v-395h387v-196h-387v-396h-211v396h-385z" />
    <glyph glyph-name="twosuperior" unicode="&#xb2;" horiz-adv-x="710" 
d="M49 817v70q0 54 17 100t39 75.5t63 60.5t67.5 46.5t75.5 40.5q46 25 69.5 39t53 37.5t42.5 48.5t13 54q0 46 -31.5 72t-88.5 26q-134 0 -146 -146h-172q9 135 92 214t228 79q134 0 212.5 -67.5t78.5 -180.5q0 -39 -9.5 -73t-30 -62t-41 -49t-53 -42t-55.5 -33.5
t-59 -30.5q-50 -24 -78 -39.5t-56 -40t-36 -49.5h418v-150h-613z" />
    <glyph glyph-name="threesuperior" unicode="&#xb3;" horiz-adv-x="747" 
d="M49 1073h174q14 -62 50.5 -91.5t101.5 -29.5q69 0 108 28.5t39 78.5q0 104 -168 104h-63v144h59q146 0 146 90q0 41 -32.5 64.5t-90.5 23.5q-60 0 -94 -26t-39 -73h-174q11 114 93 181t220 67q130 0 210.5 -60t80.5 -165q0 -128 -142 -166q82 -15 125 -63.5t43 -126.5
q0 -115 -87 -182.5t-230 -67.5q-141 0 -226 69t-104 201z" />
    <glyph glyph-name="acute" unicode="&#xb4;" horiz-adv-x="546" 
d="M80 1204l160 295h227l-221 -295h-166z" />
    <glyph glyph-name="paragraph" unicode="&#xb6;" horiz-adv-x="1388" 
d="M635 -369v834h-45q-248 0 -396.5 137.5t-148.5 362.5t148.5 362t396.5 137h276v-1833h-231zM1059 -369v1833h229v-1833h-229z" />
    <glyph glyph-name="periodcentered" unicode="&#xb7;" horiz-adv-x="419" 
d="M80 459v254h260v-254h-260z" />
    <glyph glyph-name="cedilla" unicode="&#xb8;" horiz-adv-x="655" 
d="M80 -315l43 90q101 -58 199 -58q55 0 83.5 18.5t28.5 51.5q0 29 -22.5 46t-65.5 17q-39 0 -86 -14l-90 35l55 162h117l-43 -123q42 16 100 16q86 0 131 -39.5t45 -101.5q0 -72 -64 -124t-177 -52q-125 0 -254 76z" />
    <glyph glyph-name="onesuperior" unicode="&#xb9;" horiz-adv-x="473" 
d="M39 1346v149h67q70 0 96.5 26t26.5 99h150v-803h-172v529h-168z" />
    <glyph glyph-name="ordmasculine" unicode="&#xba;" horiz-adv-x="888" 
d="M238 1221q0 -113 55 -180.5t151 -67.5t150.5 67t54.5 181q0 113 -54.5 180t-150.5 67t-151 -67t-55 -180zM57 1221q0 180 106.5 291.5t280.5 111.5t280.5 -111.5t106.5 -291.5q0 -181 -106.5 -292.5t-280.5 -111.5t-280.5 111.5t-106.5 292.5z" />
    <glyph glyph-name="guillemotright" unicode="&#xbb;" horiz-adv-x="1394" 
d="M1346 565l-484 -502h-260l479 502l-479 498h260zM776 565l-483 -502h-260l479 502l-479 498h260z" />
    <glyph glyph-name="onequarter" unicode="&#xbc;" horiz-adv-x="1617" 
d="M1038 305h217v313zM80 1190v149h67q70 0 96.5 26t26.5 99h150v-802h-172v528h-168zM184 0l1043 1464h198l-1040 -1464h-201zM862 156v143l350 506h213v-500h111v-149h-111v-154h-170v154h-393z" />
    <glyph glyph-name="onehalf" unicode="&#xbd;" horiz-adv-x="1728" 
d="M1036 2v70q0 54 17 100t39 75.5t63 60.5t67.5 46.5t75.5 40.5q39 21 56 31t46 29.5t42 34.5t24 37t11 46q0 46 -32 72.5t-89 26.5q-134 0 -146 -146h-172q9 135 92 214t228 79q134 0 212.5 -67.5t78.5 -180.5q0 -39 -9.5 -73t-30 -62t-41 -49t-53 -42t-55.5 -33.5
t-59 -30.5q-50 -24 -78 -39.5t-56 -40t-36 -49.5h418v-150h-613zM80 1190v149h67q70 0 96.5 26t26.5 99h150v-802h-172v528h-168zM184 0l1043 1464h198l-1040 -1464h-201z" />
    <glyph glyph-name="threequarters" unicode="&#xbe;" horiz-adv-x="1781" 
d="M1204 305h217v313zM80 930h174q14 -62 50.5 -91.5t101.5 -29.5q69 0 108 28t39 78q0 105 -168 105h-63v143h59q145 0 145 90q0 41 -32.5 64.5t-90.5 23.5q-60 0 -94 -25.5t-39 -72.5h-174q11 114 93.5 181t220.5 67q130 0 210 -60t80 -165q0 -67 -35 -107t-106 -59
q82 -15 125 -64t43 -127q0 -115 -87 -182.5t-230 -67.5q-141 0 -226 69.5t-104 201.5zM348 0l1043 1464h198l-1040 -1464h-201zM1028 156v143l350 506h213v-500h111v-149h-111v-154h-170v154h-393z" />
    <glyph glyph-name="questiondown" unicode="&#xbf;" horiz-adv-x="1196" 
d="M776 1108v-254h-260v254h260zM903 172h244q-20 -269 -163.5 -412t-393.5 -143q-233 0 -370.5 121t-137.5 325q0 85 25 151.5t65 108.5t88.5 75t97.5 60t89 54.5t65 66.5t25 89v61h217v-41q0 -77 -18.5 -138t-48.5 -99.5t-69 -71.5t-79 -55t-79 -48.5t-69 -52.5t-48.5 -67
t-18.5 -93q0 -111 75 -178t199 -67q137 0 214.5 89.5t90.5 264.5z" />
    <glyph glyph-name="Agrave" unicode="&#xc0;" horiz-adv-x="1366" 
d="M440 580h488l-244 673zM-20 0l548 1464h312l546 -1464h-253l-138 379h-624l-138 -379h-253zM598 1583l-221 295h227l160 -295h-166z" />
    <glyph glyph-name="Aacute" unicode="&#xc1;" horiz-adv-x="1366" 
d="M440 580h488l-244 673zM-20 0l548 1464h312l546 -1464h-253l-138 379h-624l-138 -379h-253zM600 1583l160 295h227l-221 -295h-166z" />
    <glyph glyph-name="Acircumflex" unicode="&#xc2;" horiz-adv-x="1366" 
d="M440 580h488l-244 673zM-20 0l548 1464h312l546 -1464h-253l-138 379h-624l-138 -379h-253zM582 1876h200l236 -295h-166l-170 184l-170 -184h-164z" />
    <glyph glyph-name="Atilde" unicode="&#xc3;" horiz-adv-x="1366" 
d="M440 580h488l-244 673zM-20 0l548 1464h312l546 -1464h-253l-138 379h-624l-138 -379h-253zM483 1599h-94q0 273 164 273q34 0 67 -14t50 -27t45 -39q61 -57 106 -57q36 0 51 31t15 96h92q0 -273 -164 -273q-34 0 -67.5 14t-52 28t-46.5 40q-63 55 -102 55
q-64 0 -64 -127z" />
    <glyph glyph-name="Adieresis" unicode="&#xc4;" horiz-adv-x="1366" 
d="M440 580h488l-244 673zM-20 0l548 1464h312l546 -1464h-253l-138 379h-624l-138 -379h-253zM412 1608v239h217v-239h-217zM725 1608v239h219v-239h-219z" />
    <glyph glyph-name="Aring" unicode="&#xc5;" horiz-adv-x="1366" 
d="M440 580h488l-244 673zM-20 0l548 1464h312l546 -1464h-253l-138 379h-624l-138 -379h-253zM586 1786q0 -43 27 -69.5t71 -26.5t71 26t27 70q0 43 -27 69.5t-71 26.5t-71 -27t-27 -69zM461 1786q0 91 63 150t160 59q96 0 159.5 -59.5t63.5 -149.5q0 -91 -63 -150
t-160 -59t-160 59t-63 150z" />
    <glyph glyph-name="AE" unicode="&#xc6;" horiz-adv-x="1935" 
d="M506 580h342v673h-21zM848 0v379h-432l-183 -379h-253l708 1464h1167v-204h-774v-424h740v-201h-740v-430h785v-205h-1018z" />
    <glyph glyph-name="Ccedilla" unicode="&#xc7;" horiz-adv-x="1497" 
d="M561 -315l43 90q101 -58 199 -58q55 0 83.5 18.5t28.5 51.5q0 29 -22.5 46t-65.5 17q-39 0 -86 -14l-90 35l37 104q-290 23 -460.5 225.5t-170.5 530.5q0 348 190.5 554t508.5 206q270 0 449.5 -147.5t228.5 -413.5h-248q-38 169 -151.5 262.5t-280.5 93.5
q-207 0 -331 -149t-124 -404t124.5 -405t332.5 -150q175 0 289.5 102t146.5 287h248q-40 -267 -208 -422.5t-429 -169.5l-23 -65q42 16 101 16q86 0 131 -39.5t45 -101.5q0 -72 -64.5 -124t-177.5 -52q-125 0 -254 76z" />
    <glyph glyph-name="Egrave" unicode="&#xc8;" horiz-adv-x="1187" 
d="M100 0v1464h1008v-204h-774v-424h739v-201h-739v-430h784v-205h-1018zM522 1583l-221 295h227l160 -295h-166z" />
    <glyph glyph-name="Eacute" unicode="&#xc9;" horiz-adv-x="1187" 
d="M100 0v1464h1008v-204h-774v-424h739v-201h-739v-430h784v-205h-1018zM526 1583l160 295h227l-221 -295h-166z" />
    <glyph glyph-name="Ecircumflex" unicode="&#xca;" horiz-adv-x="1187" 
d="M100 0v1464h1008v-204h-774v-424h739v-201h-739v-430h784v-205h-1018zM508 1876h201l235 -295h-166l-170 184l-170 -184h-164z" />
    <glyph glyph-name="Edieresis" unicode="&#xcb;" horiz-adv-x="1187" 
d="M100 0v1464h1008v-204h-774v-424h739v-201h-739v-430h784v-205h-1018zM338 1608v239h217v-239h-217zM651 1608v239h219v-239h-219z" />
    <glyph glyph-name="Igrave" unicode="&#xcc;" horiz-adv-x="436" 
d="M102 0v1464h234v-1464h-234zM133 1583l-221 295h227l160 -295h-166z" />
    <glyph glyph-name="Iacute" unicode="&#xcd;" horiz-adv-x="436" 
d="M102 0v1464h234v-1464h-234zM137 1583l160 295h227l-221 -295h-166z" />
    <glyph glyph-name="Icircumflex" unicode="&#xce;" horiz-adv-x="436" 
d="M102 0v1464h234v-1464h-234zM119 1876h200l236 -295h-166l-170 184l-170 -184h-164z" />
    <glyph glyph-name="Idieresis" unicode="&#xcf;" horiz-adv-x="436" 
d="M102 0v1464h234v-1464h-234zM-51 1608v239h217v-239h-217zM262 1608v239h219v-239h-219z" />
    <glyph glyph-name="Eth" unicode="&#xd0;" horiz-adv-x="1503" 
d="M432 205h260q256 0 383 131t127 397q0 527 -510 527h-260v-431h336v-184h-336v-440zM43 645v184h156v635h495q361 0 556.5 -190t195.5 -541q0 -354 -195.5 -543.5t-558.5 -189.5h-493v645h-156z" />
    <glyph glyph-name="Ntilde" unicode="&#xd1;" horiz-adv-x="1445" 
d="M102 0v1464h291l717 -1171v1171h233v-1464h-303l-704 1143v-1143h-234zM524 1599h-94q0 273 164 273q34 0 67 -14t50 -27t45 -39q61 -57 106 -57q36 0 51 31t15 96h92q0 -273 -164 -273q-34 0 -67.5 14t-52 28t-46.5 40q-63 55 -102 55q-64 0 -64 -127z" />
    <glyph glyph-name="Ograve" unicode="&#xd2;" horiz-adv-x="1550" 
d="M299 731q0 -255 129.5 -404t345.5 -149q217 0 347 148.5t130 404.5q0 257 -130 406t-347 149q-216 0 -345.5 -149t-129.5 -406zM55 731q0 348 196.5 554t522.5 206q327 0 523 -205t196 -555t-196 -554t-523 -204q-326 0 -522.5 205t-196.5 553zM690 1583l-221 295h227
l160 -295h-166z" />
    <glyph glyph-name="Oacute" unicode="&#xd3;" horiz-adv-x="1550" 
d="M299 731q0 -255 129.5 -404t345.5 -149q217 0 347 148.5t130 404.5q0 257 -130 406t-347 149q-216 0 -345.5 -149t-129.5 -406zM55 731q0 348 196.5 554t522.5 206q327 0 523 -205t196 -555t-196 -554t-523 -204q-326 0 -522.5 205t-196.5 553zM692 1583l160 295h227
l-221 -295h-166z" />
    <glyph glyph-name="Ocircumflex" unicode="&#xd4;" horiz-adv-x="1550" 
d="M299 731q0 -255 129.5 -404t345.5 -149q217 0 347 148.5t130 404.5q0 257 -130 406t-347 149q-216 0 -345.5 -149t-129.5 -406zM55 731q0 348 196.5 554t522.5 206q327 0 523 -205t196 -555t-196 -554t-523 -204q-326 0 -522.5 205t-196.5 553zM674 1876h200l236 -295
h-166l-170 184l-170 -184h-164z" />
    <glyph glyph-name="Otilde" unicode="&#xd5;" horiz-adv-x="1550" 
d="M299 731q0 -255 129.5 -404t345.5 -149q217 0 347 148.5t130 404.5q0 257 -130 406t-347 149q-216 0 -345.5 -149t-129.5 -406zM55 731q0 348 196.5 554t522.5 206q327 0 523 -205t196 -555t-196 -554t-523 -204q-326 0 -522.5 205t-196.5 553zM575 1599h-94
q0 273 164 273q34 0 67 -14t50 -27t45 -39q61 -57 106 -57q36 0 51 31t15 96h92q0 -273 -164 -273q-34 0 -67.5 14t-52 28t-46.5 40q-63 55 -102 55q-64 0 -64 -127z" />
    <glyph glyph-name="Odieresis" unicode="&#xd6;" horiz-adv-x="1550" 
d="M299 731q0 -255 129.5 -404t345.5 -149q217 0 347 148.5t130 404.5q0 257 -130 406t-347 149q-216 0 -345.5 -149t-129.5 -406zM55 731q0 348 196.5 554t522.5 206q327 0 523 -205t196 -555t-196 -554t-523 -204q-326 0 -522.5 205t-196.5 553zM504 1608v239h217v-239
h-217zM817 1608v239h219v-239h-219z" />
    <glyph glyph-name="multiply" unicode="&#xd7;" horiz-adv-x="1017" 
d="M80 432l285 285l-285 284l145 144l283 -283l285 283l143 -144l-283 -284l285 -285l-145 -143l-285 282l-283 -282z" />
    <glyph glyph-name="Oslash" unicode="&#xd8;" horiz-adv-x="1550" 
d="M397 360l633 865q-110 69 -256 69q-220 0 -351.5 -151t-131.5 -412q0 -228 106 -371zM1151 1108l-635 -868q112 -70 258 -70q221 0 353.5 151t132.5 410q0 231 -109 377zM117 -25l141 197q-201 204 -201 559q0 231 89 403.5t251 264.5t377 92q218 0 381 -94l70 94h205
l-142 -197q205 -205 205 -563q0 -350 -196 -554t-523 -204q-220 0 -383 97l-69 -95h-205z" />
    <glyph glyph-name="Ugrave" unicode="&#xd9;" horiz-adv-x="1398" 
d="M102 520v944h234v-936q0 -165 95.5 -257.5t268.5 -92.5t268 92.5t95 257.5v936h235v-944q0 -253 -161 -400t-437 -147t-437 147t-161 400zM612 1583l-221 295h227l160 -295h-166z" />
    <glyph glyph-name="Uacute" unicode="&#xda;" horiz-adv-x="1398" 
d="M102 520v944h234v-936q0 -165 95.5 -257.5t268.5 -92.5t268 92.5t95 257.5v936h235v-944q0 -253 -161 -400t-437 -147t-437 147t-161 400zM616 1583l160 295h228l-222 -295h-166z" />
    <glyph glyph-name="Ucircumflex" unicode="&#xdb;" horiz-adv-x="1398" 
d="M102 520v944h234v-936q0 -165 95.5 -257.5t268.5 -92.5t268 92.5t95 257.5v936h235v-944q0 -253 -161 -400t-437 -147t-437 147t-161 400zM598 1876h201l235 -295h-166l-170 184l-170 -184h-163z" />
    <glyph glyph-name="Udieresis" unicode="&#xdc;" horiz-adv-x="1398" 
d="M102 520v944h234v-936q0 -165 95.5 -257.5t268.5 -92.5t268 92.5t95 257.5v936h235v-944q0 -253 -161 -400t-437 -147t-437 147t-161 400zM428 1608v239h217v-239h-217zM741 1608v239h220v-239h-220z" />
    <glyph glyph-name="Yacute" unicode="&#xdd;" horiz-adv-x="1275" 
d="M520 0v555l-540 909h268l389 -688l391 688h266l-540 -909v-555h-234zM555 1583l160 295h227l-221 -295h-166z" />
    <glyph glyph-name="Thorn" unicode="&#xde;" horiz-adv-x="1302" 
d="M334 483h373q150 0 223.5 59.5t73.5 188.5t-73.5 189.5t-223.5 60.5h-373v-498zM100 0v1464h234v-278h387q258 0 391 -118t133 -337t-132.5 -335.5t-391.5 -116.5h-387v-279h-234z" />
    <glyph glyph-name="germandbls" unicode="&#xdf;" horiz-adv-x="1232" 
d="M100 0v1061q0 234 135.5 366t372.5 132q139 0 249 -44t177.5 -135.5t67.5 -218.5t-64 -217.5t-176 -116.5q148 -26 237 -136t89 -269q0 -202 -146.5 -316t-412.5 -114q-81 0 -137 12v201q56 -10 124 -10q334 0 334 254q0 129 -86 197.5t-254 68.5h-96v194h92
q122 0 194 61t72 160t-69 163.5t-191 64.5q-133 0 -206.5 -78t-73.5 -215v-1065h-232z" />
    <glyph glyph-name="agrave" unicode="&#xe0;" 
d="M289 311q0 -76 55.5 -114.5t153.5 -38.5q151 0 243.5 86t92.5 219v67l-353 -65q-104 -18 -148 -55t-44 -99zM49 287q0 134 93 213.5t286 113.5l406 72v10q0 122 -68.5 186t-194.5 64q-120 0 -188.5 -59.5t-83.5 -169.5h-236q19 195 154 306.5t358 111.5
q231 0 359.5 -120.5t128.5 -336.5v-678h-211l-6 170q-51 -86 -166 -141.5t-254 -55.5q-167 0 -272 81.5t-105 232.5zM489 1227l-221 295h228l159 -295h-166z" />
    <glyph glyph-name="aacute" unicode="&#xe1;" 
d="M289 311q0 -76 55.5 -114.5t153.5 -38.5q151 0 243.5 86t92.5 219v67l-353 -65q-104 -18 -148 -55t-44 -99zM49 287q0 134 93 213.5t286 113.5l406 72v10q0 122 -68.5 186t-194.5 64q-120 0 -188.5 -59.5t-83.5 -169.5h-236q19 195 154 306.5t358 111.5
q231 0 359.5 -120.5t128.5 -336.5v-678h-211l-6 170q-51 -86 -166 -141.5t-254 -55.5q-167 0 -272 81.5t-105 232.5zM492 1227l159 295h228l-222 -295h-165z" />
    <glyph glyph-name="acircumflex" unicode="&#xe2;" 
d="M289 311q0 -76 55.5 -114.5t153.5 -38.5q151 0 243.5 86t92.5 219v67l-353 -65q-104 -18 -148 -55t-44 -99zM49 287q0 134 93 213.5t286 113.5l406 72v10q0 122 -68.5 186t-194.5 64q-120 0 -188.5 -59.5t-83.5 -169.5h-236q19 195 154 306.5t358 111.5
q231 0 359.5 -120.5t128.5 -336.5v-678h-211l-6 170q-51 -86 -166 -141.5t-254 -55.5q-167 0 -272 81.5t-105 232.5zM473 1520h201l235 -295h-166l-170 184l-170 -184h-163z" />
    <glyph glyph-name="atilde" unicode="&#xe3;" 
d="M289 311q0 -76 55.5 -114.5t153.5 -38.5q151 0 243.5 86t92.5 219v67l-353 -65q-104 -18 -148 -55t-44 -99zM49 287q0 134 93 213.5t286 113.5l406 72v10q0 122 -68.5 186t-194.5 64q-120 0 -188.5 -59.5t-83.5 -169.5h-236q19 195 154 306.5t358 111.5
q231 0 359.5 -120.5t128.5 -336.5v-678h-211l-6 170q-51 -86 -166 -141.5t-254 -55.5q-167 0 -272 81.5t-105 232.5zM375 1243h-94q0 273 163 273q34 0 67 -14t50 -27t45 -39q62 -58 107 -58q36 0 50.5 31t14.5 96h92q0 -272 -163 -272q-34 0 -67.5 14t-52 28t-46.5 40
q-63 55 -103 55q-35 0 -49 -32t-14 -95z" />
    <glyph glyph-name="adieresis" unicode="&#xe4;" 
d="M289 311q0 -76 55.5 -114.5t153.5 -38.5q151 0 243.5 86t92.5 219v67l-353 -65q-104 -18 -148 -55t-44 -99zM49 287q0 134 93 213.5t286 113.5l406 72v10q0 122 -68.5 186t-194.5 64q-120 0 -188.5 -59.5t-83.5 -169.5h-236q19 195 154 306.5t358 111.5
q231 0 359.5 -120.5t128.5 -336.5v-678h-211l-6 170q-51 -86 -166 -141.5t-254 -55.5q-167 0 -272 81.5t-105 232.5zM303 1251v240h217v-240h-217zM616 1251v240h220v-240h-220z" />
    <glyph glyph-name="aring" unicode="&#xe5;" 
d="M289 311q0 -76 55.5 -114.5t153.5 -38.5q151 0 243.5 86t92.5 219v67l-353 -65q-104 -18 -148 -55t-44 -99zM49 287q0 134 93 213.5t286 113.5l406 72v10q0 122 -68.5 186t-194.5 64q-120 0 -188.5 -59.5t-83.5 -169.5h-236q19 195 154 306.5t358 111.5
q231 0 359.5 -120.5t128.5 -336.5v-678h-211l-6 170q-51 -86 -166 -141.5t-254 -55.5q-167 0 -272 81.5t-105 232.5zM477 1430q0 -43 27 -70t71 -27t71.5 26.5t27.5 70.5q0 43 -27.5 69.5t-71.5 26.5t-71 -27t-27 -69zM352 1430q0 91 63 149.5t160 58.5q96 0 160 -59
t64 -149q0 -91 -63.5 -150t-160.5 -59t-160 59t-63 150z" />
    <glyph glyph-name="ae" unicode="&#xe6;" horiz-adv-x="1978" 
d="M287 309q0 -74 56 -112.5t153 -38.5q151 0 243 85.5t92 219.5v67l-352 -65q-104 -20 -148 -56.5t-44 -99.5zM1073 643h613q-14 139 -93 219t-209 80q-129 0 -210.5 -80.5t-100.5 -218.5zM49 285q0 135 91.5 214t285.5 115l405 72v8q0 123 -68 187.5t-194 64.5
q-120 0 -188.5 -59.5t-83.5 -169.5h-236q19 195 154 306.5t358 111.5q277 0 402 -177q153 177 407 177q245 0 393 -154.5t148 -407.5v-86h-852q15 -148 98.5 -234.5t219.5 -86.5q101 0 172 50t104 140h244q-50 -177 -189 -280t-336 -103q-167 0 -293 74.5t-194 208.5
q-45 -133 -176 -208t-297 -75q-167 0 -271 80.5t-104 231.5z" />
    <glyph glyph-name="ccedilla" unicode="&#xe7;" horiz-adv-x="1196" 
d="M424 -315l43 90q101 -58 199 -58q55 0 83.5 18.5t28.5 51.5q0 29 -22.5 46t-65.5 17q-39 0 -86 -14l-90 35l37 104q-226 22 -360 179.5t-134 400.5q0 260 152 420t403 160q212 0 355 -115.5t180 -310.5h-240q-28 108 -103.5 168.5t-189.5 60.5q-152 0 -237.5 -104
t-85.5 -279q0 -176 85.5 -280.5t237.5 -104.5q119 0 196 67t101 185h240q-31 -193 -160 -312.5t-325 -134.5l-23 -65q42 16 100 16q86 0 131.5 -39.5t45.5 -101.5q0 -72 -64.5 -124t-177.5 -52q-125 0 -254 76z" />
    <glyph glyph-name="egrave" unicode="&#xe8;" horiz-adv-x="1204" 
d="M297 643h614q-15 139 -93.5 219t-207.5 80q-130 0 -211 -80t-102 -219zM57 555q0 261 150.5 420.5t400.5 159.5q245 0 392 -154.5t147 -407.5v-86h-852q15 -148 98.5 -234.5t218.5 -86.5q102 0 173 50t104 140h244q-48 -176 -187.5 -279.5t-335.5 -103.5
q-251 0 -402 160.5t-151 421.5zM522 1227l-221 295h227l160 -295h-166z" />
    <glyph glyph-name="eacute" unicode="&#xe9;" horiz-adv-x="1204" 
d="M297 643h614q-15 139 -93.5 219t-207.5 80q-130 0 -211 -80t-102 -219zM57 555q0 261 150.5 420.5t400.5 159.5q245 0 392 -154.5t147 -407.5v-86h-852q15 -148 98.5 -234.5t218.5 -86.5q102 0 173 50t104 140h244q-48 -176 -187.5 -279.5t-335.5 -103.5
q-251 0 -402 160.5t-151 421.5zM524 1227l160 295h227l-221 -295h-166z" />
    <glyph glyph-name="ecircumflex" unicode="&#xea;" horiz-adv-x="1204" 
d="M297 643h614q-15 139 -93.5 219t-207.5 80q-130 0 -211 -80t-102 -219zM57 555q0 261 150.5 420.5t400.5 159.5q245 0 392 -154.5t147 -407.5v-86h-852q15 -148 98.5 -234.5t218.5 -86.5q102 0 173 50t104 140h244q-48 -176 -187.5 -279.5t-335.5 -103.5
q-251 0 -402 160.5t-151 421.5zM506 1520h201l235 -295h-166l-170 184l-170 -184h-164z" />
    <glyph glyph-name="edieresis" unicode="&#xeb;" horiz-adv-x="1204" 
d="M297 643h614q-15 139 -93.5 219t-207.5 80q-130 0 -211 -80t-102 -219zM57 555q0 261 150.5 420.5t400.5 159.5q245 0 392 -154.5t147 -407.5v-86h-852q15 -148 98.5 -234.5t218.5 -86.5q102 0 173 50t104 140h244q-48 -176 -187.5 -279.5t-335.5 -103.5
q-251 0 -402 160.5t-151 421.5zM336 1251v240h217v-240h-217zM649 1251v240h219v-240h-219z" />
    <glyph glyph-name="igrave" unicode="&#xec;" horiz-adv-x="440" 
d="M104 0v1110h232v-1110h-232zM135 1227l-221 295h227l160 -295h-166z" />
    <glyph glyph-name="iacute" unicode="&#xed;" horiz-adv-x="440" 
d="M104 0v1110h232v-1110h-232zM137 1227l160 295h227l-221 -295h-166z" />
    <glyph glyph-name="icircumflex" unicode="&#xee;" horiz-adv-x="440" 
d="M104 0v1110h232v-1110h-232zM119 1520h200l236 -295h-166l-170 184l-170 -184h-164z" />
    <glyph glyph-name="idieresis" unicode="&#xef;" horiz-adv-x="440" 
d="M104 0v1110h232v-1110h-232zM-51 1251v240h217v-240h-217zM262 1251v240h219v-240h-219z" />
    <glyph glyph-name="eth" unicode="&#xf0;" horiz-adv-x="1226" 
d="M291 555q0 -175 88 -280t235 -105q146 0 234 104t88 279q0 163 -95 269t-241 106q-140 0 -224.5 -102t-84.5 -271zM57 553q0 246 140 398.5t366 152.5q194 0 299 -129q-72 180 -233 311l-267 -129l-59 119l205 98q-81 51 -186 107l71 129q164 -71 291 -152l225 109
l60 -119l-164 -78q187 -153 275.5 -353t88.5 -462q0 -261 -152.5 -421.5t-402.5 -160.5q-249 0 -403 160.5t-154 419.5z" />
    <glyph glyph-name="ntilde" unicode="&#xf1;" horiz-adv-x="1136" 
d="M88 0v1108h213l4 -199q42 109 136 167.5t223 58.5q182 0 288.5 -113t106.5 -309v-713h-232v635q0 297 -231 297q-127 0 -202 -80t-75 -217v-635h-231zM383 1243h-94q0 273 164 273q34 0 67 -14t49 -27t45 -39q62 -58 107 -58q36 0 50.5 31t14.5 96h93q0 -272 -164 -272
q-34 0 -67.5 14t-52 28t-46.5 40q-63 55 -103 55q-35 0 -49 -32t-14 -95z" />
    <glyph glyph-name="ograve" unicode="&#xf2;" horiz-adv-x="1226" 
d="M291 555q0 -175 86 -280t237 -105q150 0 236 105t86 280q0 174 -86 278.5t-236 104.5t-236.5 -104.5t-86.5 -278.5zM57 555q0 259 153 419.5t404 160.5t404 -160.5t153 -419.5q0 -260 -153 -421t-404 -161t-404 161t-153 421zM526 1227l-221 295h227l160 -295h-166z" />
    <glyph glyph-name="oacute" unicode="&#xf3;" horiz-adv-x="1226" 
d="M291 555q0 -175 86 -280t237 -105q150 0 236 105t86 280q0 174 -86 278.5t-236 104.5t-236.5 -104.5t-86.5 -278.5zM57 555q0 259 153 419.5t404 160.5t404 -160.5t153 -419.5q0 -260 -153 -421t-404 -161t-404 161t-153 421zM530 1227l160 295h228l-222 -295h-166z" />
    <glyph glyph-name="ocircumflex" unicode="&#xf4;" horiz-adv-x="1226" 
d="M291 555q0 -175 86 -280t237 -105q150 0 236 105t86 280q0 174 -86 278.5t-236 104.5t-236.5 -104.5t-86.5 -278.5zM57 555q0 259 153 419.5t404 160.5t404 -160.5t153 -419.5q0 -260 -153 -421t-404 -161t-404 161t-153 421zM512 1520h201l235 -295h-166l-170 184
l-170 -184h-163z" />
    <glyph glyph-name="otilde" unicode="&#xf5;" horiz-adv-x="1226" 
d="M291 555q0 -175 86 -280t237 -105q150 0 236 105t86 280q0 174 -86 278.5t-236 104.5t-236.5 -104.5t-86.5 -278.5zM57 555q0 259 153 419.5t404 160.5t404 -160.5t153 -419.5q0 -260 -153 -421t-404 -161t-404 161t-153 421zM412 1243h-95q0 273 164 273q34 0 67 -14
t50 -27t45 -39q62 -58 107 -58q36 0 50.5 31t14.5 96h92q0 -272 -164 -272q-34 0 -67 14t-51 28t-47 40q-63 55 -103 55q-35 0 -49 -32t-14 -95z" />
    <glyph glyph-name="odieresis" unicode="&#xf6;" horiz-adv-x="1226" 
d="M291 555q0 -175 86 -280t237 -105q150 0 236 105t86 280q0 174 -86 278.5t-236 104.5t-236.5 -104.5t-86.5 -278.5zM57 555q0 259 153 419.5t404 160.5t404 -160.5t153 -419.5q0 -260 -153 -421t-404 -161t-404 161t-153 421zM342 1251v240h217v-240h-217zM655 1251v240
h219v-240h-219z" />
    <glyph glyph-name="divide" unicode="&#xf7;" 
d="M80 618v195h983v-195h-983zM455 258v229h233v-229h-233zM455 944v230h233v-230h-233z" />
    <glyph glyph-name="oslash" unicode="&#xf8;" horiz-adv-x="1226" 
d="M350 305l416 604q-64 37 -152 37q-155 0 -243 -106t-88 -285q0 -152 67 -250zM879 805l-418 -606q69 -37 153 -37q155 0 242.5 106t87.5 285q0 152 -65 252zM123 -27l100 148q-166 160 -166 434q0 259 153 419.5t404 160.5q152 0 267 -62l43 62h182l-102 -148
q167 -161 167 -432q0 -260 -153 -421t-404 -161q-144 0 -268 62l-43 -62h-180z" />
    <glyph glyph-name="ugrave" unicode="&#xf9;" horiz-adv-x="1134" 
d="M78 395v713h231v-635q0 -297 232 -297q127 0 201.5 80t74.5 217v635h232v-1108h-213l-5 199q-42 -109 -135.5 -167.5t-222.5 -58.5q-182 0 -288.5 113t-106.5 309zM477 1227l-221 295h227l160 -295h-166z" />
    <glyph glyph-name="uacute" unicode="&#xfa;" horiz-adv-x="1134" 
d="M78 395v713h231v-635q0 -297 232 -297q127 0 201.5 80t74.5 217v635h232v-1108h-213l-5 199q-42 -109 -135.5 -167.5t-222.5 -58.5q-182 0 -288.5 113t-106.5 309zM481 1227l160 295h227l-221 -295h-166z" />
    <glyph glyph-name="ucircumflex" unicode="&#xfb;" horiz-adv-x="1134" 
d="M78 395v713h231v-635q0 -297 232 -297q127 0 201.5 80t74.5 217v635h232v-1108h-213l-5 199q-42 -109 -135.5 -167.5t-222.5 -58.5q-182 0 -288.5 113t-106.5 309zM463 1520h201l235 -295h-166l-170 184l-170 -184h-164z" />
    <glyph glyph-name="udieresis" unicode="&#xfc;" horiz-adv-x="1134" 
d="M78 395v713h231v-635q0 -297 232 -297q127 0 201.5 80t74.5 217v635h232v-1108h-213l-5 199q-42 -109 -135.5 -167.5t-222.5 -58.5q-182 0 -288.5 113t-106.5 309zM293 1251v240h217v-240h-217zM606 1251v240h219v-240h-219z" />
    <glyph glyph-name="yacute" unicode="&#xfd;" horiz-adv-x="1040" 
d="M10 -385v199q86 -11 131 -11q190 0 254 148l-411 1157h243l293 -891l293 891h244l-408 -1155q-66 -189 -186.5 -268.5t-302.5 -79.5q-86 0 -150 10zM436 1227l160 295h227l-221 -295h-166z" />
    <glyph glyph-name="thorn" unicode="&#xfe;" horiz-adv-x="1222" 
d="M313 557q0 -181 83.5 -284t230.5 -103q146 0 224.5 100.5t78.5 284.5q0 183 -78.5 283t-224.5 100q-148 0 -231 -101t-83 -280zM86 -395v1900h227v-573q51 97 147.5 150t219.5 53q218 0 351.5 -160.5t133.5 -421.5t-132 -420.5t-347 -159.5q-124 0 -224.5 54.5
t-148.5 156.5v-579h-227z" />
    <glyph glyph-name="ydieresis" unicode="&#xff;" horiz-adv-x="1040" 
d="M10 -385v199q86 -11 131 -11q190 0 254 148l-411 1157h243l293 -891l293 891h244l-408 -1155q-66 -189 -186.5 -268.5t-302.5 -79.5q-86 0 -150 10zM248 1251v240h217v-240h-217zM561 1251v240h219v-240h-219z" />
    <glyph glyph-name="Amacron" unicode="&#x100;" horiz-adv-x="1366" 
d="M440 580h488l-244 673zM-20 0l548 1464h312l546 -1464h-253l-138 379h-624l-138 -379h-253zM418 1634v148h532v-148h-532z" />
    <glyph glyph-name="amacron" unicode="&#x101;" 
d="M289 311q0 -76 55.5 -114.5t153.5 -38.5q151 0 243.5 86t92.5 219v67l-353 -65q-104 -18 -148 -55t-44 -99zM49 287q0 134 93 213.5t286 113.5l406 72v10q0 122 -68.5 186t-194.5 64q-120 0 -188.5 -59.5t-83.5 -169.5h-236q19 195 154 306.5t358 111.5
q231 0 359.5 -120.5t128.5 -336.5v-678h-211l-6 170q-51 -86 -166 -141.5t-254 -55.5q-167 0 -272 81.5t-105 232.5zM309 1278v147h533v-147h-533z" />
    <glyph glyph-name="Abreve" unicode="&#x102;" horiz-adv-x="1366" 
d="M440 580h488l-244 673zM-20 0l548 1464h312l546 -1464h-253l-138 379h-624l-138 -379h-253zM408 1888h127q2 -74 42 -118t107 -44q66 0 105.5 44t41.5 118h127q-1 -142 -75.5 -224.5t-200.5 -82.5t-199 82t-75 225z" />
    <glyph glyph-name="abreve" unicode="&#x103;" 
d="M289 311q0 -76 55.5 -114.5t153.5 -38.5q151 0 243.5 86t92.5 219v67l-353 -65q-104 -18 -148 -55t-44 -99zM49 287q0 134 93 213.5t286 113.5l406 72v10q0 122 -68.5 186t-194.5 64q-120 0 -188.5 -59.5t-83.5 -169.5h-236q19 195 154 306.5t358 111.5
q231 0 359.5 -120.5t128.5 -336.5v-678h-211l-6 170q-51 -86 -166 -141.5t-254 -55.5q-167 0 -272 81.5t-105 232.5zM299 1532h127q2 -74 42 -118t107 -44q66 0 106 44t42 118h127q-1 -142 -76 -224.5t-201 -82.5t-199 82t-75 225z" />
    <glyph glyph-name="Aogonek" unicode="&#x104;" horiz-adv-x="1366" 
d="M-20 0l548 1464h312l546 -1464h-4q-120 -11 -194 -44.5t-74 -82.5q0 -36 46.5 -56t129.5 -20q52 0 96 8v-161q-83 -9 -116 -9q-132 0 -213.5 45t-81.5 125q0 70 65.5 119.5t178.5 75.5h-86l-138 379h-624l-138 -379h-253zM440 580h488l-244 673z" />
    <glyph glyph-name="aogonek" unicode="&#x105;" 
d="M1063 0h-4q-120 -11 -194 -44.5t-74 -82.5q0 -36 46.5 -56t129.5 -20q52 0 96 8v-161q-83 -9 -117 -9q-132 0 -213.5 45t-81.5 125q0 70 65.5 119.5t178.5 75.5h-43l-6 170q-51 -86 -166 -141.5t-254 -55.5q-167 0 -272 81.5t-105 232.5q0 134 93 213.5t286 113.5l406 72
v10q0 122 -68.5 186t-194.5 64q-120 0 -188.5 -59.5t-83.5 -169.5h-236q19 195 154 306.5t358 111.5q231 0 359.5 -120.5t128.5 -336.5v-678zM289 311q0 -76 55.5 -114.5t153.5 -38.5q151 0 243.5 86t92.5 219v67l-353 -65q-104 -18 -148 -55t-44 -99z" />
    <glyph glyph-name="Cacute" unicode="&#x106;" horiz-adv-x="1497" 
d="M57 731q0 348 190.5 554t508.5 206q270 0 449.5 -147.5t228.5 -413.5h-248q-38 169 -151.5 262.5t-280.5 93.5q-207 0 -331 -149t-124 -404t124.5 -405t332.5 -150q175 0 289.5 102t146.5 287h248q-41 -280 -223 -437t-463 -157q-318 0 -507.5 205t-189.5 553zM668 1583
l159 295h228l-221 -295h-166z" />
    <glyph glyph-name="cacute" unicode="&#x107;" horiz-adv-x="1196" 
d="M57 555q0 260 152 420t403 160q212 0 355 -115.5t180 -310.5h-240q-28 108 -103.5 168.5t-189.5 60.5q-152 0 -237.5 -104t-85.5 -279q0 -176 85.5 -280.5t237.5 -104.5q119 0 196 67t101 185h240q-32 -205 -177 -327t-362 -122q-251 0 -403 160.5t-152 421.5zM528 1227
l160 295h227l-221 -295h-166z" />
    <glyph glyph-name="Ccircumflex" unicode="&#x108;" horiz-adv-x="1497" 
d="M57 731q0 348 190.5 554t508.5 206q270 0 449.5 -147.5t228.5 -413.5h-248q-38 169 -151.5 262.5t-280.5 93.5q-207 0 -331 -149t-124 -404t124.5 -405t332.5 -150q175 0 289.5 102t146.5 287h248q-41 -280 -223 -437t-463 -157q-318 0 -507.5 205t-189.5 553zM649 1876
h201l235 -295h-165l-170 184l-170 -184h-164z" />
    <glyph glyph-name="ccircumflex" unicode="&#x109;" horiz-adv-x="1196" 
d="M57 555q0 260 152 420t403 160q212 0 355 -115.5t180 -310.5h-240q-28 108 -103.5 168.5t-189.5 60.5q-152 0 -237.5 -104t-85.5 -279q0 -176 85.5 -280.5t237.5 -104.5q119 0 196 67t101 185h240q-32 -205 -177 -327t-362 -122q-251 0 -403 160.5t-152 421.5zM510 1520
h201l235 -295h-166l-170 184l-170 -184h-164z" />
    <glyph glyph-name="Cdotaccent" unicode="&#x10a;" horiz-adv-x="1497" 
d="M57 731q0 348 190.5 554t508.5 206q270 0 449.5 -147.5t228.5 -413.5h-248q-38 169 -151.5 262.5t-280.5 93.5q-207 0 -331 -149t-124 -404t124.5 -405t332.5 -150q175 0 289.5 102t146.5 287h248q-41 -280 -223 -437t-463 -157q-318 0 -507.5 205t-189.5 553zM643 1608
v239h217v-239h-217z" />
    <glyph glyph-name="cdotaccent" unicode="&#x10b;" horiz-adv-x="1196" 
d="M57 555q0 260 152 420t403 160q212 0 355 -115.5t180 -310.5h-240q-28 108 -103.5 168.5t-189.5 60.5q-152 0 -237.5 -104t-85.5 -279q0 -176 85.5 -280.5t237.5 -104.5q119 0 196 67t101 185h240q-32 -205 -177 -327t-362 -122q-251 0 -403 160.5t-152 421.5zM504 1251
v240h217v-240h-217z" />
    <glyph glyph-name="Ccaron" unicode="&#x10c;" horiz-adv-x="1497" 
d="M57 731q0 348 190.5 554t508.5 206q270 0 449.5 -147.5t228.5 -413.5h-248q-38 169 -151.5 262.5t-280.5 93.5q-207 0 -331 -149t-124 -404t124.5 -405t332.5 -150q175 0 289.5 102t146.5 287h248q-41 -280 -223 -437t-463 -157q-318 0 -507.5 205t-189.5 553zM649 1581
l-233 295h164l170 -184l170 184h165l-235 -295h-201z" />
    <glyph glyph-name="ccaron" unicode="&#x10d;" horiz-adv-x="1196" 
d="M57 555q0 260 152 420t403 160q212 0 355 -115.5t180 -310.5h-240q-28 108 -103.5 168.5t-189.5 60.5q-152 0 -237.5 -104t-85.5 -279q0 -176 85.5 -280.5t237.5 -104.5q119 0 196 67t101 185h240q-32 -205 -177 -327t-362 -122q-251 0 -403 160.5t-152 421.5zM510 1225
l-234 295h164l170 -185l170 185h166l-235 -295h-201z" />
    <glyph glyph-name="Dcaron" unicode="&#x10e;" horiz-adv-x="1404" 
d="M334 205h260q256 0 383 131t127 397q0 527 -510 527h-260v-1055zM100 0v1464h496q361 0 556.5 -190t195.5 -541q0 -354 -195.5 -543.5t-558.5 -189.5h-494zM512 1581l-233 295h163l170 -184l170 184h166l-235 -295h-201z" />
    <glyph glyph-name="dcaron" unicode="&#x10f;" horiz-adv-x="1470" 
d="M909 557q0 179 -83.5 280t-231.5 101q-145 0 -224 -99.5t-79 -283.5q0 -183 79 -283t224 -100q148 0 231.5 102.5t83.5 282.5zM1137 0h-213l-6 186q-48 -103 -149.5 -158t-227.5 -55q-218 0 -351 159.5t-133 420.5t133.5 421.5t350.5 160.5q123 0 220.5 -53t147.5 -150
v573h228v-1505zM1452 1505l-84 -571h-145l45 571h184z" />
    <glyph glyph-name="Dcroat" unicode="&#x110;" horiz-adv-x="1503" 
d="M432 205h260q256 0 383 131t127 397q0 527 -510 527h-260v-431h336v-184h-336v-440zM43 645v184h156v635h495q361 0 556.5 -190t195.5 -541q0 -354 -195.5 -543.5t-558.5 -189.5h-493v645h-156z" />
    <glyph glyph-name="dcroat" unicode="&#x111;" horiz-adv-x="1298" 
d="M909 557q0 179 -83.5 280t-231.5 101q-145 0 -224 -99.5t-79 -283.5q0 -183 79 -283t224 -100q148 0 231.5 102.5t83.5 282.5zM565 1208v158h344v139h228v-139h118v-158h-118v-1208h-213l-6 186q-48 -103 -149.5 -158t-227.5 -55q-218 0 -351 159.5t-133 420.5
t133.5 421.5t350.5 160.5q123 0 220.5 -53t147.5 -150v276h-344z" />
    <glyph glyph-name="Emacron" unicode="&#x112;" horiz-adv-x="1187" 
d="M100 0v1464h1008v-204h-774v-424h739v-201h-739v-430h784v-205h-1018zM342 1634v148h532v-148h-532z" />
    <glyph glyph-name="emacron" unicode="&#x113;" horiz-adv-x="1204" 
d="M297 643h614q-15 139 -93.5 219t-207.5 80q-130 0 -211 -80t-102 -219zM57 555q0 261 150.5 420.5t400.5 159.5q245 0 392 -154.5t147 -407.5v-86h-852q15 -148 98.5 -234.5t218.5 -86.5q102 0 173 50t104 140h244q-48 -176 -187.5 -279.5t-335.5 -103.5
q-251 0 -402 160.5t-151 421.5zM342 1278v147h532v-147h-532z" />
    <glyph glyph-name="Ebreve" unicode="&#x114;" horiz-adv-x="1187" 
d="M100 0v1464h1008v-204h-774v-424h739v-201h-739v-430h784v-205h-1018zM334 1888h127q2 -74 42 -118t107 -44q66 0 106 44t42 118h127q-1 -142 -76 -224.5t-201 -82.5t-199 82t-75 225z" />
    <glyph glyph-name="ebreve" unicode="&#x115;" horiz-adv-x="1204" 
d="M297 643h614q-15 139 -93.5 219t-207.5 80q-130 0 -211 -80t-102 -219zM57 555q0 261 150.5 420.5t400.5 159.5q245 0 392 -154.5t147 -407.5v-86h-852q15 -148 98.5 -234.5t218.5 -86.5q102 0 173 50t104 140h244q-48 -176 -187.5 -279.5t-335.5 -103.5
q-251 0 -402 160.5t-151 421.5zM334 1532h127q2 -74 42 -118t107 -44q66 0 106 44t42 118h127q-1 -142 -76 -224.5t-201 -82.5t-199 82t-75 225z" />
    <glyph glyph-name="Edotaccent" unicode="&#x116;" horiz-adv-x="1187" 
d="M100 0v1464h1008v-204h-774v-424h739v-201h-739v-430h784v-205h-1018zM502 1608v239h217v-239h-217z" />
    <glyph glyph-name="edotaccent" unicode="&#x117;" horiz-adv-x="1204" 
d="M297 643h614q-15 139 -93.5 219t-207.5 80q-130 0 -211 -80t-102 -219zM57 555q0 261 150.5 420.5t400.5 159.5q245 0 392 -154.5t147 -407.5v-86h-852q15 -148 98.5 -234.5t218.5 -86.5q102 0 173 50t104 140h244q-48 -176 -187.5 -279.5t-335.5 -103.5
q-251 0 -402 160.5t-151 421.5zM502 1251v240h217v-240h-217z" />
    <glyph glyph-name="Eogonek" unicode="&#x118;" horiz-adv-x="1187" 
d="M100 0v1464h1008v-204h-774v-424h739v-201h-739v-430h784v-205h-4q-120 -11 -194 -44.5t-74 -82.5q0 -36 46.5 -56t129.5 -20q52 0 96 8v-161q-83 -9 -117 -9q-132 0 -213 45t-81 125q0 70 65 119.5t178 75.5h-850z" />
    <glyph glyph-name="eogonek" unicode="&#x119;" horiz-adv-x="1204" 
d="M57 555q0 261 150.5 420.5t400.5 159.5q245 0 392 -154.5t147 -407.5v-86h-852q15 -148 98.5 -234.5t218.5 -86.5q102 0 173 50t104 140h244q-56 -202 -228 -307q-64 -46 -104.5 -99.5t-40.5 -92.5q0 -41 50.5 -60.5t129.5 -19.5q47 0 94 8v-162q-41 -8 -123 -8
q-124 0 -207 43t-83 123q0 103 155 215q-84 -23 -166 -23q-251 0 -402 160.5t-151 421.5zM297 643h614q-15 139 -93.5 219t-207.5 80q-130 0 -211 -80t-102 -219z" />
    <glyph glyph-name="Ecaron" unicode="&#x11a;" horiz-adv-x="1187" 
d="M100 0v1464h1008v-204h-774v-424h739v-201h-739v-430h784v-205h-1018zM508 1581l-234 295h164l170 -184l170 184h166l-235 -295h-201z" />
    <glyph glyph-name="ecaron" unicode="&#x11b;" horiz-adv-x="1204" 
d="M297 643h614q-15 139 -93.5 219t-207.5 80q-130 0 -211 -80t-102 -219zM57 555q0 261 150.5 420.5t400.5 159.5q245 0 392 -154.5t147 -407.5v-86h-852q15 -148 98.5 -234.5t218.5 -86.5q102 0 173 50t104 140h244q-48 -176 -187.5 -279.5t-335.5 -103.5
q-251 0 -402 160.5t-151 421.5zM506 1225l-234 295h164l170 -185l170 185h166l-235 -295h-201z" />
    <glyph glyph-name="Gcircumflex" unicode="&#x11c;" horiz-adv-x="1529" 
d="M57 729q0 349 190 555.5t509 206.5q260 0 435.5 -136.5t233.5 -383.5h-251q-46 150 -156 232.5t-266 82.5q-205 0 -329 -149t-124 -404q0 -256 124 -405.5t335 -149.5q179 0 297 106.5t147 295.5h-440v188h668v-768h-160l-27 236q-166 -263 -495 -263
q-314 0 -502.5 205.5t-188.5 550.5zM653 1876h201l236 -295h-166l-170 184l-170 -184h-164z" />
    <glyph glyph-name="gcircumflex" unicode="&#x11d;" horiz-adv-x="1222" 
d="M291 588q0 -168 79 -259t224 -91q148 0 231.5 93t83.5 257t-83.5 258t-231.5 94q-145 0 -224 -91.5t-79 -260.5zM98 10h234q12 -103 92 -160t197 -57q132 0 210 80t78 242v131q-51 -97 -148.5 -150t-221.5 -53q-216 0 -349 150.5t-133 396.5q0 244 132.5 394.5
t347.5 150.5q128 0 230.5 -55t150.5 -158l6 186h213v-987q0 -134 -38.5 -234.5t-108.5 -161t-163.5 -90.5t-208.5 -30q-100 0 -186.5 23t-158 70.5t-118 127t-57.5 184.5zM496 1520h200l236 -295h-166l-170 184l-170 -184h-164z" />
    <glyph glyph-name="Gbreve" unicode="&#x11e;" horiz-adv-x="1529" 
d="M57 729q0 349 190 555.5t509 206.5q260 0 435.5 -136.5t233.5 -383.5h-251q-46 150 -156 232.5t-266 82.5q-205 0 -329 -149t-124 -404q0 -256 124 -405.5t335 -149.5q179 0 297 106.5t147 295.5h-440v188h668v-768h-160l-27 236q-166 -263 -495 -263
q-314 0 -502.5 205.5t-188.5 550.5zM479 1888h127q2 -74 42.5 -118t107.5 -44q66 0 105.5 44t41.5 118h127q-1 -142 -75.5 -224.5t-200.5 -82.5t-200 82.5t-75 224.5z" />
    <glyph glyph-name="gbreve" unicode="&#x11f;" horiz-adv-x="1222" 
d="M291 588q0 -168 79 -259t224 -91q148 0 231.5 93t83.5 257t-83.5 258t-231.5 94q-145 0 -224 -91.5t-79 -260.5zM98 10h234q12 -103 92 -160t197 -57q132 0 210 80t78 242v131q-51 -97 -148.5 -150t-221.5 -53q-216 0 -349 150.5t-133 396.5q0 244 132.5 394.5
t347.5 150.5q128 0 230.5 -55t150.5 -158l6 186h213v-987q0 -134 -38.5 -234.5t-108.5 -161t-163.5 -90.5t-208.5 -30q-100 0 -186.5 23t-158 70.5t-118 127t-57.5 184.5zM322 1532h127q2 -74 42 -118t107 -44q66 0 105.5 44t41.5 118h127q-1 -142 -75.5 -224.5
t-200.5 -82.5t-199 82t-75 225z" />
    <glyph glyph-name="Gdotaccent" unicode="&#x120;" horiz-adv-x="1529" 
d="M57 729q0 349 190 555.5t509 206.5q260 0 435.5 -136.5t233.5 -383.5h-251q-46 150 -156 232.5t-266 82.5q-205 0 -329 -149t-124 -404q0 -256 124 -405.5t335 -149.5q179 0 297 106.5t147 295.5h-440v188h668v-768h-160l-27 236q-166 -263 -495 -263
q-314 0 -502.5 205.5t-188.5 550.5zM647 1608v239h217v-239h-217z" />
    <glyph glyph-name="gdotaccent" unicode="&#x121;" horiz-adv-x="1222" 
d="M291 588q0 -168 79 -259t224 -91q148 0 231.5 93t83.5 257t-83.5 258t-231.5 94q-145 0 -224 -91.5t-79 -260.5zM98 10h234q12 -103 92 -160t197 -57q132 0 210 80t78 242v131q-51 -97 -148.5 -150t-221.5 -53q-216 0 -349 150.5t-133 396.5q0 244 132.5 394.5
t347.5 150.5q128 0 230.5 -55t150.5 -158l6 186h213v-987q0 -134 -38.5 -234.5t-108.5 -161t-163.5 -90.5t-208.5 -30q-100 0 -186.5 23t-158 70.5t-118 127t-57.5 184.5zM489 1251v240h218v-240h-218z" />
    <glyph glyph-name="uni0122" unicode="&#x122;" horiz-adv-x="1529" 
d="M57 729q0 349 190 555.5t509 206.5q260 0 435.5 -136.5t233.5 -383.5h-251q-46 150 -156 232.5t-266 82.5q-205 0 -329 -149t-124 -404q0 -256 124 -405.5t335 -149.5q179 0 297 106.5t147 295.5h-440v188h668v-768h-160l-27 236q-166 -263 -495 -263
q-314 0 -502.5 205.5t-188.5 550.5zM575 -436v4l68 313h211v-4l-117 -313h-162z" />
    <glyph glyph-name="uni0123" unicode="&#x123;" horiz-adv-x="1222" 
d="M291 588q0 -168 79 -259t224 -91q148 0 231.5 93t83.5 257t-83.5 258t-231.5 94q-145 0 -224 -91.5t-79 -260.5zM98 10h234q12 -103 92 -160t197 -57q132 0 210 80t78 242v131q-51 -97 -148.5 -150t-221.5 -53q-216 0 -349 150.5t-133 396.5q0 244 132.5 394.5
t347.5 150.5q128 0 230.5 -55t150.5 -158l6 186h213v-987q0 -134 -38.5 -234.5t-108.5 -161t-163.5 -90.5t-208.5 -30q-100 0 -186.5 23t-158 70.5t-118 127t-57.5 184.5zM768 1546v-6l-66 -311h-210v4l118 313h158z" />
    <glyph glyph-name="Hcircumflex" unicode="&#x124;" horiz-adv-x="1380" 
d="M100 0v1464h234v-624h710v624h236v-1464h-236v635h-710v-635h-234zM590 1876h201l235 -295h-166l-170 184l-170 -184h-164z" />
    <glyph glyph-name="hcircumflex" unicode="&#x125;" horiz-adv-x="1134" 
d="M86 0v1505h231v-565q45 94 135 144.5t210 50.5q182 0 288.5 -113t106.5 -309v-713h-232v635q0 299 -231 299q-126 0 -201.5 -80.5t-75.5 -218.5v-635h-231zM100 1915h201l236 -295h-166l-170 184l-170 -184h-164z" />
    <glyph glyph-name="Hbar" unicode="&#x126;" horiz-adv-x="1609" 
d="M449 840h710v231h-710v-231zM43 1071v174h172v219h234v-219h710v219h236v-219h172v-174h-172v-1071h-236v635h-710v-635h-234v1071h-172z" />
    <glyph glyph-name="hbar" unicode="&#x127;" horiz-adv-x="1210" 
d="M43 1208v158h119v139h231v-139h340v-158h-340v-268q45 95 135 145t209 50q182 0 289 -113t107 -309v-713h-232v635q0 150 -56.5 224.5t-174.5 74.5q-126 0 -201.5 -80.5t-75.5 -218.5v-635h-231v1208h-119z" />
    <glyph glyph-name="Itilde" unicode="&#x128;" horiz-adv-x="436" 
d="M102 0v1464h234v-1464h-234zM20 1599h-94q0 273 164 273q34 0 67 -14t50 -27t45 -39q61 -57 106 -57q36 0 51 31t15 96h92q0 -273 -164 -273q-34 0 -67.5 14t-52 28t-46.5 40q-63 55 -102 55q-64 0 -64 -127z" />
    <glyph glyph-name="itilde" unicode="&#x129;" horiz-adv-x="440" 
d="M104 0v1110h232v-1110h-232zM20 1243h-94q0 273 164 273q34 0 67 -14t50 -27t45 -39q62 -58 106 -58q36 0 51 31t15 96h92q0 -272 -164 -272q-34 0 -67.5 14t-52 28t-46.5 40q-63 55 -102 55q-64 0 -64 -127z" />
    <glyph glyph-name="Imacron" unicode="&#x12a;" horiz-adv-x="436" 
d="M102 0v1464h234v-1464h-234zM-47 1634v148h532v-148h-532z" />
    <glyph glyph-name="imacron" unicode="&#x12b;" horiz-adv-x="440" 
d="M104 0v1110h232v-1110h-232zM-45 1278v147h532v-147h-532z" />
    <glyph glyph-name="Ibreve" unicode="&#x12c;" horiz-adv-x="436" 
d="M102 0v1464h234v-1464h-234zM-55 1888h127q2 -74 42 -118t107 -44q66 0 106 44t42 118h127q-1 -142 -76 -224.5t-201 -82.5t-199 82t-75 225z" />
    <glyph glyph-name="ibreve" unicode="&#x12d;" horiz-adv-x="440" 
d="M104 0v1110h232v-1110h-232zM-55 1532h127q2 -74 42 -118t107 -44q66 0 106 44t42 118h127q-1 -142 -76 -224.5t-201 -82.5t-199 82t-75 225z" />
    <glyph glyph-name="Iogonek" unicode="&#x12e;" horiz-adv-x="436" 
d="M102 0v1464h234v-1464h-4q-120 -11 -194.5 -44.5t-74.5 -82.5q0 -36 47 -56t130 -20q52 0 96 8v-161q-83 -9 -117 -9q-132 0 -213.5 45t-81.5 125q0 70 65.5 119.5t178.5 75.5h-66z" />
    <glyph glyph-name="iogonek" unicode="&#x12f;" horiz-adv-x="413" 
d="M92 0v1108h227v-1102l3 -6q-120 -11 -194.5 -44.5t-74.5 -82.5q0 -36 46.5 -56t129.5 -20q53 0 97 8v-161q-83 -9 -117 -9q-132 0 -213.5 45t-81.5 125q0 70 65.5 119.5t178.5 75.5h-66zM86 1249v244h242v-244h-242z" />
    <glyph glyph-name="Idotaccent" unicode="&#x130;" horiz-adv-x="436" 
d="M102 0v1464h234v-1464h-234zM113 1608v239h217v-239h-217z" />
    <glyph glyph-name="dotlessi" unicode="&#x131;" horiz-adv-x="440" 
d="M104 0v1110h232v-1110h-232z" />
    <glyph glyph-name="IJ" unicode="&#x132;" horiz-adv-x="1611" 
d="M102 0v1464h234v-1464h-234zM481 543h234q17 -192 84 -278.5t198 -86.5q136 0 207.5 86t71.5 254v946h233v-946q0 -255 -137.5 -400t-374.5 -145q-240 0 -372.5 150t-143.5 420z" />
    <glyph glyph-name="ij" unicode="&#x133;" horiz-adv-x="825" 
d="M92 0v1108h227v-1108h-227zM86 1249v244h242v-244h-242zM299 -367v195q35 -6 66 -6q78 0 108.5 41.5t30.5 152.5v1092h229v-1073q0 -205 -78.5 -307.5t-257.5 -102.5q-54 0 -98 8zM500 1249v244h241v-244h-241z" />
    <glyph glyph-name="Jcircumflex" unicode="&#x134;" horiz-adv-x="1173" 
d="M45 543h234q17 -192 84 -278.5t198 -86.5q136 0 207.5 86t71.5 254v946h233v-946q0 -255 -137.5 -400t-374.5 -145q-240 0 -372.5 150t-143.5 420zM856 1876h201l235 -295h-166l-170 184l-170 -184h-163z" />
    <glyph glyph-name="jcircumflex" unicode="&#x135;" horiz-adv-x="413" 
d="M-109 -387v192q34 -6 64 -6q79 0 110 42t31 155v1112h228v-1094q0 -206 -78 -307.5t-258 -101.5q-53 0 -97 8zM111 1520h200l236 -295h-166l-170 184l-170 -184h-164z" />
    <glyph glyph-name="uni0136" unicode="&#x136;" horiz-adv-x="1286" 
d="M102 0v1464h234v-688l643 688h289l-580 -624l619 -840h-283l-494 674l-194 -203v-471h-234zM508 -436v4l67 313h211v-4l-116 -313h-162z" />
    <glyph glyph-name="uni0137" unicode="&#x137;" horiz-adv-x="1146" 
d="M88 0v1505h227v-870l531 473h299l-492 -440l510 -668h-276l-395 528l-177 -159v-369h-227zM418 -436v4l67 313h211v-4l-116 -313h-162z" />
    <glyph glyph-name="kgreenlandic" unicode="&#x138;" horiz-adv-x="1232" 
d="M291 334l268 397l-268 402v-799zM387 170h549l-272 408zM664 887l274 407h-549zM770 731l272 -401v803zM86 1464h1163v-1464h-1163v1464z" />
    <glyph glyph-name="Lacute" unicode="&#x139;" horiz-adv-x="1130" 
d="M100 0v1464h234v-1259h743v-205h-977zM135 1583l160 295h227l-221 -295h-166z" />
    <glyph glyph-name="lacute" unicode="&#x13a;" horiz-adv-x="399" 
d="M86 0v1505h227v-1505h-227zM117 1622l159 295h228l-221 -295h-166z" />
    <glyph glyph-name="uni013B" unicode="&#x13b;" horiz-adv-x="1130" 
d="M100 0v1464h234v-1259h743v-205h-977zM420 -436v4l67 313h211v-4l-116 -313h-162z" />
    <glyph glyph-name="uni013C" unicode="&#x13c;" horiz-adv-x="399" 
d="M86 0v1505h227v-1505h-227zM29 -436v4l67 313h211v-4l-117 -313h-161z" />
    <glyph glyph-name="Lcaron" unicode="&#x13d;" horiz-adv-x="1130" 
d="M100 0v1464h234v-1259h743v-205h-977zM1028 1464l-84 -571h-145l45 571h184z" />
    <glyph glyph-name="lcaron" unicode="&#x13e;" horiz-adv-x="647" 
d="M86 0v1505h227v-1505h-227zM631 1505l-84 -571h-146l45 571h185z" />
    <glyph glyph-name="Ldot" unicode="&#x13f;" horiz-adv-x="1130" 
d="M100 0v1464h234v-1259h743v-205h-977zM700 731v234h232v-234h-232z" />
    <glyph glyph-name="ldot" unicode="&#x140;" horiz-adv-x="677" 
d="M86 0v1505h227v-1505h-227zM424 655v234h231v-234h-231z" />
    <glyph glyph-name="Lslash" unicode="&#x141;" horiz-adv-x="1232" 
d="M43 428v190l160 87v759h233v-639l369 203v-190l-369 -203v-430h744v-205h-977v514z" />
    <glyph glyph-name="lslash" unicode="&#x142;" horiz-adv-x="575" 
d="M43 469v180l129 68v788h231v-674l129 68v-180l-129 -68v-651h-231v535z" />
    <glyph glyph-name="Nacute" unicode="&#x143;" horiz-adv-x="1445" 
d="M102 0v1464h291l717 -1171v1171h233v-1464h-303l-704 1143v-1143h-234zM643 1583l160 295h227l-221 -295h-166z" />
    <glyph glyph-name="nacute" unicode="&#x144;" horiz-adv-x="1136" 
d="M88 0v1108h213l4 -199q42 109 136 167.5t223 58.5q182 0 288.5 -113t106.5 -309v-713h-232v635q0 297 -231 297q-127 0 -202 -80t-75 -217v-635h-231zM500 1227l159 295h228l-221 -295h-166z" />
    <glyph glyph-name="uni0145" unicode="&#x145;" horiz-adv-x="1445" 
d="M102 0v1464h291l717 -1171v1171h233v-1464h-303l-704 1143v-1143h-234zM547 -436v4l67 313h211v-4l-116 -313h-162z" />
    <glyph glyph-name="uni0146" unicode="&#x146;" horiz-adv-x="1136" 
d="M88 0v1108h213l4 -199q42 109 136 167.5t223 58.5q182 0 288.5 -113t106.5 -309v-713h-232v635q0 297 -231 297q-127 0 -202 -80t-75 -217v-635h-231zM399 -436v4l68 313h211v-4l-117 -313h-162z" />
    <glyph glyph-name="Ncaron" unicode="&#x147;" horiz-adv-x="1445" 
d="M102 0v1464h291l717 -1171v1171h233v-1464h-303l-704 1143v-1143h-234zM623 1581l-234 295h164l170 -184l170 184h166l-236 -295h-200z" />
    <glyph glyph-name="ncaron" unicode="&#x148;" horiz-adv-x="1136" 
d="M88 0v1108h213l4 -199q42 109 136 167.5t223 58.5q182 0 288.5 -113t106.5 -309v-713h-232v635q0 297 -231 297q-127 0 -202 -80t-75 -217v-635h-231zM481 1225l-233 295h164l170 -185l170 185h166l-236 -295h-201z" />
    <glyph glyph-name="Omacron" unicode="&#x14c;" horiz-adv-x="1550" 
d="M299 731q0 -255 129.5 -404t345.5 -149q217 0 347 148.5t130 404.5q0 257 -130 406t-347 149q-216 0 -345.5 -149t-129.5 -406zM55 731q0 348 196.5 554t522.5 206q327 0 523 -205t196 -555t-196 -554t-523 -204q-326 0 -522.5 205t-196.5 553zM510 1634v148h532v-148
h-532z" />
    <glyph glyph-name="omacron" unicode="&#x14d;" horiz-adv-x="1226" 
d="M291 555q0 -175 86 -280t237 -105q150 0 236 105t86 280q0 174 -86 278.5t-236 104.5t-236.5 -104.5t-86.5 -278.5zM57 555q0 259 153 419.5t404 160.5t404 -160.5t153 -419.5q0 -260 -153 -421t-404 -161t-404 161t-153 421zM346 1278v147h533v-147h-533z" />
    <glyph glyph-name="Obreve" unicode="&#x14e;" horiz-adv-x="1550" 
d="M299 731q0 -255 129.5 -404t345.5 -149q217 0 347 148.5t130 404.5q0 257 -130 406t-347 149q-216 0 -345.5 -149t-129.5 -406zM55 731q0 348 196.5 554t522.5 206q327 0 523 -205t196 -555t-196 -554t-523 -204q-326 0 -522.5 205t-196.5 553zM500 1888h127
q2 -74 42 -118t107 -44q66 0 106 44t42 118h127q-1 -142 -76 -224.5t-201 -82.5t-199 82t-75 225z" />
    <glyph glyph-name="obreve" unicode="&#x14f;" horiz-adv-x="1226" 
d="M291 555q0 -175 86 -280t237 -105q150 0 236 105t86 280q0 174 -86 278.5t-236 104.5t-236.5 -104.5t-86.5 -278.5zM57 555q0 259 153 419.5t404 160.5t404 -160.5t153 -419.5q0 -260 -153 -421t-404 -161t-404 161t-153 421zM338 1532h127q2 -74 42 -118t107 -44
q66 0 106 44t42 118h127q-1 -142 -76 -224.5t-201 -82.5t-199 82t-75 225z" />
    <glyph glyph-name="Ohungarumlaut" unicode="&#x150;" horiz-adv-x="1550" 
d="M299 731q0 -255 129.5 -404t345.5 -149q217 0 347 148.5t130 404.5q0 257 -130 406t-347 149q-216 0 -345.5 -149t-129.5 -406zM55 731q0 348 196.5 554t522.5 206q327 0 523 -205t196 -555t-196 -554t-523 -204q-326 0 -522.5 205t-196.5 553zM719 1583h-146l125 295
h191zM961 1583h-146l166 295h190z" />
    <glyph glyph-name="ohungarumlaut" unicode="&#x151;" horiz-adv-x="1226" 
d="M291 555q0 -175 86 -280t237 -105q150 0 236 105t86 280q0 174 -86 278.5t-236 104.5t-236.5 -104.5t-86.5 -278.5zM57 555q0 259 153 419.5t404 160.5t404 -160.5t153 -419.5q0 -260 -153 -421t-404 -161t-404 161t-153 421zM555 1227h-145l125 295h190zM797 1227h-146
l166 295h191z" />
    <glyph glyph-name="OE" unicode="&#x152;" horiz-adv-x="2156" 
d="M1069 205v1055h-260q-510 0 -510 -527q0 -266 127 -397t383 -131h260zM57 733q0 352 195 541.5t557 189.5h1268v-204h-774v-424h739v-201h-739v-430h784v-205h-1278q-363 0 -557.5 189.5t-194.5 543.5z" />
    <glyph glyph-name="oe" unicode="&#x153;" horiz-adv-x="2084" 
d="M293 555q0 -175 86 -280t237 -105t236.5 105t85.5 280q0 174 -86 278.5t-236 104.5t-236.5 -104.5t-86.5 -278.5zM1180 643h612q-15 139 -93.5 219t-207.5 80q-130 0 -211 -80t-100 -219zM59 555q0 259 153 419.5t404 160.5q141 0 254.5 -55t184.5 -156q71 101 183 156
t251 55q245 0 392 -154.5t147 -407.5v-86h-852q15 -148 98.5 -234.5t218.5 -86.5q103 0 174 49.5t105 140.5h243q-50 -177 -189 -280t-335 -103q-140 0 -252 55.5t-184 155.5q-72 -100 -185.5 -155.5t-253.5 -55.5q-251 0 -404 161t-153 421z" />
    <glyph glyph-name="Racute" unicode="&#x154;" horiz-adv-x="1363" 
d="M100 0v1464h641q259 0 392 -114t133 -328q0 -162 -79 -267.5t-233 -146.5l355 -608h-273l-317 584h-385v-584h-234zM334 784h393q150 0 223.5 56.5t73.5 179.5q0 124 -73.5 182t-223.5 58h-393v-476zM545 1583l160 295h227l-221 -295h-166z" />
    <glyph glyph-name="racute" unicode="&#x155;" horiz-adv-x="729" 
d="M88 0v1108h211l8 -227q62 227 289 227h123v-238h-133q-267 0 -267 -274v-596h-231zM305 1227l160 295h227l-221 -295h-166z" />
    <glyph glyph-name="uni0156" unicode="&#x156;" horiz-adv-x="1363" 
d="M334 784h393q150 0 223.5 56.5t73.5 179.5q0 124 -73.5 182t-223.5 58h-393v-476zM100 0v1464h641q259 0 392 -114t133 -328q0 -162 -79 -267.5t-233 -146.5l355 -608h-273l-317 584h-385v-584h-234zM489 -436v4l68 313h211v-4l-117 -313h-162z" />
    <glyph glyph-name="uni0157" unicode="&#x157;" horiz-adv-x="729" 
d="M88 0v1108h211l8 -227q62 227 289 227h123v-238h-133q-267 0 -267 -274v-596h-231zM33 -436v4l67 313h211v-4l-116 -313h-162z" />
    <glyph glyph-name="Rcaron" unicode="&#x158;" horiz-adv-x="1363" 
d="M100 0v1464h641q259 0 392 -114t133 -328q0 -162 -79 -267.5t-233 -146.5l355 -608h-273l-317 584h-385v-584h-234zM334 784h393q150 0 223.5 56.5t73.5 179.5q0 124 -73.5 182t-223.5 58h-393v-476zM524 1581l-233 295h164l170 -184l170 184h166l-236 -295h-201z" />
    <glyph glyph-name="rcaron" unicode="&#x159;" horiz-adv-x="729" 
d="M88 0v1108h211l8 -227q62 227 289 227h123v-238h-133q-267 0 -267 -274v-596h-231zM285 1225l-234 295h164l170 -185l170 185h166l-236 -295h-200z" />
    <glyph glyph-name="Sacute" unicode="&#x15a;" horiz-adv-x="1253" 
d="M31 510h241q17 -159 117.5 -246.5t269.5 -87.5q145 0 228.5 60.5t83.5 164.5q0 40 -11 71.5t-37.5 55.5t-54.5 40.5t-78.5 32t-91.5 25t-110 23.5t-118 25.5t-107.5 30t-99 39.5t-81 52t-65 68t-39.5 87.5t-15 111.5q0 195 143.5 311.5t389.5 116.5q266 0 421 -141
t171 -365h-242q-14 134 -106.5 218.5t-245.5 84.5q-127 0 -207 -61t-80 -158q0 -37 12 -66.5t39.5 -52t56 -38.5t78 -30t87 -23t100.5 -21q71 -13 125.5 -26t112.5 -32.5t100 -41.5t81 -53.5t63 -70t38 -89t14 -111.5q0 -204 -153 -322.5t-404 -118.5q-282 0 -448.5 148
t-177.5 389zM518 1583l160 295h227l-221 -295h-166z" />
    <glyph glyph-name="sacute" unicode="&#x15b;" horiz-adv-x="1058" 
d="M27 367h233q8 -99 79.5 -154t205.5 -55q106 0 172.5 37.5t66.5 111.5q0 19 -5 35t-12 28.5t-22.5 23.5t-28 19t-36 15.5t-40.5 12t-48.5 10.5t-51.5 9t-57 9q-53 9 -86.5 15.5t-84 20t-82.5 28.5t-69 39.5t-58 54t-35.5 71.5t-14.5 93q0 156 121.5 250t333.5 94
q220 0 346.5 -104t144.5 -275h-231q-11 91 -80.5 142.5t-183.5 51.5q-102 0 -158.5 -40t-56.5 -101q0 -27 9.5 -48.5t31.5 -37t44 -26.5t60.5 -20.5t66.5 -14.5t77 -13q59 -10 92.5 -17t87 -21t85 -29t69.5 -40t58.5 -55t35 -73t14.5 -95q0 -113 -63 -192.5t-168 -116.5
t-244 -37q-238 0 -373.5 107.5t-144.5 286.5zM424 1227l160 295h227l-221 -295h-166z" />
    <glyph glyph-name="Scircumflex" unicode="&#x15c;" horiz-adv-x="1253" 
d="M31 510h241q17 -159 117.5 -246.5t269.5 -87.5q145 0 228.5 60.5t83.5 164.5q0 40 -11 71.5t-37.5 55.5t-54.5 40.5t-78.5 32t-91.5 25t-110 23.5t-118 25.5t-107.5 30t-99 39.5t-81 52t-65 68t-39.5 87.5t-15 111.5q0 195 143.5 311.5t389.5 116.5q266 0 421 -141
t171 -365h-242q-14 134 -106.5 218.5t-245.5 84.5q-127 0 -207 -61t-80 -158q0 -37 12 -66.5t39.5 -52t56 -38.5t78 -30t87 -23t100.5 -21q71 -13 125.5 -26t112.5 -32.5t100 -41.5t81 -53.5t63 -70t38 -89t14 -111.5q0 -204 -153 -322.5t-404 -118.5q-282 0 -448.5 148
t-177.5 389zM500 1876h200l236 -295h-166l-170 184l-170 -184h-164z" />
    <glyph glyph-name="scircumflex" unicode="&#x15d;" horiz-adv-x="1058" 
d="M27 367h233q8 -99 79.5 -154t205.5 -55q106 0 172.5 37.5t66.5 111.5q0 19 -5 35t-12 28.5t-22.5 23.5t-28 19t-36 15.5t-40.5 12t-48.5 10.5t-51.5 9t-57 9q-53 9 -86.5 15.5t-84 20t-82.5 28.5t-69 39.5t-58 54t-35.5 71.5t-14.5 93q0 156 121.5 250t333.5 94
q220 0 346.5 -104t144.5 -275h-231q-11 91 -80.5 142.5t-183.5 51.5q-102 0 -158.5 -40t-56.5 -101q0 -27 9.5 -48.5t31.5 -37t44 -26.5t60.5 -20.5t66.5 -14.5t77 -13q59 -10 92.5 -17t87 -21t85 -29t69.5 -40t58.5 -55t35 -73t14.5 -95q0 -113 -63 -192.5t-168 -116.5
t-244 -37q-238 0 -373.5 107.5t-144.5 286.5zM406 1520h200l236 -295h-166l-170 184l-170 -184h-164z" />
    <glyph glyph-name="Scedilla" unicode="&#x15e;" horiz-adv-x="1253" 
d="M469 -315l43 90q101 -58 199 -58q55 0 83.5 18.5t28.5 51.5q0 29 -22.5 46t-65.5 17q-39 0 -86 -14l-90 35l35 104q-254 17 -403 162.5t-160 372.5h241q17 -159 117.5 -246.5t269.5 -87.5q145 0 228.5 60.5t83.5 164.5q0 40 -11 71.5t-37.5 55.5t-54.5 40.5t-78.5 32
t-91.5 25t-110 23.5t-118 25.5t-107.5 30t-99 39.5t-81 52t-65 68t-39.5 87.5t-15 111.5q0 195 143.5 311.5t389.5 116.5q266 0 421 -141t171 -365h-242q-14 134 -106.5 218.5t-245.5 84.5q-127 0 -207 -61t-80 -158q0 -37 12 -66.5t39.5 -52t56 -38.5t78 -30t87 -23
t100.5 -21q71 -13 125.5 -26t112.5 -32.5t100 -41.5t81 -53.5t63 -70t38 -89t14 -111.5q0 -194 -137 -310.5t-366 -128.5l-23 -65q42 16 100 16q86 0 131.5 -39.5t45.5 -101.5q0 -72 -64.5 -124t-177.5 -52q-125 0 -254 76z" />
    <glyph glyph-name="scedilla" unicode="&#x15f;" horiz-adv-x="1058" 
d="M354 -315l43 90q101 -58 199 -58q55 0 84 18.5t29 51.5q0 29 -22.5 46t-65.5 17q-39 0 -86 -14l-91 35l35 104q-208 15 -325.5 120.5t-126.5 271.5h233q8 -99 79.5 -154t205.5 -55q106 0 172.5 37.5t66.5 111.5q0 19 -5 35t-12 28.5t-22.5 23.5t-28 19t-36 15.5t-40.5 12
t-48.5 10.5t-51.5 9t-57 9q-53 9 -86.5 15.5t-84 20t-82.5 28.5t-69 39.5t-58 54t-35.5 71.5t-14.5 93q0 156 121.5 250t333.5 94q220 0 346.5 -104t144.5 -275h-231q-11 91 -80.5 142.5t-183.5 51.5q-102 0 -158.5 -40t-56.5 -101q0 -27 9.5 -48.5t31.5 -37t44 -26.5
t60.5 -20.5t66.5 -14.5t77 -13q59 -10 92.5 -17t87 -21t85 -29t69.5 -40t58.5 -55t35 -73t14.5 -95q0 -159 -116 -247t-308 -97l-23 -65q42 16 101 16q86 0 131 -39.5t45 -101.5q0 -72 -64.5 -124t-177.5 -52q-125 0 -254 76z" />
    <glyph glyph-name="Scaron" unicode="&#x160;" horiz-adv-x="1253" 
d="M31 510h241q17 -159 117.5 -246.5t269.5 -87.5q145 0 228.5 60.5t83.5 164.5q0 40 -11 71.5t-37.5 55.5t-54.5 40.5t-78.5 32t-91.5 25t-110 23.5t-118 25.5t-107.5 30t-99 39.5t-81 52t-65 68t-39.5 87.5t-15 111.5q0 195 143.5 311.5t389.5 116.5q266 0 421 -141
t171 -365h-242q-14 134 -106.5 218.5t-245.5 84.5q-127 0 -207 -61t-80 -158q0 -37 12 -66.5t39.5 -52t56 -38.5t78 -30t87 -23t100.5 -21q71 -13 125.5 -26t112.5 -32.5t100 -41.5t81 -53.5t63 -70t38 -89t14 -111.5q0 -204 -153 -322.5t-404 -118.5q-282 0 -448.5 148
t-177.5 389zM500 1581l-234 295h164l170 -184l170 184h166l-236 -295h-200z" />
    <glyph glyph-name="scaron" unicode="&#x161;" horiz-adv-x="1058" 
d="M27 367h233q8 -99 79.5 -154t205.5 -55q106 0 172.5 37.5t66.5 111.5q0 19 -5 35t-12 28.5t-22.5 23.5t-28 19t-36 15.5t-40.5 12t-48.5 10.5t-51.5 9t-57 9q-53 9 -86.5 15.5t-84 20t-82.5 28.5t-69 39.5t-58 54t-35.5 71.5t-14.5 93q0 156 121.5 250t333.5 94
q220 0 346.5 -104t144.5 -275h-231q-11 91 -80.5 142.5t-183.5 51.5q-102 0 -158.5 -40t-56.5 -101q0 -27 9.5 -48.5t31.5 -37t44 -26.5t60.5 -20.5t66.5 -14.5t77 -13q59 -10 92.5 -17t87 -21t85 -29t69.5 -40t58.5 -55t35 -73t14.5 -95q0 -113 -63 -192.5t-168 -116.5
t-244 -37q-238 0 -373.5 107.5t-144.5 286.5zM406 1225l-234 295h164l170 -185l170 185h166l-236 -295h-200z" />
    <glyph glyph-name="uni0162" unicode="&#x162;" horiz-adv-x="1249" 
d="M508 0v1260h-473v204h1179v-204h-473v-1260h-57l-31 -90q42 16 101 16q86 0 131 -39.5t45 -101.5q0 -72 -64.5 -124t-177.5 -52q-125 0 -254 76l43 90q101 -58 199 -58q55 0 83.5 18.5t28.5 51.5q0 29 -22.5 46t-65.5 17q-39 0 -86 -14l-90 35l45 129h-61z" />
    <glyph glyph-name="uni0163" unicode="&#x163;" horiz-adv-x="876" 
d="M215 383v528h-176v197h176v281h231v-281h392v-197h-392v-526q0 -114 51 -160.5t171 -46.5q87 0 170 19v-199q-145 -23 -230 -23q-43 0 -94 7l-27 -72q42 16 101 16q86 0 131 -39.5t45 -101.5q0 -72 -64.5 -124t-177.5 -52q-125 0 -254 76l43 90q101 -58 199 -58
q55 0 84 18.5t29 51.5q0 29 -22.5 46t-65.5 17q-39 0 -86 -14l-91 35l48 139q-191 81 -191 373z" />
    <glyph glyph-name="Tcaron" unicode="&#x164;" horiz-adv-x="1249" 
d="M508 0v1260h-473v204h1179v-204h-473v-1260h-233zM522 1581l-233 295h164l170 -184l170 184h165l-235 -295h-201z" />
    <glyph glyph-name="tcaron" unicode="&#x165;" horiz-adv-x="880" 
d="M215 383v528h-176v197h176v281h231v-281h392v-197h-392v-526q0 -114 51 -160.5t171 -46.5q87 0 170 19v-199q-145 -23 -230 -23q-200 0 -296.5 99t-96.5 309zM848 1642l-80 -409h-145l41 409h184z" />
    <glyph glyph-name="Tbar" unicode="&#x166;" horiz-adv-x="1249" 
d="M1073 788v-178h-332v-610h-233v610h-332v178h332v472h-473v204h1179v-204h-473v-472h332z" />
    <glyph glyph-name="tbar" unicode="&#x167;" horiz-adv-x="909" 
d="M53 586v155h176v170h-176v197h176v281h232v-281h391v-197h-391v-170h391v-155h-391v-205q0 -112 50.5 -157.5t170.5 -45.5q87 0 170 19v-199q-145 -23 -229 -23q-201 0 -297.5 99t-96.5 309v203h-176z" />
    <glyph glyph-name="Utilde" unicode="&#x168;" horiz-adv-x="1398" 
d="M102 520v944h234v-936q0 -165 95.5 -257.5t268.5 -92.5t268 92.5t95 257.5v936h235v-944q0 -253 -161 -400t-437 -147t-437 147t-161 400zM500 1599h-94q0 273 163 273q34 0 67 -14t50 -27t45 -39q61 -57 107 -57q36 0 50.5 31t14.5 96h92q0 -273 -164 -273q-34 0 -67 14
t-51 28t-47 40q-63 55 -103 55q-35 0 -49 -32t-14 -95z" />
    <glyph glyph-name="utilde" unicode="&#x169;" horiz-adv-x="1134" 
d="M78 395v713h231v-635q0 -297 232 -297q127 0 201.5 80t74.5 217v635h232v-1108h-213l-5 199q-42 -109 -135.5 -167.5t-222.5 -58.5q-182 0 -288.5 113t-106.5 309zM362 1243h-94q0 273 164 273q34 0 67 -14t50 -27t45 -39q62 -58 106 -58q36 0 51 31t15 96h92
q0 -272 -164 -272q-34 0 -67.5 14t-52 28t-46.5 40q-63 55 -102 55q-64 0 -64 -127z" />
    <glyph glyph-name="Umacron" unicode="&#x16a;" horiz-adv-x="1398" 
d="M102 520v944h234v-936q0 -165 95.5 -257.5t268.5 -92.5t268 92.5t95 257.5v936h235v-944q0 -253 -161 -400t-437 -147t-437 147t-161 400zM432 1634v148h533v-148h-533z" />
    <glyph glyph-name="umacron" unicode="&#x16b;" horiz-adv-x="1134" 
d="M78 395v713h231v-635q0 -297 232 -297q127 0 201.5 80t74.5 217v635h232v-1108h-213l-5 199q-42 -109 -135.5 -167.5t-222.5 -58.5q-182 0 -288.5 113t-106.5 309zM297 1278v147h532v-147h-532z" />
    <glyph glyph-name="Ubreve" unicode="&#x16c;" horiz-adv-x="1398" 
d="M102 520v944h234v-936q0 -165 95.5 -257.5t268.5 -92.5t268 92.5t95 257.5v936h235v-944q0 -253 -161 -400t-437 -147t-437 147t-161 400zM424 1888h127q2 -74 42 -118t107 -44q66 0 106 44t42 118h127q-1 -142 -76 -224.5t-201 -82.5t-199 82t-75 225z" />
    <glyph glyph-name="ubreve" unicode="&#x16d;" horiz-adv-x="1134" 
d="M78 395v713h231v-635q0 -297 232 -297q127 0 201.5 80t74.5 217v635h232v-1108h-213l-5 199q-42 -109 -135.5 -167.5t-222.5 -58.5q-182 0 -288.5 113t-106.5 309zM289 1532h127q2 -74 42 -118t107 -44q66 0 106 44t42 118h127q-1 -142 -76 -224.5t-201 -82.5t-199 82
t-75 225z" />
    <glyph glyph-name="Uring" unicode="&#x16e;" horiz-adv-x="1398" 
d="M102 520v944h234v-936q0 -165 95.5 -257.5t268.5 -92.5t268 92.5t95 257.5v936h235v-944q0 -253 -161 -400t-437 -147t-437 147t-161 400zM600 1786q0 -43 27 -69.5t71 -26.5q45 0 72 26t27 70q0 43 -27.5 69.5t-71.5 26.5t-71 -27t-27 -69zM475 1786q0 91 63 150t160 59
q96 0 160 -59.5t64 -149.5q0 -91 -63.5 -150t-160.5 -59t-160 59t-63 150z" />
    <glyph glyph-name="uring" unicode="&#x16f;" horiz-adv-x="1134" 
d="M78 395v713h231v-635q0 -297 232 -297q127 0 201.5 80t74.5 217v635h232v-1108h-213l-5 199q-42 -109 -135.5 -167.5t-222.5 -58.5q-182 0 -288.5 113t-106.5 309zM465 1430q0 -43 27 -70t71 -27t71.5 26.5t27.5 70.5q0 43 -27.5 69.5t-71.5 26.5t-71 -27t-27 -69z
M340 1430q0 91 63 149.5t160 58.5q96 0 159.5 -59t63.5 -149q0 -91 -63 -150t-160 -59t-160 59t-63 150z" />
    <glyph glyph-name="Uhungarumlaut" unicode="&#x170;" horiz-adv-x="1398" 
d="M102 520v944h234v-936q0 -165 95.5 -257.5t268.5 -92.5t268 92.5t95 257.5v936h235v-944q0 -253 -161 -400t-437 -147t-437 147t-161 400zM641 1583h-145l125 295h190zM883 1583h-146l166 295h191z" />
    <glyph glyph-name="uhungarumlaut" unicode="&#x171;" horiz-adv-x="1134" 
d="M78 395v713h231v-635q0 -297 232 -297q127 0 201.5 80t74.5 217v635h232v-1108h-213l-5 199q-42 -109 -135.5 -167.5t-222.5 -58.5q-182 0 -288.5 113t-106.5 309zM506 1227h-146l125 295h191zM748 1227h-146l166 295h190z" />
    <glyph glyph-name="Uogonek" unicode="&#x172;" horiz-adv-x="1398" 
d="M102 520v944h234v-936q0 -165 95.5 -257.5t268.5 -92.5t268 92.5t95 257.5v936h235v-944q0 -160 -66.5 -280t-189.5 -187q-66 -48 -107.5 -102t-41.5 -94q0 -41 50.5 -60.5t129.5 -19.5q47 0 94 8v-162q-41 -8 -123 -8q-124 0 -207 43t-83 123q0 105 166 221
q-106 -29 -220 -29q-276 0 -437 147t-161 400z" />
    <glyph glyph-name="uogonek" unicode="&#x173;" horiz-adv-x="1134" 
d="M78 395v713h231v-635q0 -297 232 -297q127 0 201.5 80t74.5 217v635h232v-1108h-5q-120 -11 -194 -44.5t-74 -82.5q0 -36 46.5 -56t129.5 -20q53 0 97 8v-161q-83 -9 -117 -9q-132 0 -213.5 45t-81.5 125q0 70 65.5 119.5t178.5 75.5h-45l-5 199q-42 -109 -135.5 -167.5
t-222.5 -58.5q-182 0 -288.5 113t-106.5 309z" />
    <glyph glyph-name="Wcircumflex" unicode="&#x174;" horiz-adv-x="1902" 
d="M381 0l-401 1464h249l299 -1198l285 1198h277l284 -1198l297 1198h252l-397 -1464h-291l-285 1128l-280 -1128h-289zM848 1876h201l235 -295h-166l-170 184l-170 -184h-164z" />
    <glyph glyph-name="wcircumflex" unicode="&#x175;" horiz-adv-x="1673" 
d="M319 0l-335 1108h243l238 -881l244 881h256l243 -881l238 881h244l-334 -1108h-279l-241 827l-240 -827h-277zM735 1520h201l235 -295h-165l-170 184l-170 -184h-164z" />
    <glyph glyph-name="Ycircumflex" unicode="&#x176;" horiz-adv-x="1275" 
d="M520 0v555l-540 909h268l389 -688l391 688h266l-540 -909v-555h-234zM537 1876h200l236 -295h-166l-170 184l-170 -184h-164z" />
    <glyph glyph-name="ycircumflex" unicode="&#x177;" horiz-adv-x="1040" 
d="M10 -385v199q86 -11 131 -11q190 0 254 148l-411 1157h243l293 -891l293 891h244l-408 -1155q-66 -189 -186.5 -268.5t-302.5 -79.5q-86 0 -150 10zM418 1520h200l236 -295h-166l-170 184l-170 -184h-164z" />
    <glyph glyph-name="Ydieresis" unicode="&#x178;" horiz-adv-x="1275" 
d="M520 0v555l-540 909h268l389 -688l391 688h266l-540 -909v-555h-234zM367 1608v239h217v-239h-217zM680 1608v239h219v-239h-219z" />
    <glyph glyph-name="Zacute" unicode="&#x179;" horiz-adv-x="1298" 
d="M102 0v195l791 1065h-770v204h1061v-194l-795 -1065h809v-205h-1096zM565 1583l160 295h227l-221 -295h-166z" />
    <glyph glyph-name="zacute" unicode="&#x17a;" horiz-adv-x="1130" 
d="M70 0v188l671 723h-649v197h952v-188l-673 -723h692v-197h-993zM483 1227l160 295h227l-221 -295h-166z" />
    <glyph glyph-name="Zdotaccent" unicode="&#x17b;" horiz-adv-x="1298" 
d="M102 0v195l791 1065h-770v204h1061v-194l-795 -1065h809v-205h-1096zM543 1608v239h217v-239h-217z" />
    <glyph glyph-name="zdotaccent" unicode="&#x17c;" horiz-adv-x="1130" 
d="M70 0v188l671 723h-649v197h952v-188l-673 -723h692v-197h-993zM459 1251v240h217v-240h-217z" />
    <glyph glyph-name="Zcaron" unicode="&#x17d;" horiz-adv-x="1298" 
d="M102 0v195l791 1065h-770v204h1061v-194l-795 -1065h809v-205h-1096zM547 1581l-234 295h164l170 -184l170 184h166l-235 -295h-201z" />
    <glyph glyph-name="zcaron" unicode="&#x17e;" horiz-adv-x="1130" 
d="M70 0v188l671 723h-649v197h952v-188l-673 -723h692v-197h-993zM465 1225l-234 295h164l170 -185l170 185h166l-235 -295h-201z" />
    <glyph glyph-name="florin" unicode="&#x192;" horiz-adv-x="1095" 
d="M39 -395v192q85 -16 160 -16q126 0 179.5 43t53.5 143v944h-196v197h196v72q0 191 105 285t319 94q72 0 201 -17v-194q-71 16 -160 16q-126 0 -179.5 -42.5t-53.5 -143.5v-70h391v-197h-391v-946q0 -377 -424 -377q-72 0 -201 17z" />
    <glyph glyph-name="AEacute" unicode="&#x1fc;" horiz-adv-x="1935" 
d="M506 580h342v673h-21zM848 0v379h-432l-183 -379h-253l708 1464h1167v-204h-774v-424h740v-201h-740v-430h785v-205h-1018zM1237 1583l160 295h227l-221 -295h-166z" />
    <glyph glyph-name="aeacute" unicode="&#x1fd;" horiz-adv-x="1978" 
d="M287 309q0 -74 56 -112.5t153 -38.5q151 0 243 85.5t92 219.5v67l-352 -65q-104 -20 -148 -56.5t-44 -99.5zM1073 643h613q-14 139 -93 219t-209 80q-129 0 -210.5 -80.5t-100.5 -218.5zM49 285q0 135 91.5 214t285.5 115l405 72v8q0 123 -68 187.5t-194 64.5
q-120 0 -188.5 -59.5t-83.5 -169.5h-236q19 195 154 306.5t358 111.5q277 0 402 -177q153 177 407 177q245 0 393 -154.5t148 -407.5v-86h-852q15 -148 98.5 -234.5t219.5 -86.5q101 0 172 50t104 140h244q-50 -177 -189 -280t-336 -103q-167 0 -293 74.5t-194 208.5
q-45 -133 -176 -208t-297 -75q-167 0 -271 80.5t-104 231.5zM893 1227l160 295h227l-221 -295h-166z" />
    <glyph glyph-name="Oslashacute" unicode="&#x1fe;" horiz-adv-x="1550" 
d="M397 360l633 865q-110 69 -256 69q-220 0 -351.5 -151t-131.5 -412q0 -228 106 -371zM1151 1108l-635 -868q112 -70 258 -70q221 0 353.5 151t132.5 410q0 231 -109 377zM117 -25l141 197q-201 204 -201 559q0 231 89 403.5t251 264.5t377 92q218 0 381 -94l70 94h205
l-142 -197q205 -205 205 -563q0 -350 -196 -554t-523 -204q-220 0 -383 97l-69 -95h-205zM690 1583l160 295h227l-221 -295h-166z" />
    <glyph glyph-name="oslashacute" unicode="&#x1ff;" horiz-adv-x="1226" 
d="M350 305l416 604q-64 37 -152 37q-155 0 -243 -106t-88 -285q0 -152 67 -250zM879 805l-418 -606q69 -37 153 -37q155 0 242.5 106t87.5 285q0 152 -65 252zM123 -27l100 148q-166 160 -166 434q0 259 153 419.5t404 160.5q152 0 267 -62l43 62h182l-102 -148
q167 -161 167 -432q0 -260 -153 -421t-404 -161q-144 0 -268 62l-43 -62h-180zM532 1227l160 295h228l-222 -295h-166z" />
    <glyph glyph-name="uni0218" unicode="&#x218;" horiz-adv-x="1253" 
d="M31 510h241q17 -159 117.5 -246.5t269.5 -87.5q145 0 228.5 60.5t83.5 164.5q0 40 -11 71.5t-37.5 55.5t-54.5 40.5t-78.5 32t-91.5 25t-110 23.5t-118 25.5t-107.5 30t-99 39.5t-81 52t-65 68t-39.5 87.5t-15 111.5q0 195 143.5 311.5t389.5 116.5q266 0 421 -141
t171 -365h-242q-14 134 -106.5 218.5t-245.5 84.5q-127 0 -207 -61t-80 -158q0 -37 12 -66.5t39.5 -52t56 -38.5t78 -30t87 -23t100.5 -21q71 -13 125.5 -26t112.5 -32.5t100 -41.5t81 -53.5t63 -70t38 -89t14 -111.5q0 -204 -153 -322.5t-404 -118.5q-282 0 -448.5 148
t-177.5 389zM487 -436v4l68 313h211v-4l-117 -313h-162z" />
    <glyph glyph-name="uni0219" unicode="&#x219;" horiz-adv-x="1058" 
d="M27 367h233q8 -99 79.5 -154t205.5 -55q106 0 172.5 37.5t66.5 111.5q0 19 -5 35t-12 28.5t-22.5 23.5t-28 19t-36 15.5t-40.5 12t-48.5 10.5t-51.5 9t-57 9q-53 9 -86.5 15.5t-84 20t-82.5 28.5t-69 39.5t-58 54t-35.5 71.5t-14.5 93q0 156 121.5 250t333.5 94
q220 0 346.5 -104t144.5 -275h-231q-11 91 -80.5 142.5t-183.5 51.5q-102 0 -158.5 -40t-56.5 -101q0 -27 9.5 -48.5t31.5 -37t44 -26.5t60.5 -20.5t66.5 -14.5t77 -13q59 -10 92.5 -17t87 -21t85 -29t69.5 -40t58.5 -55t35 -73t14.5 -95q0 -113 -63 -192.5t-168 -116.5
t-244 -37q-238 0 -373.5 107.5t-144.5 286.5zM373 -436v4l67 313h211v-4l-116 -313h-162z" />
    <glyph glyph-name="uni021A" unicode="&#x21a;" horiz-adv-x="1249" 
d="M508 0v1260h-473v204h1179v-204h-473v-1260h-233zM453 -436v4l67 313h211v-4l-117 -313h-161z" />
    <glyph glyph-name="uni021B" unicode="&#x21b;" horiz-adv-x="876" 
d="M215 383v528h-176v197h176v281h231v-281h392v-197h-392v-526q0 -114 51 -160.5t171 -46.5q87 0 170 19v-199q-145 -23 -230 -23q-200 0 -296.5 99t-96.5 309zM371 -436v4l67 313h211v-4l-117 -313h-161z" />
    <glyph glyph-name="uni0237" unicode="&#x237;" horiz-adv-x="413" 
d="M-109 -387v192q34 -6 64 -6q79 0 110 42t31 155v1112h228v-1094q0 -206 -78 -307.5t-258 -101.5q-53 0 -97 8z" />
    <glyph glyph-name="circumflex" unicode="&#x2c6;" horiz-adv-x="827" 
d="M313 1497h201l236 -295h-166l-170 184l-170 -184h-164z" />
    <glyph glyph-name="caron" unicode="&#x2c7;" horiz-adv-x="827" 
d="M313 1202l-233 295h164l170 -184l170 184h166l-236 -295h-201z" />
    <glyph glyph-name="breve" unicode="&#x2d8;" horiz-adv-x="710" 
d="M80 1509h127q2 -74 42 -117.5t107 -43.5q66 0 106.5 44t41.5 117h127q-1 -142 -76 -224.5t-201 -82.5t-199 82t-75 225z" />
    <glyph glyph-name="dotaccent" unicode="&#x2d9;" horiz-adv-x="376" 
d="M80 1229v239h217v-239h-217z" />
    <glyph glyph-name="ring" unicode="&#x2da;" horiz-adv-x="606" 
d="M205 1407q0 -43 27 -69.5t71 -26.5t71 26t27 70q0 43 -27 69.5t-71 26.5t-71 -27t-27 -69zM80 1407q0 91 63 150t160 59q96 0 159.5 -59.5t63.5 -149.5q0 -91 -63 -150t-160 -59t-160 59t-63 150z" />
    <glyph glyph-name="ogonek" unicode="&#x2db;" horiz-adv-x="571" 
d="M479 -8l8 -23q-120 -11 -194 -44.5t-74 -82.5q0 -36 46.5 -55.5t129.5 -19.5q53 0 97 8v-162q-74 -8 -117 -8q-132 0 -213.5 45t-81.5 125q0 92 110.5 148t288.5 69z" />
    <glyph glyph-name="tilde" unicode="&#x2dc;" horiz-adv-x="747" 
d="M174 1221h-94q0 272 164 272q34 0 67 -14t50 -27t45 -39q61 -57 106 -57q36 0 51 31t15 96h92q0 -273 -164 -273q-34 0 -67.5 14t-52 28t-46.5 40q-21 18 -34 28t-32 19t-36 9q-64 0 -64 -127z" />
    <glyph glyph-name="hungarumlaut" unicode="&#x2dd;" horiz-adv-x="757" 
d="M225 1204h-145l125 295h190zM467 1204h-145l165 295h191z" />
    <glyph glyph-name="uni03BC" unicode="&#x3bc;" horiz-adv-x="1323" 
d="M285 334l268 397l-268 402v-799zM381 170h549l-273 408zM657 887l275 407h-549zM764 731l272 -401v803zM80 1464h1163v-1464h-1163v1464z" />
    <glyph glyph-name="Wgrave" unicode="&#x1e80;" horiz-adv-x="1902" 
d="M381 0l-401 1464h249l299 -1198l285 1198h277l284 -1198l297 1198h252l-397 -1464h-291l-285 1128l-280 -1128h-289zM864 1583l-221 295h227l160 -295h-166z" />
    <glyph glyph-name="wgrave" unicode="&#x1e81;" horiz-adv-x="1673" 
d="M319 0l-335 1108h243l238 -881l244 881h256l243 -881l238 881h244l-334 -1108h-279l-241 827l-240 -827h-277zM752 1227l-222 295h228l160 -295h-166z" />
    <glyph glyph-name="Wacute" unicode="&#x1e82;" horiz-adv-x="1902" 
d="M381 0l-401 1464h249l299 -1198l285 1198h277l284 -1198l297 1198h252l-397 -1464h-291l-285 1128l-280 -1128h-289zM866 1583l160 295h227l-221 -295h-166z" />
    <glyph glyph-name="wacute" unicode="&#x1e83;" horiz-adv-x="1673" 
d="M319 0l-335 1108h243l238 -881l244 881h256l243 -881l238 881h244l-334 -1108h-279l-241 827l-240 -827h-277zM756 1227l159 295h228l-221 -295h-166z" />
    <glyph glyph-name="Wdieresis" unicode="&#x1e84;" horiz-adv-x="1902" 
d="M381 0l-401 1464h249l299 -1198l285 1198h277l284 -1198l297 1198h252l-397 -1464h-291l-285 1128l-280 -1128h-289zM678 1608v239h217v-239h-217zM991 1608v239h219v-239h-219z" />
    <glyph glyph-name="wdieresis" unicode="&#x1e85;" horiz-adv-x="1673" 
d="M319 0l-335 1108h243l238 -881l244 881h256l243 -881l238 881h244l-334 -1108h-279l-241 827l-240 -827h-277zM567 1251v240h217v-240h-217zM881 1251v240h219v-240h-219z" />
    <glyph glyph-name="Ygrave" unicode="&#x1ef2;" horiz-adv-x="1275" 
d="M520 0v555l-540 909h268l389 -688l391 688h266l-540 -909v-555h-234zM553 1583l-221 295h227l160 -295h-166z" />
    <glyph glyph-name="ygrave" unicode="&#x1ef3;" horiz-adv-x="1040" 
d="M10 -385v199q86 -11 131 -11q190 0 254 148l-411 1157h243l293 -891l293 891h244l-408 -1155q-66 -189 -186.5 -268.5t-302.5 -79.5q-86 0 -150 10zM434 1227l-221 295h227l160 -295h-166z" />
    <glyph glyph-name="endash" unicode="&#x2013;" horiz-adv-x="1495" 
d="M80 487v197h1335v-197h-1335z" />
    <glyph glyph-name="emdash" unicode="&#x2014;" horiz-adv-x="1966" 
d="M80 487v197h1806v-197h-1806z" />
    <glyph glyph-name="quoteleft" unicode="&#x2018;" horiz-adv-x="456" 
d="M37 743l201 723h170l-132 -723h-239z" />
    <glyph glyph-name="quoteright" unicode="&#x2019;" horiz-adv-x="456" 
d="M49 743l131 723h240l-201 -723h-170z" />
    <glyph glyph-name="quotesinglbase" unicode="&#x201a;" horiz-adv-x="419" 
d="M0 -406l129 723h240l-199 -723h-170z" />
    <glyph glyph-name="quotedblleft" unicode="&#x201c;" horiz-adv-x="788" 
d="M37 743l201 723h170l-132 -723h-239zM369 743l200 723h170l-131 -723h-239z" />
    <glyph glyph-name="quotedblright" unicode="&#x201d;" horiz-adv-x="788" 
d="M49 743l131 723h240l-201 -723h-170zM381 743l129 723h242l-201 -723h-170z" />
    <glyph glyph-name="quotedblbase" unicode="&#x201e;" horiz-adv-x="751" 
d="M0 -406l129 723h240l-199 -723h-170zM332 -406l129 723h239l-200 -723h-168z" />
    <glyph glyph-name="dagger" unicode="&#x2020;" horiz-adv-x="1128" 
d="M444 1464h240v-356h344v-205h-344v-903h-240v903h-344v205h344v356z" />
    <glyph glyph-name="daggerdbl" unicode="&#x2021;" horiz-adv-x="1128" 
d="M444 1464h240v-356h344v-205h-344v-344h344v-205h-344v-354h-240v354h-344v205h344v344h-344v205h344v356z" />
    <glyph glyph-name="bullet" unicode="&#x2022;" horiz-adv-x="690" 
d="M80 582q0 116 74 191t190 75q117 0 191.5 -75t74.5 -191t-74.5 -190.5t-191.5 -74.5t-190.5 74.5t-73.5 190.5z" />
    <glyph glyph-name="ellipsis" unicode="&#x2026;" horiz-adv-x="1259" 
d="M80 0v254h260v-254h-260zM500 0v254h260v-254h-260zM920 0v254h260v-254h-260z" />
    <glyph glyph-name="perthousand" unicode="&#x2030;" horiz-adv-x="2670" 
d="M1585 350q0 104 -49 164.5t-137 60.5q-87 0 -137 -61t-50 -164t50 -164t137 -61q88 0 137 60.5t49 164.5zM2417 350q0 104 -49 164.5t-136 60.5q-88 0 -137 -60.5t-49 -164.5t49 -164.5t137 -60.5q87 0 136 60.5t49 164.5zM254 1114q0 -104 48.5 -164.5t135.5 -60.5
q88 0 137.5 60.5t49.5 164.5t-49.5 164.5t-137.5 60.5q-87 0 -135.5 -60.5t-48.5 -164.5zM299 0l1040 1464h199l-1038 -1464h-201zM1759 350q0 -168 -99 -272.5t-261 -104.5t-261.5 104.5t-99.5 272.5t99.5 271.5t261.5 103.5t261 -103.5t99 -271.5zM2591 350
q0 -168 -99.5 -272.5t-261.5 -104.5q-161 0 -259.5 104.5t-98.5 272.5t98.5 271.5t259.5 103.5q162 0 261.5 -103.5t99.5 -271.5zM80 1114q0 168 99 272.5t261 104.5q161 0 260 -104.5t99 -272.5t-99 -271.5t-260 -103.5q-162 0 -261 103.5t-99 271.5z" />
    <glyph glyph-name="guilsinglleft" unicode="&#x2039;" horiz-adv-x="825" 
d="M532 63l-483 502l483 498h261l-480 -498l480 -502h-261z" />
    <glyph glyph-name="guilsinglright" unicode="&#x203a;" horiz-adv-x="825" 
d="M293 63h-260l479 502l-479 498h260l483 -498z" />
    <glyph glyph-name="fraction" unicode="&#x2044;" horiz-adv-x="1400" 
d="M80 0l1042 1464h199l-1040 -1464h-201z" />
    <glyph glyph-name="uni2074" unicode="&#x2074;" horiz-adv-x="765" 
d="M221 1120h217v314zM45 971v143l350 506h213v-500h111v-149h-111v-154h-170v154h-393z" />
    <glyph glyph-name="Euro" unicode="&#x20ac;" horiz-adv-x="1642" 
d="M57 520v146h148v133h-148v145h168q54 256 233.5 401.5t442.5 145.5q271 0 450 -147.5t228 -413.5h-248q-38 169 -151.5 262.5t-280.5 93.5q-158 0 -270 -90t-156 -252h426v-145h-450q-3 -34 -3 -66q0 -33 3 -67h450v-146h-426q44 -162 156.5 -252t271.5 -90
q175 0 289.5 102t148.5 287h248q-41 -280 -223.5 -437t-462.5 -157q-265 0 -444.5 145.5t-233.5 401.5h-166z" />
    <glyph glyph-name="trademark" unicode="&#x2122;" horiz-adv-x="1687" 
d="M285 659v666h-244v139h653v-139h-250v-666h-159zM762 659v805h248l182 -659l180 659h246v-805h-158v601l-170 -601h-198l-170 601v-601h-160z" />
    <glyph glyph-name="minus" unicode="&#x2212;" 
d="M80 618v197h983v-197h-983z" />
    <glyph glyph-name="NULL" horiz-adv-x="0" 
 />
    <glyph glyph-name="cedilla2" horiz-adv-x="657" 
d="M80 -315l43 90q101 -58 199 -58q55 0 83.5 18.5t28.5 51.5q0 29 -22.5 46t-65.5 17q-39 0 -86 -14l-90 35l55 162h117l-43 -123q42 16 100 16q86 0 131 -39.5t45 -101.5q0 -72 -64 -124t-177 -52q-125 0 -254 76z" />
    <glyph glyph-name="commaccent" horiz-adv-x="389" 
d="M309 -10l-84 -572h-145l45 572h184z" />
    <glyph glyph-name="commaccent2" horiz-adv-x="438" 
d="M80 -432v4l67 313h211v-4l-116 -313h-162z" />
    <glyph glyph-name="commaccent3" horiz-adv-x="436" 
d="M356 408v-7l-65 -311h-211v4l119 314h157z" />
    <glyph glyph-name="dotaccent2" horiz-adv-x="391" 
d="M80 1210v234h231v-234h-231z" />
    <glyph glyph-name="ogonek2" horiz-adv-x="571" 
d="M395 80l11 -12q-78 -51 -132.5 -114t-54.5 -108q0 -79 180 -79q48 0 95 8v-162q-41 -8 -123 -8q-124 0 -207.5 43.5t-83.5 122.5q0 148 315 309z" />
    </font>
</defs>
</svg>
